G75*
G70*
%OFA0B0*%
%FSLAX24Y24*%
%IPPOS*%
%LPD*%
%AMOC8*
5,1,8,0,0,1.08239X$1,22.5*
%
%ADD10C,0.0000*%
%ADD11C,0.0080*%
%ADD12C,0.0060*%
%ADD13C,0.0050*%
%ADD14C,0.0040*%
D10*
X000180Y000180D02*
X000180Y020676D01*
X013550Y020676D01*
X013550Y000180D01*
X000180Y000180D01*
X009425Y016680D02*
X009427Y016750D01*
X009433Y016821D01*
X009443Y016890D01*
X009456Y016959D01*
X009474Y017027D01*
X009495Y017095D01*
X009521Y017160D01*
X009549Y017225D01*
X009582Y017287D01*
X009617Y017348D01*
X009656Y017406D01*
X009699Y017462D01*
X009744Y017516D01*
X009793Y017567D01*
X009844Y017616D01*
X009898Y017661D01*
X009954Y017704D01*
X010012Y017743D01*
X010073Y017778D01*
X010135Y017811D01*
X010200Y017839D01*
X010265Y017865D01*
X010333Y017886D01*
X010401Y017904D01*
X010470Y017917D01*
X010539Y017927D01*
X010610Y017933D01*
X010680Y017935D01*
X010750Y017933D01*
X010821Y017927D01*
X010890Y017917D01*
X010959Y017904D01*
X011027Y017886D01*
X011095Y017865D01*
X011160Y017839D01*
X011225Y017811D01*
X011287Y017778D01*
X011348Y017743D01*
X011406Y017704D01*
X011462Y017661D01*
X011516Y017616D01*
X011567Y017567D01*
X011616Y017516D01*
X011661Y017462D01*
X011704Y017406D01*
X011743Y017348D01*
X011778Y017287D01*
X011811Y017225D01*
X011839Y017160D01*
X011865Y017095D01*
X011886Y017027D01*
X011904Y016959D01*
X011917Y016890D01*
X011927Y016821D01*
X011933Y016750D01*
X011935Y016680D01*
X011933Y016610D01*
X011927Y016539D01*
X011917Y016470D01*
X011904Y016401D01*
X011886Y016333D01*
X011865Y016265D01*
X011839Y016200D01*
X011811Y016135D01*
X011778Y016073D01*
X011743Y016012D01*
X011704Y015954D01*
X011661Y015898D01*
X011616Y015844D01*
X011567Y015793D01*
X011516Y015744D01*
X011462Y015699D01*
X011406Y015656D01*
X011348Y015617D01*
X011287Y015582D01*
X011225Y015549D01*
X011160Y015521D01*
X011095Y015495D01*
X011027Y015474D01*
X010959Y015456D01*
X010890Y015443D01*
X010821Y015433D01*
X010750Y015427D01*
X010680Y015425D01*
X010610Y015427D01*
X010539Y015433D01*
X010470Y015443D01*
X010401Y015456D01*
X010333Y015474D01*
X010265Y015495D01*
X010200Y015521D01*
X010135Y015549D01*
X010073Y015582D01*
X010012Y015617D01*
X009954Y015656D01*
X009898Y015699D01*
X009844Y015744D01*
X009793Y015793D01*
X009744Y015844D01*
X009699Y015898D01*
X009656Y015954D01*
X009617Y016012D01*
X009582Y016073D01*
X009549Y016135D01*
X009521Y016200D01*
X009495Y016265D01*
X009474Y016333D01*
X009456Y016401D01*
X009443Y016470D01*
X009433Y016539D01*
X009427Y016610D01*
X009425Y016680D01*
D11*
X009117Y004334D02*
X007518Y004334D01*
X007518Y004215D01*
X006936Y004215D01*
X006936Y004334D01*
X005921Y004334D01*
X004439Y004334D01*
X001243Y004334D01*
X001243Y001026D01*
X009117Y001026D01*
X009117Y004334D01*
X008674Y003969D02*
X005921Y003969D01*
X005921Y003723D02*
X005921Y004334D01*
X005921Y003723D02*
X004439Y003723D01*
X004439Y004334D01*
X004439Y003969D02*
X001686Y003969D01*
X001686Y001391D01*
X008674Y001391D01*
X008674Y003969D01*
D12*
X006965Y004810D02*
X006965Y005037D01*
X006851Y005150D01*
X006738Y005037D01*
X006738Y004810D01*
X006597Y004867D02*
X006597Y005094D01*
X006540Y005150D01*
X006426Y005150D01*
X006370Y005094D01*
X006228Y005094D02*
X006228Y004867D01*
X006171Y004810D01*
X006058Y004810D01*
X006001Y004867D01*
X005860Y004810D02*
X005860Y005150D01*
X005633Y005150D01*
X005492Y005094D02*
X005492Y005037D01*
X005435Y004980D01*
X005321Y004980D01*
X005265Y004923D01*
X005265Y004867D01*
X005321Y004810D01*
X005435Y004810D01*
X005492Y004867D01*
X005633Y004810D02*
X005860Y004810D01*
X005860Y004980D02*
X005746Y004980D01*
X005492Y005094D02*
X005435Y005150D01*
X005321Y005150D01*
X005265Y005094D01*
X005123Y005094D02*
X005123Y005037D01*
X005067Y004980D01*
X004953Y004980D01*
X004896Y004923D01*
X004896Y004867D01*
X004953Y004810D01*
X005067Y004810D01*
X005123Y004867D01*
X005123Y005094D02*
X005067Y005150D01*
X004953Y005150D01*
X004896Y005094D01*
X004755Y005094D02*
X004755Y004867D01*
X004698Y004810D01*
X004585Y004810D01*
X004528Y004867D01*
X004528Y005094D01*
X004585Y005150D01*
X004698Y005150D01*
X004755Y005094D01*
X004387Y005150D02*
X004387Y004810D01*
X004387Y004923D02*
X004216Y004923D01*
X004160Y004980D01*
X004160Y005094D01*
X004216Y005150D01*
X004387Y005150D01*
X004273Y004923D02*
X004160Y004810D01*
X003905Y004810D02*
X003905Y004980D01*
X003791Y005094D01*
X003791Y005150D01*
X003905Y004980D02*
X004018Y005094D01*
X004018Y005150D01*
X006001Y005094D02*
X006058Y005150D01*
X006171Y005150D01*
X006228Y005094D01*
X006370Y004867D02*
X006426Y004810D01*
X006540Y004810D01*
X006597Y004867D01*
X006738Y004980D02*
X006965Y004980D01*
D13*
X006630Y006930D02*
X003080Y006930D01*
X001480Y008530D01*
X001480Y018080D01*
X001480Y018030D02*
X001480Y018280D01*
X002930Y019730D01*
X005730Y019730D01*
X005680Y019730D02*
X006630Y019730D01*
X008480Y017880D01*
X008480Y008830D01*
X008480Y008780D02*
X006630Y006930D01*
X006180Y007580D02*
X006180Y008230D01*
X006480Y007930D02*
X005880Y007930D01*
X006080Y018180D02*
X006080Y018830D01*
D14*
X001984Y014659D02*
X002060Y014582D01*
X002060Y014429D01*
X001984Y014352D01*
X001984Y014198D02*
X001907Y014198D01*
X001830Y014122D01*
X001753Y014198D01*
X001677Y014198D01*
X001600Y014122D01*
X001600Y013968D01*
X001677Y013892D01*
X001677Y013738D02*
X001600Y013661D01*
X001600Y013508D01*
X001677Y013431D01*
X001984Y013738D01*
X001677Y013738D01*
X001677Y013431D02*
X001984Y013431D01*
X002060Y013508D01*
X002060Y013661D01*
X001984Y013738D01*
X001984Y013892D02*
X002060Y013968D01*
X002060Y014122D01*
X001984Y014198D01*
X001830Y014122D02*
X001830Y014045D01*
X001600Y014352D02*
X001907Y014659D01*
X001984Y014659D01*
X001600Y014659D02*
X001600Y014352D01*
X001600Y013278D02*
X001600Y012971D01*
X001907Y013278D01*
X001984Y013278D01*
X002060Y013201D01*
X002060Y013048D01*
X001984Y012971D01*
X001984Y012817D02*
X001830Y012817D01*
X001753Y012741D01*
X001753Y012510D01*
X001600Y012510D02*
X002060Y012510D01*
X002060Y012741D01*
X001984Y012817D01*
X001753Y012664D02*
X001600Y012817D01*
X001677Y012357D02*
X001600Y012280D01*
X001600Y012127D01*
X001677Y012050D01*
X001984Y012050D01*
X002060Y012127D01*
X002060Y012280D01*
X001984Y012357D01*
M02*
