G75*
G70*
%OFA0B0*%
%FSLAX24Y24*%
%IPPOS*%
%LPD*%
%AMOC8*
5,1,8,0,0,1.08239X$1,22.5*
%
%ADD10C,0.0594*%
%ADD11R,0.0591X0.0591*%
%ADD12OC8,0.0650*%
%ADD13R,0.1000X0.1000*%
%ADD14C,0.0100*%
D10*
X003180Y002180D03*
X003180Y003180D03*
X004180Y003180D03*
X004180Y002180D03*
X005180Y002180D03*
X005180Y003180D03*
X006180Y003180D03*
X006180Y002180D03*
X007180Y002180D03*
X007180Y003180D03*
D11*
X009680Y002991D03*
X009680Y004369D03*
D12*
X007180Y005680D03*
X006180Y005680D03*
X005180Y005680D03*
X004180Y005680D03*
X003180Y005680D03*
X002180Y005680D03*
D13*
X001180Y012080D03*
X010180Y012080D03*
D14*
X002180Y005680D02*
X002180Y001680D01*
X004680Y001680D01*
X005180Y002180D01*
X004180Y002180D02*
X003680Y002680D01*
X003680Y005180D01*
X003180Y005680D01*
X005180Y005680D02*
X005180Y005180D01*
X006680Y003680D01*
X006680Y002680D01*
X007180Y002180D01*
X007180Y003180D02*
X009680Y003180D01*
X009680Y002991D01*
X009680Y004180D02*
X009680Y004369D01*
X009680Y004180D02*
X007180Y004180D01*
X007180Y005680D01*
M02*
