%
M48
M72
T01C0.0240
T02C0.0320
T03C0.0354
T04C0.0390
T05C0.0394
T06C0.0400
T07C0.0433
T08C0.0440
T09C0.0866
T10C0.1260
T11C0.1300
%
T01
X11180Y14180
X11180Y15180
X14680Y18680
X14680Y20680
X15180Y21180
X10680Y20680
X10180Y21180
X5180Y20180
X16680Y15680
X17180Y16680
X17180Y25180
X25180Y26680
X28180Y26680
X31180Y19680
X36180Y10180
T02
X18180Y10180
X18180Y9180
X24680Y9180
X24680Y10180
X26680Y14180
X27680Y14180
X28680Y14180
X30680Y13180
X31680Y13180
X34680Y11680
X35680Y11680
X33180Y9180
X33180Y8180
X38180Y8180
X38180Y9180
X28680Y17180
X27680Y17180
X26680Y17180
X25180Y29680
X25180Y30680
X23130Y29680
X21230Y29680
X18680Y29680
X18680Y30680
T03
X16680Y9180
X19680Y10180
X22680Y10180
X25680Y9180
X22680Y6180
X19680Y6180
X16680Y5180
X25680Y5180
T04
X18680Y20180
X19680Y20180
X20680Y20180
X21680Y20180
X22680Y20180
X23680Y20180
X24680Y20180
X25680Y20180
X26680Y20180
X27680Y20180
X28680Y20180
X29680Y20180
X30680Y20180
X31680Y20180
X32680Y20180
X33680Y20180
X34680Y20180
X35680Y20180
X36680Y20180
X37680Y20180
X37680Y26180
X36680Y26180
X35680Y26180
X34680Y26180
X33680Y26180
X32680Y26180
X31680Y26180
X30680Y26180
X29680Y26180
X28680Y26180
X27680Y26180
X26680Y26180
X25680Y26180
X24680Y26180
X23680Y26180
X22680Y26180
X21680Y26180
X20680Y26180
X19680Y26180
X18680Y26180
T05
X2680Y15180
X3680Y15180
X3680Y16180
X2680Y16180
X2680Y17180
X3680Y17180
X3680Y18180
X2680Y18180
X2680Y19180
X3680Y19180
X35589Y30074
X37558Y30074
T06
X18680Y27680
X19680Y27680
X20680Y27680
X21680Y27680
X22680Y27680
X23680Y27680
X24680Y27680
X25680Y27680
X26680Y27680
X27680Y27680
X28680Y27680
X29680Y27680
X30680Y27680
X31680Y27680
X32680Y27680
X33680Y27680
X34680Y27680
X35680Y27680
X36680Y27680
X37680Y27680
X33180Y30180
X32180Y30180
X31180Y30180
X30180Y30180
X29180Y30180
X28180Y30180
X27680Y18680
X26680Y18680
X25680Y18680
X24680Y18680
X23680Y18680
X22680Y18680
X21680Y18680
X20680Y18680
X19680Y18680
X18680Y18680
X18180Y11680
X19180Y11680
X20180Y11680
X21180Y11680
X22180Y11680
X23180Y11680
X24180Y11680
X27680Y7180
X27680Y6180
X29680Y6180
X30680Y6180
X30680Y5180
X29680Y5180
X29680Y7180
X30680Y7180
X34680Y8180
X35680Y8180
X36680Y8180
X38180Y10180
X38180Y11180
X38180Y12180
X38180Y13180
X38180Y14180
X38180Y15180
X37680Y18680
X36680Y18680
X35680Y18680
X34680Y18680
X33680Y18680
X32680Y18680
X31680Y18680
X30680Y18680
X29680Y18680
X28680Y18680
X18180Y3680
X19180Y3680
X20180Y3680
X21180Y3680
X22180Y3680
X23180Y3680
X24180Y3680
T07
X28991Y2141
X30369Y2141
T08
X15180Y1680
X19180Y1680
X22680Y1680
X26680Y1680
T09
X3410Y2090
X8420Y2080
T10
X3430Y11430
X12930Y11430
T11
X35680Y2280
M30
