%
M48
M72
T01C0.0240
T02C0.0320
T03C0.0354
T04C0.0394
T05C0.0400
T06C0.0433
T07C0.0440
T08C0.0530
T09C0.1260
T10C0.1300
%
T01
X9600Y9160
X17600Y14660
X15600Y16160
X15600Y17160
X16100Y21160
X14600Y21160
X13100Y26660
X13100Y30660
X4100Y30660
X6100Y18160
X6100Y17160
X18600Y12660
X33600Y29660
X31100Y29660
T02
X17600Y30660
X17600Y29660
X19900Y30160
X21800Y30160
X23600Y29660
X23600Y30660
X27600Y28910
X28600Y28910
X31600Y28910
X32600Y28910
X32600Y26160
X33600Y26160
X34600Y26160
X35600Y26160
X36600Y26160
X37600Y26160
X39100Y25910
X39100Y24910
X37600Y20160
X36600Y20160
X35600Y20160
X34600Y20160
X33600Y20160
X32600Y20160
X31600Y20160
X30600Y20160
X29600Y20160
X28600Y20160
X27600Y20160
X26600Y20160
X25600Y20160
X24600Y20160
X23600Y20160
X22600Y20160
X21600Y20160
X20600Y20160
X19600Y20160
X18600Y20160
X25350Y17160
X26350Y17160
X27350Y17160
X29600Y17410
X29600Y16410
X29600Y14160
X30600Y14160
X27350Y14160
X26350Y14160
X25350Y14160
X24600Y10160
X24600Y9160
X18100Y9160
X18100Y10160
X18600Y26160
X19600Y26160
X20600Y26160
X21600Y26160
X22600Y26160
X23600Y26160
X24600Y26160
X25600Y26160
X26600Y26160
X27600Y26160
X28600Y26160
X29600Y26160
X30600Y26160
X31600Y26160
X34600Y11660
X35600Y11660
X33600Y9160
X33600Y8160
X38100Y8160
X38100Y9160
T03
X16600Y9160
X19600Y10160
X22600Y10160
X25600Y9160
X22600Y6160
X25600Y5160
X19600Y6160
X16600Y5160
T04
X6600Y6660
X7600Y6660
X8600Y6660
X9600Y6660
X10600Y6660
X10600Y7660
X9600Y7660
X8600Y7660
X7600Y7660
X6600Y7660
T05
X3330Y2070
X8340Y2060
X18100Y3660
X19100Y3660
X20100Y3660
X21100Y3660
X22100Y3660
X23100Y3660
X24100Y3660
X27600Y6160
X27600Y7160
X29600Y7160
X29600Y6160
X29600Y5160
X30600Y5160
X30600Y6160
X30600Y7160
X34600Y8160
X35600Y8160
X36600Y8160
X38350Y10410
X38350Y11410
X38350Y12410
X38350Y13410
X38350Y14410
X38350Y15410
X37600Y18660
X36600Y18660
X35600Y18660
X34600Y18660
X33600Y18660
X32600Y18660
X31600Y18660
X30600Y18660
X29600Y18660
X28600Y18660
X27600Y18660
X26600Y18660
X25600Y18660
X24600Y18660
X23600Y18660
X22600Y18660
X21600Y18660
X20600Y18660
X19600Y18660
X18600Y18660
X18100Y11660
X19100Y11660
X20100Y11660
X21100Y11660
X22100Y11660
X23100Y11660
X24100Y11660
X18600Y27660
X19600Y27660
X20600Y27660
X21600Y27660
X22600Y27660
X23600Y27660
X24600Y27660
X25600Y27660
X26600Y27660
X27600Y27660
X28600Y27660
X29600Y27660
X30600Y27660
X31600Y27660
X32600Y27660
X33600Y27660
X34600Y27660
X35600Y27660
X36600Y27660
X37600Y27660
X34600Y30660
X33600Y30660
X32600Y30660
X31600Y30660
X30600Y30660
X29600Y30660
T06
X28911Y2121
X30289Y2121
T07
X15100Y2160
X19100Y2160
X23100Y2160
X27100Y2160
T08
X39100Y27660
X39100Y30160
T09
X3350Y11410
X12850Y11410
T10
X35600Y2260
M30
