G75*
G70*
%OFA0B0*%
%FSLAX24Y24*%
%IPPOS*%
%LPD*%
%AMOC8*
5,1,8,0,0,1.08239X$1,22.5*
%
%ADD10R,0.0670X0.0670*%
%ADD11C,0.0670*%
%ADD12C,0.0749*%
%ADD13OC8,0.0880*%
%ADD14C,0.0674*%
%ADD15R,0.0880X0.0880*%
%ADD16C,0.0600*%
%ADD17OC8,0.0710*%
%ADD18C,0.0680*%
%ADD19OC8,0.0840*%
%ADD20C,0.0680*%
%ADD21OC8,0.0680*%
%ADD22OC8,0.0674*%
%ADD23C,0.1380*%
%ADD24R,0.0671X0.0671*%
%ADD25C,0.1580*%
%ADD26C,0.1340*%
%ADD27C,0.0600*%
%ADD28C,0.0480*%
D10*
X037680Y026180D03*
D11*
X036680Y026180D03*
X035680Y026180D03*
X034680Y026180D03*
X033680Y026180D03*
X032680Y026180D03*
X031680Y026180D03*
X030680Y026180D03*
X029680Y026180D03*
X028680Y026180D03*
X027680Y026180D03*
X026680Y026180D03*
X025680Y026180D03*
X024680Y026180D03*
X023680Y026180D03*
X022680Y026180D03*
X021680Y026180D03*
X020680Y026180D03*
X019680Y026180D03*
X018680Y026180D03*
X018680Y020180D03*
X019680Y020180D03*
X020680Y020180D03*
X021680Y020180D03*
X022680Y020180D03*
X023680Y020180D03*
X024680Y020180D03*
X025680Y020180D03*
X026680Y020180D03*
X027680Y020180D03*
X028680Y020180D03*
X029680Y020180D03*
X030680Y020180D03*
X031680Y020180D03*
X032680Y020180D03*
X033680Y020180D03*
X034680Y020180D03*
X035680Y020180D03*
X036680Y020180D03*
X037680Y020180D03*
D12*
X030369Y002141D03*
X028991Y002141D03*
D13*
X027680Y006180D03*
X027680Y007180D03*
X024180Y003680D03*
X023180Y003680D03*
X022180Y003680D03*
X021180Y003680D03*
X020180Y003680D03*
X019180Y003680D03*
X018180Y003680D03*
X018180Y011680D03*
X019180Y011680D03*
X020180Y011680D03*
X021180Y011680D03*
X022180Y011680D03*
X023180Y011680D03*
X024180Y011680D03*
D14*
X003680Y015180D03*
X002680Y015180D03*
X002680Y016180D03*
X003680Y016180D03*
X003680Y017180D03*
X002680Y017180D03*
X002680Y018180D03*
X003680Y018180D03*
X003680Y019180D03*
X002680Y019180D03*
D15*
X005180Y025680D03*
X005180Y026680D03*
X005180Y027680D03*
X005180Y028680D03*
X005180Y029680D03*
X005180Y030680D03*
X012180Y030680D03*
X012180Y029680D03*
X012180Y028680D03*
X012180Y027680D03*
X012180Y026680D03*
X012180Y025680D03*
D16*
X021230Y029680D03*
X023130Y029680D03*
D17*
X025180Y029680D03*
X025180Y030680D03*
X018680Y030680D03*
X018680Y029680D03*
X030680Y013180D03*
X031680Y013180D03*
X034680Y011680D03*
X035680Y011680D03*
X033180Y009180D03*
X033180Y008180D03*
X038180Y008180D03*
X038180Y009180D03*
X025680Y009180D03*
X024680Y009180D03*
X024680Y010180D03*
X022680Y010180D03*
X019680Y010180D03*
X018180Y010180D03*
X018180Y009180D03*
X016680Y009180D03*
X019680Y006180D03*
X022680Y006180D03*
X025680Y005180D03*
X016680Y005180D03*
D18*
X018680Y018380D02*
X018680Y018980D01*
X019680Y018980D02*
X019680Y018380D01*
X020680Y018380D02*
X020680Y018980D01*
X021680Y018980D02*
X021680Y018380D01*
X022680Y018380D02*
X022680Y018980D01*
X023680Y018980D02*
X023680Y018380D01*
X024680Y018380D02*
X024680Y018980D01*
X025680Y018980D02*
X025680Y018380D01*
X026680Y018380D02*
X026680Y018980D01*
X027680Y018980D02*
X027680Y018380D01*
X028680Y018380D02*
X028680Y018980D01*
X029680Y018980D02*
X029680Y018380D01*
X030680Y018380D02*
X030680Y018980D01*
X031680Y018980D02*
X031680Y018380D01*
X032680Y018380D02*
X032680Y018980D01*
X033680Y018980D02*
X033680Y018380D01*
X034680Y018380D02*
X034680Y018980D01*
X035680Y018980D02*
X035680Y018380D01*
X036680Y018380D02*
X036680Y018980D01*
X037680Y018980D02*
X037680Y018380D01*
X037880Y015180D02*
X038480Y015180D01*
X038480Y014180D02*
X037880Y014180D01*
X037880Y013180D02*
X038480Y013180D01*
X038480Y012180D02*
X037880Y012180D01*
X037880Y011180D02*
X038480Y011180D01*
X038480Y010180D02*
X037880Y010180D01*
X036680Y008480D02*
X036680Y007880D01*
X035680Y007880D02*
X035680Y008480D01*
X034680Y008480D02*
X034680Y007880D01*
X034680Y027380D02*
X034680Y027980D01*
X035680Y027980D02*
X035680Y027380D01*
X036680Y027380D02*
X036680Y027980D01*
X037680Y027980D02*
X037680Y027380D01*
X033680Y027380D02*
X033680Y027980D01*
X032680Y027980D02*
X032680Y027380D01*
X031680Y027380D02*
X031680Y027980D01*
X030680Y027980D02*
X030680Y027380D01*
X029680Y027380D02*
X029680Y027980D01*
X028680Y027980D02*
X028680Y027380D01*
X027680Y027380D02*
X027680Y027980D01*
X026680Y027980D02*
X026680Y027380D01*
X025680Y027380D02*
X025680Y027980D01*
X024680Y027980D02*
X024680Y027380D01*
X023680Y027380D02*
X023680Y027980D01*
X022680Y027980D02*
X022680Y027380D01*
X021680Y027380D02*
X021680Y027980D01*
X020680Y027980D02*
X020680Y027380D01*
X019680Y027380D02*
X019680Y027980D01*
X018680Y027980D02*
X018680Y027380D01*
X028180Y029880D02*
X028180Y030480D01*
X029180Y030480D02*
X029180Y029880D01*
X030180Y029880D02*
X030180Y030480D01*
X031180Y030480D02*
X031180Y029880D01*
X032180Y029880D02*
X032180Y030480D01*
X033180Y030480D02*
X033180Y029880D01*
D19*
X026680Y001680D03*
X022680Y001680D03*
X019180Y001680D03*
X015180Y001680D03*
D20*
X029680Y007180D03*
D21*
X030680Y007180D03*
X030680Y006180D03*
X029680Y006180D03*
X029680Y005180D03*
X030680Y005180D03*
D22*
X035589Y030074D03*
X037558Y030074D03*
D23*
X035680Y002280D03*
D24*
X035680Y015991D03*
X034680Y015991D03*
X033680Y015991D03*
X032680Y015991D03*
X031680Y015991D03*
X031680Y017369D03*
X032680Y017369D03*
X033680Y017369D03*
X034680Y017369D03*
X035680Y017369D03*
X026680Y029491D03*
X026680Y030869D03*
D25*
X003410Y002090D03*
X008420Y002080D03*
D26*
X012930Y011430D03*
X003430Y011430D03*
D27*
X026680Y013920D02*
X026680Y014440D01*
X027680Y014440D02*
X027680Y013920D01*
X028680Y013920D02*
X028680Y014440D01*
X028680Y016920D02*
X028680Y017440D01*
X027680Y017440D02*
X027680Y016920D01*
X026680Y016920D02*
X026680Y017440D01*
D28*
X031180Y019680D03*
X028180Y026680D03*
X025180Y026680D03*
X017180Y025180D03*
X015180Y021180D03*
X014680Y020680D03*
X014680Y018680D03*
X017180Y016680D03*
X016680Y015680D03*
X011180Y015180D03*
X011180Y014180D03*
X005180Y020180D03*
X010180Y021180D03*
X010680Y020680D03*
X036180Y010180D03*
M02*
