G75*
G70*
%OFA0B0*%
%FSLAX24Y24*%
%IPPOS*%
%LPD*%
%AMOC8*
5,1,8,0,0,1.08239X$1,22.5*
%
%ADD10C,0.0749*%
%ADD11OC8,0.0880*%
%ADD12C,0.0674*%
%ADD13R,0.0880X0.0880*%
%ADD14C,0.0600*%
%ADD15OC8,0.0710*%
%ADD16OC8,0.0840*%
%ADD17C,0.0680*%
%ADD18OC8,0.0680*%
%ADD19C,0.0680*%
%ADD20C,0.1380*%
%ADD21R,0.0671X0.0671*%
%ADD22C,0.1340*%
%ADD23C,0.0600*%
%ADD24OC8,0.0580*%
%ADD25C,0.0875*%
%ADD26R,0.0710X0.0790*%
%ADD27R,0.0790X0.0710*%
%ADD28C,0.0480*%
D10*
X028911Y002121D03*
X030289Y002121D03*
D11*
X003330Y002070D03*
X008340Y002060D03*
X018100Y003660D03*
X019100Y003660D03*
X020100Y003660D03*
X021100Y003660D03*
X022100Y003660D03*
X023100Y003660D03*
X024100Y003660D03*
X027600Y006160D03*
X027600Y007160D03*
X024100Y011660D03*
X023100Y011660D03*
X022100Y011660D03*
X021100Y011660D03*
X020100Y011660D03*
X019100Y011660D03*
X018100Y011660D03*
X038350Y011410D03*
X038350Y010410D03*
X038350Y012410D03*
X038350Y013410D03*
X038350Y014410D03*
X038350Y015410D03*
X034600Y030660D03*
X033600Y030660D03*
X032600Y030660D03*
X031600Y030660D03*
X030600Y030660D03*
X029600Y030660D03*
D12*
X010600Y007660D03*
X009600Y007660D03*
X008600Y007660D03*
X007600Y007660D03*
X006600Y007660D03*
X006600Y006660D03*
X007600Y006660D03*
X008600Y006660D03*
X009600Y006660D03*
X010600Y006660D03*
D13*
X012100Y025660D03*
X012100Y026660D03*
X012100Y027660D03*
X012100Y028660D03*
X012100Y029660D03*
X012100Y030660D03*
X005100Y030660D03*
X005100Y029660D03*
X005100Y028660D03*
X005100Y027660D03*
X005100Y026660D03*
X005100Y025660D03*
D14*
X019900Y030160D03*
X021800Y030160D03*
D15*
X023600Y029660D03*
X023600Y030660D03*
X027600Y028910D03*
X028600Y028910D03*
X031600Y028910D03*
X032600Y028910D03*
X039100Y025910D03*
X039100Y024910D03*
X029600Y017410D03*
X029600Y016410D03*
X029600Y014160D03*
X030600Y014160D03*
X034600Y011660D03*
X035600Y011660D03*
X033600Y009160D03*
X033600Y008160D03*
X038100Y008160D03*
X038100Y009160D03*
X025600Y009160D03*
X024600Y009160D03*
X024600Y010160D03*
X022600Y010160D03*
X019600Y010160D03*
X018100Y010160D03*
X018100Y009160D03*
X016600Y009160D03*
X019600Y006160D03*
X016600Y005160D03*
X022600Y006160D03*
X025600Y005160D03*
X017600Y029660D03*
X017600Y030660D03*
D16*
X019100Y002160D03*
X015100Y002160D03*
X023100Y002160D03*
X027100Y002160D03*
D17*
X029600Y007160D03*
D18*
X029600Y006160D03*
X029600Y005160D03*
X030600Y005160D03*
X030600Y006160D03*
X030600Y007160D03*
D19*
X034600Y007860D02*
X034600Y008460D01*
X035600Y008460D02*
X035600Y007860D01*
X036600Y007860D02*
X036600Y008460D01*
X036600Y018360D02*
X036600Y018960D01*
X037600Y018960D02*
X037600Y018360D01*
X035600Y018360D02*
X035600Y018960D01*
X034600Y018960D02*
X034600Y018360D01*
X033600Y018360D02*
X033600Y018960D01*
X032600Y018960D02*
X032600Y018360D01*
X031600Y018360D02*
X031600Y018960D01*
X030600Y018960D02*
X030600Y018360D01*
X029600Y018360D02*
X029600Y018960D01*
X028600Y018960D02*
X028600Y018360D01*
X027600Y018360D02*
X027600Y018960D01*
X026600Y018960D02*
X026600Y018360D01*
X025600Y018360D02*
X025600Y018960D01*
X024600Y018960D02*
X024600Y018360D01*
X023600Y018360D02*
X023600Y018960D01*
X022600Y018960D02*
X022600Y018360D01*
X021600Y018360D02*
X021600Y018960D01*
X020600Y018960D02*
X020600Y018360D01*
X019600Y018360D02*
X019600Y018960D01*
X018600Y018960D02*
X018600Y018360D01*
X018600Y027360D02*
X018600Y027960D01*
X019600Y027960D02*
X019600Y027360D01*
X020600Y027360D02*
X020600Y027960D01*
X021600Y027960D02*
X021600Y027360D01*
X022600Y027360D02*
X022600Y027960D01*
X023600Y027960D02*
X023600Y027360D01*
X024600Y027360D02*
X024600Y027960D01*
X025600Y027960D02*
X025600Y027360D01*
X026600Y027360D02*
X026600Y027960D01*
X027600Y027960D02*
X027600Y027360D01*
X028600Y027360D02*
X028600Y027960D01*
X029600Y027960D02*
X029600Y027360D01*
X030600Y027360D02*
X030600Y027960D01*
X031600Y027960D02*
X031600Y027360D01*
X032600Y027360D02*
X032600Y027960D01*
X033600Y027960D02*
X033600Y027360D01*
X034600Y027360D02*
X034600Y027960D01*
X035600Y027960D02*
X035600Y027360D01*
X036600Y027360D02*
X036600Y027960D01*
X037600Y027960D02*
X037600Y027360D01*
D20*
X035600Y002260D03*
D21*
X035600Y013471D03*
X034600Y013471D03*
X033600Y013471D03*
X032600Y013471D03*
X031600Y013471D03*
X031600Y014849D03*
X032600Y014849D03*
X033600Y014849D03*
X034600Y014849D03*
X035600Y014849D03*
X026039Y030910D03*
X024661Y030910D03*
D22*
X012850Y011410D03*
X003350Y011410D03*
D23*
X018600Y019900D02*
X018600Y020420D01*
X019600Y020420D02*
X019600Y019900D01*
X020600Y019900D02*
X020600Y020420D01*
X021600Y020420D02*
X021600Y019900D01*
X022600Y019900D02*
X022600Y020420D01*
X023600Y020420D02*
X023600Y019900D01*
X024600Y019900D02*
X024600Y020420D01*
X025600Y020420D02*
X025600Y019900D01*
X026600Y019900D02*
X026600Y020420D01*
X027600Y020420D02*
X027600Y019900D01*
X028600Y019900D02*
X028600Y020420D01*
X029600Y020420D02*
X029600Y019900D01*
X030600Y019900D02*
X030600Y020420D01*
X031600Y020420D02*
X031600Y019900D01*
X032600Y019900D02*
X032600Y020420D01*
X033600Y020420D02*
X033600Y019900D01*
X034600Y019900D02*
X034600Y020420D01*
X035600Y020420D02*
X035600Y019900D01*
X036600Y019900D02*
X036600Y020420D01*
X037600Y020420D02*
X037600Y019900D01*
X037600Y025900D02*
X037600Y026420D01*
X036600Y026420D02*
X036600Y025900D01*
X035600Y025900D02*
X035600Y026420D01*
X034600Y026420D02*
X034600Y025900D01*
X033600Y025900D02*
X033600Y026420D01*
X032600Y026420D02*
X032600Y025900D01*
X031600Y025900D02*
X031600Y026420D01*
X030600Y026420D02*
X030600Y025900D01*
X029600Y025900D02*
X029600Y026420D01*
X028600Y026420D02*
X028600Y025900D01*
X027600Y025900D02*
X027600Y026420D01*
X026600Y026420D02*
X026600Y025900D01*
X025600Y025900D02*
X025600Y026420D01*
X024600Y026420D02*
X024600Y025900D01*
X023600Y025900D02*
X023600Y026420D01*
X022600Y026420D02*
X022600Y025900D01*
X021600Y025900D02*
X021600Y026420D01*
X020600Y026420D02*
X020600Y025900D01*
X019600Y025900D02*
X019600Y026420D01*
X018600Y026420D02*
X018600Y025900D01*
X025350Y017420D02*
X025350Y016900D01*
X026350Y016900D02*
X026350Y017420D01*
X027350Y017420D02*
X027350Y016900D01*
X027350Y014420D02*
X027350Y013900D01*
X026350Y013900D02*
X026350Y014420D01*
X025350Y014420D02*
X025350Y013900D01*
D24*
X013100Y026660D03*
X013100Y030660D03*
X004100Y030660D03*
D25*
X039100Y030557D02*
X039100Y029763D01*
X039100Y028057D02*
X039100Y027263D01*
D26*
X037410Y029160D03*
X036290Y029160D03*
X036290Y030410D03*
X037410Y030410D03*
X028410Y030660D03*
X027290Y030660D03*
D27*
X031600Y017220D03*
X032600Y017220D03*
X033600Y017220D03*
X034600Y017220D03*
X035600Y017220D03*
X035600Y016100D03*
X034600Y016100D03*
X033600Y016100D03*
X032600Y016100D03*
X031600Y016100D03*
D28*
X018600Y012660D03*
X017600Y014660D03*
X015600Y016160D03*
X015600Y017160D03*
X016100Y021160D03*
X014600Y021160D03*
X006100Y018160D03*
X006100Y017160D03*
X009600Y009160D03*
X031100Y029660D03*
X033600Y029660D03*
M02*
