G75*
G70*
%OFA0B0*%
%FSLAX24Y24*%
%IPPOS*%
%LPD*%
%AMOC8*
5,1,8,0,0,1.08239X$1,22.5*
%
%ADD10C,0.0000*%
D10*
X000100Y000160D02*
X000100Y031656D01*
X039970Y031656D01*
X039970Y000160D01*
X000100Y000160D01*
X002720Y011410D02*
X002722Y011460D01*
X002728Y011510D01*
X002738Y011559D01*
X002752Y011607D01*
X002769Y011654D01*
X002790Y011699D01*
X002815Y011743D01*
X002843Y011784D01*
X002875Y011823D01*
X002909Y011860D01*
X002946Y011894D01*
X002986Y011924D01*
X003028Y011951D01*
X003072Y011975D01*
X003118Y011996D01*
X003165Y012012D01*
X003213Y012025D01*
X003263Y012034D01*
X003312Y012039D01*
X003363Y012040D01*
X003413Y012037D01*
X003462Y012030D01*
X003511Y012019D01*
X003559Y012004D01*
X003605Y011986D01*
X003650Y011964D01*
X003693Y011938D01*
X003734Y011909D01*
X003773Y011877D01*
X003809Y011842D01*
X003841Y011804D01*
X003871Y011764D01*
X003898Y011721D01*
X003921Y011677D01*
X003940Y011631D01*
X003956Y011583D01*
X003968Y011534D01*
X003976Y011485D01*
X003980Y011435D01*
X003980Y011385D01*
X003976Y011335D01*
X003968Y011286D01*
X003956Y011237D01*
X003940Y011189D01*
X003921Y011143D01*
X003898Y011099D01*
X003871Y011056D01*
X003841Y011016D01*
X003809Y010978D01*
X003773Y010943D01*
X003734Y010911D01*
X003693Y010882D01*
X003650Y010856D01*
X003605Y010834D01*
X003559Y010816D01*
X003511Y010801D01*
X003462Y010790D01*
X003413Y010783D01*
X003363Y010780D01*
X003312Y010781D01*
X003263Y010786D01*
X003213Y010795D01*
X003165Y010808D01*
X003118Y010824D01*
X003072Y010845D01*
X003028Y010869D01*
X002986Y010896D01*
X002946Y010926D01*
X002909Y010960D01*
X002875Y010997D01*
X002843Y011036D01*
X002815Y011077D01*
X002790Y011121D01*
X002769Y011166D01*
X002752Y011213D01*
X002738Y011261D01*
X002728Y011310D01*
X002722Y011360D01*
X002720Y011410D01*
X012220Y011410D02*
X012222Y011460D01*
X012228Y011510D01*
X012238Y011559D01*
X012252Y011607D01*
X012269Y011654D01*
X012290Y011699D01*
X012315Y011743D01*
X012343Y011784D01*
X012375Y011823D01*
X012409Y011860D01*
X012446Y011894D01*
X012486Y011924D01*
X012528Y011951D01*
X012572Y011975D01*
X012618Y011996D01*
X012665Y012012D01*
X012713Y012025D01*
X012763Y012034D01*
X012812Y012039D01*
X012863Y012040D01*
X012913Y012037D01*
X012962Y012030D01*
X013011Y012019D01*
X013059Y012004D01*
X013105Y011986D01*
X013150Y011964D01*
X013193Y011938D01*
X013234Y011909D01*
X013273Y011877D01*
X013309Y011842D01*
X013341Y011804D01*
X013371Y011764D01*
X013398Y011721D01*
X013421Y011677D01*
X013440Y011631D01*
X013456Y011583D01*
X013468Y011534D01*
X013476Y011485D01*
X013480Y011435D01*
X013480Y011385D01*
X013476Y011335D01*
X013468Y011286D01*
X013456Y011237D01*
X013440Y011189D01*
X013421Y011143D01*
X013398Y011099D01*
X013371Y011056D01*
X013341Y011016D01*
X013309Y010978D01*
X013273Y010943D01*
X013234Y010911D01*
X013193Y010882D01*
X013150Y010856D01*
X013105Y010834D01*
X013059Y010816D01*
X013011Y010801D01*
X012962Y010790D01*
X012913Y010783D01*
X012863Y010780D01*
X012812Y010781D01*
X012763Y010786D01*
X012713Y010795D01*
X012665Y010808D01*
X012618Y010824D01*
X012572Y010845D01*
X012528Y010869D01*
X012486Y010896D01*
X012446Y010926D01*
X012409Y010960D01*
X012375Y010997D01*
X012343Y011036D01*
X012315Y011077D01*
X012290Y011121D01*
X012269Y011166D01*
X012252Y011213D01*
X012238Y011261D01*
X012228Y011310D01*
X012222Y011360D01*
X012220Y011410D01*
X034950Y002260D02*
X034952Y002310D01*
X034958Y002360D01*
X034968Y002410D01*
X034981Y002458D01*
X034998Y002506D01*
X035019Y002552D01*
X035043Y002596D01*
X035071Y002638D01*
X035102Y002678D01*
X035136Y002715D01*
X035173Y002750D01*
X035212Y002781D01*
X035253Y002810D01*
X035297Y002835D01*
X035343Y002857D01*
X035390Y002875D01*
X035438Y002889D01*
X035487Y002900D01*
X035537Y002907D01*
X035587Y002910D01*
X035638Y002909D01*
X035688Y002904D01*
X035738Y002895D01*
X035786Y002883D01*
X035834Y002866D01*
X035880Y002846D01*
X035925Y002823D01*
X035968Y002796D01*
X036008Y002766D01*
X036046Y002733D01*
X036081Y002697D01*
X036114Y002658D01*
X036143Y002617D01*
X036169Y002574D01*
X036192Y002529D01*
X036211Y002482D01*
X036226Y002434D01*
X036238Y002385D01*
X036246Y002335D01*
X036250Y002285D01*
X036250Y002235D01*
X036246Y002185D01*
X036238Y002135D01*
X036226Y002086D01*
X036211Y002038D01*
X036192Y001991D01*
X036169Y001946D01*
X036143Y001903D01*
X036114Y001862D01*
X036081Y001823D01*
X036046Y001787D01*
X036008Y001754D01*
X035968Y001724D01*
X035925Y001697D01*
X035880Y001674D01*
X035834Y001654D01*
X035786Y001637D01*
X035738Y001625D01*
X035688Y001616D01*
X035638Y001611D01*
X035587Y001610D01*
X035537Y001613D01*
X035487Y001620D01*
X035438Y001631D01*
X035390Y001645D01*
X035343Y001663D01*
X035297Y001685D01*
X035253Y001710D01*
X035212Y001739D01*
X035173Y001770D01*
X035136Y001805D01*
X035102Y001842D01*
X035071Y001882D01*
X035043Y001924D01*
X035019Y001968D01*
X034998Y002014D01*
X034981Y002062D01*
X034968Y002110D01*
X034958Y002160D01*
X034952Y002210D01*
X034950Y002260D01*
M02*
