G75*
G70*
%OFA0B0*%
%FSLAX24Y24*%
%IPPOS*%
%LPD*%
%AMOC8*
5,1,8,0,0,1.08239X$1,22.5*
%
%ADD10C,0.0000*%
D10*
X001279Y000180D02*
X001279Y031926D01*
X040649Y031926D01*
X040649Y000180D01*
X001279Y000180D01*
X021899Y003430D02*
X021901Y003480D01*
X021907Y003530D01*
X021917Y003579D01*
X021931Y003627D01*
X021948Y003674D01*
X021969Y003719D01*
X021994Y003763D01*
X022022Y003804D01*
X022054Y003843D01*
X022088Y003880D01*
X022125Y003914D01*
X022165Y003944D01*
X022207Y003971D01*
X022251Y003995D01*
X022297Y004016D01*
X022344Y004032D01*
X022392Y004045D01*
X022442Y004054D01*
X022491Y004059D01*
X022542Y004060D01*
X022592Y004057D01*
X022641Y004050D01*
X022690Y004039D01*
X022738Y004024D01*
X022784Y004006D01*
X022829Y003984D01*
X022872Y003958D01*
X022913Y003929D01*
X022952Y003897D01*
X022988Y003862D01*
X023020Y003824D01*
X023050Y003784D01*
X023077Y003741D01*
X023100Y003697D01*
X023119Y003651D01*
X023135Y003603D01*
X023147Y003554D01*
X023155Y003505D01*
X023159Y003455D01*
X023159Y003405D01*
X023155Y003355D01*
X023147Y003306D01*
X023135Y003257D01*
X023119Y003209D01*
X023100Y003163D01*
X023077Y003119D01*
X023050Y003076D01*
X023020Y003036D01*
X022988Y002998D01*
X022952Y002963D01*
X022913Y002931D01*
X022872Y002902D01*
X022829Y002876D01*
X022784Y002854D01*
X022738Y002836D01*
X022690Y002821D01*
X022641Y002810D01*
X022592Y002803D01*
X022542Y002800D01*
X022491Y002801D01*
X022442Y002806D01*
X022392Y002815D01*
X022344Y002828D01*
X022297Y002844D01*
X022251Y002865D01*
X022207Y002889D01*
X022165Y002916D01*
X022125Y002946D01*
X022088Y002980D01*
X022054Y003017D01*
X022022Y003056D01*
X021994Y003097D01*
X021969Y003141D01*
X021948Y003186D01*
X021931Y003233D01*
X021917Y003281D01*
X021907Y003330D01*
X021901Y003380D01*
X021899Y003430D01*
X021899Y012930D02*
X021901Y012980D01*
X021907Y013030D01*
X021917Y013079D01*
X021931Y013127D01*
X021948Y013174D01*
X021969Y013219D01*
X021994Y013263D01*
X022022Y013304D01*
X022054Y013343D01*
X022088Y013380D01*
X022125Y013414D01*
X022165Y013444D01*
X022207Y013471D01*
X022251Y013495D01*
X022297Y013516D01*
X022344Y013532D01*
X022392Y013545D01*
X022442Y013554D01*
X022491Y013559D01*
X022542Y013560D01*
X022592Y013557D01*
X022641Y013550D01*
X022690Y013539D01*
X022738Y013524D01*
X022784Y013506D01*
X022829Y013484D01*
X022872Y013458D01*
X022913Y013429D01*
X022952Y013397D01*
X022988Y013362D01*
X023020Y013324D01*
X023050Y013284D01*
X023077Y013241D01*
X023100Y013197D01*
X023119Y013151D01*
X023135Y013103D01*
X023147Y013054D01*
X023155Y013005D01*
X023159Y012955D01*
X023159Y012905D01*
X023155Y012855D01*
X023147Y012806D01*
X023135Y012757D01*
X023119Y012709D01*
X023100Y012663D01*
X023077Y012619D01*
X023050Y012576D01*
X023020Y012536D01*
X022988Y012498D01*
X022952Y012463D01*
X022913Y012431D01*
X022872Y012402D01*
X022829Y012376D01*
X022784Y012354D01*
X022738Y012336D01*
X022690Y012321D01*
X022641Y012310D01*
X022592Y012303D01*
X022542Y012300D01*
X022491Y012301D01*
X022442Y012306D01*
X022392Y012315D01*
X022344Y012328D01*
X022297Y012344D01*
X022251Y012365D01*
X022207Y012389D01*
X022165Y012416D01*
X022125Y012446D01*
X022088Y012480D01*
X022054Y012517D01*
X022022Y012556D01*
X021994Y012597D01*
X021969Y012641D01*
X021948Y012686D01*
X021931Y012733D01*
X021917Y012781D01*
X021907Y012830D01*
X021901Y012880D01*
X021899Y012930D01*
X007024Y018430D02*
X007026Y018500D01*
X007032Y018571D01*
X007042Y018640D01*
X007055Y018709D01*
X007073Y018777D01*
X007094Y018845D01*
X007120Y018910D01*
X007148Y018975D01*
X007181Y019037D01*
X007216Y019098D01*
X007255Y019156D01*
X007298Y019212D01*
X007343Y019266D01*
X007392Y019317D01*
X007443Y019366D01*
X007497Y019411D01*
X007553Y019454D01*
X007611Y019493D01*
X007672Y019528D01*
X007734Y019561D01*
X007799Y019589D01*
X007864Y019615D01*
X007932Y019636D01*
X008000Y019654D01*
X008069Y019667D01*
X008138Y019677D01*
X008209Y019683D01*
X008279Y019685D01*
X008349Y019683D01*
X008420Y019677D01*
X008489Y019667D01*
X008558Y019654D01*
X008626Y019636D01*
X008694Y019615D01*
X008759Y019589D01*
X008824Y019561D01*
X008886Y019528D01*
X008947Y019493D01*
X009005Y019454D01*
X009061Y019411D01*
X009115Y019366D01*
X009166Y019317D01*
X009215Y019266D01*
X009260Y019212D01*
X009303Y019156D01*
X009342Y019098D01*
X009377Y019037D01*
X009410Y018975D01*
X009438Y018910D01*
X009464Y018845D01*
X009485Y018777D01*
X009503Y018709D01*
X009516Y018640D01*
X009526Y018571D01*
X009532Y018500D01*
X009534Y018430D01*
X009532Y018360D01*
X009526Y018289D01*
X009516Y018220D01*
X009503Y018151D01*
X009485Y018083D01*
X009464Y018015D01*
X009438Y017950D01*
X009410Y017885D01*
X009377Y017823D01*
X009342Y017762D01*
X009303Y017704D01*
X009260Y017648D01*
X009215Y017594D01*
X009166Y017543D01*
X009115Y017494D01*
X009061Y017449D01*
X009005Y017406D01*
X008947Y017367D01*
X008886Y017332D01*
X008824Y017299D01*
X008759Y017271D01*
X008694Y017245D01*
X008626Y017224D01*
X008558Y017206D01*
X008489Y017193D01*
X008420Y017183D01*
X008349Y017177D01*
X008279Y017175D01*
X008209Y017177D01*
X008138Y017183D01*
X008069Y017193D01*
X008000Y017206D01*
X007932Y017224D01*
X007864Y017245D01*
X007799Y017271D01*
X007734Y017299D01*
X007672Y017332D01*
X007611Y017367D01*
X007553Y017406D01*
X007497Y017449D01*
X007443Y017494D01*
X007392Y017543D01*
X007343Y017594D01*
X007298Y017648D01*
X007255Y017704D01*
X007216Y017762D01*
X007181Y017823D01*
X007148Y017885D01*
X007120Y017950D01*
X007094Y018015D01*
X007073Y018083D01*
X007055Y018151D01*
X007042Y018220D01*
X007032Y018289D01*
X007026Y018360D01*
X007024Y018430D01*
M02*
