G75*
G70*
%OFA0B0*%
%FSLAX24Y24*%
%IPPOS*%
%LPD*%
%AMOC8*
5,1,8,0,0,1.08239X$1,22.5*
%
%ADD10C,0.0000*%
%ADD11C,0.0030*%
%ADD12R,0.0500X0.1250*%
%ADD13C,0.0120*%
%ADD14R,0.0500X0.1500*%
%ADD15C,0.0060*%
%ADD16C,0.0080*%
%ADD17C,0.0050*%
%ADD18R,0.0260X0.0260*%
%ADD19C,0.0100*%
%ADD20C,0.0040*%
%ADD21C,0.0160*%
%ADD22R,0.0290X0.0690*%
%ADD23R,0.0049X0.0197*%
%ADD24R,0.0128X0.0089*%
%ADD25R,0.0089X0.0049*%
%ADD26R,0.0049X0.0167*%
%ADD27R,0.0138X0.0197*%
%ADD28R,0.0049X0.0236*%
%ADD29R,0.0118X0.0669*%
%ADD30R,0.0276X0.0669*%
%ADD31R,0.0167X0.0128*%
%ADD32R,0.0138X0.0138*%
%ADD33R,0.0200X0.0200*%
%ADD34C,0.0020*%
%ADD35R,0.0433X0.0193*%
%ADD36R,0.0690X0.0290*%
%ADD37R,0.1299X0.0374*%
%ADD38R,0.0295X0.0669*%
%ADD39C,0.0010*%
D10*
X000180Y000350D02*
X000180Y032846D01*
X040050Y032846D01*
X040050Y000350D01*
X000180Y000350D01*
X001683Y004586D02*
X001687Y004590D01*
X001687Y004596D01*
X001689Y004596D02*
X001693Y004596D01*
X001691Y004596D02*
X001691Y004586D01*
X001689Y004586D02*
X001693Y004586D01*
X001695Y004586D02*
X001695Y004593D01*
X001699Y004596D01*
X001702Y004593D01*
X001702Y004586D01*
X001702Y004591D02*
X001695Y004591D01*
X001683Y004586D02*
X001680Y004590D01*
X001680Y004596D01*
X001683Y013086D02*
X001687Y013090D01*
X001687Y013096D01*
X001689Y013096D02*
X001693Y013096D01*
X001691Y013096D02*
X001691Y013086D01*
X001689Y013086D02*
X001693Y013086D01*
X001695Y013086D02*
X001695Y013093D01*
X001699Y013096D01*
X001702Y013093D01*
X001702Y013086D01*
X001702Y013091D02*
X001695Y013091D01*
X001683Y013086D02*
X001680Y013090D01*
X001680Y013096D01*
X005430Y013340D02*
X005433Y013336D01*
X005437Y013340D01*
X005437Y013346D01*
X005439Y013346D02*
X005443Y013346D01*
X005441Y013346D02*
X005441Y013336D01*
X005439Y013336D02*
X005443Y013336D01*
X005445Y013336D02*
X005445Y013343D01*
X005449Y013346D01*
X005452Y013343D01*
X005452Y013336D01*
X005452Y013341D02*
X005445Y013341D01*
X005430Y013346D02*
X005430Y013340D01*
X005925Y018350D02*
X005927Y018420D01*
X005933Y018491D01*
X005943Y018560D01*
X005956Y018629D01*
X005974Y018697D01*
X005995Y018765D01*
X006021Y018830D01*
X006049Y018895D01*
X006082Y018957D01*
X006117Y019018D01*
X006156Y019076D01*
X006199Y019132D01*
X006244Y019186D01*
X006293Y019237D01*
X006344Y019286D01*
X006398Y019331D01*
X006454Y019374D01*
X006512Y019413D01*
X006573Y019448D01*
X006635Y019481D01*
X006700Y019509D01*
X006765Y019535D01*
X006833Y019556D01*
X006901Y019574D01*
X006970Y019587D01*
X007039Y019597D01*
X007110Y019603D01*
X007180Y019605D01*
X007250Y019603D01*
X007321Y019597D01*
X007390Y019587D01*
X007459Y019574D01*
X007527Y019556D01*
X007595Y019535D01*
X007660Y019509D01*
X007725Y019481D01*
X007787Y019448D01*
X007848Y019413D01*
X007906Y019374D01*
X007962Y019331D01*
X008016Y019286D01*
X008067Y019237D01*
X008116Y019186D01*
X008161Y019132D01*
X008204Y019076D01*
X008243Y019018D01*
X008278Y018957D01*
X008311Y018895D01*
X008339Y018830D01*
X008365Y018765D01*
X008386Y018697D01*
X008404Y018629D01*
X008417Y018560D01*
X008427Y018491D01*
X008433Y018420D01*
X008435Y018350D01*
X008433Y018280D01*
X008427Y018209D01*
X008417Y018140D01*
X008404Y018071D01*
X008386Y018003D01*
X008365Y017935D01*
X008339Y017870D01*
X008311Y017805D01*
X008278Y017743D01*
X008243Y017682D01*
X008204Y017624D01*
X008161Y017568D01*
X008116Y017514D01*
X008067Y017463D01*
X008016Y017414D01*
X007962Y017369D01*
X007906Y017326D01*
X007848Y017287D01*
X007787Y017252D01*
X007725Y017219D01*
X007660Y017191D01*
X007595Y017165D01*
X007527Y017144D01*
X007459Y017126D01*
X007390Y017113D01*
X007321Y017103D01*
X007250Y017097D01*
X007180Y017095D01*
X007110Y017097D01*
X007039Y017103D01*
X006970Y017113D01*
X006901Y017126D01*
X006833Y017144D01*
X006765Y017165D01*
X006700Y017191D01*
X006635Y017219D01*
X006573Y017252D01*
X006512Y017287D01*
X006454Y017326D01*
X006398Y017369D01*
X006344Y017414D01*
X006293Y017463D01*
X006244Y017514D01*
X006199Y017568D01*
X006156Y017624D01*
X006117Y017682D01*
X006082Y017743D01*
X006049Y017805D01*
X006021Y017870D01*
X005995Y017935D01*
X005974Y018003D01*
X005956Y018071D01*
X005943Y018140D01*
X005933Y018209D01*
X005927Y018280D01*
X005925Y018350D01*
X005202Y020586D02*
X005202Y020593D01*
X005199Y020596D01*
X005195Y020593D01*
X005195Y020586D01*
X005193Y020586D02*
X005189Y020586D01*
X005191Y020586D02*
X005191Y020596D01*
X005189Y020596D02*
X005193Y020596D01*
X005195Y020591D02*
X005202Y020591D01*
X005187Y020590D02*
X005187Y020596D01*
X005187Y020590D02*
X005183Y020586D01*
X005180Y020590D01*
X005180Y020596D01*
X012000Y015950D02*
X012000Y015750D01*
X012410Y015750D01*
X012410Y015950D01*
X012000Y015950D01*
X012410Y016060D02*
X012410Y014140D01*
X013300Y014140D01*
X013950Y014140D01*
X013950Y016060D01*
X012410Y016060D01*
X012410Y015450D02*
X012000Y015450D01*
X012000Y015250D01*
X012410Y015250D01*
X012410Y015450D01*
X012410Y014950D02*
X012000Y014950D01*
X012000Y014750D01*
X012410Y014750D01*
X012410Y014950D01*
X012410Y014450D02*
X012000Y014450D01*
X012000Y014250D01*
X012410Y014250D01*
X012410Y014450D01*
X013060Y014130D02*
X013061Y014151D01*
X013066Y014171D01*
X013074Y014191D01*
X013085Y014208D01*
X013099Y014224D01*
X013116Y014236D01*
X013134Y014246D01*
X013154Y014252D01*
X013175Y014255D01*
X013196Y014254D01*
X013216Y014249D01*
X013236Y014241D01*
X013253Y014230D01*
X013269Y014216D01*
X013281Y014199D01*
X013291Y014181D01*
X013297Y014161D01*
X013300Y014140D01*
X013950Y014250D02*
X014360Y014250D01*
X014360Y014450D01*
X013950Y014450D01*
X013950Y014250D01*
X013950Y014750D02*
X014360Y014750D01*
X014360Y014950D01*
X013950Y014950D01*
X013950Y014750D01*
X013950Y015250D02*
X014360Y015250D01*
X014360Y015450D01*
X013950Y015450D01*
X013950Y015250D01*
X013950Y015750D02*
X014360Y015750D01*
X014360Y015950D01*
X013950Y015950D01*
X013950Y015750D01*
X020410Y010310D02*
X020410Y008390D01*
X021950Y008390D01*
X021950Y010310D01*
X021060Y010310D01*
X020410Y010310D01*
X020410Y010200D02*
X020000Y010200D01*
X020000Y010000D01*
X020410Y010000D01*
X020410Y010200D01*
X020410Y009700D02*
X020000Y009700D01*
X020000Y009500D01*
X020410Y009500D01*
X020410Y009700D01*
X020410Y009200D02*
X020000Y009200D01*
X020000Y009000D01*
X020410Y009000D01*
X020410Y009200D01*
X020410Y008700D02*
X020000Y008700D01*
X020000Y008500D01*
X020410Y008500D01*
X020410Y008700D01*
X021950Y008700D02*
X021950Y008500D01*
X022360Y008500D01*
X022360Y008700D01*
X021950Y008700D01*
X021950Y009000D02*
X022360Y009000D01*
X022360Y009200D01*
X021950Y009200D01*
X021950Y009000D01*
X021950Y009500D02*
X022360Y009500D01*
X022360Y009700D01*
X021950Y009700D01*
X021950Y009500D01*
X021950Y010000D02*
X022360Y010000D01*
X022360Y010200D01*
X021950Y010200D01*
X021950Y010000D01*
X021300Y010320D02*
X021299Y010299D01*
X021294Y010279D01*
X021286Y010259D01*
X021275Y010242D01*
X021261Y010226D01*
X021244Y010214D01*
X021226Y010204D01*
X021206Y010198D01*
X021185Y010195D01*
X021164Y010196D01*
X021144Y010201D01*
X021124Y010209D01*
X021107Y010220D01*
X021091Y010234D01*
X021079Y010251D01*
X021069Y010269D01*
X021063Y010289D01*
X021060Y010310D01*
X020800Y012850D02*
X020802Y012900D01*
X020808Y012950D01*
X020818Y012999D01*
X020832Y013047D01*
X020849Y013094D01*
X020870Y013139D01*
X020895Y013183D01*
X020923Y013224D01*
X020955Y013263D01*
X020989Y013300D01*
X021026Y013334D01*
X021066Y013364D01*
X021108Y013391D01*
X021152Y013415D01*
X021198Y013436D01*
X021245Y013452D01*
X021293Y013465D01*
X021343Y013474D01*
X021392Y013479D01*
X021443Y013480D01*
X021493Y013477D01*
X021542Y013470D01*
X021591Y013459D01*
X021639Y013444D01*
X021685Y013426D01*
X021730Y013404D01*
X021773Y013378D01*
X021814Y013349D01*
X021853Y013317D01*
X021889Y013282D01*
X021921Y013244D01*
X021951Y013204D01*
X021978Y013161D01*
X022001Y013117D01*
X022020Y013071D01*
X022036Y013023D01*
X022048Y012974D01*
X022056Y012925D01*
X022060Y012875D01*
X022060Y012825D01*
X022056Y012775D01*
X022048Y012726D01*
X022036Y012677D01*
X022020Y012629D01*
X022001Y012583D01*
X021978Y012539D01*
X021951Y012496D01*
X021921Y012456D01*
X021889Y012418D01*
X021853Y012383D01*
X021814Y012351D01*
X021773Y012322D01*
X021730Y012296D01*
X021685Y012274D01*
X021639Y012256D01*
X021591Y012241D01*
X021542Y012230D01*
X021493Y012223D01*
X021443Y012220D01*
X021392Y012221D01*
X021343Y012226D01*
X021293Y012235D01*
X021245Y012248D01*
X021198Y012264D01*
X021152Y012285D01*
X021108Y012309D01*
X021066Y012336D01*
X021026Y012366D01*
X020989Y012400D01*
X020955Y012437D01*
X020923Y012476D01*
X020895Y012517D01*
X020870Y012561D01*
X020849Y012606D01*
X020832Y012653D01*
X020818Y012701D01*
X020808Y012750D01*
X020802Y012800D01*
X020800Y012850D01*
X027680Y016340D02*
X027683Y016336D01*
X027687Y016340D01*
X027687Y016346D01*
X027689Y016346D02*
X027693Y016346D01*
X027691Y016346D02*
X027691Y016336D01*
X027689Y016336D02*
X027693Y016336D01*
X027695Y016336D02*
X027695Y016343D01*
X027699Y016346D01*
X027702Y016343D01*
X027702Y016336D01*
X027702Y016341D02*
X027695Y016341D01*
X027680Y016346D02*
X027680Y016340D01*
X027683Y019586D02*
X027687Y019590D01*
X027687Y019596D01*
X027689Y019596D02*
X027693Y019596D01*
X027691Y019596D02*
X027691Y019586D01*
X027689Y019586D02*
X027693Y019586D01*
X027695Y019586D02*
X027695Y019593D01*
X027699Y019596D01*
X027702Y019593D01*
X027702Y019586D01*
X027702Y019591D02*
X027695Y019591D01*
X027683Y019586D02*
X027680Y019590D01*
X027680Y019596D01*
X024950Y006810D02*
X024060Y006810D01*
X023410Y006810D01*
X023410Y004890D01*
X024950Y004890D01*
X024950Y006810D01*
X024950Y006700D02*
X025360Y006700D01*
X025360Y006500D01*
X024950Y006500D01*
X024950Y006700D01*
X024950Y006200D02*
X025360Y006200D01*
X025360Y006000D01*
X024950Y006000D01*
X024950Y006200D01*
X024950Y005700D02*
X025360Y005700D01*
X025360Y005500D01*
X024950Y005500D01*
X024950Y005700D01*
X024950Y005200D02*
X025360Y005200D01*
X025360Y005000D01*
X024950Y005000D01*
X024950Y005200D01*
X023410Y005200D02*
X023000Y005200D01*
X023000Y005000D01*
X023410Y005000D01*
X023410Y005200D01*
X023410Y005500D02*
X023000Y005500D01*
X023000Y005700D01*
X023410Y005700D01*
X023410Y005500D01*
X023410Y006000D02*
X023000Y006000D01*
X023000Y006200D01*
X023410Y006200D01*
X023410Y006000D01*
X023410Y006500D02*
X023000Y006500D01*
X023000Y006700D01*
X023410Y006700D01*
X023410Y006500D01*
X024060Y006810D02*
X024063Y006789D01*
X024069Y006769D01*
X024079Y006751D01*
X024091Y006734D01*
X024107Y006720D01*
X024124Y006709D01*
X024144Y006701D01*
X024164Y006696D01*
X024185Y006695D01*
X024206Y006698D01*
X024226Y006704D01*
X024244Y006714D01*
X024261Y006726D01*
X024275Y006742D01*
X024286Y006759D01*
X024294Y006779D01*
X024299Y006799D01*
X024300Y006820D01*
X020800Y003350D02*
X020802Y003400D01*
X020808Y003450D01*
X020818Y003499D01*
X020832Y003547D01*
X020849Y003594D01*
X020870Y003639D01*
X020895Y003683D01*
X020923Y003724D01*
X020955Y003763D01*
X020989Y003800D01*
X021026Y003834D01*
X021066Y003864D01*
X021108Y003891D01*
X021152Y003915D01*
X021198Y003936D01*
X021245Y003952D01*
X021293Y003965D01*
X021343Y003974D01*
X021392Y003979D01*
X021443Y003980D01*
X021493Y003977D01*
X021542Y003970D01*
X021591Y003959D01*
X021639Y003944D01*
X021685Y003926D01*
X021730Y003904D01*
X021773Y003878D01*
X021814Y003849D01*
X021853Y003817D01*
X021889Y003782D01*
X021921Y003744D01*
X021951Y003704D01*
X021978Y003661D01*
X022001Y003617D01*
X022020Y003571D01*
X022036Y003523D01*
X022048Y003474D01*
X022056Y003425D01*
X022060Y003375D01*
X022060Y003325D01*
X022056Y003275D01*
X022048Y003226D01*
X022036Y003177D01*
X022020Y003129D01*
X022001Y003083D01*
X021978Y003039D01*
X021951Y002996D01*
X021921Y002956D01*
X021889Y002918D01*
X021853Y002883D01*
X021814Y002851D01*
X021773Y002822D01*
X021730Y002796D01*
X021685Y002774D01*
X021639Y002756D01*
X021591Y002741D01*
X021542Y002730D01*
X021493Y002723D01*
X021443Y002720D01*
X021392Y002721D01*
X021343Y002726D01*
X021293Y002735D01*
X021245Y002748D01*
X021198Y002764D01*
X021152Y002785D01*
X021108Y002809D01*
X021066Y002836D01*
X021026Y002866D01*
X020989Y002900D01*
X020955Y002937D01*
X020923Y002976D01*
X020895Y003017D01*
X020870Y003061D01*
X020849Y003106D01*
X020832Y003153D01*
X020818Y003201D01*
X020808Y003250D01*
X020802Y003300D01*
X020800Y003350D01*
D11*
X022945Y004365D02*
X022945Y004735D01*
X023068Y004612D01*
X023192Y004735D01*
X023192Y004365D01*
X023313Y004427D02*
X023375Y004365D01*
X023498Y004365D01*
X023560Y004427D01*
X023682Y004488D02*
X023867Y004488D01*
X023929Y004550D01*
X023929Y004674D01*
X023867Y004735D01*
X023682Y004735D01*
X023682Y004365D01*
X023560Y004674D02*
X023498Y004735D01*
X023375Y004735D01*
X023313Y004674D01*
X023313Y004427D01*
X024050Y004365D02*
X024297Y004365D01*
X024418Y004365D02*
X024418Y004427D01*
X024665Y004674D01*
X024665Y004735D01*
X024418Y004735D01*
X024173Y004735D02*
X024173Y004365D01*
X024050Y004612D02*
X024173Y004735D01*
X024787Y004674D02*
X024848Y004735D01*
X024972Y004735D01*
X025033Y004674D01*
X025033Y004612D01*
X024787Y004365D01*
X025033Y004365D01*
X025155Y004427D02*
X025217Y004365D01*
X025340Y004365D01*
X025402Y004427D01*
X025402Y004550D01*
X025340Y004612D01*
X025278Y004612D01*
X025155Y004550D01*
X025155Y004735D01*
X025402Y004735D01*
X023249Y006863D02*
X022935Y007177D01*
X023249Y006863D01*
X023092Y006863D02*
X023092Y007177D01*
X023092Y006863D01*
X022935Y006863D02*
X023249Y007177D01*
X022935Y006863D01*
X022935Y007020D02*
X023249Y007020D01*
X022935Y007020D01*
X022340Y007865D02*
X022217Y007865D01*
X022155Y007927D01*
X022155Y008050D02*
X022278Y008112D01*
X022340Y008112D01*
X022402Y008050D01*
X022402Y007927D01*
X022340Y007865D01*
X022155Y008050D02*
X022155Y008235D01*
X022402Y008235D01*
X022033Y008174D02*
X021972Y008235D01*
X021848Y008235D01*
X021787Y008174D01*
X021665Y008174D02*
X021418Y007927D01*
X021418Y007865D01*
X021297Y007865D02*
X021050Y007865D01*
X021173Y007865D02*
X021173Y008235D01*
X021050Y008112D01*
X020929Y008174D02*
X020929Y008050D01*
X020867Y007988D01*
X020682Y007988D01*
X020682Y007865D02*
X020682Y008235D01*
X020867Y008235D01*
X020929Y008174D01*
X020560Y008174D02*
X020498Y008235D01*
X020375Y008235D01*
X020313Y008174D01*
X020313Y007927D01*
X020375Y007865D01*
X020498Y007865D01*
X020560Y007927D01*
X020192Y007865D02*
X020192Y008235D01*
X020068Y008112D01*
X019945Y008235D01*
X019945Y007865D01*
X021418Y008235D02*
X021665Y008235D01*
X021665Y008174D01*
X021787Y007865D02*
X022033Y008112D01*
X022033Y008174D01*
X022033Y007865D02*
X021787Y007865D01*
X020249Y010363D02*
X019935Y010677D01*
X020249Y010363D01*
X020092Y010363D02*
X020092Y010677D01*
X020092Y010363D01*
X019935Y010363D02*
X020249Y010677D01*
X019935Y010363D01*
X019935Y010520D02*
X020249Y010520D01*
X019935Y010520D01*
X019165Y010677D02*
X019165Y010800D01*
X019103Y010862D01*
X019103Y010983D02*
X018795Y010983D01*
X018856Y010862D02*
X018795Y010800D01*
X018795Y010677D01*
X018856Y010615D01*
X019103Y010615D01*
X019165Y010677D01*
X019103Y010983D02*
X019165Y011045D01*
X019165Y011168D01*
X019103Y011230D01*
X018795Y011230D01*
X018795Y011352D02*
X018795Y011537D01*
X018856Y011599D01*
X018980Y011599D01*
X019042Y011537D01*
X019042Y011352D01*
X019165Y011352D02*
X018795Y011352D01*
X019042Y011475D02*
X019165Y011599D01*
X019165Y011720D02*
X018795Y011720D01*
X018795Y011905D01*
X018856Y011967D01*
X018980Y011967D01*
X019042Y011905D01*
X019042Y011720D01*
X019042Y011843D02*
X019165Y011967D01*
X019165Y012088D02*
X019165Y012335D01*
X019165Y012457D02*
X018795Y012457D01*
X019165Y012703D01*
X018795Y012703D01*
X018795Y012825D02*
X018795Y013072D01*
X018795Y012948D02*
X019165Y012948D01*
X018980Y013193D02*
X018980Y013440D01*
X018856Y013562D02*
X018795Y013623D01*
X018795Y013747D01*
X018856Y013808D01*
X018918Y013808D01*
X019165Y013562D01*
X019165Y013808D01*
X018795Y012335D02*
X018795Y012088D01*
X019165Y012088D01*
X018980Y012088D02*
X018980Y012212D01*
X017165Y012088D02*
X017165Y012335D01*
X017165Y012457D02*
X016795Y012457D01*
X017165Y012703D01*
X016795Y012703D01*
X016795Y012825D02*
X016795Y013072D01*
X016795Y012948D02*
X017165Y012948D01*
X016980Y013193D02*
X016980Y013440D01*
X016918Y013562D02*
X016795Y013685D01*
X017165Y013685D01*
X017165Y013562D02*
X017165Y013808D01*
X016795Y012335D02*
X016795Y012088D01*
X017165Y012088D01*
X017165Y011967D02*
X017042Y011843D01*
X017042Y011905D02*
X017042Y011720D01*
X017165Y011720D02*
X016795Y011720D01*
X016795Y011905D01*
X016856Y011967D01*
X016980Y011967D01*
X017042Y011905D01*
X016980Y012088D02*
X016980Y012212D01*
X016980Y011599D02*
X016856Y011599D01*
X016795Y011537D01*
X016795Y011352D01*
X017165Y011352D01*
X017042Y011352D02*
X017042Y011537D01*
X016980Y011599D01*
X017042Y011475D02*
X017165Y011599D01*
X017103Y011230D02*
X016795Y011230D01*
X016795Y010983D02*
X017103Y010983D01*
X017165Y011045D01*
X017165Y011168D01*
X017103Y011230D01*
X017103Y010862D02*
X017165Y010800D01*
X017165Y010677D01*
X017103Y010615D01*
X016856Y010615D01*
X016795Y010677D01*
X016795Y010800D01*
X016856Y010862D01*
X015165Y010800D02*
X015103Y010862D01*
X015165Y010800D02*
X015165Y010677D01*
X015103Y010615D01*
X014856Y010615D01*
X014795Y010677D01*
X014795Y010800D01*
X014856Y010862D01*
X014795Y010983D02*
X015103Y010983D01*
X015165Y011045D01*
X015165Y011168D01*
X015103Y011230D01*
X014795Y011230D01*
X014795Y011352D02*
X014795Y011537D01*
X014856Y011599D01*
X014980Y011599D01*
X015042Y011537D01*
X015042Y011352D01*
X015165Y011352D02*
X014795Y011352D01*
X015042Y011475D02*
X015165Y011599D01*
X015165Y011720D02*
X014795Y011720D01*
X014795Y011905D01*
X014856Y011967D01*
X014980Y011967D01*
X015042Y011905D01*
X015042Y011720D01*
X015042Y011843D02*
X015165Y011967D01*
X015165Y012088D02*
X015165Y012335D01*
X015165Y012457D02*
X014795Y012457D01*
X015165Y012703D01*
X014795Y012703D01*
X014795Y012825D02*
X014795Y013072D01*
X014795Y012948D02*
X015165Y012948D01*
X014980Y013193D02*
X014980Y013440D01*
X015103Y013562D02*
X014856Y013808D01*
X015103Y013808D01*
X015165Y013747D01*
X015165Y013623D01*
X015103Y013562D01*
X014856Y013562D01*
X014795Y013623D01*
X014795Y013747D01*
X014856Y013808D01*
X014425Y013773D02*
X014111Y014087D01*
X014425Y013773D01*
X014268Y013773D02*
X014268Y014087D01*
X014268Y013773D01*
X014111Y013773D02*
X014425Y014087D01*
X014111Y013773D01*
X014111Y013930D02*
X014425Y013930D01*
X014111Y013930D01*
X014795Y012335D02*
X014795Y012088D01*
X015165Y012088D01*
X014980Y012088D02*
X014980Y012212D01*
X014262Y016215D02*
X014138Y016215D01*
X014077Y016277D01*
X014077Y016400D02*
X014200Y016462D01*
X014262Y016462D01*
X014324Y016400D01*
X014324Y016277D01*
X014262Y016215D01*
X014077Y016400D02*
X014077Y016585D01*
X014324Y016585D01*
X013955Y016524D02*
X013955Y016462D01*
X013708Y016215D01*
X013955Y016215D01*
X013955Y016524D02*
X013894Y016585D01*
X013770Y016585D01*
X013708Y016524D01*
X013587Y016524D02*
X013340Y016277D01*
X013340Y016215D01*
X013219Y016215D02*
X012972Y016215D01*
X013095Y016215D02*
X013095Y016585D01*
X012972Y016462D01*
X012850Y016524D02*
X012850Y016400D01*
X012789Y016338D01*
X012603Y016338D01*
X012603Y016215D02*
X012603Y016585D01*
X012789Y016585D01*
X012850Y016524D01*
X012482Y016524D02*
X012420Y016585D01*
X012297Y016585D01*
X012235Y016524D01*
X012235Y016277D01*
X012297Y016215D01*
X012420Y016215D01*
X012482Y016277D01*
X012114Y016215D02*
X012114Y016585D01*
X011990Y016462D01*
X011867Y016585D01*
X011867Y016215D01*
X013340Y016585D02*
X013587Y016585D01*
X013587Y016524D01*
X008574Y020277D02*
X008512Y020215D01*
X008388Y020215D01*
X008327Y020277D01*
X008450Y020400D02*
X008512Y020400D01*
X008574Y020338D01*
X008574Y020277D01*
X008512Y020400D02*
X008574Y020462D01*
X008574Y020524D01*
X008512Y020585D01*
X008388Y020585D01*
X008327Y020524D01*
X008205Y020524D02*
X007958Y020277D01*
X007958Y020215D01*
X007837Y020277D02*
X007775Y020215D01*
X007652Y020215D01*
X007590Y020277D01*
X007469Y020277D02*
X007407Y020215D01*
X007283Y020215D01*
X007222Y020277D01*
X007222Y020524D01*
X007283Y020585D01*
X007407Y020585D01*
X007469Y020524D01*
X007590Y020585D02*
X007590Y020400D01*
X007713Y020462D01*
X007775Y020462D01*
X007837Y020400D01*
X007837Y020277D01*
X007837Y020585D02*
X007590Y020585D01*
X007958Y020585D02*
X008205Y020585D01*
X008205Y020524D01*
X007100Y020585D02*
X007100Y020215D01*
X007100Y020400D02*
X006853Y020400D01*
X006732Y020400D02*
X006485Y020400D01*
X006670Y020585D01*
X006670Y020215D01*
X006853Y020215D02*
X006853Y020585D01*
X006364Y020585D02*
X006364Y020524D01*
X006117Y020277D01*
X006117Y020215D01*
X006117Y020585D02*
X006364Y020585D01*
X023795Y014207D02*
X023795Y014145D01*
X023795Y014207D02*
X024165Y014207D01*
X024165Y014145D02*
X024165Y014269D01*
X024165Y014024D02*
X024165Y013839D01*
X024103Y013777D01*
X024042Y013839D01*
X024042Y014024D01*
X023980Y014024D02*
X024165Y014024D01*
X023980Y014024D02*
X023918Y013962D01*
X023918Y013839D01*
X023980Y013655D02*
X024165Y013655D01*
X024165Y013532D02*
X023980Y013532D01*
X023918Y013594D01*
X023980Y013655D01*
X023980Y013532D02*
X023918Y013470D01*
X023918Y013409D01*
X024165Y013409D01*
X023918Y013287D02*
X023918Y013225D01*
X024042Y013102D01*
X024165Y013102D02*
X023918Y013102D01*
X023980Y012980D02*
X023918Y012918D01*
X023918Y012795D01*
X023980Y012733D01*
X024103Y012733D01*
X024165Y012795D01*
X024165Y012918D01*
X024103Y012980D01*
X023980Y012980D01*
X024165Y012612D02*
X023795Y012612D01*
X023795Y012365D02*
X024165Y012612D01*
X024165Y012365D02*
X023795Y012365D01*
X025668Y012282D02*
X025730Y012220D01*
X025792Y012282D01*
X025792Y012405D01*
X025853Y012467D01*
X025915Y012405D01*
X025915Y012220D01*
X025915Y012099D02*
X025915Y011913D01*
X025853Y011852D01*
X025792Y011913D01*
X025792Y012099D01*
X025730Y012099D02*
X025915Y012099D01*
X025730Y012099D02*
X025668Y012037D01*
X025668Y011913D01*
X025730Y011730D02*
X025792Y011730D01*
X025792Y011483D01*
X025853Y011483D02*
X025730Y011483D01*
X025668Y011545D01*
X025668Y011668D01*
X025730Y011730D01*
X025915Y011668D02*
X025915Y011545D01*
X025853Y011483D01*
X025915Y011362D02*
X025545Y011362D01*
X025668Y011238D01*
X025545Y011115D01*
X025915Y011115D01*
X025668Y012282D02*
X025668Y012467D01*
X025668Y012588D02*
X025853Y012588D01*
X025915Y012650D01*
X025915Y012835D01*
X025668Y012835D01*
X025668Y012957D02*
X025915Y012957D01*
X025792Y012957D02*
X025668Y013080D01*
X025668Y013142D01*
X025730Y013264D02*
X025668Y013325D01*
X025668Y013449D01*
X025730Y013510D01*
X025792Y013510D01*
X025792Y013264D01*
X025853Y013264D02*
X025730Y013264D01*
X025853Y013264D02*
X025915Y013325D01*
X025915Y013449D01*
X025853Y014000D02*
X025606Y014000D01*
X025545Y014062D01*
X025545Y014185D01*
X025606Y014247D01*
X025668Y014368D02*
X025853Y014368D01*
X025915Y014430D01*
X025915Y014615D01*
X025668Y014615D01*
X025668Y014737D02*
X025915Y014737D01*
X025792Y014737D02*
X025668Y014860D01*
X025668Y014922D01*
X025668Y015044D02*
X025915Y015044D01*
X025792Y015044D02*
X025668Y015167D01*
X025668Y015229D01*
X025730Y015351D02*
X025668Y015412D01*
X025668Y015536D01*
X025730Y015597D01*
X025792Y015597D01*
X025792Y015351D01*
X025853Y015351D02*
X025730Y015351D01*
X025853Y015351D02*
X025915Y015412D01*
X025915Y015536D01*
X025915Y015719D02*
X025668Y015719D01*
X025668Y015904D01*
X025730Y015966D01*
X025915Y015966D01*
X025853Y016149D02*
X025915Y016211D01*
X025853Y016149D02*
X025606Y016149D01*
X025668Y016087D02*
X025668Y016211D01*
X025853Y014247D02*
X025915Y014185D01*
X025915Y014062D01*
X025853Y014000D01*
D12*
X023430Y013975D03*
D13*
X023680Y014600D02*
X023180Y014600D01*
X023180Y011850D01*
X023680Y011850D01*
X023680Y014600D01*
X024680Y014600D02*
X025180Y014600D01*
X025180Y011850D01*
X024680Y011850D01*
X024680Y014600D01*
X018680Y030100D02*
X017680Y030100D01*
X018180Y031100D01*
X018680Y030100D01*
X018630Y030199D02*
X017730Y030199D01*
X017789Y030318D02*
X018571Y030318D01*
X018512Y030436D02*
X017848Y030436D01*
X017907Y030555D02*
X018453Y030555D01*
X018393Y030673D02*
X017967Y030673D01*
X018026Y030792D02*
X018334Y030792D01*
X018275Y030910D02*
X018085Y030910D01*
X018144Y031029D02*
X018216Y031029D01*
D14*
X024930Y012600D03*
D15*
X021640Y010310D02*
X021060Y010310D01*
X020720Y010310D01*
X021060Y010310D02*
X021063Y010289D01*
X021069Y010269D01*
X021079Y010251D01*
X021091Y010234D01*
X021107Y010220D01*
X021124Y010209D01*
X021144Y010201D01*
X021164Y010196D01*
X021185Y010195D01*
X021206Y010198D01*
X021226Y010204D01*
X021244Y010214D01*
X021261Y010226D01*
X021275Y010242D01*
X021286Y010259D01*
X021294Y010279D01*
X021299Y010299D01*
X021300Y010320D01*
X019180Y010100D02*
X019180Y009750D01*
X019180Y009700D01*
X019180Y009500D02*
X019180Y009450D01*
X019180Y009100D01*
X020720Y008390D02*
X021640Y008390D01*
X023680Y008600D02*
X023680Y008950D01*
X023680Y009000D01*
X023680Y009200D02*
X023680Y009250D01*
X023680Y009600D01*
X026180Y007600D02*
X026180Y007250D01*
X026180Y007200D01*
X026180Y007000D02*
X026180Y006950D01*
X026180Y006600D01*
X024640Y006810D02*
X024060Y006810D01*
X023720Y006810D01*
X024060Y006810D02*
X024063Y006789D01*
X024069Y006769D01*
X024079Y006751D01*
X024091Y006734D01*
X024107Y006720D01*
X024124Y006709D01*
X024144Y006701D01*
X024164Y006696D01*
X024185Y006695D01*
X024206Y006698D01*
X024226Y006704D01*
X024244Y006714D01*
X024261Y006726D01*
X024275Y006742D01*
X024286Y006759D01*
X024294Y006779D01*
X024299Y006799D01*
X024300Y006820D01*
X024640Y004890D02*
X023720Y004890D01*
X022180Y005600D02*
X022180Y005950D01*
X022180Y006000D01*
X022180Y006200D02*
X022180Y006250D01*
X022180Y006600D01*
X018430Y010600D02*
X017930Y010600D01*
X017680Y010850D01*
X017680Y011350D01*
X017930Y011600D01*
X017680Y011850D01*
X017680Y012350D01*
X017930Y012600D01*
X017680Y012850D01*
X017680Y013350D01*
X017930Y013600D01*
X018430Y013600D01*
X018680Y013350D01*
X018680Y012850D01*
X018430Y012600D01*
X018680Y012350D01*
X018680Y011850D01*
X018430Y011600D01*
X018680Y011350D01*
X018680Y010850D01*
X018430Y010600D01*
X016680Y010850D02*
X016680Y011350D01*
X016430Y011600D01*
X016680Y011850D01*
X016680Y012350D01*
X016430Y012600D01*
X016680Y012850D01*
X016680Y013350D01*
X016430Y013600D01*
X015930Y013600D01*
X015680Y013350D01*
X015680Y012850D01*
X015930Y012600D01*
X015680Y012350D01*
X015680Y011850D01*
X015930Y011600D01*
X015680Y011350D01*
X015680Y010850D01*
X015930Y010600D01*
X016430Y010600D01*
X016680Y010850D01*
X016430Y010350D02*
X016680Y010100D01*
X016680Y009600D01*
X016430Y009350D01*
X016680Y009100D01*
X016680Y008600D01*
X016430Y008350D01*
X016680Y008100D01*
X016680Y007600D01*
X016430Y007350D01*
X016680Y007100D01*
X016680Y006600D01*
X016430Y006350D01*
X016680Y006100D01*
X016680Y005600D01*
X016430Y005350D01*
X016680Y005100D01*
X016680Y004600D01*
X016430Y004350D01*
X016680Y004100D01*
X016680Y003600D01*
X016430Y003350D01*
X015930Y003350D01*
X015680Y003600D01*
X015680Y004100D01*
X015930Y004350D01*
X015680Y004600D01*
X015680Y005100D01*
X015930Y005350D01*
X015680Y005600D01*
X015680Y006100D01*
X015930Y006350D01*
X015680Y006600D01*
X015680Y007100D01*
X015930Y007350D01*
X015680Y007600D01*
X015680Y008100D01*
X015930Y008350D01*
X015680Y008600D01*
X015680Y009100D01*
X015930Y009350D01*
X015680Y009600D01*
X015680Y010100D01*
X015930Y010350D01*
X016430Y010350D01*
X014680Y010100D02*
X014680Y009600D01*
X014430Y009350D01*
X014680Y009100D01*
X014680Y008600D01*
X014430Y008350D01*
X014680Y008100D01*
X014680Y007600D01*
X014430Y007350D01*
X014680Y007100D01*
X014680Y006600D01*
X014430Y006350D01*
X014680Y006100D01*
X014680Y005600D01*
X014430Y005350D01*
X014680Y005100D01*
X014680Y004600D01*
X014430Y004350D01*
X014680Y004100D01*
X014680Y003600D01*
X014430Y003350D01*
X013930Y003350D01*
X013680Y003600D01*
X013680Y004100D01*
X013930Y004350D01*
X013680Y004600D01*
X013680Y005100D01*
X013930Y005350D01*
X013680Y005600D01*
X013680Y006100D01*
X013930Y006350D01*
X013680Y006600D01*
X013680Y007100D01*
X013930Y007350D01*
X013680Y007600D01*
X013680Y008100D01*
X013930Y008350D01*
X013680Y008600D01*
X013680Y009100D01*
X013930Y009350D01*
X013680Y009600D01*
X013680Y010100D01*
X013930Y010350D01*
X014430Y010350D01*
X014680Y010100D01*
X014430Y010600D02*
X013930Y010600D01*
X013680Y010850D01*
X013680Y011350D01*
X013930Y011600D01*
X013680Y011850D01*
X013680Y012350D01*
X013930Y012600D01*
X013680Y012850D01*
X013680Y013350D01*
X013930Y013600D01*
X014430Y013600D01*
X014680Y013350D01*
X014680Y012850D01*
X014430Y012600D01*
X014680Y012350D01*
X014680Y011850D01*
X014430Y011600D01*
X014680Y011350D01*
X014680Y010850D01*
X014430Y010600D01*
X012680Y010350D02*
X012680Y009850D01*
X012430Y009600D01*
X012680Y009350D01*
X012680Y008850D01*
X012430Y008600D01*
X011930Y008600D01*
X011680Y008850D01*
X011680Y009350D01*
X011930Y009600D01*
X011680Y009850D01*
X011680Y010350D01*
X011930Y010600D01*
X012430Y010600D01*
X012680Y010350D01*
X012720Y014140D02*
X013300Y014140D01*
X013640Y014140D01*
X013300Y014140D02*
X013297Y014161D01*
X013291Y014181D01*
X013281Y014199D01*
X013269Y014216D01*
X013253Y014230D01*
X013236Y014241D01*
X013216Y014249D01*
X013196Y014254D01*
X013175Y014255D01*
X013154Y014252D01*
X013134Y014246D01*
X013116Y014236D01*
X013099Y014224D01*
X013085Y014208D01*
X013074Y014191D01*
X013066Y014171D01*
X013061Y014151D01*
X013060Y014130D01*
X011180Y014350D02*
X011180Y014700D01*
X011180Y014750D01*
X011180Y014950D02*
X011180Y015000D01*
X011180Y015350D01*
X012720Y016060D02*
X013640Y016060D01*
X015530Y016200D02*
X015730Y016200D01*
X015830Y016200D01*
X015830Y016350D01*
X015930Y016350D01*
X015930Y016850D01*
X015830Y016850D01*
X015830Y017000D01*
X017080Y017000D01*
X017130Y016950D01*
X017130Y016200D01*
X015830Y016200D01*
X015730Y016200D02*
X015730Y016350D01*
X015830Y016350D01*
X015530Y016200D02*
X015530Y017000D01*
X015580Y017000D01*
X015580Y017200D01*
X015530Y017200D01*
X015530Y018000D01*
X015580Y018000D01*
X015580Y018200D01*
X015530Y018200D01*
X015530Y019000D01*
X015580Y019000D01*
X015580Y019200D01*
X015530Y019200D01*
X015530Y020000D01*
X015580Y020000D01*
X015580Y020200D01*
X015530Y020200D01*
X015530Y021000D01*
X015580Y021000D01*
X015580Y021200D01*
X015530Y021200D01*
X015530Y022000D01*
X015580Y022000D01*
X015580Y022200D01*
X015530Y022200D01*
X015530Y023000D01*
X015580Y023000D01*
X015580Y023200D01*
X015530Y023200D01*
X015530Y024000D01*
X015580Y024000D01*
X015580Y024200D01*
X015530Y024200D01*
X015530Y025000D01*
X015580Y025000D01*
X015580Y025200D01*
X015530Y025200D01*
X015530Y026000D01*
X015580Y026000D01*
X015580Y026200D01*
X015530Y026200D01*
X015530Y027000D01*
X015580Y027000D01*
X015580Y027200D01*
X015530Y027200D01*
X015530Y028000D01*
X015580Y028000D01*
X015580Y028200D01*
X015530Y028200D01*
X015530Y029000D01*
X015580Y029000D01*
X015580Y029200D01*
X015530Y029200D01*
X015530Y030000D01*
X015730Y030000D01*
X015830Y030000D01*
X015830Y029850D01*
X015930Y029850D01*
X015930Y029350D01*
X015830Y029350D01*
X015830Y029200D01*
X017080Y029200D01*
X016980Y029100D01*
X017080Y029000D01*
X015830Y029000D01*
X015830Y028850D01*
X015930Y028850D01*
X015930Y028350D01*
X015830Y028350D01*
X015830Y028200D01*
X017130Y028200D01*
X017130Y028000D01*
X017130Y027200D01*
X017130Y027000D01*
X017130Y026200D01*
X017130Y026000D01*
X017130Y025200D01*
X017130Y025000D01*
X017130Y024200D01*
X017130Y024000D01*
X017130Y023200D01*
X017130Y023000D01*
X017130Y022200D01*
X017130Y022000D01*
X017130Y021200D01*
X017130Y021000D01*
X017130Y020200D01*
X017130Y020000D01*
X017130Y019200D01*
X017130Y019000D01*
X017130Y018200D01*
X017130Y018000D01*
X017130Y017250D01*
X017080Y017200D01*
X015830Y017200D01*
X015830Y017000D01*
X015830Y016850D02*
X015730Y016850D01*
X015730Y017350D01*
X015830Y017350D01*
X015830Y017200D01*
X015830Y017350D02*
X015930Y017350D01*
X015930Y017850D01*
X015830Y017850D01*
X015830Y018000D01*
X017130Y018000D01*
X017130Y018200D02*
X015830Y018200D01*
X015830Y018000D01*
X015830Y017850D02*
X015730Y017850D01*
X015730Y018350D01*
X015830Y018350D01*
X015830Y018200D01*
X015830Y018350D02*
X015930Y018350D01*
X015930Y018850D01*
X015830Y018850D01*
X015830Y019000D01*
X017130Y019000D01*
X017130Y019200D02*
X015830Y019200D01*
X015830Y019000D01*
X015830Y018850D02*
X015730Y018850D01*
X015730Y019350D01*
X015830Y019350D01*
X015830Y019200D01*
X015830Y019350D02*
X015930Y019350D01*
X015930Y019850D01*
X015830Y019850D01*
X015830Y020000D01*
X017130Y020000D01*
X017130Y020200D02*
X015830Y020200D01*
X015830Y020000D01*
X015830Y019850D02*
X015730Y019850D01*
X015730Y020350D01*
X015830Y020350D01*
X015830Y020200D01*
X015830Y020350D02*
X015930Y020350D01*
X015930Y020850D01*
X015830Y020850D01*
X015830Y021000D01*
X017130Y021000D01*
X017130Y021200D02*
X015830Y021200D01*
X015830Y021000D01*
X015830Y020850D02*
X015730Y020850D01*
X015730Y021350D01*
X015830Y021350D01*
X015830Y021200D01*
X015830Y021350D02*
X015930Y021350D01*
X015930Y021850D01*
X015830Y021850D01*
X015830Y022000D01*
X017130Y022000D01*
X017130Y022200D02*
X015830Y022200D01*
X015830Y022000D01*
X015830Y021850D02*
X015730Y021850D01*
X015730Y022350D01*
X015830Y022350D01*
X015830Y022200D01*
X015830Y022350D02*
X015930Y022350D01*
X015930Y022850D01*
X015830Y022850D01*
X015830Y023000D01*
X017130Y023000D01*
X017130Y023200D02*
X015830Y023200D01*
X015830Y023000D01*
X015830Y022850D02*
X015730Y022850D01*
X015730Y023350D01*
X015830Y023350D01*
X015830Y023200D01*
X015830Y023350D02*
X015930Y023350D01*
X015930Y023850D01*
X015830Y023850D01*
X015830Y024000D01*
X017130Y024000D01*
X017130Y024200D02*
X015830Y024200D01*
X015830Y024000D01*
X015830Y023850D02*
X015730Y023850D01*
X015730Y024350D01*
X015830Y024350D01*
X015830Y024200D01*
X015830Y024350D02*
X015930Y024350D01*
X015930Y024850D01*
X015830Y024850D01*
X015830Y025000D01*
X017130Y025000D01*
X017130Y025200D02*
X015830Y025200D01*
X015830Y025000D01*
X015830Y024850D02*
X015730Y024850D01*
X015730Y025350D01*
X015830Y025350D01*
X015830Y025200D01*
X015830Y025350D02*
X015930Y025350D01*
X015930Y025850D01*
X015830Y025850D01*
X015830Y026000D01*
X017130Y026000D01*
X017130Y026200D02*
X015830Y026200D01*
X015830Y026000D01*
X015830Y025850D02*
X015730Y025850D01*
X015730Y026350D01*
X015830Y026350D01*
X015830Y026200D01*
X015830Y026350D02*
X015930Y026350D01*
X015930Y026850D01*
X015830Y026850D01*
X015830Y027000D01*
X015830Y027200D01*
X015830Y027350D01*
X015930Y027350D01*
X015930Y027850D01*
X015830Y027850D01*
X015830Y028000D01*
X017130Y028000D01*
X017130Y028200D02*
X017130Y028950D01*
X017080Y029000D01*
X017080Y029200D02*
X017130Y029250D01*
X017130Y030000D01*
X015830Y030000D01*
X015730Y030000D02*
X015730Y029850D01*
X015830Y029850D01*
X015830Y029350D02*
X015730Y029350D01*
X015730Y028850D01*
X015830Y028850D01*
X015830Y029000D02*
X015830Y029200D01*
X015830Y028350D02*
X015730Y028350D01*
X015730Y027850D01*
X015830Y027850D01*
X015830Y028000D02*
X015830Y028200D01*
X015830Y027350D02*
X015730Y027350D01*
X015730Y026850D01*
X015830Y026850D01*
X015830Y027000D02*
X017130Y027000D01*
X017130Y027200D02*
X015830Y027200D01*
X014680Y028350D02*
X014330Y028350D01*
X014280Y028350D01*
X014080Y028350D02*
X014030Y028350D01*
X013680Y028350D01*
X012180Y028000D02*
X012180Y026200D01*
X011980Y026200D01*
X011980Y028000D01*
X012180Y028000D01*
X011730Y027850D02*
X011730Y026350D01*
X011130Y026350D01*
X011130Y027850D01*
X011730Y027850D01*
X010880Y028000D02*
X010680Y028000D01*
X010680Y026200D01*
X010680Y025400D01*
X012180Y025400D01*
X012180Y026200D01*
X010880Y026200D02*
X010880Y028000D01*
X010680Y028800D02*
X012180Y028800D01*
X012310Y029530D02*
X011555Y029530D01*
X011555Y030170D02*
X012310Y030170D01*
X013800Y030170D02*
X014555Y030170D01*
X014555Y029530D02*
X013800Y029530D01*
X017130Y030000D02*
X017430Y030000D01*
X017430Y029700D01*
X017480Y029700D01*
X017480Y029500D01*
X017430Y029500D01*
X017430Y029200D01*
X017380Y029200D01*
X017380Y029000D01*
X017430Y029000D01*
X017430Y028700D01*
X017480Y028700D01*
X017480Y028500D01*
X017430Y028500D01*
X017430Y028200D01*
X017380Y028200D01*
X017380Y028000D01*
X017430Y028000D01*
X017430Y027700D01*
X017480Y027700D01*
X017480Y027500D01*
X017430Y027500D01*
X017430Y027200D01*
X017380Y027200D01*
X017380Y027000D01*
X017430Y027000D01*
X017430Y026700D01*
X017480Y026700D01*
X017480Y026500D01*
X017430Y026500D01*
X017430Y026200D01*
X017380Y026200D01*
X017380Y026000D01*
X017430Y026000D01*
X017430Y025700D01*
X017480Y025700D01*
X017480Y025500D01*
X017430Y025500D01*
X017430Y025200D01*
X017380Y025200D01*
X017380Y025000D01*
X017430Y025000D01*
X017430Y024700D01*
X017480Y024700D01*
X017480Y024500D01*
X017430Y024500D01*
X017430Y024200D01*
X017380Y024200D01*
X017380Y024000D01*
X017430Y024000D01*
X017430Y023700D01*
X017480Y023700D01*
X017480Y023500D01*
X017430Y023500D01*
X017430Y023200D01*
X017380Y023200D01*
X017380Y023000D01*
X017430Y023000D01*
X017430Y022700D01*
X017480Y022700D01*
X017480Y022500D01*
X017430Y022500D01*
X017430Y022200D01*
X017380Y022200D01*
X017380Y022000D01*
X017430Y022000D01*
X017430Y021700D01*
X017480Y021700D01*
X017480Y021500D01*
X017430Y021500D01*
X017430Y021200D01*
X017380Y021200D01*
X017380Y021000D01*
X017430Y021000D01*
X017430Y020700D01*
X017480Y020700D01*
X017480Y020500D01*
X017430Y020500D01*
X017430Y020200D01*
X017380Y020200D01*
X017380Y020000D01*
X017430Y020000D01*
X017430Y019700D01*
X017480Y019700D01*
X017480Y019500D01*
X017430Y019500D01*
X017430Y019200D01*
X017380Y019200D01*
X017380Y019000D01*
X017430Y019000D01*
X017430Y018700D01*
X017480Y018700D01*
X017480Y018500D01*
X017430Y018500D01*
X017430Y018200D01*
X017380Y018200D01*
X017380Y018000D01*
X017430Y018000D01*
X017430Y017700D01*
X017480Y017700D01*
X017480Y017500D01*
X017430Y017500D01*
X017430Y017200D01*
X017380Y017200D01*
X017380Y017000D01*
X017430Y017000D01*
X017430Y016700D01*
X017480Y016700D01*
X017480Y016500D01*
X017430Y016500D01*
X017430Y016200D01*
X017130Y016200D01*
X017080Y017000D02*
X016980Y017100D01*
X017080Y017200D01*
X018680Y016100D02*
X018680Y030050D01*
X018680Y030100D02*
X019180Y030100D01*
X019182Y030056D01*
X019188Y030013D01*
X019197Y029971D01*
X019210Y029929D01*
X019227Y029889D01*
X019247Y029850D01*
X019270Y029813D01*
X019297Y029779D01*
X019326Y029746D01*
X019359Y029717D01*
X019393Y029690D01*
X019430Y029667D01*
X019469Y029647D01*
X019509Y029630D01*
X019551Y029617D01*
X019593Y029608D01*
X019636Y029602D01*
X019680Y029600D01*
X019724Y029602D01*
X019767Y029608D01*
X019809Y029617D01*
X019851Y029630D01*
X019891Y029647D01*
X019930Y029667D01*
X019967Y029690D01*
X020001Y029717D01*
X020034Y029746D01*
X020063Y029779D01*
X020090Y029813D01*
X020113Y029850D01*
X020133Y029889D01*
X020150Y029929D01*
X020163Y029971D01*
X020172Y030013D01*
X020178Y030056D01*
X020180Y030100D01*
X020680Y030100D01*
X020680Y016100D01*
X018680Y016100D01*
X016180Y015350D02*
X016180Y015000D01*
X016180Y014950D01*
X016180Y014750D02*
X016180Y014700D01*
X016180Y014350D01*
X021930Y016200D02*
X021930Y016500D01*
X021880Y016500D01*
X021880Y016700D01*
X021930Y016700D01*
X021930Y017000D01*
X021980Y017000D01*
X021980Y017200D01*
X021930Y017200D01*
X021930Y017500D01*
X021880Y017500D01*
X021880Y017700D01*
X021930Y017700D01*
X021930Y018000D01*
X021980Y018000D01*
X021980Y018200D01*
X021930Y018200D01*
X021930Y018500D01*
X021880Y018500D01*
X021880Y018700D01*
X021930Y018700D01*
X021930Y019000D01*
X021980Y019000D01*
X021980Y019200D01*
X021930Y019200D01*
X021930Y019500D01*
X021880Y019500D01*
X021880Y019700D01*
X021930Y019700D01*
X021930Y020000D01*
X021980Y020000D01*
X021980Y020200D01*
X021930Y020200D01*
X021930Y020500D01*
X021880Y020500D01*
X021880Y020700D01*
X021930Y020700D01*
X021930Y021000D01*
X021980Y021000D01*
X021980Y021200D01*
X021930Y021200D01*
X021930Y021500D01*
X021880Y021500D01*
X021880Y021700D01*
X021930Y021700D01*
X021930Y022000D01*
X021980Y022000D01*
X021980Y022200D01*
X021930Y022200D01*
X021930Y022500D01*
X021880Y022500D01*
X021880Y022700D01*
X021930Y022700D01*
X021930Y023000D01*
X021980Y023000D01*
X021980Y023200D01*
X021930Y023200D01*
X021930Y023500D01*
X021880Y023500D01*
X021880Y023700D01*
X021930Y023700D01*
X021930Y024000D01*
X021980Y024000D01*
X021980Y024200D01*
X021930Y024200D01*
X021930Y024500D01*
X021880Y024500D01*
X021880Y024700D01*
X021930Y024700D01*
X021930Y025000D01*
X021980Y025000D01*
X021980Y025200D01*
X021930Y025200D01*
X021930Y025500D01*
X021880Y025500D01*
X021880Y025700D01*
X021930Y025700D01*
X021930Y026000D01*
X021980Y026000D01*
X021980Y026200D01*
X021930Y026200D01*
X021930Y026500D01*
X021880Y026500D01*
X021880Y026700D01*
X021930Y026700D01*
X021930Y027000D01*
X021980Y027000D01*
X021980Y027200D01*
X021930Y027200D01*
X021930Y027500D01*
X021880Y027500D01*
X021880Y027700D01*
X021930Y027700D01*
X021930Y028000D01*
X021980Y028000D01*
X021980Y028200D01*
X021930Y028200D01*
X021930Y028500D01*
X021880Y028500D01*
X021880Y028700D01*
X021930Y028700D01*
X021930Y029000D01*
X021980Y029000D01*
X021980Y029200D01*
X021930Y029200D01*
X021930Y029500D01*
X021880Y029500D01*
X021880Y029700D01*
X021930Y029700D01*
X021930Y030000D01*
X022230Y030000D01*
X023530Y030000D01*
X023630Y030000D01*
X023630Y029850D01*
X023530Y029850D01*
X023430Y029850D01*
X023430Y029350D01*
X023530Y029350D01*
X023530Y029200D01*
X022280Y029200D01*
X022230Y029250D01*
X022230Y030000D01*
X022280Y029200D02*
X022380Y029100D01*
X022280Y029000D01*
X023530Y029000D01*
X023530Y029200D01*
X023530Y029350D02*
X023630Y029350D01*
X023630Y028850D01*
X023530Y028850D01*
X023530Y029000D01*
X023530Y028850D02*
X023430Y028850D01*
X023430Y028350D01*
X023530Y028350D01*
X023530Y028200D01*
X022230Y028200D01*
X022230Y028950D01*
X022280Y029000D01*
X022230Y028200D02*
X022230Y028000D01*
X023530Y028000D01*
X023530Y028200D01*
X023530Y028350D02*
X023630Y028350D01*
X023630Y027850D01*
X023530Y027850D01*
X023530Y028000D01*
X023530Y027850D02*
X023430Y027850D01*
X023430Y027350D01*
X023530Y027350D01*
X023530Y027200D01*
X022230Y027200D01*
X022230Y028000D01*
X022230Y027200D02*
X022230Y027000D01*
X023530Y027000D01*
X023530Y027200D01*
X023530Y027350D02*
X023630Y027350D01*
X023630Y026850D01*
X023530Y026850D01*
X023530Y027000D01*
X023530Y026850D02*
X023430Y026850D01*
X023430Y026350D01*
X023530Y026350D01*
X023530Y026200D01*
X022230Y026200D01*
X022230Y027000D01*
X022230Y026200D02*
X022230Y026000D01*
X023530Y026000D01*
X023530Y026200D01*
X023530Y026350D02*
X023630Y026350D01*
X023630Y025850D01*
X023530Y025850D01*
X023530Y026000D01*
X023530Y025850D02*
X023430Y025850D01*
X023430Y025350D01*
X023530Y025350D01*
X023530Y025200D01*
X022230Y025200D01*
X022230Y026000D01*
X022230Y025200D02*
X022230Y025000D01*
X023530Y025000D01*
X023530Y025200D01*
X023530Y025350D02*
X023630Y025350D01*
X023630Y024850D01*
X023530Y024850D01*
X023530Y025000D01*
X023530Y024850D02*
X023430Y024850D01*
X023430Y024350D01*
X023530Y024350D01*
X023530Y024200D01*
X022230Y024200D01*
X022230Y025000D01*
X022230Y024200D02*
X022230Y024000D01*
X023530Y024000D01*
X023530Y024200D01*
X023530Y024350D02*
X023630Y024350D01*
X023630Y023850D01*
X023530Y023850D01*
X023530Y024000D01*
X023530Y023850D02*
X023430Y023850D01*
X023430Y023350D01*
X023530Y023350D01*
X023530Y023200D01*
X022230Y023200D01*
X022230Y024000D01*
X022230Y023200D02*
X022230Y023000D01*
X023530Y023000D01*
X023530Y023200D01*
X023530Y023350D02*
X023630Y023350D01*
X023630Y022850D01*
X023530Y022850D01*
X023530Y023000D01*
X023530Y022850D02*
X023430Y022850D01*
X023430Y022350D01*
X023530Y022350D01*
X023530Y022200D01*
X022230Y022200D01*
X022230Y023000D01*
X022230Y022200D02*
X022230Y022000D01*
X023530Y022000D01*
X023530Y022200D01*
X023530Y022350D02*
X023630Y022350D01*
X023630Y021850D01*
X023530Y021850D01*
X023530Y022000D01*
X023530Y021850D02*
X023430Y021850D01*
X023430Y021350D01*
X023530Y021350D01*
X023530Y021200D01*
X022230Y021200D01*
X022230Y022000D01*
X022230Y021200D02*
X022230Y021000D01*
X023530Y021000D01*
X023530Y021200D01*
X023530Y021350D02*
X023630Y021350D01*
X023630Y020850D01*
X023530Y020850D01*
X023530Y021000D01*
X023530Y020850D02*
X023430Y020850D01*
X023430Y020350D01*
X023530Y020350D01*
X023530Y020200D01*
X022230Y020200D01*
X022230Y021000D01*
X022230Y020200D02*
X022230Y020000D01*
X023530Y020000D01*
X023530Y020200D01*
X023530Y020350D02*
X023630Y020350D01*
X023630Y019850D01*
X023530Y019850D01*
X023530Y020000D01*
X023530Y019850D02*
X023430Y019850D01*
X023430Y019350D01*
X023530Y019350D01*
X023530Y019200D01*
X023530Y019000D01*
X023530Y018850D01*
X023430Y018850D01*
X023430Y018350D01*
X023530Y018350D01*
X023530Y018200D01*
X022230Y018200D01*
X022230Y019000D01*
X022230Y019200D01*
X022230Y020000D01*
X022230Y019200D02*
X023530Y019200D01*
X023530Y019350D02*
X023630Y019350D01*
X023630Y018850D01*
X023530Y018850D01*
X023530Y019000D02*
X022230Y019000D01*
X022230Y018200D02*
X022230Y018000D01*
X023530Y018000D01*
X023530Y018200D01*
X023530Y018350D02*
X023630Y018350D01*
X023630Y017850D01*
X023530Y017850D01*
X023530Y018000D01*
X023530Y017850D02*
X023430Y017850D01*
X023430Y017350D01*
X023530Y017350D01*
X023530Y017200D01*
X022280Y017200D01*
X022230Y017250D01*
X022230Y018000D01*
X022280Y017200D02*
X022380Y017100D01*
X022280Y017000D01*
X023530Y017000D01*
X023530Y017200D01*
X023530Y017350D02*
X023630Y017350D01*
X023630Y016850D01*
X023530Y016850D01*
X023530Y017000D01*
X023530Y016850D02*
X023430Y016850D01*
X023430Y016350D01*
X023530Y016350D01*
X023530Y016200D01*
X023630Y016200D01*
X023630Y016350D01*
X023530Y016350D01*
X023530Y016200D02*
X022230Y016200D01*
X022230Y016950D01*
X022280Y017000D01*
X022230Y016200D02*
X021930Y016200D01*
X023630Y016200D02*
X023830Y016200D01*
X023830Y017000D01*
X023780Y017000D01*
X023780Y017200D01*
X023830Y017200D01*
X023830Y018000D01*
X023780Y018000D01*
X023780Y018200D01*
X023830Y018200D01*
X023830Y019000D01*
X023780Y019000D01*
X023780Y019200D01*
X023830Y019200D01*
X023830Y020000D01*
X023780Y020000D01*
X023780Y020200D01*
X023830Y020200D01*
X023830Y021000D01*
X023780Y021000D01*
X023780Y021200D01*
X023830Y021200D01*
X023830Y022000D01*
X023780Y022000D01*
X023780Y022200D01*
X023830Y022200D01*
X023830Y023000D01*
X023780Y023000D01*
X023780Y023200D01*
X023830Y023200D01*
X023830Y024000D01*
X023780Y024000D01*
X023780Y024200D01*
X023830Y024200D01*
X023830Y025000D01*
X023780Y025000D01*
X023780Y025200D01*
X023830Y025200D01*
X023830Y026000D01*
X023780Y026000D01*
X023780Y026200D01*
X023830Y026200D01*
X023830Y027000D01*
X023780Y027000D01*
X023780Y027200D01*
X023830Y027200D01*
X023830Y028000D01*
X023780Y028000D01*
X023780Y028200D01*
X023830Y028200D01*
X023830Y029000D01*
X023780Y029000D01*
X023780Y029200D01*
X023830Y029200D01*
X023830Y030000D01*
X023630Y030000D01*
X023530Y030000D02*
X023530Y029850D01*
X023430Y031350D02*
X022930Y031350D01*
X022680Y031600D01*
X022430Y031350D01*
X021930Y031350D01*
X021680Y031600D01*
X021430Y031350D01*
X020930Y031350D01*
X020680Y031600D01*
X020430Y031350D01*
X019930Y031350D01*
X019680Y031600D01*
X019430Y031350D01*
X018930Y031350D01*
X018680Y031600D01*
X018430Y031350D01*
X017930Y031350D01*
X017680Y031600D01*
X017680Y032100D01*
X017930Y032350D01*
X018430Y032350D01*
X018680Y032100D01*
X018930Y032350D01*
X019430Y032350D01*
X019680Y032100D01*
X019930Y032350D01*
X020430Y032350D01*
X020680Y032100D01*
X020930Y032350D01*
X021430Y032350D01*
X021680Y032100D01*
X021930Y032350D01*
X022430Y032350D01*
X022680Y032100D01*
X022930Y032350D01*
X023430Y032350D01*
X023680Y032100D01*
X023680Y031600D01*
X023430Y031350D01*
X026930Y031350D02*
X026930Y030850D01*
X027180Y030600D01*
X026930Y030350D01*
X026930Y029850D01*
X027180Y029600D01*
X027680Y029600D01*
X027930Y029850D01*
X027930Y030350D01*
X027680Y030600D01*
X027930Y030850D01*
X027930Y031350D01*
X027680Y031600D01*
X027180Y031600D01*
X026930Y031350D01*
X026500Y024230D02*
X026500Y023475D01*
X025860Y023475D02*
X025860Y024230D01*
X025000Y024225D02*
X025000Y023470D01*
X024360Y023470D02*
X024360Y024225D01*
X024430Y021600D02*
X024780Y021600D01*
X024830Y021600D01*
X025030Y021600D02*
X025080Y021600D01*
X025430Y021600D01*
X027380Y019650D02*
X027380Y019550D01*
X027380Y019650D02*
X027480Y019650D01*
X027430Y019350D02*
X027432Y019381D01*
X027438Y019412D01*
X027448Y019442D01*
X027461Y019470D01*
X027478Y019497D01*
X027498Y019521D01*
X027521Y019543D01*
X027546Y019561D01*
X027574Y019576D01*
X027603Y019588D01*
X027633Y019596D01*
X027664Y019600D01*
X027696Y019600D01*
X027727Y019596D01*
X027757Y019588D01*
X027786Y019576D01*
X027814Y019561D01*
X027839Y019543D01*
X027862Y019521D01*
X027882Y019497D01*
X027899Y019470D01*
X027912Y019442D01*
X027922Y019412D01*
X027928Y019381D01*
X027930Y019350D01*
X027928Y019319D01*
X027922Y019288D01*
X027912Y019258D01*
X027899Y019230D01*
X027882Y019203D01*
X027862Y019179D01*
X027839Y019157D01*
X027814Y019139D01*
X027786Y019124D01*
X027757Y019112D01*
X027727Y019104D01*
X027696Y019100D01*
X027664Y019100D01*
X027633Y019104D01*
X027603Y019112D01*
X027574Y019124D01*
X027546Y019139D01*
X027521Y019157D01*
X027498Y019179D01*
X027478Y019203D01*
X027461Y019230D01*
X027448Y019258D01*
X027438Y019288D01*
X027432Y019319D01*
X027430Y019350D01*
X027380Y019150D02*
X027380Y019050D01*
X027480Y019050D01*
X027880Y019050D02*
X027980Y019050D01*
X027980Y019150D01*
X027980Y019550D02*
X027980Y019650D01*
X027880Y019650D01*
X027880Y016400D02*
X027980Y016400D01*
X027980Y016300D01*
X027430Y016100D02*
X027432Y016131D01*
X027438Y016162D01*
X027448Y016192D01*
X027461Y016220D01*
X027478Y016247D01*
X027498Y016271D01*
X027521Y016293D01*
X027546Y016311D01*
X027574Y016326D01*
X027603Y016338D01*
X027633Y016346D01*
X027664Y016350D01*
X027696Y016350D01*
X027727Y016346D01*
X027757Y016338D01*
X027786Y016326D01*
X027814Y016311D01*
X027839Y016293D01*
X027862Y016271D01*
X027882Y016247D01*
X027899Y016220D01*
X027912Y016192D01*
X027922Y016162D01*
X027928Y016131D01*
X027930Y016100D01*
X027928Y016069D01*
X027922Y016038D01*
X027912Y016008D01*
X027899Y015980D01*
X027882Y015953D01*
X027862Y015929D01*
X027839Y015907D01*
X027814Y015889D01*
X027786Y015874D01*
X027757Y015862D01*
X027727Y015854D01*
X027696Y015850D01*
X027664Y015850D01*
X027633Y015854D01*
X027603Y015862D01*
X027574Y015874D01*
X027546Y015889D01*
X027521Y015907D01*
X027498Y015929D01*
X027478Y015953D01*
X027461Y015980D01*
X027448Y016008D01*
X027438Y016038D01*
X027432Y016069D01*
X027430Y016100D01*
X027380Y015900D02*
X027380Y015800D01*
X027480Y015800D01*
X027880Y015800D02*
X027980Y015800D01*
X027980Y015900D01*
X027480Y016400D02*
X027380Y016400D01*
X027380Y016300D01*
X039180Y017100D02*
X039180Y017450D01*
X039180Y017500D01*
X039180Y017700D02*
X039180Y017750D01*
X039180Y018100D01*
X039180Y018850D02*
X039180Y019200D01*
X039180Y019250D01*
X039180Y019450D02*
X039180Y019500D01*
X039180Y019850D01*
X035400Y004540D02*
X035400Y004313D01*
X035400Y004427D02*
X035060Y004427D01*
X035173Y004313D01*
X035230Y004172D02*
X035230Y003945D01*
X035116Y003803D02*
X035060Y003803D01*
X035116Y003803D02*
X035230Y003690D01*
X035400Y003690D01*
X035230Y003690D02*
X035116Y003577D01*
X035060Y003577D01*
X035116Y003435D02*
X035060Y003378D01*
X035060Y003208D01*
X035400Y003208D01*
X035287Y003208D02*
X035287Y003378D01*
X035230Y003435D01*
X035116Y003435D01*
X035287Y003322D02*
X035400Y003435D01*
X035343Y003067D02*
X035116Y003067D01*
X035060Y003010D01*
X035060Y002897D01*
X035116Y002840D01*
X035343Y002840D01*
X035400Y002897D01*
X035400Y003010D01*
X035343Y003067D01*
X035343Y002698D02*
X035400Y002642D01*
X035400Y002528D01*
X035343Y002472D01*
X035230Y002528D02*
X035230Y002642D01*
X035287Y002698D01*
X035343Y002698D01*
X035230Y002528D02*
X035173Y002472D01*
X035116Y002472D01*
X035060Y002528D01*
X035060Y002642D01*
X035116Y002698D01*
X035116Y002330D02*
X035060Y002273D01*
X035060Y002160D01*
X035116Y002103D01*
X035173Y002103D01*
X035230Y002160D01*
X035230Y002273D01*
X035287Y002330D01*
X035343Y002330D01*
X035400Y002273D01*
X035400Y002160D01*
X035343Y002103D01*
X035400Y001962D02*
X035400Y001735D01*
X035060Y001735D01*
X035060Y001962D01*
X035230Y001848D02*
X035230Y001735D01*
X035343Y001593D02*
X035400Y001537D01*
X035400Y001423D01*
X035343Y001367D01*
X035116Y001367D01*
X035060Y001423D01*
X035060Y001537D01*
X035116Y001593D01*
X035116Y001225D02*
X035060Y001168D01*
X035060Y001055D01*
X035116Y000998D01*
X035343Y000998D01*
X035400Y001055D01*
X035400Y001168D01*
X035343Y001225D01*
X035400Y000857D02*
X035173Y000857D01*
X035060Y000743D01*
X035173Y000630D01*
X035400Y000630D01*
X035230Y000630D02*
X035230Y000857D01*
X030900Y000857D02*
X030673Y000857D01*
X030560Y000743D01*
X030673Y000630D01*
X030900Y000630D01*
X030730Y000630D02*
X030730Y000857D01*
X030843Y000998D02*
X030616Y000998D01*
X030560Y001055D01*
X030560Y001168D01*
X030616Y001225D01*
X030616Y001367D02*
X030843Y001367D01*
X030900Y001423D01*
X030900Y001537D01*
X030843Y001593D01*
X030900Y001735D02*
X030560Y001735D01*
X030560Y001962D01*
X030616Y002103D02*
X030673Y002103D01*
X030730Y002160D01*
X030730Y002273D01*
X030787Y002330D01*
X030843Y002330D01*
X030900Y002273D01*
X030900Y002160D01*
X030843Y002103D01*
X030900Y001962D02*
X030900Y001735D01*
X030730Y001735D02*
X030730Y001848D01*
X030616Y001593D02*
X030560Y001537D01*
X030560Y001423D01*
X030616Y001367D01*
X030843Y001225D02*
X030900Y001168D01*
X030900Y001055D01*
X030843Y000998D01*
X030616Y002103D02*
X030560Y002160D01*
X030560Y002273D01*
X030616Y002330D01*
X030616Y002472D02*
X030673Y002472D01*
X030730Y002528D01*
X030730Y002642D01*
X030787Y002698D01*
X030843Y002698D01*
X030900Y002642D01*
X030900Y002528D01*
X030843Y002472D01*
X030616Y002472D02*
X030560Y002528D01*
X030560Y002642D01*
X030616Y002698D01*
X030616Y002840D02*
X030843Y002840D01*
X030900Y002897D01*
X030900Y003010D01*
X030843Y003067D01*
X030616Y003067D01*
X030560Y003010D01*
X030560Y002897D01*
X030616Y002840D01*
X030560Y003208D02*
X030560Y003378D01*
X030616Y003435D01*
X030730Y003435D01*
X030787Y003378D01*
X030787Y003208D01*
X030900Y003208D02*
X030560Y003208D01*
X030787Y003322D02*
X030900Y003435D01*
X030900Y003690D02*
X030730Y003690D01*
X030616Y003803D01*
X030560Y003803D01*
X030730Y003690D02*
X030616Y003577D01*
X030560Y003577D01*
X030730Y003945D02*
X030730Y004172D01*
X030616Y004313D02*
X030560Y004370D01*
X030560Y004483D01*
X030616Y004540D01*
X030673Y004540D01*
X030900Y004313D01*
X030900Y004540D01*
X014680Y020600D02*
X014680Y020950D01*
X014680Y021000D01*
X014680Y021200D02*
X014680Y021250D01*
X014680Y021600D01*
X013380Y020700D02*
X013380Y023000D01*
X013378Y023051D01*
X013373Y023102D01*
X013363Y023152D01*
X013350Y023202D01*
X013334Y023250D01*
X013314Y023297D01*
X013290Y023343D01*
X013264Y023386D01*
X013234Y023428D01*
X013201Y023467D01*
X013166Y023504D01*
X013128Y023538D01*
X013087Y023569D01*
X013045Y023598D01*
X013000Y023623D01*
X012954Y023644D01*
X012906Y023663D01*
X012857Y023677D01*
X012807Y023688D01*
X012757Y023696D01*
X012706Y023700D01*
X012654Y023700D01*
X012603Y023696D01*
X012553Y023688D01*
X012503Y023677D01*
X012454Y023663D01*
X012406Y023644D01*
X012360Y023623D01*
X012315Y023598D01*
X012273Y023569D01*
X012232Y023538D01*
X012194Y023504D01*
X012159Y023467D01*
X012126Y023428D01*
X012096Y023386D01*
X012070Y023343D01*
X012046Y023297D01*
X012026Y023250D01*
X012010Y023202D01*
X011997Y023152D01*
X011987Y023102D01*
X011982Y023051D01*
X011980Y023000D01*
X011980Y020700D01*
X011982Y020649D01*
X011987Y020598D01*
X011997Y020548D01*
X012010Y020498D01*
X012026Y020450D01*
X012046Y020403D01*
X012070Y020357D01*
X012096Y020314D01*
X012126Y020272D01*
X012159Y020233D01*
X012194Y020196D01*
X012232Y020162D01*
X012273Y020131D01*
X012315Y020102D01*
X012360Y020077D01*
X012406Y020056D01*
X012454Y020037D01*
X012503Y020023D01*
X012553Y020012D01*
X012603Y020004D01*
X012654Y020000D01*
X012706Y020000D01*
X012757Y020004D01*
X012807Y020012D01*
X012857Y020023D01*
X012906Y020037D01*
X012954Y020056D01*
X013000Y020077D01*
X013045Y020102D01*
X013087Y020131D01*
X013128Y020162D01*
X013166Y020196D01*
X013201Y020233D01*
X013234Y020272D01*
X013264Y020314D01*
X013290Y020357D01*
X013314Y020403D01*
X013334Y020450D01*
X013350Y020498D01*
X013363Y020548D01*
X013373Y020598D01*
X013378Y020649D01*
X013380Y020700D01*
X012680Y021350D02*
X012680Y021600D01*
X012330Y021600D01*
X012330Y021750D02*
X012330Y021950D01*
X013030Y021950D01*
X013030Y021750D01*
X012330Y021750D01*
X012330Y022100D02*
X012680Y022100D01*
X012680Y022350D01*
X012680Y022100D02*
X013030Y022100D01*
X013030Y021600D02*
X012680Y021600D01*
X012680Y024600D02*
X013030Y024600D01*
X013080Y024600D01*
X013280Y024600D02*
X013330Y024600D01*
X013680Y024600D01*
X014180Y025850D02*
X014530Y025850D01*
X014580Y025850D01*
X014780Y025850D02*
X014830Y025850D01*
X015180Y025850D01*
X010880Y026200D02*
X010680Y026200D01*
X009500Y026970D02*
X009500Y027725D01*
X008860Y027725D02*
X008860Y026970D01*
X007930Y026850D02*
X007580Y026850D01*
X007530Y026850D01*
X007330Y026850D02*
X007280Y026850D01*
X006930Y026850D01*
X008860Y028970D02*
X008860Y029725D01*
X009500Y029725D02*
X009500Y028970D01*
X004374Y026414D02*
X004318Y026470D01*
X004204Y026470D01*
X004148Y026414D01*
X004148Y026357D01*
X004204Y026300D01*
X004318Y026300D01*
X004374Y026243D01*
X004374Y026187D01*
X004318Y026130D01*
X004204Y026130D01*
X004148Y026187D01*
X004006Y026187D02*
X004006Y026470D01*
X003779Y026470D02*
X003779Y026187D01*
X003836Y026130D01*
X003949Y026130D01*
X004006Y026187D01*
X003638Y026470D02*
X003411Y026470D01*
X003524Y026470D02*
X003524Y026130D01*
X003270Y026130D02*
X003270Y026357D01*
X003156Y026470D01*
X003043Y026357D01*
X003043Y026130D01*
X003043Y026300D02*
X003270Y026300D01*
X002901Y026470D02*
X002674Y026470D01*
X002788Y026470D02*
X002788Y026130D01*
X002533Y026187D02*
X002476Y026130D01*
X002363Y026130D01*
X002306Y026187D01*
X002363Y026300D02*
X002476Y026300D01*
X002533Y026243D01*
X002533Y026187D01*
X002363Y026300D02*
X002306Y026357D01*
X002306Y026414D01*
X002363Y026470D01*
X002476Y026470D01*
X002533Y026414D01*
X002165Y026073D02*
X001938Y026073D01*
X001806Y026130D02*
X001692Y026130D01*
X001749Y026130D02*
X001749Y026470D01*
X001692Y026470D02*
X001806Y026470D01*
X001551Y026470D02*
X001551Y026130D01*
X001437Y026243D01*
X001324Y026130D01*
X001324Y026470D01*
X001192Y026470D02*
X001078Y026470D01*
X001135Y026470D02*
X001135Y026130D01*
X001078Y026130D02*
X001192Y026130D01*
X000937Y026130D02*
X000937Y026470D01*
X000823Y026357D01*
X000710Y026470D01*
X000710Y026130D01*
X000710Y024970D02*
X000880Y024970D01*
X000937Y024914D01*
X000937Y024687D01*
X000880Y024630D01*
X000710Y024630D01*
X000710Y024970D01*
X001078Y024970D02*
X001078Y024630D01*
X001305Y024630D01*
X001447Y024630D02*
X001617Y024630D01*
X001673Y024687D01*
X001673Y024743D01*
X001617Y024800D01*
X001447Y024800D01*
X001617Y024800D02*
X001673Y024857D01*
X001673Y024914D01*
X001617Y024970D01*
X001447Y024970D01*
X001447Y024630D01*
X001192Y024800D02*
X001078Y024800D01*
X001078Y024970D02*
X001305Y024970D01*
X001815Y024970D02*
X001815Y024687D01*
X001872Y024630D01*
X001985Y024630D01*
X002042Y024687D01*
X002042Y024970D01*
X002183Y024914D02*
X002183Y024687D01*
X002240Y024630D01*
X002353Y024630D01*
X002410Y024687D01*
X002410Y024800D01*
X002297Y024800D01*
X002410Y024914D02*
X002353Y024970D01*
X002240Y024970D01*
X002183Y024914D01*
X002552Y024573D02*
X002778Y024573D01*
X002920Y024687D02*
X003147Y024914D01*
X003147Y024687D01*
X003090Y024630D01*
X002977Y024630D01*
X002920Y024687D01*
X002920Y024914D01*
X002977Y024970D01*
X003090Y024970D01*
X003147Y024914D01*
X003033Y023470D02*
X003033Y023130D01*
X002920Y023130D02*
X003147Y023130D01*
X002920Y023357D02*
X003033Y023470D01*
X002778Y023073D02*
X002552Y023073D01*
X002410Y023187D02*
X002410Y023300D01*
X002297Y023300D01*
X002410Y023187D02*
X002353Y023130D01*
X002240Y023130D01*
X002183Y023187D01*
X002183Y023414D01*
X002240Y023470D01*
X002353Y023470D01*
X002410Y023414D01*
X002042Y023470D02*
X002042Y023187D01*
X001985Y023130D01*
X001872Y023130D01*
X001815Y023187D01*
X001815Y023470D01*
X001673Y023414D02*
X001617Y023470D01*
X001447Y023470D01*
X001447Y023130D01*
X001617Y023130D01*
X001673Y023187D01*
X001673Y023243D01*
X001617Y023300D01*
X001447Y023300D01*
X001617Y023300D02*
X001673Y023357D01*
X001673Y023414D01*
X001305Y023470D02*
X001078Y023470D01*
X001078Y023130D01*
X001305Y023130D01*
X001192Y023300D02*
X001078Y023300D01*
X000937Y023187D02*
X000937Y023414D01*
X000880Y023470D01*
X000710Y023470D01*
X000710Y023130D01*
X000880Y023130D01*
X000937Y023187D01*
X000880Y021970D02*
X000767Y021970D01*
X000710Y021914D01*
X000710Y021857D01*
X000767Y021800D01*
X000880Y021800D01*
X000937Y021743D01*
X000937Y021687D01*
X000880Y021630D01*
X000767Y021630D01*
X000710Y021687D01*
X000937Y021914D02*
X000880Y021970D01*
X001078Y021970D02*
X001248Y021970D01*
X001305Y021914D01*
X001305Y021800D01*
X001248Y021743D01*
X001078Y021743D01*
X001078Y021630D02*
X001078Y021970D01*
X001447Y021970D02*
X001560Y021970D01*
X001503Y021970D02*
X001503Y021630D01*
X001447Y021630D02*
X001560Y021630D01*
X001692Y021573D02*
X001919Y021573D01*
X002060Y021687D02*
X002117Y021630D01*
X002231Y021630D01*
X002287Y021687D01*
X002287Y021743D01*
X002231Y021800D01*
X002117Y021800D01*
X002060Y021857D01*
X002060Y021914D01*
X002117Y021970D01*
X002231Y021970D01*
X002287Y021914D01*
X002429Y021914D02*
X002429Y021687D01*
X002486Y021630D01*
X002599Y021630D01*
X002656Y021687D01*
X002797Y021743D02*
X003024Y021970D01*
X002797Y021970D02*
X002797Y021630D01*
X002854Y021800D02*
X003024Y021630D01*
X002656Y021914D02*
X002599Y021970D01*
X002486Y021970D01*
X002429Y021914D01*
X002486Y020470D02*
X002429Y020414D01*
X002429Y020187D01*
X002486Y020130D01*
X002599Y020130D01*
X002656Y020187D01*
X002797Y020130D02*
X002797Y020470D01*
X002656Y020414D02*
X002599Y020470D01*
X002486Y020470D01*
X002287Y020414D02*
X002231Y020470D01*
X002117Y020470D01*
X002060Y020414D01*
X002060Y020357D01*
X002117Y020300D01*
X002231Y020300D01*
X002287Y020243D01*
X002287Y020187D01*
X002231Y020130D01*
X002117Y020130D01*
X002060Y020187D01*
X001919Y020073D02*
X001692Y020073D01*
X001551Y020187D02*
X001494Y020130D01*
X001381Y020130D01*
X001324Y020187D01*
X001324Y020414D01*
X001381Y020470D01*
X001494Y020470D01*
X001551Y020414D01*
X001182Y020414D02*
X001126Y020470D01*
X001012Y020470D01*
X000956Y020414D01*
X000823Y020470D02*
X000710Y020470D01*
X000767Y020470D02*
X000767Y020130D01*
X000823Y020130D02*
X000710Y020130D01*
X000956Y020130D02*
X001182Y020357D01*
X001182Y020414D01*
X001182Y020130D02*
X000956Y020130D01*
X000937Y018970D02*
X000937Y018687D01*
X000880Y018630D01*
X000767Y018630D01*
X000710Y018687D01*
X000710Y018970D01*
X001078Y018857D02*
X001078Y018630D01*
X001078Y018800D02*
X001305Y018800D01*
X001305Y018857D02*
X001305Y018630D01*
X001447Y018630D02*
X001447Y018970D01*
X001617Y018970D01*
X001673Y018914D01*
X001673Y018800D01*
X001617Y018743D01*
X001447Y018743D01*
X001560Y018743D02*
X001673Y018630D01*
X001928Y018630D02*
X001928Y018970D01*
X001815Y018970D02*
X002042Y018970D01*
X002183Y018573D02*
X002410Y018573D01*
X002552Y018630D02*
X002552Y018970D01*
X002722Y018970D01*
X002778Y018914D01*
X002778Y018800D01*
X002722Y018743D01*
X002552Y018743D01*
X002665Y018743D02*
X002778Y018630D01*
X002920Y018630D02*
X003147Y018970D01*
X002920Y018970D02*
X003147Y018630D01*
X003147Y017470D02*
X002920Y017130D01*
X003147Y017130D02*
X002920Y017470D01*
X002778Y017470D02*
X002552Y017470D01*
X002665Y017470D02*
X002665Y017130D01*
X002410Y017073D02*
X002183Y017073D01*
X001928Y017130D02*
X001928Y017470D01*
X001815Y017470D02*
X002042Y017470D01*
X001673Y017414D02*
X001673Y017300D01*
X001617Y017243D01*
X001447Y017243D01*
X001447Y017130D02*
X001447Y017470D01*
X001617Y017470D01*
X001673Y017414D01*
X001560Y017243D02*
X001673Y017130D01*
X001305Y017130D02*
X001305Y017357D01*
X001192Y017470D01*
X001078Y017357D01*
X001078Y017130D01*
X000937Y017187D02*
X000880Y017130D01*
X000767Y017130D01*
X000710Y017187D01*
X000710Y017470D01*
X000937Y017470D02*
X000937Y017187D01*
X001078Y017300D02*
X001305Y017300D01*
X001305Y018857D02*
X001192Y018970D01*
X001078Y018857D01*
X002797Y020130D02*
X003024Y020130D01*
X004880Y020150D02*
X004880Y020050D01*
X004980Y020050D01*
X004930Y020350D02*
X004932Y020381D01*
X004938Y020412D01*
X004948Y020442D01*
X004961Y020470D01*
X004978Y020497D01*
X004998Y020521D01*
X005021Y020543D01*
X005046Y020561D01*
X005074Y020576D01*
X005103Y020588D01*
X005133Y020596D01*
X005164Y020600D01*
X005196Y020600D01*
X005227Y020596D01*
X005257Y020588D01*
X005286Y020576D01*
X005314Y020561D01*
X005339Y020543D01*
X005362Y020521D01*
X005382Y020497D01*
X005399Y020470D01*
X005412Y020442D01*
X005422Y020412D01*
X005428Y020381D01*
X005430Y020350D01*
X005428Y020319D01*
X005422Y020288D01*
X005412Y020258D01*
X005399Y020230D01*
X005382Y020203D01*
X005362Y020179D01*
X005339Y020157D01*
X005314Y020139D01*
X005286Y020124D01*
X005257Y020112D01*
X005227Y020104D01*
X005196Y020100D01*
X005164Y020100D01*
X005133Y020104D01*
X005103Y020112D01*
X005074Y020124D01*
X005046Y020139D01*
X005021Y020157D01*
X004998Y020179D01*
X004978Y020203D01*
X004961Y020230D01*
X004948Y020258D01*
X004938Y020288D01*
X004932Y020319D01*
X004930Y020350D01*
X004880Y020550D02*
X004880Y020650D01*
X004980Y020650D01*
X005380Y020650D02*
X005480Y020650D01*
X005480Y020550D01*
X005480Y020150D02*
X005480Y020050D01*
X005380Y020050D01*
X005230Y013400D02*
X005130Y013400D01*
X005130Y013300D01*
X005180Y013100D02*
X005182Y013131D01*
X005188Y013162D01*
X005198Y013192D01*
X005211Y013220D01*
X005228Y013247D01*
X005248Y013271D01*
X005271Y013293D01*
X005296Y013311D01*
X005324Y013326D01*
X005353Y013338D01*
X005383Y013346D01*
X005414Y013350D01*
X005446Y013350D01*
X005477Y013346D01*
X005507Y013338D01*
X005536Y013326D01*
X005564Y013311D01*
X005589Y013293D01*
X005612Y013271D01*
X005632Y013247D01*
X005649Y013220D01*
X005662Y013192D01*
X005672Y013162D01*
X005678Y013131D01*
X005680Y013100D01*
X005678Y013069D01*
X005672Y013038D01*
X005662Y013008D01*
X005649Y012980D01*
X005632Y012953D01*
X005612Y012929D01*
X005589Y012907D01*
X005564Y012889D01*
X005536Y012874D01*
X005507Y012862D01*
X005477Y012854D01*
X005446Y012850D01*
X005414Y012850D01*
X005383Y012854D01*
X005353Y012862D01*
X005324Y012874D01*
X005296Y012889D01*
X005271Y012907D01*
X005248Y012929D01*
X005228Y012953D01*
X005211Y012980D01*
X005198Y013008D01*
X005188Y013038D01*
X005182Y013069D01*
X005180Y013100D01*
X005130Y012900D02*
X005130Y012800D01*
X005230Y012800D01*
X005630Y012800D02*
X005730Y012800D01*
X005730Y012900D01*
X005730Y013300D02*
X005730Y013400D01*
X005630Y013400D01*
X001980Y013150D02*
X001880Y013150D01*
X001980Y013150D02*
X001980Y013050D01*
X001430Y012850D02*
X001432Y012881D01*
X001438Y012912D01*
X001448Y012942D01*
X001461Y012970D01*
X001478Y012997D01*
X001498Y013021D01*
X001521Y013043D01*
X001546Y013061D01*
X001574Y013076D01*
X001603Y013088D01*
X001633Y013096D01*
X001664Y013100D01*
X001696Y013100D01*
X001727Y013096D01*
X001757Y013088D01*
X001786Y013076D01*
X001814Y013061D01*
X001839Y013043D01*
X001862Y013021D01*
X001882Y012997D01*
X001899Y012970D01*
X001912Y012942D01*
X001922Y012912D01*
X001928Y012881D01*
X001930Y012850D01*
X001928Y012819D01*
X001922Y012788D01*
X001912Y012758D01*
X001899Y012730D01*
X001882Y012703D01*
X001862Y012679D01*
X001839Y012657D01*
X001814Y012639D01*
X001786Y012624D01*
X001757Y012612D01*
X001727Y012604D01*
X001696Y012600D01*
X001664Y012600D01*
X001633Y012604D01*
X001603Y012612D01*
X001574Y012624D01*
X001546Y012639D01*
X001521Y012657D01*
X001498Y012679D01*
X001478Y012703D01*
X001461Y012730D01*
X001448Y012758D01*
X001438Y012788D01*
X001432Y012819D01*
X001430Y012850D01*
X001380Y012650D02*
X001380Y012550D01*
X001480Y012550D01*
X001880Y012550D02*
X001980Y012550D01*
X001980Y012650D01*
X001480Y013150D02*
X001380Y013150D01*
X001380Y013050D01*
X001380Y004650D02*
X001380Y004550D01*
X001380Y004650D02*
X001480Y004650D01*
X001430Y004350D02*
X001432Y004381D01*
X001438Y004412D01*
X001448Y004442D01*
X001461Y004470D01*
X001478Y004497D01*
X001498Y004521D01*
X001521Y004543D01*
X001546Y004561D01*
X001574Y004576D01*
X001603Y004588D01*
X001633Y004596D01*
X001664Y004600D01*
X001696Y004600D01*
X001727Y004596D01*
X001757Y004588D01*
X001786Y004576D01*
X001814Y004561D01*
X001839Y004543D01*
X001862Y004521D01*
X001882Y004497D01*
X001899Y004470D01*
X001912Y004442D01*
X001922Y004412D01*
X001928Y004381D01*
X001930Y004350D01*
X001928Y004319D01*
X001922Y004288D01*
X001912Y004258D01*
X001899Y004230D01*
X001882Y004203D01*
X001862Y004179D01*
X001839Y004157D01*
X001814Y004139D01*
X001786Y004124D01*
X001757Y004112D01*
X001727Y004104D01*
X001696Y004100D01*
X001664Y004100D01*
X001633Y004104D01*
X001603Y004112D01*
X001574Y004124D01*
X001546Y004139D01*
X001521Y004157D01*
X001498Y004179D01*
X001478Y004203D01*
X001461Y004230D01*
X001448Y004258D01*
X001438Y004288D01*
X001432Y004319D01*
X001430Y004350D01*
X001380Y004150D02*
X001380Y004050D01*
X001480Y004050D01*
X001880Y004050D02*
X001980Y004050D01*
X001980Y004150D01*
X001980Y004550D02*
X001980Y004650D01*
X001880Y004650D01*
X001938Y027573D02*
X002165Y027573D01*
X002419Y027630D02*
X002419Y027970D01*
X002306Y027970D02*
X002533Y027970D01*
X002674Y027970D02*
X002901Y027630D01*
X002674Y027630D02*
X002901Y027970D01*
X001806Y027970D02*
X001692Y027970D01*
X001749Y027970D02*
X001749Y027630D01*
X001692Y027630D02*
X001806Y027630D01*
X001551Y027630D02*
X001551Y027970D01*
X001324Y027970D02*
X001324Y027630D01*
X001437Y027743D01*
X001551Y027630D01*
X001192Y027630D02*
X001078Y027630D01*
X001135Y027630D02*
X001135Y027970D01*
X001078Y027970D02*
X001192Y027970D01*
X000937Y027970D02*
X000937Y027630D01*
X000710Y027630D02*
X000710Y027970D01*
X000823Y027857D01*
X000937Y027970D01*
D16*
X004720Y026990D02*
X004720Y026710D01*
X004790Y026640D01*
X004930Y026640D01*
X005000Y026710D01*
X005180Y026640D02*
X005461Y026640D01*
X005391Y026560D02*
X005461Y026490D01*
X005180Y026210D01*
X005250Y026140D01*
X005391Y026140D01*
X005461Y026210D01*
X005461Y026490D01*
X005391Y026560D02*
X005250Y026560D01*
X005180Y026490D01*
X005180Y026210D01*
X005000Y026140D02*
X004720Y026140D01*
X004860Y026140D02*
X004860Y026560D01*
X004720Y026420D01*
X004720Y026990D02*
X004790Y027060D01*
X004930Y027060D01*
X005000Y026990D01*
X005180Y026920D02*
X005321Y027060D01*
X005321Y026640D01*
X005641Y026850D02*
X005921Y026850D01*
X005851Y026640D02*
X005851Y027060D01*
X005641Y026850D01*
X005641Y026420D02*
X005641Y026210D01*
X005711Y026140D01*
X005921Y026140D01*
X005921Y026420D01*
X006101Y026350D02*
X006241Y026350D01*
X006101Y026140D02*
X006101Y026560D01*
X006381Y026560D01*
X006428Y028405D02*
X005129Y028405D01*
X005129Y030295D01*
X006428Y030295D01*
X006428Y028405D01*
X005129Y028405D02*
X004932Y028405D01*
X004932Y030295D01*
X005129Y030295D01*
X008220Y029741D02*
X008360Y029600D01*
X008430Y029420D02*
X008500Y029350D01*
X008500Y029140D01*
X008640Y029140D02*
X008220Y029140D01*
X008220Y029350D01*
X008290Y029420D01*
X008430Y029420D01*
X008500Y029280D02*
X008640Y029420D01*
X008640Y029600D02*
X008640Y029881D01*
X008640Y029741D02*
X008220Y029741D01*
X009720Y029881D02*
X009720Y030021D01*
X009790Y030091D01*
X010070Y029811D01*
X010140Y029881D01*
X010140Y030021D01*
X010070Y030091D01*
X009790Y030091D01*
X009720Y029881D02*
X009790Y029811D01*
X010070Y029811D01*
X010070Y029631D02*
X010140Y029561D01*
X010140Y029420D01*
X010070Y029350D01*
X009790Y029631D01*
X010070Y029631D01*
X009790Y029631D02*
X009720Y029561D01*
X009720Y029420D01*
X009790Y029350D01*
X010070Y029350D01*
X010070Y029170D02*
X010140Y029100D01*
X010140Y028960D01*
X010070Y028890D01*
X009930Y028890D02*
X009860Y029030D01*
X009860Y029100D01*
X009930Y029170D01*
X010070Y029170D01*
X009930Y028890D02*
X009720Y028890D01*
X009720Y029170D01*
X008640Y028131D02*
X008640Y027850D01*
X008360Y028131D01*
X008290Y028131D01*
X008220Y028061D01*
X008220Y027920D01*
X008290Y027850D01*
X008290Y027670D02*
X008430Y027670D01*
X008500Y027600D01*
X008500Y027390D01*
X008640Y027390D02*
X008220Y027390D01*
X008220Y027600D01*
X008290Y027670D01*
X008500Y027530D02*
X008640Y027670D01*
X009720Y027600D02*
X010140Y027600D01*
X010000Y027600D02*
X009860Y027811D01*
X010000Y027600D02*
X010140Y027811D01*
X010140Y027420D02*
X010140Y027140D01*
X010140Y027280D02*
X009720Y027280D01*
X009860Y027140D01*
X012470Y026890D02*
X012470Y026750D01*
X012540Y026680D01*
X012820Y026680D01*
X012540Y026960D01*
X012820Y026960D01*
X012890Y026890D01*
X012890Y026750D01*
X012820Y026680D01*
X012890Y026499D02*
X012890Y026219D01*
X012890Y026359D02*
X012470Y026359D01*
X012610Y026219D01*
X012540Y026039D02*
X012470Y025969D01*
X012470Y025829D01*
X012540Y025759D01*
X012820Y025759D01*
X012890Y025829D01*
X012890Y025969D01*
X012820Y026039D01*
X013220Y025969D02*
X013290Y026039D01*
X013570Y025759D01*
X013640Y025829D01*
X013640Y025969D01*
X013570Y026039D01*
X013290Y026039D01*
X013220Y025969D02*
X013220Y025829D01*
X013290Y025759D01*
X013570Y025759D01*
X013640Y025579D02*
X013640Y025298D01*
X013640Y025439D02*
X013220Y025439D01*
X013360Y025298D01*
X014220Y024811D02*
X014220Y024670D01*
X014290Y024600D01*
X014360Y024600D01*
X014430Y024670D01*
X014430Y024811D01*
X014500Y024881D01*
X014570Y024881D01*
X014640Y024811D01*
X014640Y024670D01*
X014570Y024600D01*
X014500Y024600D01*
X014430Y024670D01*
X014430Y024811D02*
X014360Y024881D01*
X014290Y024881D01*
X014220Y024811D01*
X014720Y024771D02*
X014720Y025051D01*
X014930Y024911D02*
X014930Y024771D01*
X014930Y024591D02*
X015070Y024591D01*
X015140Y024521D01*
X015140Y024311D01*
X015280Y024311D02*
X014860Y024311D01*
X014860Y024521D01*
X014930Y024591D01*
X015140Y024771D02*
X014720Y024771D01*
X014570Y024420D02*
X014640Y024350D01*
X014640Y024210D01*
X014570Y024140D01*
X014290Y024140D01*
X014220Y024210D01*
X014220Y024350D01*
X014290Y024420D01*
X014720Y024061D02*
X014790Y024131D01*
X014860Y024131D01*
X014930Y024061D01*
X014930Y023920D01*
X014860Y023850D01*
X014790Y023850D01*
X014720Y023920D01*
X014720Y024061D01*
X014930Y024061D02*
X015000Y024131D01*
X015070Y024131D01*
X015140Y024061D01*
X015140Y023920D01*
X015070Y023850D01*
X015000Y023850D01*
X014930Y023920D01*
X015140Y023670D02*
X015140Y023390D01*
X015140Y023530D02*
X014720Y023530D01*
X014860Y023390D01*
X014540Y022310D02*
X014260Y022310D01*
X014079Y022240D02*
X014009Y022310D01*
X013869Y022310D01*
X013799Y022240D01*
X013799Y021960D01*
X013869Y021890D01*
X014009Y021890D01*
X014079Y021960D01*
X014260Y021960D02*
X014260Y021890D01*
X014260Y021960D02*
X014540Y022240D01*
X014540Y022310D01*
X014299Y020060D02*
X014369Y019990D01*
X014369Y019920D01*
X014299Y019850D01*
X014159Y019850D01*
X014089Y019920D01*
X014089Y019990D01*
X014159Y020060D01*
X014299Y020060D01*
X014299Y019850D02*
X014369Y019780D01*
X014369Y019710D01*
X014299Y019640D01*
X014159Y019640D01*
X014089Y019710D01*
X014089Y019780D01*
X014159Y019850D01*
X013909Y019640D02*
X013628Y019640D01*
X013769Y019640D02*
X013769Y020060D01*
X013628Y019920D01*
X014549Y019920D02*
X014549Y019500D01*
X014549Y019640D02*
X014759Y019640D01*
X014829Y019710D01*
X014829Y019850D01*
X014759Y019920D01*
X014549Y019920D01*
X015010Y019850D02*
X015150Y019850D01*
X015010Y020060D02*
X015290Y020060D01*
X015010Y020060D02*
X015010Y019640D01*
X016720Y015631D02*
X016720Y015350D01*
X017140Y015350D01*
X017140Y015170D02*
X016860Y015170D01*
X016930Y015350D02*
X016930Y015491D01*
X017140Y015170D02*
X017140Y014960D01*
X017070Y014890D01*
X016860Y014890D01*
X016790Y014710D02*
X017070Y014430D01*
X017140Y014500D01*
X017140Y014640D01*
X017070Y014710D01*
X016790Y014710D01*
X016720Y014640D01*
X016720Y014500D01*
X016790Y014430D01*
X017070Y014430D01*
X017140Y014249D02*
X017140Y013969D01*
X017140Y014109D02*
X016720Y014109D01*
X016860Y013969D01*
X015640Y014500D02*
X015640Y014640D01*
X015570Y014710D01*
X015640Y014890D02*
X015640Y015170D01*
X015640Y015030D02*
X015220Y015030D01*
X015360Y014890D01*
X015290Y014710D02*
X015220Y014640D01*
X015220Y014500D01*
X015290Y014430D01*
X015570Y014430D01*
X015640Y014500D01*
X012140Y014500D02*
X012070Y014430D01*
X011790Y014710D01*
X012070Y014710D01*
X012140Y014640D01*
X012140Y014500D01*
X012070Y014430D02*
X011790Y014430D01*
X011720Y014500D01*
X011720Y014640D01*
X011790Y014710D01*
X011860Y014890D02*
X012070Y014890D01*
X012140Y014960D01*
X012140Y015170D01*
X011860Y015170D01*
X011930Y015350D02*
X011930Y015491D01*
X011720Y015350D02*
X011720Y015631D01*
X011720Y015350D02*
X012140Y015350D01*
X012140Y014249D02*
X012140Y013969D01*
X012140Y014109D02*
X011720Y014109D01*
X011860Y013969D01*
X010640Y014500D02*
X010640Y014640D01*
X010570Y014710D01*
X010640Y014890D02*
X010360Y015170D01*
X010290Y015170D01*
X010220Y015100D01*
X010220Y014960D01*
X010290Y014890D01*
X010290Y014710D02*
X010220Y014640D01*
X010220Y014500D01*
X010290Y014430D01*
X010570Y014430D01*
X010640Y014500D01*
X010640Y014890D02*
X010640Y015170D01*
X011430Y011900D02*
X011930Y011900D01*
X011930Y011300D02*
X011430Y011300D01*
X016878Y008920D02*
X017019Y009060D01*
X017019Y008640D01*
X017159Y008640D02*
X016878Y008640D01*
X017339Y008710D02*
X017339Y008990D01*
X017409Y009060D01*
X017549Y009060D01*
X017619Y008990D01*
X017339Y008710D01*
X017409Y008640D01*
X017549Y008640D01*
X017619Y008710D01*
X017619Y008990D01*
X017799Y008920D02*
X017799Y008710D01*
X017869Y008640D01*
X018079Y008640D01*
X018079Y008920D01*
X018260Y008850D02*
X018400Y008850D01*
X018260Y009060D02*
X018540Y009060D01*
X018260Y009060D02*
X018260Y008640D01*
X018330Y009390D02*
X018260Y009460D01*
X018330Y009390D02*
X018470Y009390D01*
X018540Y009460D01*
X018540Y009600D01*
X018470Y009670D01*
X018400Y009670D01*
X018260Y009600D01*
X018260Y009810D01*
X018540Y009810D01*
X018079Y009740D02*
X018009Y009810D01*
X017869Y009810D01*
X017799Y009740D01*
X017799Y009460D01*
X017869Y009390D01*
X018009Y009390D01*
X018079Y009460D01*
X020790Y006060D02*
X020720Y005990D01*
X020720Y005710D01*
X020790Y005640D01*
X020930Y005640D01*
X021000Y005710D01*
X021180Y005710D02*
X021250Y005640D01*
X021391Y005640D01*
X021461Y005710D01*
X021461Y005780D01*
X021391Y005850D01*
X021461Y005920D01*
X021461Y005990D01*
X021391Y006060D01*
X021250Y006060D01*
X021180Y005990D01*
X021000Y005990D02*
X020930Y006060D01*
X020790Y006060D01*
X021321Y005850D02*
X021391Y005850D01*
X021351Y005560D02*
X021631Y005560D01*
X021491Y005350D02*
X021351Y005350D01*
X021171Y005420D02*
X021171Y005140D01*
X020961Y005140D01*
X020891Y005210D01*
X020891Y005420D01*
X020711Y005490D02*
X020430Y005210D01*
X020500Y005140D01*
X020641Y005140D01*
X020711Y005210D01*
X020711Y005490D01*
X020641Y005560D01*
X020500Y005560D01*
X020430Y005490D01*
X020430Y005210D01*
X020250Y005140D02*
X019970Y005140D01*
X020110Y005140D02*
X020110Y005560D01*
X019970Y005420D01*
X021351Y005560D02*
X021351Y005140D01*
X022860Y008219D02*
X022720Y008359D01*
X023140Y008359D01*
X023140Y008219D02*
X023140Y008499D01*
X023070Y008680D02*
X022790Y008680D01*
X022720Y008750D01*
X022720Y008890D01*
X022790Y008960D01*
X023070Y008680D01*
X023140Y008750D01*
X023140Y008890D01*
X023070Y008960D01*
X022790Y008960D01*
X022860Y009140D02*
X023070Y009140D01*
X023140Y009210D01*
X023140Y009420D01*
X022860Y009420D01*
X022930Y009600D02*
X022930Y009741D01*
X022720Y009600D02*
X022720Y009881D01*
X022720Y009600D02*
X023140Y009600D01*
X024220Y009420D02*
X024290Y009280D01*
X024430Y009140D01*
X024430Y009350D01*
X024500Y009420D01*
X024570Y009420D01*
X024640Y009350D01*
X024640Y009210D01*
X024570Y009140D01*
X024430Y009140D01*
X024570Y008960D02*
X024640Y008890D01*
X024640Y008750D01*
X024570Y008680D01*
X024290Y008680D01*
X024220Y008750D01*
X024220Y008890D01*
X024290Y008960D01*
X026720Y006990D02*
X026720Y006710D01*
X026790Y006640D01*
X026930Y006640D01*
X027000Y006710D01*
X027180Y006850D02*
X027391Y007060D01*
X027391Y006640D01*
X027461Y006850D02*
X027180Y006850D01*
X027000Y006990D02*
X026930Y007060D01*
X026790Y007060D01*
X026720Y006990D01*
X026769Y006310D02*
X026769Y005890D01*
X026909Y005890D02*
X026628Y005890D01*
X026628Y006170D02*
X026769Y006310D01*
X027089Y006240D02*
X027159Y006310D01*
X027299Y006310D01*
X027369Y006240D01*
X027089Y005960D01*
X027159Y005890D01*
X027299Y005890D01*
X027369Y005960D01*
X027369Y006240D01*
X027549Y006170D02*
X027549Y005960D01*
X027619Y005890D01*
X027829Y005890D01*
X027829Y006170D01*
X028010Y006100D02*
X028150Y006100D01*
X028010Y006310D02*
X028290Y006310D01*
X028010Y006310D02*
X028010Y005890D01*
X027089Y005960D02*
X027089Y006240D01*
X031026Y005341D02*
X031026Y003859D01*
X031637Y003859D01*
X031637Y005341D01*
X031026Y005341D01*
X031026Y008537D01*
X034334Y008537D01*
X034334Y000663D01*
X031026Y000663D01*
X031026Y002262D01*
X031145Y002262D01*
X031145Y002844D01*
X031026Y002844D01*
X031026Y003859D01*
X031391Y003859D02*
X031391Y001106D01*
X033969Y001106D01*
X033969Y008094D01*
X031391Y008094D01*
X031391Y005341D01*
X035526Y005341D02*
X035526Y003859D01*
X036137Y003859D01*
X036137Y005341D01*
X035526Y005341D01*
X035526Y008537D01*
X038834Y008537D01*
X038834Y000663D01*
X035526Y000663D01*
X035526Y002262D01*
X035645Y002262D01*
X035645Y002844D01*
X035526Y002844D01*
X035526Y003859D01*
X035891Y003859D02*
X035891Y001106D01*
X038469Y001106D01*
X038469Y008094D01*
X035891Y008094D01*
X035891Y005341D01*
X039110Y015259D02*
X038970Y015399D01*
X039390Y015399D01*
X039390Y015259D02*
X039390Y015539D01*
X039320Y015719D02*
X039390Y015789D01*
X039390Y015999D01*
X039110Y015999D01*
X039180Y016180D02*
X039180Y016320D01*
X038970Y016180D02*
X038970Y016460D01*
X038970Y016180D02*
X039390Y016180D01*
X039320Y015719D02*
X039110Y015719D01*
X037820Y017259D02*
X037890Y017329D01*
X037890Y017469D01*
X037820Y017539D01*
X037890Y017719D02*
X037890Y017999D01*
X037890Y017859D02*
X037470Y017859D01*
X037610Y017719D01*
X037540Y017539D02*
X037470Y017469D01*
X037470Y017329D01*
X037540Y017259D01*
X037820Y017259D01*
X037820Y018180D02*
X037890Y018250D01*
X037890Y018390D01*
X037820Y018460D01*
X037750Y018460D01*
X037680Y018390D01*
X037680Y018320D01*
X037680Y018390D02*
X037610Y018460D01*
X037540Y018460D01*
X037470Y018390D01*
X037470Y018250D01*
X037540Y018180D01*
X037540Y019640D02*
X037470Y019710D01*
X037470Y019850D01*
X037540Y019920D01*
X037610Y020100D02*
X037470Y020241D01*
X037890Y020241D01*
X037890Y020381D02*
X037890Y020100D01*
X037820Y019920D02*
X037890Y019850D01*
X037890Y019710D01*
X037820Y019640D01*
X037540Y019640D01*
X037540Y020561D02*
X037470Y020631D01*
X037470Y020771D01*
X037540Y020841D01*
X037610Y020841D01*
X037890Y020561D01*
X037890Y020841D01*
X038970Y020530D02*
X039110Y020390D01*
X038970Y020530D02*
X039390Y020530D01*
X039390Y020390D02*
X039390Y020670D01*
X039320Y020850D02*
X039110Y020850D01*
X039320Y020850D02*
X039390Y020920D01*
X039390Y021131D01*
X039110Y021131D01*
X039180Y021311D02*
X039180Y021451D01*
X039390Y021311D02*
X038970Y021311D01*
X038970Y021591D01*
X026921Y025390D02*
X026711Y025600D01*
X026641Y025530D02*
X026921Y025810D01*
X026641Y025810D02*
X026641Y025390D01*
X026461Y025460D02*
X026391Y025390D01*
X026250Y025390D01*
X026180Y025460D01*
X026461Y025740D01*
X026461Y025460D01*
X026461Y025740D02*
X026391Y025810D01*
X026250Y025810D01*
X026180Y025740D01*
X026180Y025460D01*
X026000Y025390D02*
X025720Y025390D01*
X025860Y025390D02*
X025860Y025810D01*
X025720Y025670D01*
X025720Y025890D02*
X025720Y026310D01*
X025930Y026310D01*
X026000Y026240D01*
X026000Y026100D01*
X025930Y026030D01*
X025720Y026030D01*
X025860Y026030D02*
X026000Y025890D01*
X026180Y025960D02*
X026250Y025890D01*
X026391Y025890D01*
X026461Y025960D01*
X026461Y026100D01*
X026391Y026170D01*
X026321Y026170D01*
X026180Y026100D01*
X026180Y026310D01*
X026461Y026310D01*
X025421Y025810D02*
X025141Y025530D01*
X025211Y025600D02*
X025421Y025390D01*
X025141Y025390D02*
X025141Y025810D01*
X024961Y025740D02*
X024680Y025460D01*
X024750Y025390D01*
X024891Y025390D01*
X024961Y025460D01*
X024961Y025740D01*
X024891Y025810D01*
X024750Y025810D01*
X024680Y025740D01*
X024680Y025460D01*
X024500Y025390D02*
X024220Y025390D01*
X024360Y025390D02*
X024360Y025810D01*
X024220Y025670D01*
X024220Y025890D02*
X024220Y026310D01*
X024430Y026310D01*
X024500Y026240D01*
X024500Y026100D01*
X024430Y026030D01*
X024220Y026030D01*
X024360Y026030D02*
X024500Y025890D01*
X024680Y025960D02*
X024680Y026100D01*
X024891Y026100D01*
X024961Y026030D01*
X024961Y025960D01*
X024891Y025890D01*
X024750Y025890D01*
X024680Y025960D01*
X024680Y026100D02*
X024821Y026240D01*
X024961Y026310D01*
X024930Y022560D02*
X024790Y022560D01*
X024720Y022490D01*
X024720Y022210D01*
X024790Y022140D01*
X024930Y022140D01*
X025000Y022210D01*
X025180Y022210D02*
X025250Y022140D01*
X025391Y022140D01*
X025461Y022210D01*
X025461Y022490D01*
X025391Y022560D01*
X025250Y022560D01*
X025180Y022490D01*
X025180Y022420D01*
X025250Y022350D01*
X025461Y022350D01*
X025000Y022490D02*
X024930Y022560D01*
X024930Y021060D02*
X025000Y020990D01*
X024720Y020710D01*
X024790Y020640D01*
X024930Y020640D01*
X025000Y020710D01*
X025000Y020990D01*
X024930Y021060D02*
X024790Y021060D01*
X024720Y020990D01*
X024720Y020710D01*
X025180Y020710D02*
X025250Y020710D01*
X025250Y020640D01*
X025180Y020640D01*
X025180Y020710D01*
X025411Y020640D02*
X025691Y020640D01*
X025551Y020640D02*
X025551Y021060D01*
X025411Y020920D01*
X025871Y020920D02*
X025871Y020710D01*
X025941Y020640D01*
X026151Y020640D01*
X026151Y020920D01*
X026331Y020850D02*
X026471Y020850D01*
X026331Y020640D02*
X026331Y021060D01*
X026612Y021060D01*
X019770Y024429D02*
X019350Y024429D01*
X019350Y024639D01*
X019420Y024709D01*
X019560Y024709D01*
X019630Y024639D01*
X019630Y024429D01*
X019770Y024890D02*
X019770Y025030D01*
X019770Y024960D02*
X019350Y024960D01*
X019350Y024890D02*
X019350Y025030D01*
X019420Y025196D02*
X019350Y025267D01*
X019350Y025407D01*
X019420Y025477D01*
X019490Y025657D02*
X019350Y025797D01*
X019770Y025797D01*
X019770Y025657D02*
X019770Y025937D01*
X019700Y026117D02*
X019630Y026117D01*
X019560Y026187D01*
X019560Y026327D01*
X019630Y026397D01*
X019700Y026397D01*
X019770Y026327D01*
X019770Y026187D01*
X019700Y026117D01*
X019560Y026187D02*
X019490Y026117D01*
X019420Y026117D01*
X019350Y026187D01*
X019350Y026327D01*
X019420Y026397D01*
X019490Y026397D01*
X019560Y026327D01*
X019560Y026578D02*
X019560Y026718D01*
X019770Y026578D02*
X019350Y026578D01*
X019350Y026858D01*
X019420Y027038D02*
X019350Y027108D01*
X019350Y027248D01*
X019420Y027318D01*
X019490Y027318D01*
X019770Y027038D01*
X019770Y027318D01*
X019700Y027498D02*
X019770Y027568D01*
X019770Y027709D01*
X019700Y027779D01*
X019630Y027779D01*
X019560Y027709D01*
X019560Y027498D01*
X019700Y027498D01*
X019560Y027498D02*
X019420Y027639D01*
X019350Y027779D01*
X019350Y028099D02*
X019350Y028239D01*
X019350Y028169D02*
X019700Y028169D01*
X019770Y028099D01*
X019770Y028029D01*
X019700Y027959D01*
X019700Y028419D02*
X019770Y028489D01*
X019770Y028629D01*
X019700Y028699D01*
X019560Y028699D01*
X019490Y028629D01*
X019490Y028559D01*
X019560Y028419D01*
X019350Y028419D01*
X019350Y028699D01*
X019420Y028880D02*
X019350Y028950D01*
X019350Y029090D01*
X019420Y029160D01*
X019700Y028880D01*
X019770Y028950D01*
X019770Y029090D01*
X019700Y029160D01*
X019420Y029160D01*
X019420Y028880D02*
X019700Y028880D01*
X019700Y025477D02*
X019770Y025407D01*
X019770Y025267D01*
X019700Y025196D01*
X019420Y025196D01*
X015076Y027810D02*
X014795Y027810D01*
X014795Y027390D01*
X014615Y027390D02*
X014615Y027670D01*
X014795Y027600D02*
X014936Y027600D01*
X014615Y027390D02*
X014405Y027390D01*
X014335Y027460D01*
X014335Y027670D01*
X014155Y027390D02*
X013875Y027390D01*
X014015Y027390D02*
X014015Y027810D01*
X013875Y027670D01*
X013715Y027460D02*
X013715Y027390D01*
X013645Y027390D01*
X013645Y027460D01*
X013715Y027460D01*
X013464Y027460D02*
X013394Y027390D01*
X013254Y027390D01*
X013184Y027460D01*
X013464Y027740D01*
X013464Y027460D01*
X013184Y027460D02*
X013184Y027740D01*
X013254Y027810D01*
X013394Y027810D01*
X013464Y027740D01*
X013220Y026960D02*
X013220Y026680D01*
X013640Y026680D01*
X013640Y026499D02*
X013360Y026499D01*
X013430Y026680D02*
X013430Y026820D01*
X013640Y026499D02*
X013640Y026289D01*
X013570Y026219D01*
X013360Y026219D01*
X012540Y026960D02*
X012470Y026890D01*
X013599Y028890D02*
X013740Y028890D01*
X013810Y028960D01*
X013990Y028890D02*
X014270Y028890D01*
X014130Y028890D02*
X014130Y029310D01*
X013990Y029170D01*
X013810Y029240D02*
X013740Y029310D01*
X013599Y029310D01*
X013529Y029240D01*
X013529Y028960D01*
X013599Y028890D01*
X014450Y028890D02*
X014730Y028890D01*
X014590Y028890D02*
X014590Y029310D01*
X014450Y029170D01*
X014461Y030390D02*
X014391Y030460D01*
X014671Y030740D01*
X014671Y030460D01*
X014601Y030390D01*
X014461Y030390D01*
X014391Y030460D02*
X014391Y030740D01*
X014461Y030810D01*
X014601Y030810D01*
X014671Y030740D01*
X014211Y030740D02*
X013930Y030460D01*
X013930Y030390D01*
X013680Y030390D02*
X013680Y030810D01*
X013470Y030600D01*
X013750Y030600D01*
X013930Y030810D02*
X014211Y030810D01*
X014211Y030740D01*
X014250Y031140D02*
X014180Y031210D01*
X014250Y031140D02*
X014391Y031140D01*
X014461Y031210D01*
X014461Y031280D01*
X014391Y031350D01*
X014321Y031350D01*
X014391Y031350D02*
X014461Y031420D01*
X014461Y031490D01*
X014391Y031560D01*
X014250Y031560D01*
X014180Y031490D01*
X014000Y031490D02*
X014000Y031350D01*
X013930Y031280D01*
X013720Y031280D01*
X013720Y031140D02*
X013720Y031560D01*
X013930Y031560D01*
X014000Y031490D01*
X013860Y031280D02*
X014000Y031140D01*
X012601Y030670D02*
X012391Y030530D01*
X012601Y030390D01*
X012391Y030390D02*
X012391Y030810D01*
X012211Y030740D02*
X011930Y030460D01*
X012000Y030390D01*
X012141Y030390D01*
X012211Y030460D01*
X012211Y030740D01*
X012141Y030810D01*
X012000Y030810D01*
X011930Y030740D01*
X011930Y030460D01*
X011750Y030390D02*
X011470Y030390D01*
X011610Y030390D02*
X011610Y030810D01*
X011470Y030670D01*
X011720Y031140D02*
X011720Y031560D01*
X011930Y031560D01*
X012000Y031490D01*
X012000Y031350D01*
X011930Y031280D01*
X011720Y031280D01*
X011860Y031280D02*
X012000Y031140D01*
X012180Y031350D02*
X012391Y031560D01*
X012391Y031140D01*
X012461Y031350D02*
X012180Y031350D01*
X023970Y031740D02*
X023970Y032160D01*
X024180Y032160D01*
X024250Y032090D01*
X024250Y031950D01*
X024180Y031880D01*
X023970Y031880D01*
X024430Y031740D02*
X024571Y031740D01*
X024500Y031740D02*
X024500Y032160D01*
X024430Y032160D02*
X024571Y032160D01*
X024737Y032090D02*
X024737Y031810D01*
X024807Y031740D01*
X024948Y031740D01*
X025018Y031810D01*
X025198Y031740D02*
X025198Y032160D01*
X025018Y032090D02*
X024948Y032160D01*
X024807Y032160D01*
X024737Y032090D01*
X025198Y031880D02*
X025478Y032160D01*
X025658Y032160D02*
X025798Y032160D01*
X025728Y032160D02*
X025728Y031740D01*
X025658Y031740D02*
X025798Y031740D01*
X026105Y031740D02*
X026105Y032160D01*
X025965Y032160D02*
X026245Y032160D01*
X025478Y031740D02*
X025268Y031950D01*
D17*
X025211Y029425D02*
X025136Y029350D01*
X025136Y029050D01*
X025211Y028975D01*
X025361Y028975D01*
X025436Y029050D01*
X025596Y028975D02*
X025596Y029425D01*
X025436Y029350D02*
X025361Y029425D01*
X025211Y029425D01*
X024976Y029275D02*
X024976Y028975D01*
X024976Y029200D02*
X024675Y029200D01*
X024675Y029275D02*
X024825Y029425D01*
X024976Y029275D01*
X024675Y029275D02*
X024675Y028975D01*
X024515Y029050D02*
X024515Y029125D01*
X024440Y029200D01*
X024215Y029200D01*
X024215Y028975D02*
X024440Y028975D01*
X024515Y029050D01*
X024440Y029200D02*
X024515Y029275D01*
X024515Y029350D01*
X024440Y029425D01*
X024215Y029425D01*
X024215Y028975D01*
X025596Y029125D02*
X025896Y029425D01*
X026056Y029425D02*
X026056Y028975D01*
X026357Y028975D01*
X026517Y028975D02*
X026667Y028975D01*
X026592Y028975D02*
X026592Y029425D01*
X026517Y029425D02*
X026667Y029425D01*
X026824Y029350D02*
X026899Y029425D01*
X027049Y029425D01*
X027124Y029350D01*
X027124Y029200D02*
X026974Y029200D01*
X027124Y029200D02*
X027124Y029050D01*
X027049Y028975D01*
X026899Y028975D01*
X026824Y029050D01*
X026824Y029350D01*
X027284Y029425D02*
X027284Y028975D01*
X027284Y029200D02*
X027584Y029200D01*
X027584Y029425D02*
X027584Y028975D01*
X027895Y028975D02*
X027895Y029425D01*
X027745Y029425D02*
X028045Y029425D01*
X028587Y029608D02*
X035871Y029608D01*
X035871Y009923D01*
X028587Y009923D01*
X028587Y029608D01*
X025896Y028975D02*
X025671Y029200D01*
X028233Y032009D02*
X038347Y032009D01*
X038347Y009608D01*
X028233Y009608D01*
X028233Y032009D01*
X035871Y029608D02*
X038430Y029608D01*
X038430Y009923D01*
X035871Y009923D01*
X022453Y016435D02*
X022226Y016435D01*
X022339Y016435D02*
X022339Y016775D01*
X022226Y016662D01*
X012271Y011895D02*
X012271Y011305D01*
X011089Y011305D01*
X011089Y011895D01*
X012271Y011895D01*
X012130Y012000D02*
X011580Y011200D01*
X011230Y011200D01*
X011180Y010715D02*
X011330Y010715D01*
X011405Y010640D01*
X011405Y010415D01*
X011405Y010565D02*
X011555Y010715D01*
X011555Y010415D02*
X011105Y010415D01*
X011105Y010640D01*
X011180Y010715D01*
X011105Y010254D02*
X011105Y009954D01*
X011555Y009954D01*
X011555Y010254D01*
X011330Y010104D02*
X011330Y009954D01*
X011555Y009794D02*
X011105Y009794D01*
X011105Y009494D02*
X011555Y009494D01*
X011405Y009644D01*
X011555Y009794D01*
X011480Y009334D02*
X011180Y009334D01*
X011105Y009259D01*
X011105Y009108D01*
X011180Y009033D01*
X011480Y009033D01*
X011555Y009108D01*
X011555Y009259D01*
X011480Y009334D01*
X011330Y008873D02*
X011180Y008873D01*
X011105Y008798D01*
X011105Y008573D01*
X011555Y008573D01*
X011405Y008573D02*
X011405Y008798D01*
X011330Y008873D01*
X006680Y012100D02*
X006680Y005100D01*
X000680Y005100D01*
X000680Y000600D01*
X010680Y000600D01*
X010680Y016600D01*
X000680Y016600D01*
X000680Y012100D01*
X006680Y012100D01*
X000680Y012100D02*
X000680Y005100D01*
X013055Y003986D02*
X013205Y003835D01*
X013055Y003986D02*
X013505Y003986D01*
X013505Y004136D02*
X013505Y003835D01*
X013430Y003600D02*
X013055Y003600D01*
X013055Y003525D02*
X013055Y003675D01*
X013430Y003600D02*
X013505Y003525D01*
X013505Y003450D01*
X013430Y003375D01*
X015055Y003525D02*
X015055Y003675D01*
X015055Y003600D02*
X015430Y003600D01*
X015505Y003525D01*
X015505Y003450D01*
X015430Y003375D01*
X015505Y003835D02*
X015205Y004136D01*
X015130Y004136D01*
X015055Y004061D01*
X015055Y003910D01*
X015130Y003835D01*
X015505Y003835D02*
X015505Y004136D01*
X011480Y019954D02*
X011180Y019954D01*
X011105Y020029D01*
X011105Y020179D01*
X011180Y020254D01*
X011480Y020254D01*
X011555Y020179D01*
X011555Y020029D01*
X011480Y019954D01*
X011405Y020104D02*
X011555Y020254D01*
X011555Y020415D02*
X011555Y020715D01*
X011555Y020565D02*
X011105Y020565D01*
X011255Y020415D01*
X011130Y021073D02*
X011055Y021148D01*
X011055Y021298D01*
X011130Y021373D01*
X011205Y021373D01*
X011505Y021073D01*
X011505Y021373D01*
X011430Y021533D02*
X011130Y021533D01*
X011055Y021608D01*
X011055Y021759D01*
X011130Y021834D01*
X011430Y021533D01*
X011505Y021608D01*
X011505Y021759D01*
X011430Y021834D01*
X011130Y021834D01*
X011055Y021994D02*
X011205Y022144D01*
X011055Y022294D01*
X011505Y022294D01*
X011505Y022454D02*
X011055Y022454D01*
X011280Y022454D02*
X011280Y022754D01*
X011205Y022915D02*
X011205Y023215D01*
X011505Y022915D01*
X011505Y023215D01*
X011505Y022754D02*
X011055Y022754D01*
X011055Y021994D02*
X011505Y021994D01*
X008656Y020791D02*
X008656Y025909D01*
X010680Y027850D02*
X010680Y028850D01*
X012180Y028850D02*
X012180Y027850D01*
X016825Y029425D02*
X017052Y029425D01*
X016938Y029425D02*
X016938Y029765D01*
X016825Y029652D01*
X017030Y031525D02*
X017105Y031525D01*
X017180Y031600D01*
X017180Y031975D01*
X017105Y031975D02*
X017255Y031975D01*
X017415Y031900D02*
X017490Y031975D01*
X017641Y031975D01*
X017716Y031900D01*
X017716Y031825D01*
X017641Y031750D01*
X017716Y031675D01*
X017716Y031600D01*
X017641Y031525D01*
X017490Y031525D01*
X017415Y031600D01*
X017566Y031750D02*
X017641Y031750D01*
X017030Y031525D02*
X016955Y031600D01*
X005704Y025909D02*
X005704Y020791D01*
D18*
X016430Y020600D03*
X016430Y019600D03*
X016430Y018600D03*
X016430Y017600D03*
X016430Y016600D03*
X016430Y021600D03*
X016430Y022600D03*
X016430Y023600D03*
X016430Y024600D03*
X016430Y025600D03*
X016430Y026600D03*
X016430Y027600D03*
X016430Y028600D03*
X016430Y029600D03*
X022930Y029600D03*
X022930Y028600D03*
X022930Y027600D03*
X022930Y026600D03*
X022930Y025600D03*
X022930Y024600D03*
X022930Y023600D03*
X022930Y022600D03*
X022930Y021600D03*
X022930Y020600D03*
X022930Y019600D03*
X022930Y018600D03*
X022930Y017600D03*
X022930Y016600D03*
D19*
X024830Y021300D02*
X024830Y021600D01*
X024830Y021900D01*
X025030Y021900D02*
X025030Y021600D01*
X025030Y021300D01*
X016480Y014950D02*
X016180Y014950D01*
X015880Y014950D01*
X015880Y014750D02*
X016180Y014750D01*
X016480Y014750D01*
X011480Y014750D02*
X011180Y014750D01*
X010880Y014750D01*
X010880Y014950D02*
X011180Y014950D01*
X011480Y014950D01*
X008656Y020791D02*
X005704Y020791D01*
X007495Y021106D02*
X007497Y021124D01*
X007503Y021140D01*
X007512Y021155D01*
X007525Y021168D01*
X007540Y021177D01*
X007556Y021183D01*
X007574Y021185D01*
X007592Y021183D01*
X007608Y021177D01*
X007623Y021168D01*
X007636Y021155D01*
X007645Y021140D01*
X007651Y021124D01*
X007653Y021106D01*
X007651Y021088D01*
X007645Y021072D01*
X007636Y021057D01*
X007623Y021044D01*
X007608Y021035D01*
X007592Y021029D01*
X007574Y021027D01*
X007556Y021029D01*
X007540Y021035D01*
X007525Y021044D01*
X007512Y021057D01*
X007503Y021072D01*
X007497Y021088D01*
X007495Y021106D01*
X003430Y021350D02*
X003180Y021350D01*
X002930Y021350D01*
X003180Y021350D02*
X003180Y021600D01*
X003180Y021350D02*
X003180Y021100D01*
X003180Y020100D02*
X003180Y019850D01*
X003430Y019850D01*
X003180Y019850D02*
X003180Y019600D01*
X003180Y019850D02*
X002930Y019850D01*
X003180Y018600D02*
X003180Y018350D01*
X003430Y018350D01*
X003180Y018350D02*
X003180Y018100D01*
X003180Y018350D02*
X002930Y018350D01*
X003180Y022600D02*
X003180Y022850D01*
X003430Y022850D01*
X003180Y022850D02*
X002930Y022850D01*
X003180Y022850D02*
X003180Y023100D01*
X003180Y024100D02*
X003180Y024350D01*
X003430Y024350D01*
X003180Y024350D02*
X003180Y024600D01*
X003180Y024350D02*
X002930Y024350D01*
X003180Y025600D02*
X003180Y025850D01*
X003430Y025850D01*
X003180Y025850D02*
X003180Y026100D01*
X003180Y025850D02*
X002930Y025850D01*
X003180Y027100D02*
X003180Y027350D01*
X003430Y027350D01*
X003180Y027350D02*
X003180Y027600D01*
X003180Y027350D02*
X002930Y027350D01*
X003180Y028600D02*
X003180Y028850D01*
X003430Y028850D01*
X003180Y028850D02*
X003180Y029100D01*
X003180Y028850D02*
X002930Y028850D01*
X005704Y025909D02*
X008656Y025909D01*
X007530Y026550D02*
X007530Y026850D01*
X007530Y027150D01*
X007330Y027150D02*
X007330Y026850D01*
X007330Y026550D01*
X013080Y024900D02*
X013080Y024600D01*
X013080Y024300D01*
X013280Y024300D02*
X013280Y024600D01*
X013280Y024900D01*
X014580Y025550D02*
X014580Y025850D01*
X014580Y026150D01*
X014780Y026150D02*
X014780Y025850D01*
X014780Y025550D01*
X014280Y028050D02*
X014280Y028350D01*
X014280Y028650D01*
X014080Y028650D02*
X014080Y028350D01*
X014080Y028050D01*
X014380Y021200D02*
X014680Y021200D01*
X014980Y021200D01*
X014980Y021000D02*
X014680Y021000D01*
X014380Y021000D01*
X018880Y009700D02*
X019180Y009700D01*
X019480Y009700D01*
X019480Y009500D02*
X019180Y009500D01*
X018880Y009500D01*
X021880Y006200D02*
X022180Y006200D01*
X022480Y006200D01*
X022480Y006000D02*
X022180Y006000D01*
X021880Y006000D01*
X023380Y009000D02*
X023680Y009000D01*
X023980Y009000D01*
X023980Y009200D02*
X023680Y009200D01*
X023380Y009200D01*
X025880Y007200D02*
X026180Y007200D01*
X026480Y007200D01*
X026480Y007000D02*
X026180Y007000D01*
X025880Y007000D01*
X038880Y017500D02*
X039180Y017500D01*
X039480Y017500D01*
X039480Y017700D02*
X039180Y017700D01*
X038880Y017700D01*
X038880Y019250D02*
X039180Y019250D01*
X039480Y019250D01*
X039480Y019450D02*
X039180Y019450D01*
X038880Y019450D01*
D20*
X036550Y019539D02*
X036473Y019463D01*
X036550Y019539D02*
X036550Y019693D01*
X036473Y019770D01*
X036396Y019770D01*
X036320Y019693D01*
X036320Y019616D01*
X036320Y019693D02*
X036243Y019770D01*
X036166Y019770D01*
X036089Y019693D01*
X036089Y019539D01*
X036166Y019463D01*
X036089Y019309D02*
X036396Y019309D01*
X036550Y019156D01*
X036396Y019002D01*
X036089Y019002D01*
X036166Y018849D02*
X036243Y018849D01*
X036320Y018772D01*
X036396Y018849D01*
X036473Y018849D01*
X036550Y018772D01*
X036550Y018619D01*
X036473Y018542D01*
X036320Y018695D02*
X036320Y018772D01*
X036166Y018849D02*
X036089Y018772D01*
X036089Y018619D01*
X036166Y018542D01*
X036320Y018388D02*
X036320Y018082D01*
X036550Y017928D02*
X036089Y017928D01*
X036089Y017621D02*
X036550Y017621D01*
X036396Y017775D01*
X036550Y017928D01*
X036473Y017468D02*
X036550Y017391D01*
X036550Y017161D01*
X036089Y017161D01*
X036089Y017391D01*
X036166Y017468D01*
X036243Y017468D01*
X036320Y017391D01*
X036320Y017161D01*
X036320Y017391D02*
X036396Y017468D01*
X036473Y017468D01*
X036089Y017007D02*
X036089Y016700D01*
X036550Y016700D01*
X036320Y016700D02*
X036320Y016854D01*
X036320Y016547D02*
X036320Y016240D01*
X036550Y016087D02*
X036089Y016087D01*
X036089Y015780D02*
X036550Y015780D01*
X036396Y015933D01*
X036550Y016087D01*
X036473Y015626D02*
X036550Y015549D01*
X036550Y015396D01*
X036473Y015319D01*
X036320Y015396D02*
X036320Y015549D01*
X036396Y015626D01*
X036473Y015626D01*
X036320Y015396D02*
X036243Y015319D01*
X036166Y015319D01*
X036089Y015396D01*
X036089Y015549D01*
X036166Y015626D01*
X036089Y015166D02*
X036089Y014859D01*
X036550Y014859D01*
X036320Y014859D02*
X036320Y015012D01*
X036320Y014705D02*
X036320Y014398D01*
X036166Y014245D02*
X036473Y013938D01*
X036550Y013938D01*
X036550Y014245D01*
X036166Y014245D02*
X036089Y014245D01*
X036089Y013938D01*
X036089Y013785D02*
X036089Y013631D01*
X036089Y013708D02*
X036550Y013708D01*
X036550Y013631D02*
X036550Y013785D01*
X036473Y013478D02*
X036550Y013401D01*
X036550Y013247D01*
X036473Y013171D01*
X036166Y013171D01*
X036089Y013247D01*
X036089Y013401D01*
X036166Y013478D01*
X036089Y013017D02*
X036166Y012864D01*
X036320Y012710D01*
X036320Y012941D01*
X036396Y013017D01*
X036473Y013017D01*
X036550Y012941D01*
X036550Y012787D01*
X036473Y012710D01*
X036320Y012710D01*
X036550Y012557D02*
X036550Y012250D01*
X036550Y012403D02*
X036089Y012403D01*
X036243Y012250D01*
X036243Y012096D02*
X036166Y012096D01*
X036089Y012020D01*
X036089Y011866D01*
X036166Y011790D01*
X036166Y011636D02*
X036473Y011329D01*
X036550Y011406D01*
X036550Y011559D01*
X036473Y011636D01*
X036166Y011636D01*
X036089Y011559D01*
X036089Y011406D01*
X036166Y011329D01*
X036473Y011329D01*
X036473Y011176D02*
X036550Y011099D01*
X036550Y010945D01*
X036473Y010869D01*
X036166Y010869D01*
X036089Y010945D01*
X036089Y011099D01*
X036166Y011176D01*
X036320Y010715D02*
X036320Y010408D01*
X036473Y010255D02*
X036166Y010255D01*
X036089Y010178D01*
X036089Y009948D01*
X036550Y009948D01*
X036550Y010178D01*
X036473Y010255D01*
X036550Y009794D02*
X036089Y009794D01*
X036320Y009794D02*
X036320Y009488D01*
X036550Y009488D02*
X036089Y009488D01*
X036089Y009334D02*
X036550Y009334D01*
X036089Y009027D01*
X036550Y009027D01*
X036550Y011790D02*
X036243Y012096D01*
X036550Y012096D02*
X036550Y011790D01*
X013547Y012850D02*
X013240Y012850D01*
X013393Y012697D02*
X013393Y013004D01*
X010160Y013001D02*
X009853Y013308D01*
X009776Y013308D01*
X009700Y013231D01*
X009700Y013078D01*
X009776Y013001D01*
X009700Y012848D02*
X009700Y012541D01*
X010160Y012541D01*
X010160Y012387D02*
X010007Y012234D01*
X010007Y012311D02*
X010007Y012080D01*
X010160Y012080D02*
X009700Y012080D01*
X009700Y012311D01*
X009776Y012387D01*
X009930Y012387D01*
X010007Y012311D01*
X009930Y012541D02*
X009930Y012694D01*
X010160Y013001D02*
X010160Y013308D01*
X009930Y013462D02*
X009930Y013768D01*
X010083Y013922D02*
X010160Y013999D01*
X010160Y014075D01*
X010083Y014152D01*
X009700Y014152D01*
X009700Y014075D02*
X009700Y014229D01*
X009930Y014382D02*
X009930Y014689D01*
X010083Y014843D02*
X009776Y015150D01*
X010083Y015150D01*
X010160Y015073D01*
X010160Y014919D01*
X010083Y014843D01*
X009776Y014843D01*
X009700Y014919D01*
X009700Y015073D01*
X009776Y015150D01*
X009700Y015303D02*
X009853Y015457D01*
X009700Y015610D01*
X010160Y015610D01*
X010160Y015764D02*
X009853Y015764D01*
X009700Y015917D01*
X009853Y016070D01*
X010160Y016070D01*
X009930Y016070D02*
X009930Y015764D01*
X010160Y015303D02*
X009700Y015303D01*
X009700Y014613D02*
X009930Y014382D01*
X010160Y014613D02*
X009700Y014613D01*
X009700Y013692D02*
X009930Y013462D01*
X010160Y013692D02*
X009700Y013692D01*
X009700Y011927D02*
X010160Y011927D01*
X010160Y011620D02*
X009700Y011620D01*
X009853Y011773D01*
X009700Y011927D01*
X006792Y014620D02*
X006792Y015080D01*
X007098Y015080D01*
X006945Y014850D02*
X006792Y014850D01*
X006638Y014850D02*
X006638Y014697D01*
X006561Y014620D01*
X006331Y014620D01*
X006331Y014467D02*
X006331Y014927D01*
X006561Y014927D01*
X006638Y014850D01*
X006178Y014697D02*
X006178Y015004D01*
X005871Y014697D01*
X005948Y014620D01*
X006101Y014620D01*
X006178Y014697D01*
X006178Y015004D02*
X006101Y015080D01*
X005948Y015080D01*
X005871Y015004D01*
X005871Y014697D01*
X005717Y014697D02*
X005641Y014620D01*
X005487Y014620D01*
X005410Y014697D01*
X005717Y015004D01*
X005717Y014697D01*
X005810Y014410D02*
X005050Y014410D01*
X005103Y014620D02*
X005103Y015080D01*
X004950Y014927D01*
X004950Y014620D02*
X005257Y014620D01*
X005410Y014697D02*
X005410Y015004D01*
X005487Y015080D01*
X005641Y015080D01*
X005717Y015004D01*
X005717Y015370D02*
X005410Y015370D01*
X005564Y015370D02*
X005564Y015830D01*
X005410Y015677D01*
X005257Y015754D02*
X005180Y015830D01*
X005027Y015830D01*
X004950Y015754D01*
X004950Y015447D01*
X005027Y015370D01*
X005180Y015370D01*
X005257Y015447D01*
X005871Y015447D02*
X005948Y015370D01*
X006101Y015370D01*
X006178Y015447D01*
X006178Y015600D01*
X006101Y015677D01*
X006024Y015677D01*
X005871Y015600D01*
X005871Y015830D01*
X006178Y015830D01*
X004410Y015308D02*
X003950Y015308D01*
X004180Y015308D02*
X004180Y015001D01*
X004180Y014848D02*
X004410Y014848D01*
X004410Y015001D02*
X003950Y015001D01*
X004103Y014771D02*
X004180Y014848D01*
X004103Y014771D02*
X004103Y014541D01*
X004410Y014541D01*
X004333Y014387D02*
X004026Y014387D01*
X004333Y014080D01*
X004410Y014157D01*
X004410Y014311D01*
X004333Y014387D01*
X004333Y014080D02*
X004026Y014080D01*
X003950Y014157D01*
X003950Y014311D01*
X004026Y014387D01*
X003810Y014680D02*
X003810Y013530D01*
X003950Y013773D02*
X004410Y013773D01*
X004410Y013620D02*
X004410Y013927D01*
X004103Y013620D02*
X003950Y013773D01*
X005050Y013790D02*
X005810Y013790D01*
X002550Y013520D02*
X002550Y014680D01*
X002410Y014637D02*
X002410Y014330D01*
X002410Y014177D02*
X002410Y013870D01*
X001950Y013870D01*
X002103Y014330D02*
X001950Y014484D01*
X002410Y014484D01*
X002304Y017535D02*
X001556Y017535D01*
X001330Y017633D02*
X001332Y017645D01*
X001337Y017656D01*
X001346Y017665D01*
X001357Y017670D01*
X001369Y017672D01*
X001381Y017670D01*
X001392Y017665D01*
X001401Y017656D01*
X001406Y017645D01*
X001408Y017633D01*
X001406Y017621D01*
X001401Y017610D01*
X001392Y017601D01*
X001381Y017596D01*
X001369Y017594D01*
X001357Y017596D01*
X001346Y017601D01*
X001337Y017610D01*
X001332Y017621D01*
X001330Y017633D01*
X001300Y017692D02*
X001324Y017696D01*
X001346Y017702D01*
X001368Y017713D01*
X001388Y017726D01*
X001405Y017742D01*
X001420Y017760D01*
X001432Y017781D01*
X001441Y017803D01*
X001446Y017826D01*
X001448Y017850D01*
X001446Y017874D01*
X001441Y017897D01*
X001432Y017919D01*
X001420Y017940D01*
X001405Y017958D01*
X001388Y017974D01*
X001368Y017987D01*
X001346Y017998D01*
X001324Y018004D01*
X001300Y018008D01*
X001556Y018165D02*
X002304Y018165D01*
X002304Y019035D02*
X001556Y019035D01*
X001330Y019133D02*
X001332Y019145D01*
X001337Y019156D01*
X001346Y019165D01*
X001357Y019170D01*
X001369Y019172D01*
X001381Y019170D01*
X001392Y019165D01*
X001401Y019156D01*
X001406Y019145D01*
X001408Y019133D01*
X001406Y019121D01*
X001401Y019110D01*
X001392Y019101D01*
X001381Y019096D01*
X001369Y019094D01*
X001357Y019096D01*
X001346Y019101D01*
X001337Y019110D01*
X001332Y019121D01*
X001330Y019133D01*
X001300Y019192D02*
X001324Y019196D01*
X001346Y019202D01*
X001368Y019213D01*
X001388Y019226D01*
X001405Y019242D01*
X001420Y019260D01*
X001432Y019281D01*
X001441Y019303D01*
X001446Y019326D01*
X001448Y019350D01*
X001446Y019374D01*
X001441Y019397D01*
X001432Y019419D01*
X001420Y019440D01*
X001405Y019458D01*
X001388Y019474D01*
X001368Y019487D01*
X001346Y019498D01*
X001324Y019504D01*
X001300Y019508D01*
X001556Y019665D02*
X002304Y019665D01*
X002304Y020535D02*
X001556Y020535D01*
X001330Y020633D02*
X001332Y020645D01*
X001337Y020656D01*
X001346Y020665D01*
X001357Y020670D01*
X001369Y020672D01*
X001381Y020670D01*
X001392Y020665D01*
X001401Y020656D01*
X001406Y020645D01*
X001408Y020633D01*
X001406Y020621D01*
X001401Y020610D01*
X001392Y020601D01*
X001381Y020596D01*
X001369Y020594D01*
X001357Y020596D01*
X001346Y020601D01*
X001337Y020610D01*
X001332Y020621D01*
X001330Y020633D01*
X001300Y020692D02*
X001324Y020696D01*
X001346Y020702D01*
X001368Y020713D01*
X001388Y020726D01*
X001405Y020742D01*
X001420Y020760D01*
X001432Y020781D01*
X001441Y020803D01*
X001446Y020826D01*
X001448Y020850D01*
X001446Y020874D01*
X001441Y020897D01*
X001432Y020919D01*
X001420Y020940D01*
X001405Y020958D01*
X001388Y020974D01*
X001368Y020987D01*
X001346Y020998D01*
X001324Y021004D01*
X001300Y021008D01*
X001556Y021165D02*
X002304Y021165D01*
X002304Y022035D02*
X001556Y022035D01*
X001330Y022133D02*
X001332Y022145D01*
X001337Y022156D01*
X001346Y022165D01*
X001357Y022170D01*
X001369Y022172D01*
X001381Y022170D01*
X001392Y022165D01*
X001401Y022156D01*
X001406Y022145D01*
X001408Y022133D01*
X001406Y022121D01*
X001401Y022110D01*
X001392Y022101D01*
X001381Y022096D01*
X001369Y022094D01*
X001357Y022096D01*
X001346Y022101D01*
X001337Y022110D01*
X001332Y022121D01*
X001330Y022133D01*
X001300Y022192D02*
X001324Y022196D01*
X001346Y022202D01*
X001368Y022213D01*
X001388Y022226D01*
X001405Y022242D01*
X001420Y022260D01*
X001432Y022281D01*
X001441Y022303D01*
X001446Y022326D01*
X001448Y022350D01*
X001446Y022374D01*
X001441Y022397D01*
X001432Y022419D01*
X001420Y022440D01*
X001405Y022458D01*
X001388Y022474D01*
X001368Y022487D01*
X001346Y022498D01*
X001324Y022504D01*
X001300Y022508D01*
X001556Y022665D02*
X002304Y022665D01*
X002304Y023535D02*
X001556Y023535D01*
X001330Y023633D02*
X001332Y023645D01*
X001337Y023656D01*
X001346Y023665D01*
X001357Y023670D01*
X001369Y023672D01*
X001381Y023670D01*
X001392Y023665D01*
X001401Y023656D01*
X001406Y023645D01*
X001408Y023633D01*
X001406Y023621D01*
X001401Y023610D01*
X001392Y023601D01*
X001381Y023596D01*
X001369Y023594D01*
X001357Y023596D01*
X001346Y023601D01*
X001337Y023610D01*
X001332Y023621D01*
X001330Y023633D01*
X001300Y023692D02*
X001324Y023696D01*
X001346Y023702D01*
X001368Y023713D01*
X001388Y023726D01*
X001405Y023742D01*
X001420Y023760D01*
X001432Y023781D01*
X001441Y023803D01*
X001446Y023826D01*
X001448Y023850D01*
X001446Y023874D01*
X001441Y023897D01*
X001432Y023919D01*
X001420Y023940D01*
X001405Y023958D01*
X001388Y023974D01*
X001368Y023987D01*
X001346Y023998D01*
X001324Y024004D01*
X001300Y024008D01*
X001556Y024165D02*
X002304Y024165D01*
X002304Y025035D02*
X001556Y025035D01*
X001330Y025133D02*
X001332Y025145D01*
X001337Y025156D01*
X001346Y025165D01*
X001357Y025170D01*
X001369Y025172D01*
X001381Y025170D01*
X001392Y025165D01*
X001401Y025156D01*
X001406Y025145D01*
X001408Y025133D01*
X001406Y025121D01*
X001401Y025110D01*
X001392Y025101D01*
X001381Y025096D01*
X001369Y025094D01*
X001357Y025096D01*
X001346Y025101D01*
X001337Y025110D01*
X001332Y025121D01*
X001330Y025133D01*
X001300Y025192D02*
X001324Y025196D01*
X001346Y025202D01*
X001368Y025213D01*
X001388Y025226D01*
X001405Y025242D01*
X001420Y025260D01*
X001432Y025281D01*
X001441Y025303D01*
X001446Y025326D01*
X001448Y025350D01*
X001446Y025374D01*
X001441Y025397D01*
X001432Y025419D01*
X001420Y025440D01*
X001405Y025458D01*
X001388Y025474D01*
X001368Y025487D01*
X001346Y025498D01*
X001324Y025504D01*
X001300Y025508D01*
X001556Y025665D02*
X002304Y025665D01*
X002304Y026535D02*
X001556Y026535D01*
X001330Y026633D02*
X001332Y026645D01*
X001337Y026656D01*
X001346Y026665D01*
X001357Y026670D01*
X001369Y026672D01*
X001381Y026670D01*
X001392Y026665D01*
X001401Y026656D01*
X001406Y026645D01*
X001408Y026633D01*
X001406Y026621D01*
X001401Y026610D01*
X001392Y026601D01*
X001381Y026596D01*
X001369Y026594D01*
X001357Y026596D01*
X001346Y026601D01*
X001337Y026610D01*
X001332Y026621D01*
X001330Y026633D01*
X001300Y026692D02*
X001324Y026696D01*
X001346Y026702D01*
X001368Y026713D01*
X001388Y026726D01*
X001405Y026742D01*
X001420Y026760D01*
X001432Y026781D01*
X001441Y026803D01*
X001446Y026826D01*
X001448Y026850D01*
X001446Y026874D01*
X001441Y026897D01*
X001432Y026919D01*
X001420Y026940D01*
X001405Y026958D01*
X001388Y026974D01*
X001368Y026987D01*
X001346Y026998D01*
X001324Y027004D01*
X001300Y027008D01*
X001556Y027165D02*
X002304Y027165D01*
X002304Y028035D02*
X001556Y028035D01*
X001330Y028133D02*
X001332Y028145D01*
X001337Y028156D01*
X001346Y028165D01*
X001357Y028170D01*
X001369Y028172D01*
X001381Y028170D01*
X001392Y028165D01*
X001401Y028156D01*
X001406Y028145D01*
X001408Y028133D01*
X001406Y028121D01*
X001401Y028110D01*
X001392Y028101D01*
X001381Y028096D01*
X001369Y028094D01*
X001357Y028096D01*
X001346Y028101D01*
X001337Y028110D01*
X001332Y028121D01*
X001330Y028133D01*
X001300Y028192D02*
X001324Y028196D01*
X001346Y028202D01*
X001368Y028213D01*
X001388Y028226D01*
X001405Y028242D01*
X001420Y028260D01*
X001432Y028281D01*
X001441Y028303D01*
X001446Y028326D01*
X001448Y028350D01*
X001446Y028374D01*
X001441Y028397D01*
X001432Y028419D01*
X001420Y028440D01*
X001405Y028458D01*
X001388Y028474D01*
X001368Y028487D01*
X001346Y028498D01*
X001324Y028504D01*
X001300Y028508D01*
X001556Y028665D02*
X002304Y028665D01*
X003950Y030570D02*
X004257Y030570D01*
X004410Y030570D02*
X004410Y031030D01*
X004564Y030877D01*
X004717Y031030D01*
X004717Y030570D01*
X004871Y030647D02*
X004948Y030570D01*
X005101Y030570D01*
X005178Y030647D01*
X005178Y030800D01*
X005101Y030877D01*
X005024Y030877D01*
X004871Y030800D01*
X004871Y031030D01*
X005178Y031030D01*
X005331Y031030D02*
X005331Y030800D01*
X005485Y030877D01*
X005561Y030877D01*
X005638Y030800D01*
X005638Y030647D01*
X005561Y030570D01*
X005408Y030570D01*
X005331Y030647D01*
X005331Y031030D02*
X005638Y031030D01*
X005792Y031030D02*
X005792Y030800D01*
X005945Y030877D01*
X006022Y030877D01*
X006098Y030800D01*
X006098Y030647D01*
X006022Y030570D01*
X005868Y030570D01*
X005792Y030647D01*
X005792Y031030D02*
X006098Y031030D01*
X006252Y031030D02*
X006482Y031030D01*
X006559Y030954D01*
X006559Y030647D01*
X006482Y030570D01*
X006252Y030570D01*
X006252Y031030D01*
X003950Y031030D02*
X003950Y030570D01*
X010160Y016991D02*
X010160Y016684D01*
X010160Y016838D02*
X009700Y016838D01*
X009853Y016684D01*
X009930Y016531D02*
X009930Y016224D01*
X013240Y007350D02*
X013547Y007350D01*
D21*
X013580Y020700D02*
X013580Y023000D01*
X013578Y023059D01*
X013572Y023117D01*
X013563Y023176D01*
X013549Y023233D01*
X013532Y023289D01*
X013511Y023344D01*
X013487Y023398D01*
X013459Y023450D01*
X013428Y023500D01*
X013394Y023548D01*
X013357Y023593D01*
X013316Y023636D01*
X013273Y023677D01*
X013228Y023714D01*
X013180Y023748D01*
X013130Y023779D01*
X013078Y023807D01*
X013024Y023831D01*
X012969Y023852D01*
X012913Y023869D01*
X012856Y023883D01*
X012797Y023892D01*
X012739Y023898D01*
X012680Y023900D01*
X012621Y023898D01*
X012563Y023892D01*
X012504Y023883D01*
X012447Y023869D01*
X012391Y023852D01*
X012336Y023831D01*
X012282Y023807D01*
X012230Y023779D01*
X012180Y023748D01*
X012132Y023714D01*
X012087Y023677D01*
X012044Y023636D01*
X012003Y023593D01*
X011966Y023548D01*
X011932Y023500D01*
X011901Y023450D01*
X011873Y023398D01*
X011849Y023344D01*
X011828Y023289D01*
X011811Y023233D01*
X011797Y023176D01*
X011788Y023117D01*
X011782Y023059D01*
X011780Y023000D01*
X011780Y020700D01*
X011782Y020641D01*
X011788Y020583D01*
X011797Y020524D01*
X011811Y020467D01*
X011828Y020411D01*
X011849Y020356D01*
X011873Y020302D01*
X011901Y020250D01*
X011932Y020200D01*
X011966Y020152D01*
X012003Y020107D01*
X012044Y020064D01*
X012087Y020023D01*
X012132Y019986D01*
X012180Y019952D01*
X012230Y019921D01*
X012282Y019893D01*
X012336Y019869D01*
X012391Y019848D01*
X012447Y019831D01*
X012504Y019817D01*
X012563Y019808D01*
X012621Y019802D01*
X012680Y019800D01*
X012739Y019802D01*
X012797Y019808D01*
X012856Y019817D01*
X012913Y019831D01*
X012969Y019848D01*
X013024Y019869D01*
X013078Y019893D01*
X013130Y019921D01*
X013180Y019952D01*
X013228Y019986D01*
X013273Y020023D01*
X013316Y020064D01*
X013357Y020107D01*
X013394Y020152D01*
X013428Y020200D01*
X013459Y020250D01*
X013487Y020302D01*
X013511Y020356D01*
X013532Y020411D01*
X013549Y020467D01*
X013563Y020524D01*
X013572Y020583D01*
X013578Y020641D01*
X013580Y020700D01*
D22*
X013660Y029850D03*
X014700Y029850D03*
X012450Y029850D03*
X011410Y029850D03*
D23*
X001305Y028114D03*
X001305Y026614D03*
X001305Y025114D03*
X001305Y023614D03*
X001305Y022114D03*
X001305Y020614D03*
X001305Y019114D03*
X001305Y017614D03*
D24*
X001384Y017560D03*
X001384Y019060D03*
X001384Y020560D03*
X001384Y022060D03*
X001384Y023560D03*
X001384Y025060D03*
X001384Y026560D03*
X001384Y028060D03*
D25*
X001403Y028197D03*
X001403Y026697D03*
X001403Y025197D03*
X001403Y023697D03*
X001403Y022197D03*
X001403Y020697D03*
X001403Y019197D03*
X001403Y017697D03*
D26*
X001423Y017678D03*
X001423Y019178D03*
X001423Y020678D03*
X001423Y022178D03*
X001423Y023678D03*
X001423Y025178D03*
X001423Y026678D03*
X001423Y028178D03*
D27*
X001349Y028586D03*
X001349Y027086D03*
X001349Y025586D03*
X001349Y024086D03*
X001349Y022586D03*
X001349Y021086D03*
X001349Y019586D03*
X001349Y018086D03*
D28*
X001423Y018067D03*
X001423Y019567D03*
X001423Y021067D03*
X001423Y022567D03*
X001423Y024067D03*
X001423Y025567D03*
X001423Y027067D03*
X001423Y028567D03*
D29*
X001497Y028350D03*
X001497Y026850D03*
X001497Y025350D03*
X001497Y023850D03*
X001497Y022350D03*
X001497Y020850D03*
X001497Y019350D03*
X001497Y017850D03*
D30*
X002442Y017850D03*
X002442Y019350D03*
X002442Y020850D03*
X002442Y022350D03*
X002442Y023850D03*
X002442Y025350D03*
X002442Y026850D03*
X002442Y028350D03*
D31*
X001709Y028079D03*
X001709Y028621D03*
X001709Y027121D03*
X001709Y026579D03*
X001709Y025621D03*
X001709Y025079D03*
X001709Y024121D03*
X001709Y023579D03*
X001709Y022621D03*
X001709Y022079D03*
X001709Y021121D03*
X001709Y020579D03*
X001709Y019621D03*
X001709Y019079D03*
X001709Y018121D03*
X001709Y017579D03*
D32*
X001861Y017850D03*
X001861Y019350D03*
X001861Y020850D03*
X001861Y022350D03*
X001861Y023850D03*
X001861Y025350D03*
X001861Y026850D03*
X001861Y028350D03*
D33*
X018180Y031850D03*
X019180Y031850D03*
X020180Y031850D03*
X021180Y031850D03*
X022180Y031850D03*
X023180Y031850D03*
X027430Y031100D03*
X027430Y030100D03*
X018180Y013100D03*
X018180Y012100D03*
X018180Y011100D03*
X016180Y011100D03*
X016180Y012100D03*
X016180Y013100D03*
X014180Y013100D03*
X014180Y012100D03*
X014180Y011100D03*
X014180Y009850D03*
X014180Y008850D03*
X014180Y007850D03*
X014180Y006850D03*
X014180Y005850D03*
X014180Y004850D03*
X014180Y003850D03*
X016180Y003850D03*
X016180Y004850D03*
X016180Y005850D03*
X016180Y006850D03*
X016180Y007850D03*
X016180Y008850D03*
X016180Y009850D03*
X012180Y010100D03*
X012180Y009100D03*
D34*
X006170Y012647D02*
X006133Y012610D01*
X006170Y012647D02*
X006170Y012720D01*
X006133Y012757D01*
X006097Y012757D01*
X006060Y012720D01*
X006060Y012647D01*
X006023Y012610D01*
X005987Y012610D01*
X005950Y012647D01*
X005950Y012720D01*
X005987Y012757D01*
X005950Y012831D02*
X005950Y012941D01*
X005987Y012978D01*
X006133Y012978D01*
X006170Y012941D01*
X006170Y012831D01*
X005950Y012831D01*
X005987Y013052D02*
X006133Y013052D01*
X006170Y013089D01*
X006170Y013162D01*
X006133Y013199D01*
X005987Y013199D01*
X005950Y013162D01*
X005950Y013089D01*
X005987Y013052D01*
X005170Y012941D02*
X005170Y012868D01*
X005133Y012831D01*
X005133Y012757D02*
X005170Y012720D01*
X005170Y012647D01*
X005133Y012610D01*
X004987Y012610D01*
X004950Y012647D01*
X004950Y012720D01*
X004987Y012757D01*
X004987Y012831D02*
X005023Y012831D01*
X005060Y012868D01*
X005060Y012941D01*
X005097Y012978D01*
X005133Y012978D01*
X005170Y012941D01*
X004987Y012978D02*
X004950Y012941D01*
X004950Y012868D01*
X004987Y012831D01*
X004170Y012868D02*
X004170Y012941D01*
X004133Y012978D01*
X004170Y012868D02*
X004133Y012831D01*
X003987Y012831D01*
X003950Y012868D01*
X003950Y012941D01*
X003987Y012978D01*
X003950Y012757D02*
X004170Y012757D01*
X003950Y012610D01*
X004170Y012610D01*
X003170Y012683D02*
X003097Y012757D01*
X002950Y012757D01*
X003023Y012831D02*
X003023Y012868D01*
X003170Y012868D01*
X003170Y012904D02*
X003170Y012831D01*
X003170Y012978D02*
X003023Y012978D01*
X003023Y013088D01*
X003060Y013125D01*
X003170Y013125D01*
X002950Y012868D02*
X002913Y012868D01*
X002950Y012610D02*
X003097Y012610D01*
X003170Y012683D01*
X002170Y012647D02*
X002170Y012720D01*
X002133Y012757D01*
X002060Y012757D01*
X002060Y012683D01*
X002133Y012610D02*
X002170Y012647D01*
X002133Y012610D02*
X001987Y012610D01*
X001950Y012647D01*
X001950Y012720D01*
X001987Y012757D01*
X001950Y012831D02*
X002170Y012978D01*
X001950Y012978D01*
X001950Y013052D02*
X001950Y013162D01*
X001987Y013199D01*
X002133Y013199D01*
X002170Y013162D01*
X002170Y013052D01*
X001950Y013052D01*
X001950Y012831D02*
X002170Y012831D01*
X001170Y012831D02*
X000950Y012831D01*
X001170Y012978D01*
X000950Y012978D01*
X000950Y013052D02*
X000950Y013162D01*
X000987Y013199D01*
X001133Y013199D01*
X001170Y013162D01*
X001170Y013052D01*
X000950Y013052D01*
X000987Y012757D02*
X000950Y012720D01*
X000950Y012647D01*
X000987Y012610D01*
X001133Y012610D01*
X001170Y012647D01*
X001170Y012720D01*
X001133Y012757D01*
X001060Y012757D01*
X001060Y012683D01*
X001227Y004536D02*
X001190Y004499D01*
X001190Y004389D01*
X001410Y004389D01*
X001410Y004499D01*
X001373Y004536D01*
X001227Y004536D01*
X001190Y004315D02*
X001410Y004315D01*
X001190Y004168D01*
X001410Y004168D01*
X001373Y004094D02*
X001300Y004094D01*
X001300Y004020D01*
X001373Y003947D02*
X001410Y003984D01*
X001410Y004057D01*
X001373Y004094D01*
X001227Y004094D02*
X001190Y004057D01*
X001190Y003984D01*
X001227Y003947D01*
X001373Y003947D01*
X002190Y003984D02*
X002227Y003947D01*
X002263Y003947D01*
X002300Y003984D01*
X002300Y004057D01*
X002337Y004094D01*
X002373Y004094D01*
X002410Y004057D01*
X002410Y003984D01*
X002373Y003947D01*
X002410Y003873D02*
X002410Y003726D01*
X002190Y003726D01*
X002190Y003873D01*
X002190Y003984D02*
X002190Y004057D01*
X002227Y004094D01*
X002190Y004168D02*
X002410Y004168D01*
X002410Y004315D01*
X002300Y004241D02*
X002300Y004168D01*
X002190Y004168D02*
X002190Y004315D01*
X002190Y004389D02*
X002190Y004536D01*
X002190Y004462D02*
X002410Y004462D01*
X002300Y003799D02*
X002300Y003726D01*
X002300Y003652D02*
X002337Y003615D01*
X002337Y003505D01*
X002410Y003505D02*
X002190Y003505D01*
X002190Y003615D01*
X002227Y003652D01*
X002300Y003652D01*
X002337Y003578D02*
X002410Y003652D01*
X002190Y003431D02*
X002227Y003394D01*
X002153Y003321D01*
X002190Y003284D01*
X003190Y003726D02*
X003410Y003726D01*
X003337Y003799D01*
X003410Y003873D01*
X003190Y003873D01*
X003263Y003947D02*
X003190Y004020D01*
X003263Y004094D01*
X003410Y004094D01*
X003410Y004168D02*
X003190Y004168D01*
X003300Y004205D02*
X003410Y004315D01*
X003410Y004389D02*
X003410Y004536D01*
X003300Y004462D02*
X003300Y004389D01*
X003190Y004389D02*
X003410Y004389D01*
X003190Y004389D02*
X003190Y004536D01*
X003190Y004315D02*
X003337Y004168D01*
X003300Y004094D02*
X003300Y003947D01*
X003263Y003947D02*
X003410Y003947D01*
X004190Y004021D02*
X004190Y004094D01*
X004190Y004057D02*
X004410Y004057D01*
X004410Y004021D02*
X004410Y004094D01*
X004410Y004168D02*
X004190Y004168D01*
X004410Y004315D01*
X004190Y004315D01*
X004190Y004389D02*
X004190Y004536D01*
X004190Y004462D02*
X004410Y004462D01*
X005190Y004463D02*
X005190Y004536D01*
X005190Y004499D02*
X005410Y004499D01*
X005410Y004463D02*
X005410Y004536D01*
X005373Y004388D02*
X005227Y004388D01*
X005190Y004352D01*
X005190Y004242D01*
X005410Y004242D01*
X005410Y004352D01*
X005373Y004388D01*
X005373Y004167D02*
X005410Y004131D01*
X005410Y004057D01*
X005373Y004021D01*
X005300Y004057D02*
X005300Y004131D01*
X005337Y004167D01*
X005373Y004167D01*
X005300Y004057D02*
X005263Y004021D01*
X005227Y004021D01*
X005190Y004057D01*
X005190Y004131D01*
X005227Y004167D01*
X006190Y004205D02*
X006227Y004168D01*
X006373Y004168D01*
X006410Y004205D01*
X006410Y004278D01*
X006373Y004315D01*
X006337Y004389D02*
X006190Y004536D01*
X006190Y004389D02*
X006410Y004389D01*
X006300Y004426D02*
X006410Y004536D01*
X006227Y004315D02*
X006190Y004278D01*
X006190Y004205D01*
X006227Y004094D02*
X006190Y004057D01*
X006190Y003984D01*
X006227Y003947D01*
X006263Y003947D01*
X006300Y003984D01*
X006300Y004057D01*
X006337Y004094D01*
X006373Y004094D01*
X006410Y004057D01*
X006410Y003984D01*
X006373Y003947D01*
D35*
X006684Y028600D03*
X006684Y029100D03*
X006684Y029600D03*
X006684Y030100D03*
X004676Y030100D03*
X004676Y029600D03*
X004676Y029100D03*
X004676Y028600D03*
D36*
X009180Y028830D03*
X009180Y027870D03*
X009180Y026830D03*
X009180Y029870D03*
X024680Y024370D03*
X024680Y023330D03*
X026180Y023330D03*
X026180Y024370D03*
D37*
X003180Y014857D03*
X003180Y013347D03*
D38*
X004908Y014100D03*
X005952Y014100D03*
D39*
X011401Y012195D02*
X011451Y012245D01*
X011451Y012095D01*
X011401Y012095D02*
X011501Y012095D01*
X011548Y012095D02*
X011548Y012195D01*
X011598Y012245D01*
X011648Y012195D01*
X011648Y012095D01*
X011648Y012170D02*
X011548Y012170D01*
X011843Y012145D02*
X011918Y012145D01*
X011943Y012170D01*
X011943Y012220D01*
X011918Y012245D01*
X011843Y012245D01*
X011843Y012095D01*
X012040Y012095D02*
X012040Y012245D01*
X011990Y012245D02*
X012090Y012245D01*
X012138Y012220D02*
X012138Y012120D01*
X012163Y012095D01*
X012213Y012095D01*
X012238Y012120D01*
X012238Y012220D02*
X012213Y012245D01*
X012163Y012245D01*
X012138Y012220D01*
X012090Y011095D02*
X011990Y011095D01*
X011990Y010945D01*
X011990Y011020D02*
X012040Y011020D01*
X012138Y011045D02*
X012188Y011095D01*
X012188Y010945D01*
X012138Y010945D02*
X012238Y010945D01*
M02*
