G75*
G70*
%OFA0B0*%
%FSLAX24Y24*%
%IPPOS*%
%LPD*%
%AMOC8*
5,1,8,0,0,1.08239X$1,22.5*
%
%ADD10C,0.0000*%
%ADD11C,0.0060*%
%ADD12C,0.0080*%
%ADD13C,0.0050*%
%ADD14R,0.0260X0.0260*%
%ADD15C,0.0030*%
%ADD16C,0.0100*%
%ADD17C,0.0040*%
%ADD18C,0.0160*%
%ADD19R,0.0290X0.0690*%
%ADD20R,0.0049X0.0197*%
%ADD21R,0.0128X0.0089*%
%ADD22R,0.0089X0.0049*%
%ADD23R,0.0049X0.0167*%
%ADD24R,0.0138X0.0197*%
%ADD25R,0.0049X0.0236*%
%ADD26R,0.0118X0.0669*%
%ADD27R,0.0276X0.0669*%
%ADD28R,0.0167X0.0128*%
%ADD29R,0.0138X0.0138*%
%ADD30R,0.0200X0.0200*%
%ADD31R,0.0433X0.0193*%
%ADD32R,0.0690X0.0290*%
D10*
X001279Y000180D02*
X001279Y031926D01*
X040649Y031926D01*
X040649Y000180D01*
X001279Y000180D01*
X002282Y003666D02*
X002286Y003670D01*
X002286Y003676D01*
X002288Y003676D02*
X002292Y003676D01*
X002290Y003676D02*
X002290Y003666D01*
X002288Y003666D02*
X002292Y003666D01*
X002294Y003666D02*
X002294Y003673D01*
X002298Y003676D01*
X002301Y003673D01*
X002301Y003666D01*
X002301Y003671D02*
X002294Y003671D01*
X002282Y003666D02*
X002279Y003670D01*
X002279Y003676D01*
X002282Y013416D02*
X002286Y013420D01*
X002286Y013426D01*
X002288Y013426D02*
X002292Y013426D01*
X002290Y013426D02*
X002290Y013416D01*
X002288Y013416D02*
X002292Y013416D01*
X002294Y013416D02*
X002294Y013423D01*
X002298Y013426D01*
X002301Y013423D01*
X002301Y013416D01*
X002301Y013421D02*
X002294Y013421D01*
X002282Y013416D02*
X002279Y013420D01*
X002279Y013426D01*
X006279Y013426D02*
X006279Y013420D01*
X006282Y013416D01*
X006286Y013420D01*
X006286Y013426D01*
X006288Y013426D02*
X006292Y013426D01*
X006290Y013426D02*
X006290Y013416D01*
X006288Y013416D02*
X006292Y013416D01*
X006294Y013416D02*
X006294Y013423D01*
X006298Y013426D01*
X006301Y013423D01*
X006301Y013416D01*
X006301Y013421D02*
X006294Y013421D01*
X007024Y018430D02*
X007026Y018500D01*
X007032Y018571D01*
X007042Y018640D01*
X007055Y018709D01*
X007073Y018777D01*
X007094Y018845D01*
X007120Y018910D01*
X007148Y018975D01*
X007181Y019037D01*
X007216Y019098D01*
X007255Y019156D01*
X007298Y019212D01*
X007343Y019266D01*
X007392Y019317D01*
X007443Y019366D01*
X007497Y019411D01*
X007553Y019454D01*
X007611Y019493D01*
X007672Y019528D01*
X007734Y019561D01*
X007799Y019589D01*
X007864Y019615D01*
X007932Y019636D01*
X008000Y019654D01*
X008069Y019667D01*
X008138Y019677D01*
X008209Y019683D01*
X008279Y019685D01*
X008349Y019683D01*
X008420Y019677D01*
X008489Y019667D01*
X008558Y019654D01*
X008626Y019636D01*
X008694Y019615D01*
X008759Y019589D01*
X008824Y019561D01*
X008886Y019528D01*
X008947Y019493D01*
X009005Y019454D01*
X009061Y019411D01*
X009115Y019366D01*
X009166Y019317D01*
X009215Y019266D01*
X009260Y019212D01*
X009303Y019156D01*
X009342Y019098D01*
X009377Y019037D01*
X009410Y018975D01*
X009438Y018910D01*
X009464Y018845D01*
X009485Y018777D01*
X009503Y018709D01*
X009516Y018640D01*
X009526Y018571D01*
X009532Y018500D01*
X009534Y018430D01*
X009532Y018360D01*
X009526Y018289D01*
X009516Y018220D01*
X009503Y018151D01*
X009485Y018083D01*
X009464Y018015D01*
X009438Y017950D01*
X009410Y017885D01*
X009377Y017823D01*
X009342Y017762D01*
X009303Y017704D01*
X009260Y017648D01*
X009215Y017594D01*
X009166Y017543D01*
X009115Y017494D01*
X009061Y017449D01*
X009005Y017406D01*
X008947Y017367D01*
X008886Y017332D01*
X008824Y017299D01*
X008759Y017271D01*
X008694Y017245D01*
X008626Y017224D01*
X008558Y017206D01*
X008489Y017193D01*
X008420Y017183D01*
X008349Y017177D01*
X008279Y017175D01*
X008209Y017177D01*
X008138Y017183D01*
X008069Y017193D01*
X008000Y017206D01*
X007932Y017224D01*
X007864Y017245D01*
X007799Y017271D01*
X007734Y017299D01*
X007672Y017332D01*
X007611Y017367D01*
X007553Y017406D01*
X007497Y017449D01*
X007443Y017494D01*
X007392Y017543D01*
X007343Y017594D01*
X007298Y017648D01*
X007255Y017704D01*
X007216Y017762D01*
X007181Y017823D01*
X007148Y017885D01*
X007120Y017950D01*
X007094Y018015D01*
X007073Y018083D01*
X007055Y018151D01*
X007042Y018220D01*
X007032Y018289D01*
X007026Y018360D01*
X007024Y018430D01*
X013099Y016030D02*
X013099Y015830D01*
X013509Y015830D01*
X013509Y016030D01*
X013099Y016030D01*
X013509Y016140D02*
X013509Y014220D01*
X014399Y014220D01*
X015049Y014220D01*
X015049Y016140D01*
X013509Y016140D01*
X013509Y015530D02*
X013099Y015530D01*
X013099Y015330D01*
X013509Y015330D01*
X013509Y015530D01*
X013509Y015030D02*
X013099Y015030D01*
X013099Y014830D01*
X013509Y014830D01*
X013509Y015030D01*
X013509Y014530D02*
X013099Y014530D01*
X013099Y014330D01*
X013509Y014330D01*
X013509Y014530D01*
X014159Y014210D02*
X014160Y014231D01*
X014165Y014251D01*
X014173Y014271D01*
X014184Y014288D01*
X014198Y014304D01*
X014215Y014316D01*
X014233Y014326D01*
X014253Y014332D01*
X014274Y014335D01*
X014295Y014334D01*
X014315Y014329D01*
X014335Y014321D01*
X014352Y014310D01*
X014368Y014296D01*
X014380Y014279D01*
X014390Y014261D01*
X014396Y014241D01*
X014399Y014220D01*
X015049Y014330D02*
X015049Y014530D01*
X015459Y014530D01*
X015459Y014330D01*
X015049Y014330D01*
X015049Y014830D02*
X015459Y014830D01*
X015459Y015030D01*
X015049Y015030D01*
X015049Y014830D01*
X015049Y015330D02*
X015459Y015330D01*
X015459Y015530D01*
X015049Y015530D01*
X015049Y015330D01*
X015049Y015830D02*
X015459Y015830D01*
X015459Y016030D01*
X015049Y016030D01*
X015049Y015830D01*
X021099Y010280D02*
X021099Y010080D01*
X021509Y010080D01*
X021509Y010280D01*
X021099Y010280D01*
X021509Y010390D02*
X021509Y008470D01*
X023049Y008470D01*
X023049Y010390D01*
X022159Y010390D01*
X021509Y010390D01*
X021509Y009780D02*
X021099Y009780D01*
X021099Y009580D01*
X021509Y009580D01*
X021509Y009780D01*
X021509Y009280D02*
X021099Y009280D01*
X021099Y009080D01*
X021509Y009080D01*
X021509Y009280D01*
X021509Y008780D02*
X021099Y008780D01*
X021099Y008580D01*
X021509Y008580D01*
X021509Y008780D01*
X023049Y008780D02*
X023049Y008580D01*
X023459Y008580D01*
X023459Y008780D01*
X023049Y008780D01*
X023049Y009080D02*
X023459Y009080D01*
X023459Y009280D01*
X023049Y009280D01*
X023049Y009080D01*
X023049Y009580D02*
X023459Y009580D01*
X023459Y009780D01*
X023049Y009780D01*
X023049Y009580D01*
X023049Y010080D02*
X023459Y010080D01*
X023459Y010280D01*
X023049Y010280D01*
X023049Y010080D01*
X022399Y010400D02*
X022398Y010379D01*
X022393Y010359D01*
X022385Y010339D01*
X022374Y010322D01*
X022360Y010306D01*
X022343Y010294D01*
X022325Y010284D01*
X022305Y010278D01*
X022284Y010275D01*
X022263Y010276D01*
X022243Y010281D01*
X022223Y010289D01*
X022206Y010300D01*
X022190Y010314D01*
X022178Y010331D01*
X022168Y010349D01*
X022162Y010369D01*
X022159Y010390D01*
X021899Y012930D02*
X021901Y012980D01*
X021907Y013030D01*
X021917Y013079D01*
X021931Y013127D01*
X021948Y013174D01*
X021969Y013219D01*
X021994Y013263D01*
X022022Y013304D01*
X022054Y013343D01*
X022088Y013380D01*
X022125Y013414D01*
X022165Y013444D01*
X022207Y013471D01*
X022251Y013495D01*
X022297Y013516D01*
X022344Y013532D01*
X022392Y013545D01*
X022442Y013554D01*
X022491Y013559D01*
X022542Y013560D01*
X022592Y013557D01*
X022641Y013550D01*
X022690Y013539D01*
X022738Y013524D01*
X022784Y013506D01*
X022829Y013484D01*
X022872Y013458D01*
X022913Y013429D01*
X022952Y013397D01*
X022988Y013362D01*
X023020Y013324D01*
X023050Y013284D01*
X023077Y013241D01*
X023100Y013197D01*
X023119Y013151D01*
X023135Y013103D01*
X023147Y013054D01*
X023155Y013005D01*
X023159Y012955D01*
X023159Y012905D01*
X023155Y012855D01*
X023147Y012806D01*
X023135Y012757D01*
X023119Y012709D01*
X023100Y012663D01*
X023077Y012619D01*
X023050Y012576D01*
X023020Y012536D01*
X022988Y012498D01*
X022952Y012463D01*
X022913Y012431D01*
X022872Y012402D01*
X022829Y012376D01*
X022784Y012354D01*
X022738Y012336D01*
X022690Y012321D01*
X022641Y012310D01*
X022592Y012303D01*
X022542Y012300D01*
X022491Y012301D01*
X022442Y012306D01*
X022392Y012315D01*
X022344Y012328D01*
X022297Y012344D01*
X022251Y012365D01*
X022207Y012389D01*
X022165Y012416D01*
X022125Y012446D01*
X022088Y012480D01*
X022054Y012517D01*
X022022Y012556D01*
X021994Y012597D01*
X021969Y012641D01*
X021948Y012686D01*
X021931Y012733D01*
X021917Y012781D01*
X021907Y012830D01*
X021901Y012880D01*
X021899Y012930D01*
X024099Y006780D02*
X024099Y006580D01*
X024509Y006580D01*
X024509Y006780D01*
X024099Y006780D01*
X024509Y006890D02*
X024509Y004970D01*
X026049Y004970D01*
X026049Y006890D01*
X025159Y006890D01*
X024509Y006890D01*
X024509Y006280D02*
X024099Y006280D01*
X024099Y006080D01*
X024509Y006080D01*
X024509Y006280D01*
X024509Y005780D02*
X024099Y005780D01*
X024099Y005580D01*
X024509Y005580D01*
X024509Y005780D01*
X024509Y005280D02*
X024099Y005280D01*
X024099Y005080D01*
X024509Y005080D01*
X024509Y005280D01*
X026049Y005280D02*
X026049Y005080D01*
X026459Y005080D01*
X026459Y005280D01*
X026049Y005280D01*
X026049Y005580D02*
X026459Y005580D01*
X026459Y005780D01*
X026049Y005780D01*
X026049Y005580D01*
X026049Y006080D02*
X026459Y006080D01*
X026459Y006280D01*
X026049Y006280D01*
X026049Y006080D01*
X026049Y006580D02*
X026459Y006580D01*
X026459Y006780D01*
X026049Y006780D01*
X026049Y006580D01*
X025399Y006900D02*
X025398Y006879D01*
X025393Y006859D01*
X025385Y006839D01*
X025374Y006822D01*
X025360Y006806D01*
X025343Y006794D01*
X025325Y006784D01*
X025305Y006778D01*
X025284Y006775D01*
X025263Y006776D01*
X025243Y006781D01*
X025223Y006789D01*
X025206Y006800D01*
X025190Y006814D01*
X025178Y006831D01*
X025168Y006849D01*
X025162Y006869D01*
X025159Y006890D01*
X021899Y003430D02*
X021901Y003480D01*
X021907Y003530D01*
X021917Y003579D01*
X021931Y003627D01*
X021948Y003674D01*
X021969Y003719D01*
X021994Y003763D01*
X022022Y003804D01*
X022054Y003843D01*
X022088Y003880D01*
X022125Y003914D01*
X022165Y003944D01*
X022207Y003971D01*
X022251Y003995D01*
X022297Y004016D01*
X022344Y004032D01*
X022392Y004045D01*
X022442Y004054D01*
X022491Y004059D01*
X022542Y004060D01*
X022592Y004057D01*
X022641Y004050D01*
X022690Y004039D01*
X022738Y004024D01*
X022784Y004006D01*
X022829Y003984D01*
X022872Y003958D01*
X022913Y003929D01*
X022952Y003897D01*
X022988Y003862D01*
X023020Y003824D01*
X023050Y003784D01*
X023077Y003741D01*
X023100Y003697D01*
X023119Y003651D01*
X023135Y003603D01*
X023147Y003554D01*
X023155Y003505D01*
X023159Y003455D01*
X023159Y003405D01*
X023155Y003355D01*
X023147Y003306D01*
X023135Y003257D01*
X023119Y003209D01*
X023100Y003163D01*
X023077Y003119D01*
X023050Y003076D01*
X023020Y003036D01*
X022988Y002998D01*
X022952Y002963D01*
X022913Y002931D01*
X022872Y002902D01*
X022829Y002876D01*
X022784Y002854D01*
X022738Y002836D01*
X022690Y002821D01*
X022641Y002810D01*
X022592Y002803D01*
X022542Y002800D01*
X022491Y002801D01*
X022442Y002806D01*
X022392Y002815D01*
X022344Y002828D01*
X022297Y002844D01*
X022251Y002865D01*
X022207Y002889D01*
X022165Y002916D01*
X022125Y002946D01*
X022088Y002980D01*
X022054Y003017D01*
X022022Y003056D01*
X021994Y003097D01*
X021969Y003141D01*
X021948Y003186D01*
X021931Y003233D01*
X021917Y003281D01*
X021907Y003330D01*
X021901Y003380D01*
X021899Y003430D01*
D11*
X023279Y005680D02*
X023279Y006030D01*
X023279Y006080D01*
X023279Y006280D02*
X023279Y006330D01*
X023279Y006680D01*
X024819Y006890D02*
X025159Y006890D01*
X025739Y006890D01*
X025399Y006900D02*
X025398Y006879D01*
X025393Y006859D01*
X025385Y006839D01*
X025374Y006822D01*
X025360Y006806D01*
X025343Y006794D01*
X025325Y006784D01*
X025305Y006778D01*
X025284Y006775D01*
X025263Y006776D01*
X025243Y006781D01*
X025223Y006789D01*
X025206Y006800D01*
X025190Y006814D01*
X025178Y006831D01*
X025168Y006849D01*
X025162Y006869D01*
X025159Y006890D01*
X027279Y007030D02*
X027279Y006680D01*
X027279Y007030D02*
X027279Y007080D01*
X027279Y007280D02*
X027279Y007330D01*
X027279Y007680D01*
X028529Y008930D02*
X028529Y009430D01*
X028779Y009680D01*
X028529Y009930D01*
X028529Y010430D01*
X028779Y010680D01*
X029279Y010680D01*
X029529Y010430D01*
X029529Y009930D01*
X029279Y009680D01*
X029529Y009430D01*
X029529Y008930D01*
X029279Y008680D01*
X028779Y008680D01*
X028529Y008930D01*
X031309Y008487D02*
X031309Y008260D01*
X031309Y008430D02*
X031536Y008430D01*
X031536Y008487D02*
X031536Y008260D01*
X031677Y008317D02*
X031677Y008544D01*
X031734Y008600D01*
X031847Y008600D01*
X031904Y008544D01*
X032046Y008544D02*
X032046Y008317D01*
X032102Y008260D01*
X032216Y008260D01*
X032273Y008317D01*
X032414Y008260D02*
X032414Y008600D01*
X032641Y008600D01*
X032782Y008544D02*
X032782Y008487D01*
X032839Y008430D01*
X032952Y008430D01*
X033009Y008373D01*
X033009Y008317D01*
X032952Y008260D01*
X032839Y008260D01*
X032782Y008317D01*
X032641Y008260D02*
X032414Y008260D01*
X032414Y008430D02*
X032527Y008430D01*
X032273Y008544D02*
X032216Y008600D01*
X032102Y008600D01*
X032046Y008544D01*
X031904Y008317D02*
X031847Y008260D01*
X031734Y008260D01*
X031677Y008317D01*
X031536Y008487D02*
X031422Y008600D01*
X031309Y008487D01*
X032782Y008544D02*
X032839Y008600D01*
X032952Y008600D01*
X033009Y008544D01*
X033151Y008544D02*
X033151Y008487D01*
X033207Y008430D01*
X033321Y008430D01*
X033377Y008373D01*
X033377Y008317D01*
X033321Y008260D01*
X033207Y008260D01*
X033151Y008317D01*
X033151Y008544D02*
X033207Y008600D01*
X033321Y008600D01*
X033377Y008544D01*
X033519Y008544D02*
X033519Y008317D01*
X033576Y008260D01*
X033689Y008260D01*
X033746Y008317D01*
X033746Y008544D01*
X033689Y008600D01*
X033576Y008600D01*
X033519Y008544D01*
X033887Y008600D02*
X033887Y008260D01*
X033887Y008373D02*
X034057Y008373D01*
X034114Y008430D01*
X034114Y008544D01*
X034057Y008600D01*
X033887Y008600D01*
X034001Y008373D02*
X034114Y008260D01*
X034369Y008260D02*
X034369Y008430D01*
X034482Y008544D01*
X034482Y008600D01*
X034369Y008430D02*
X034256Y008544D01*
X034256Y008600D01*
X034624Y008430D02*
X034851Y008430D01*
X034992Y008487D02*
X035106Y008600D01*
X035106Y008260D01*
X035219Y008260D02*
X034992Y008260D01*
X035049Y004350D02*
X034992Y004294D01*
X035049Y004350D02*
X035162Y004350D01*
X035219Y004294D01*
X035219Y004237D01*
X034992Y004010D01*
X035219Y004010D01*
X034851Y004180D02*
X034624Y004180D01*
X034482Y004294D02*
X034482Y004350D01*
X034482Y004294D02*
X034369Y004180D01*
X034369Y004010D01*
X034369Y004180D02*
X034256Y004294D01*
X034256Y004350D01*
X034114Y004294D02*
X034114Y004180D01*
X034057Y004123D01*
X033887Y004123D01*
X033887Y004010D02*
X033887Y004350D01*
X034057Y004350D01*
X034114Y004294D01*
X034001Y004123D02*
X034114Y004010D01*
X033746Y004067D02*
X033746Y004294D01*
X033689Y004350D01*
X033576Y004350D01*
X033519Y004294D01*
X033519Y004067D01*
X033576Y004010D01*
X033689Y004010D01*
X033746Y004067D01*
X033377Y004067D02*
X033321Y004010D01*
X033207Y004010D01*
X033151Y004067D01*
X033207Y004180D02*
X033151Y004237D01*
X033151Y004294D01*
X033207Y004350D01*
X033321Y004350D01*
X033377Y004294D01*
X033321Y004180D02*
X033377Y004123D01*
X033377Y004067D01*
X033321Y004180D02*
X033207Y004180D01*
X033009Y004123D02*
X033009Y004067D01*
X032952Y004010D01*
X032839Y004010D01*
X032782Y004067D01*
X032839Y004180D02*
X032952Y004180D01*
X033009Y004123D01*
X033009Y004294D02*
X032952Y004350D01*
X032839Y004350D01*
X032782Y004294D01*
X032782Y004237D01*
X032839Y004180D01*
X032641Y004010D02*
X032414Y004010D01*
X032414Y004350D01*
X032641Y004350D01*
X032527Y004180D02*
X032414Y004180D01*
X032273Y004067D02*
X032216Y004010D01*
X032102Y004010D01*
X032046Y004067D01*
X032046Y004294D01*
X032102Y004350D01*
X032216Y004350D01*
X032273Y004294D01*
X031904Y004294D02*
X031847Y004350D01*
X031734Y004350D01*
X031677Y004294D01*
X031677Y004067D01*
X031734Y004010D01*
X031847Y004010D01*
X031904Y004067D01*
X031536Y004010D02*
X031536Y004237D01*
X031422Y004350D01*
X031309Y004237D01*
X031309Y004010D01*
X031309Y004180D02*
X031536Y004180D01*
X025739Y004970D02*
X024819Y004970D01*
X022739Y008470D02*
X021819Y008470D01*
X020029Y008180D02*
X019679Y008180D01*
X019629Y008180D01*
X019429Y008180D02*
X019379Y008180D01*
X019029Y008180D01*
X021819Y010390D02*
X022159Y010390D01*
X022739Y010390D01*
X022399Y010400D02*
X022398Y010379D01*
X022393Y010359D01*
X022385Y010339D01*
X022374Y010322D01*
X022360Y010306D01*
X022343Y010294D01*
X022325Y010284D01*
X022305Y010278D01*
X022284Y010275D01*
X022263Y010276D01*
X022243Y010281D01*
X022223Y010289D01*
X022206Y010300D01*
X022190Y010314D01*
X022178Y010331D01*
X022168Y010349D01*
X022162Y010369D01*
X022159Y010390D01*
X024779Y009680D02*
X024779Y009330D01*
X024779Y009280D01*
X024779Y009080D02*
X024779Y009030D01*
X024779Y008680D01*
X024729Y016280D02*
X024629Y016280D01*
X024629Y016430D01*
X024529Y016430D01*
X024529Y016930D01*
X024629Y016930D01*
X024629Y017080D01*
X023379Y017080D01*
X023479Y017180D01*
X023379Y017280D01*
X024629Y017280D01*
X024629Y017430D01*
X024529Y017430D01*
X024529Y017930D01*
X024629Y017930D01*
X024629Y018080D01*
X023329Y018080D01*
X023329Y018280D01*
X023329Y019080D01*
X023329Y019280D01*
X023329Y020080D01*
X023329Y020280D01*
X023329Y021080D01*
X023329Y021280D01*
X023329Y022080D01*
X023329Y022280D01*
X023329Y023080D01*
X023329Y023280D01*
X023329Y024080D01*
X023329Y024280D01*
X023329Y025080D01*
X023329Y025280D01*
X023329Y026080D01*
X023329Y026280D01*
X023329Y027080D01*
X023329Y027280D01*
X023329Y028080D01*
X023329Y028280D01*
X023329Y029030D01*
X023379Y029080D01*
X024629Y029080D01*
X024629Y029280D01*
X023379Y029280D01*
X023329Y029330D01*
X023329Y030080D01*
X024629Y030080D01*
X024729Y030080D01*
X024729Y029930D01*
X024629Y029930D01*
X024529Y029930D01*
X024529Y029430D01*
X024629Y029430D01*
X024629Y029280D01*
X024629Y029430D02*
X024729Y029430D01*
X024729Y028930D01*
X024629Y028930D01*
X024629Y029080D01*
X024629Y028930D02*
X024529Y028930D01*
X024529Y028430D01*
X024629Y028430D01*
X024629Y028280D01*
X023329Y028280D01*
X023329Y028080D02*
X024629Y028080D01*
X024629Y028280D01*
X024629Y028430D02*
X024729Y028430D01*
X024729Y027930D01*
X024629Y027930D01*
X024629Y028080D01*
X024629Y027930D02*
X024529Y027930D01*
X024529Y027430D01*
X024629Y027430D01*
X024629Y027280D01*
X023329Y027280D01*
X023329Y027080D02*
X024629Y027080D01*
X024629Y027280D01*
X024629Y027430D02*
X024729Y027430D01*
X024729Y026930D01*
X024629Y026930D01*
X024629Y027080D01*
X024629Y026930D02*
X024529Y026930D01*
X024529Y026430D01*
X024629Y026430D01*
X024629Y026280D01*
X023329Y026280D01*
X023329Y026080D02*
X024629Y026080D01*
X024629Y026280D01*
X024629Y026430D02*
X024729Y026430D01*
X024729Y025930D01*
X024629Y025930D01*
X024629Y026080D01*
X024629Y025930D02*
X024529Y025930D01*
X024529Y025430D01*
X024629Y025430D01*
X024629Y025280D01*
X023329Y025280D01*
X023329Y025080D02*
X024629Y025080D01*
X024629Y025280D01*
X024629Y025430D02*
X024729Y025430D01*
X024729Y024930D01*
X024629Y024930D01*
X024629Y025080D01*
X024629Y024930D02*
X024529Y024930D01*
X024529Y024430D01*
X024629Y024430D01*
X024629Y024280D01*
X023329Y024280D01*
X023329Y024080D02*
X024629Y024080D01*
X024629Y024280D01*
X024629Y024430D02*
X024729Y024430D01*
X024729Y023930D01*
X024629Y023930D01*
X024629Y024080D01*
X024629Y023930D02*
X024529Y023930D01*
X024529Y023430D01*
X024629Y023430D01*
X024629Y023280D01*
X023329Y023280D01*
X023329Y023080D02*
X024629Y023080D01*
X024629Y023280D01*
X024629Y023430D02*
X024729Y023430D01*
X024729Y022930D01*
X024629Y022930D01*
X024629Y023080D01*
X024629Y022930D02*
X024529Y022930D01*
X024529Y022430D01*
X024629Y022430D01*
X024629Y022280D01*
X023329Y022280D01*
X023329Y022080D02*
X024629Y022080D01*
X024629Y022280D01*
X024629Y022430D02*
X024729Y022430D01*
X024729Y021930D01*
X024629Y021930D01*
X024629Y022080D01*
X024629Y021930D02*
X024529Y021930D01*
X024529Y021430D01*
X024629Y021430D01*
X024629Y021280D01*
X023329Y021280D01*
X023329Y021080D02*
X024629Y021080D01*
X024629Y021280D01*
X024629Y021430D02*
X024729Y021430D01*
X024729Y020930D01*
X024629Y020930D01*
X024629Y021080D01*
X024629Y020930D02*
X024529Y020930D01*
X024529Y020430D01*
X024629Y020430D01*
X024629Y020280D01*
X023329Y020280D01*
X023329Y020080D02*
X024629Y020080D01*
X024629Y020280D01*
X024629Y020430D02*
X024729Y020430D01*
X024729Y019930D01*
X024629Y019930D01*
X024629Y020080D01*
X024629Y019930D02*
X024529Y019930D01*
X024529Y019430D01*
X024629Y019430D01*
X024629Y019280D01*
X024629Y019080D01*
X024629Y018930D01*
X024529Y018930D01*
X024529Y018430D01*
X024629Y018430D01*
X024629Y018280D01*
X023329Y018280D01*
X023329Y018080D02*
X023329Y017330D01*
X023379Y017280D01*
X023379Y017080D02*
X023329Y017030D01*
X023329Y016280D01*
X024629Y016280D01*
X024729Y016280D02*
X024729Y016430D01*
X024629Y016430D01*
X024729Y016280D02*
X024929Y016280D01*
X024929Y017080D01*
X024879Y017080D01*
X024879Y017280D01*
X024929Y017280D01*
X024929Y018080D01*
X024879Y018080D01*
X024879Y018280D01*
X024929Y018280D01*
X024929Y019080D01*
X024879Y019080D01*
X024879Y019280D01*
X024929Y019280D01*
X024929Y020080D01*
X024879Y020080D01*
X024879Y020280D01*
X024929Y020280D01*
X024929Y021080D01*
X024879Y021080D01*
X024879Y021280D01*
X024929Y021280D01*
X024929Y022080D01*
X024879Y022080D01*
X024879Y022280D01*
X024929Y022280D01*
X024929Y023080D01*
X024879Y023080D01*
X024879Y023280D01*
X024929Y023280D01*
X024929Y024080D01*
X024879Y024080D01*
X024879Y024280D01*
X024929Y024280D01*
X024929Y025080D01*
X024879Y025080D01*
X024879Y025280D01*
X024929Y025280D01*
X024929Y026080D01*
X024879Y026080D01*
X024879Y026280D01*
X024929Y026280D01*
X024929Y027080D01*
X024879Y027080D01*
X024879Y027280D01*
X024929Y027280D01*
X024929Y028080D01*
X024879Y028080D01*
X024879Y028280D01*
X024929Y028280D01*
X024929Y029080D01*
X024879Y029080D01*
X024879Y029280D01*
X024929Y029280D01*
X024929Y030080D01*
X024729Y030080D01*
X024629Y030080D02*
X024629Y029930D01*
X023479Y029180D02*
X023379Y029080D01*
X023479Y029180D02*
X023379Y029280D01*
X023079Y029280D02*
X023079Y029080D01*
X023029Y029080D01*
X023029Y028780D01*
X022979Y028780D01*
X022979Y028580D01*
X023029Y028580D01*
X023029Y028280D01*
X023079Y028280D01*
X023079Y028080D01*
X023029Y028080D01*
X023029Y027780D01*
X022979Y027780D01*
X022979Y027580D01*
X023029Y027580D01*
X023029Y027280D01*
X023079Y027280D01*
X023079Y027080D01*
X023029Y027080D01*
X023029Y026780D01*
X022979Y026780D01*
X022979Y026580D01*
X023029Y026580D01*
X023029Y026280D01*
X023079Y026280D01*
X023079Y026080D01*
X023029Y026080D01*
X023029Y025780D01*
X022979Y025780D01*
X022979Y025580D01*
X023029Y025580D01*
X023029Y025280D01*
X023079Y025280D01*
X023079Y025080D01*
X023029Y025080D01*
X023029Y024780D01*
X022979Y024780D01*
X022979Y024580D01*
X023029Y024580D01*
X023029Y024280D01*
X023079Y024280D01*
X023079Y024080D01*
X023029Y024080D01*
X023029Y023780D01*
X022979Y023780D01*
X022979Y023580D01*
X023029Y023580D01*
X023029Y023280D01*
X023079Y023280D01*
X023079Y023080D01*
X023029Y023080D01*
X023029Y022780D01*
X022979Y022780D01*
X022979Y022580D01*
X023029Y022580D01*
X023029Y022280D01*
X023079Y022280D01*
X023079Y022080D01*
X023029Y022080D01*
X023029Y021780D01*
X022979Y021780D01*
X022979Y021580D01*
X023029Y021580D01*
X023029Y021280D01*
X023079Y021280D01*
X023079Y021080D01*
X023029Y021080D01*
X023029Y020780D01*
X022979Y020780D01*
X022979Y020580D01*
X023029Y020580D01*
X023029Y020280D01*
X023079Y020280D01*
X023079Y020080D01*
X023029Y020080D01*
X023029Y019780D01*
X022979Y019780D01*
X022979Y019580D01*
X023029Y019580D01*
X023029Y019280D01*
X023079Y019280D01*
X023079Y019080D01*
X023029Y019080D01*
X023029Y018780D01*
X022979Y018780D01*
X022979Y018580D01*
X023029Y018580D01*
X023029Y018280D01*
X023079Y018280D01*
X023079Y018080D01*
X023029Y018080D01*
X023029Y017780D01*
X022979Y017780D01*
X022979Y017580D01*
X023029Y017580D01*
X023029Y017280D01*
X023079Y017280D01*
X023079Y017080D01*
X023029Y017080D01*
X023029Y016780D01*
X022979Y016780D01*
X022979Y016580D01*
X023029Y016580D01*
X023029Y016280D01*
X023329Y016280D01*
X021779Y016180D02*
X021779Y030180D01*
X021279Y030180D01*
X021277Y030136D01*
X021271Y030093D01*
X021262Y030051D01*
X021249Y030009D01*
X021232Y029969D01*
X021212Y029930D01*
X021189Y029893D01*
X021162Y029859D01*
X021133Y029826D01*
X021100Y029797D01*
X021066Y029770D01*
X021029Y029747D01*
X020990Y029727D01*
X020950Y029710D01*
X020908Y029697D01*
X020866Y029688D01*
X020823Y029682D01*
X020779Y029680D01*
X020735Y029682D01*
X020692Y029688D01*
X020650Y029697D01*
X020608Y029710D01*
X020568Y029727D01*
X020529Y029747D01*
X020492Y029770D01*
X020458Y029797D01*
X020425Y029826D01*
X020396Y029859D01*
X020369Y029893D01*
X020346Y029930D01*
X020326Y029969D01*
X020309Y030009D01*
X020296Y030051D01*
X020287Y030093D01*
X020281Y030136D01*
X020279Y030180D01*
X019779Y030180D01*
X019779Y030130D02*
X019779Y016180D01*
X021779Y016180D01*
X024629Y016930D02*
X024729Y016930D01*
X024729Y017430D01*
X024629Y017430D01*
X024629Y017280D02*
X024629Y017080D01*
X024629Y017930D02*
X024729Y017930D01*
X024729Y018430D01*
X024629Y018430D01*
X024629Y018280D02*
X024629Y018080D01*
X024629Y018930D02*
X024729Y018930D01*
X024729Y019430D01*
X024629Y019430D01*
X024629Y019280D02*
X023329Y019280D01*
X023329Y019080D02*
X024629Y019080D01*
X025529Y021680D02*
X025879Y021680D01*
X025929Y021680D01*
X026129Y021680D02*
X026179Y021680D01*
X026529Y021680D01*
X029779Y021780D02*
X029779Y021430D01*
X029779Y021780D02*
X029779Y021830D01*
X029779Y022030D02*
X029779Y022080D01*
X029779Y022430D01*
X029779Y023180D02*
X029779Y023530D01*
X029779Y023580D01*
X029779Y023780D02*
X029779Y023830D01*
X029779Y024180D01*
X027099Y024800D02*
X027099Y025555D01*
X026459Y025555D02*
X026459Y024800D01*
X026459Y027550D02*
X026459Y028305D01*
X027099Y028305D02*
X027099Y027550D01*
X023079Y029280D02*
X023029Y029280D01*
X023029Y029580D01*
X022979Y029580D01*
X022979Y029780D01*
X023029Y029780D01*
X023029Y030080D01*
X023329Y030080D01*
X018579Y029780D02*
X018579Y029580D01*
X018529Y029580D01*
X018529Y029280D01*
X018479Y029280D01*
X018479Y029080D01*
X018529Y029080D01*
X018529Y028780D01*
X018579Y028780D01*
X018579Y028580D01*
X018529Y028580D01*
X018529Y028280D01*
X018479Y028280D01*
X018479Y028080D01*
X018529Y028080D01*
X018529Y027780D01*
X018579Y027780D01*
X018579Y027580D01*
X018529Y027580D01*
X018529Y027280D01*
X018479Y027280D01*
X018479Y027080D01*
X018529Y027080D01*
X018529Y026780D01*
X018579Y026780D01*
X018579Y026580D01*
X018529Y026580D01*
X018529Y026280D01*
X018479Y026280D01*
X018479Y026080D01*
X018529Y026080D01*
X018529Y025780D01*
X018579Y025780D01*
X018579Y025580D01*
X018529Y025580D01*
X018529Y025280D01*
X018479Y025280D01*
X018479Y025080D01*
X018529Y025080D01*
X018529Y024780D01*
X018579Y024780D01*
X018579Y024580D01*
X018529Y024580D01*
X018529Y024280D01*
X018479Y024280D01*
X018479Y024080D01*
X018529Y024080D01*
X018529Y023780D01*
X018579Y023780D01*
X018579Y023580D01*
X018529Y023580D01*
X018529Y023280D01*
X018479Y023280D01*
X018479Y023080D01*
X018529Y023080D01*
X018529Y022780D01*
X018579Y022780D01*
X018579Y022580D01*
X018529Y022580D01*
X018529Y022280D01*
X018479Y022280D01*
X018479Y022080D01*
X018529Y022080D01*
X018529Y021780D01*
X018579Y021780D01*
X018579Y021580D01*
X018529Y021580D01*
X018529Y021280D01*
X018479Y021280D01*
X018479Y021080D01*
X018529Y021080D01*
X018529Y020780D01*
X018579Y020780D01*
X018579Y020580D01*
X018529Y020580D01*
X018529Y020280D01*
X018479Y020280D01*
X018479Y020080D01*
X018529Y020080D01*
X018529Y019780D01*
X018579Y019780D01*
X018579Y019580D01*
X018529Y019580D01*
X018529Y019280D01*
X018479Y019280D01*
X018479Y019080D01*
X018529Y019080D01*
X018529Y018780D01*
X018579Y018780D01*
X018579Y018580D01*
X018529Y018580D01*
X018529Y018280D01*
X018479Y018280D01*
X018479Y018080D01*
X018529Y018080D01*
X018529Y017780D01*
X018579Y017780D01*
X018579Y017580D01*
X018529Y017580D01*
X018529Y017280D01*
X018479Y017280D01*
X018479Y017080D01*
X018529Y017080D01*
X018529Y016780D01*
X018579Y016780D01*
X018579Y016580D01*
X018529Y016580D01*
X018529Y016280D01*
X018229Y016280D01*
X016929Y016280D01*
X016829Y016280D01*
X016829Y016430D01*
X016929Y016430D01*
X017029Y016430D01*
X017029Y016930D01*
X016929Y016930D01*
X016929Y017080D01*
X018179Y017080D01*
X018229Y017030D01*
X018229Y016280D01*
X018179Y017080D02*
X018079Y017180D01*
X018179Y017280D01*
X016929Y017280D01*
X016929Y017080D01*
X016929Y016930D02*
X016829Y016930D01*
X016829Y017430D01*
X016929Y017430D01*
X016929Y017280D01*
X016929Y017430D02*
X017029Y017430D01*
X017029Y017930D01*
X016929Y017930D01*
X016929Y018080D01*
X018229Y018080D01*
X018229Y017330D01*
X018179Y017280D01*
X018229Y018080D02*
X018229Y018280D01*
X016929Y018280D01*
X016929Y018080D01*
X016929Y017930D02*
X016829Y017930D01*
X016829Y018430D01*
X016929Y018430D01*
X016929Y018280D01*
X016929Y018430D02*
X017029Y018430D01*
X017029Y018930D01*
X016929Y018930D01*
X016929Y019080D01*
X018229Y019080D01*
X018229Y018280D01*
X018229Y019080D02*
X018229Y019280D01*
X016929Y019280D01*
X016929Y019080D01*
X016929Y018930D02*
X016829Y018930D01*
X016829Y019430D01*
X016929Y019430D01*
X016929Y019280D01*
X016929Y019430D02*
X017029Y019430D01*
X017029Y019930D01*
X016929Y019930D01*
X016929Y020080D01*
X018229Y020080D01*
X018229Y019280D01*
X018229Y020080D02*
X018229Y020280D01*
X016929Y020280D01*
X016929Y020080D01*
X016929Y019930D02*
X016829Y019930D01*
X016829Y020430D01*
X016929Y020430D01*
X016929Y020280D01*
X016929Y020430D02*
X017029Y020430D01*
X017029Y020930D01*
X016929Y020930D01*
X016929Y021080D01*
X018229Y021080D01*
X018229Y020280D01*
X018229Y021080D02*
X018229Y021280D01*
X016929Y021280D01*
X016929Y021080D01*
X016929Y020930D02*
X016829Y020930D01*
X016829Y021430D01*
X016929Y021430D01*
X016929Y021280D01*
X016929Y021430D02*
X017029Y021430D01*
X017029Y021930D01*
X016929Y021930D01*
X016929Y022080D01*
X018229Y022080D01*
X018229Y021280D01*
X018229Y022080D02*
X018229Y022280D01*
X016929Y022280D01*
X016929Y022080D01*
X016929Y021930D02*
X016829Y021930D01*
X016829Y022430D01*
X016929Y022430D01*
X016929Y022280D01*
X016929Y022430D02*
X017029Y022430D01*
X017029Y022930D01*
X016929Y022930D01*
X016929Y023080D01*
X018229Y023080D01*
X018229Y022280D01*
X018229Y023080D02*
X018229Y023280D01*
X016929Y023280D01*
X016929Y023080D01*
X016929Y022930D02*
X016829Y022930D01*
X016829Y023430D01*
X016929Y023430D01*
X016929Y023280D01*
X016929Y023430D02*
X017029Y023430D01*
X017029Y023930D01*
X016929Y023930D01*
X016929Y024080D01*
X018229Y024080D01*
X018229Y023280D01*
X018229Y024080D02*
X018229Y024280D01*
X016929Y024280D01*
X016929Y024080D01*
X016929Y023930D02*
X016829Y023930D01*
X016829Y024430D01*
X016929Y024430D01*
X016929Y024280D01*
X016929Y024430D02*
X017029Y024430D01*
X017029Y024930D01*
X016929Y024930D01*
X016929Y025080D01*
X018229Y025080D01*
X018229Y024280D01*
X018229Y025080D02*
X018229Y025280D01*
X016929Y025280D01*
X016929Y025080D01*
X016929Y024930D02*
X016829Y024930D01*
X016829Y025430D01*
X016929Y025430D01*
X016929Y025280D01*
X016929Y025430D02*
X017029Y025430D01*
X017029Y025930D01*
X016929Y025930D01*
X016929Y026080D01*
X018229Y026080D01*
X018229Y025280D01*
X018229Y026080D02*
X018229Y026280D01*
X016929Y026280D01*
X016929Y026080D01*
X016929Y025930D02*
X016829Y025930D01*
X016829Y026430D01*
X016929Y026430D01*
X016929Y026280D01*
X016929Y026430D02*
X017029Y026430D01*
X017029Y026930D01*
X016929Y026930D01*
X016929Y027080D01*
X016929Y027280D01*
X016929Y027430D01*
X017029Y027430D01*
X017029Y027930D01*
X016929Y027930D01*
X016929Y028080D01*
X018229Y028080D01*
X018229Y027280D01*
X018229Y027080D01*
X018229Y026280D01*
X018229Y027080D02*
X016929Y027080D01*
X016929Y026930D02*
X016829Y026930D01*
X016829Y027430D01*
X016929Y027430D01*
X016929Y027280D02*
X018229Y027280D01*
X018229Y028080D02*
X018229Y028280D01*
X016929Y028280D01*
X016929Y028080D01*
X016929Y027930D02*
X016829Y027930D01*
X016829Y028430D01*
X016929Y028430D01*
X016929Y028280D01*
X016929Y028430D02*
X017029Y028430D01*
X017029Y028930D01*
X016929Y028930D01*
X016929Y029080D01*
X018179Y029080D01*
X018229Y029030D01*
X018229Y028280D01*
X018179Y029080D02*
X018079Y029180D01*
X018179Y029280D01*
X016929Y029280D01*
X016929Y029080D01*
X016929Y028930D02*
X016829Y028930D01*
X016829Y029430D01*
X016929Y029430D01*
X016929Y029280D01*
X016929Y029430D02*
X017029Y029430D01*
X017029Y029930D01*
X016929Y029930D01*
X016929Y030080D01*
X016829Y030080D01*
X016829Y029930D01*
X016929Y029930D01*
X016929Y030080D02*
X018229Y030080D01*
X018229Y029330D01*
X018179Y029280D01*
X018529Y029780D02*
X018579Y029780D01*
X018529Y029780D02*
X018529Y030080D01*
X018229Y030080D01*
X016829Y030080D02*
X016629Y030080D01*
X016629Y029280D01*
X016679Y029280D01*
X016679Y029080D01*
X016629Y029080D01*
X016629Y028280D01*
X016679Y028280D01*
X016679Y028080D01*
X016629Y028080D01*
X016629Y027280D01*
X016679Y027280D01*
X016679Y027080D01*
X016629Y027080D01*
X016629Y026280D01*
X016679Y026280D01*
X016679Y026080D01*
X016629Y026080D01*
X016629Y025280D01*
X016679Y025280D01*
X016679Y025080D01*
X016629Y025080D01*
X016629Y024280D01*
X016679Y024280D01*
X016679Y024080D01*
X016629Y024080D01*
X016629Y023280D01*
X016679Y023280D01*
X016679Y023080D01*
X016629Y023080D01*
X016629Y022280D01*
X016679Y022280D01*
X016679Y022080D01*
X016629Y022080D01*
X016629Y021280D01*
X016679Y021280D01*
X016679Y021080D01*
X016629Y021080D01*
X016629Y020280D01*
X016679Y020280D01*
X016679Y020080D01*
X016629Y020080D01*
X016629Y019280D01*
X016679Y019280D01*
X016679Y019080D01*
X016629Y019080D01*
X016629Y018280D01*
X016679Y018280D01*
X016679Y018080D01*
X016629Y018080D01*
X016629Y017280D01*
X016679Y017280D01*
X016679Y017080D01*
X016629Y017080D01*
X016629Y016280D01*
X016829Y016280D01*
X016929Y016280D02*
X016929Y016430D01*
X015529Y016680D02*
X015179Y016680D01*
X015129Y016680D01*
X014929Y016680D02*
X014879Y016680D01*
X014529Y016680D01*
X014739Y016140D02*
X013819Y016140D01*
X012029Y015430D02*
X012029Y015080D01*
X012029Y015030D01*
X012029Y014830D02*
X012029Y014780D01*
X012029Y014430D01*
X013819Y014220D02*
X014399Y014220D01*
X014739Y014220D01*
X014399Y014220D02*
X014396Y014241D01*
X014390Y014261D01*
X014380Y014279D01*
X014368Y014296D01*
X014352Y014310D01*
X014335Y014321D01*
X014315Y014329D01*
X014295Y014334D01*
X014274Y014335D01*
X014253Y014332D01*
X014233Y014326D01*
X014215Y014316D01*
X014198Y014304D01*
X014184Y014288D01*
X014173Y014271D01*
X014165Y014251D01*
X014160Y014231D01*
X014159Y014210D01*
X006579Y013480D02*
X006479Y013480D01*
X006579Y013480D02*
X006579Y013380D01*
X006029Y013180D02*
X006031Y013211D01*
X006037Y013242D01*
X006047Y013272D01*
X006060Y013300D01*
X006077Y013327D01*
X006097Y013351D01*
X006120Y013373D01*
X006145Y013391D01*
X006173Y013406D01*
X006202Y013418D01*
X006232Y013426D01*
X006263Y013430D01*
X006295Y013430D01*
X006326Y013426D01*
X006356Y013418D01*
X006385Y013406D01*
X006413Y013391D01*
X006438Y013373D01*
X006461Y013351D01*
X006481Y013327D01*
X006498Y013300D01*
X006511Y013272D01*
X006521Y013242D01*
X006527Y013211D01*
X006529Y013180D01*
X006527Y013149D01*
X006521Y013118D01*
X006511Y013088D01*
X006498Y013060D01*
X006481Y013033D01*
X006461Y013009D01*
X006438Y012987D01*
X006413Y012969D01*
X006385Y012954D01*
X006356Y012942D01*
X006326Y012934D01*
X006295Y012930D01*
X006263Y012930D01*
X006232Y012934D01*
X006202Y012942D01*
X006173Y012954D01*
X006145Y012969D01*
X006120Y012987D01*
X006097Y013009D01*
X006077Y013033D01*
X006060Y013060D01*
X006047Y013088D01*
X006037Y013118D01*
X006031Y013149D01*
X006029Y013180D01*
X005979Y013380D02*
X005979Y013480D01*
X006079Y013480D01*
X005979Y012980D02*
X005979Y012880D01*
X006079Y012880D01*
X006479Y012880D02*
X006579Y012880D01*
X006579Y012980D01*
X002579Y012980D02*
X002579Y012880D01*
X002479Y012880D01*
X002029Y013180D02*
X002031Y013211D01*
X002037Y013242D01*
X002047Y013272D01*
X002060Y013300D01*
X002077Y013327D01*
X002097Y013351D01*
X002120Y013373D01*
X002145Y013391D01*
X002173Y013406D01*
X002202Y013418D01*
X002232Y013426D01*
X002263Y013430D01*
X002295Y013430D01*
X002326Y013426D01*
X002356Y013418D01*
X002385Y013406D01*
X002413Y013391D01*
X002438Y013373D01*
X002461Y013351D01*
X002481Y013327D01*
X002498Y013300D01*
X002511Y013272D01*
X002521Y013242D01*
X002527Y013211D01*
X002529Y013180D01*
X002527Y013149D01*
X002521Y013118D01*
X002511Y013088D01*
X002498Y013060D01*
X002481Y013033D01*
X002461Y013009D01*
X002438Y012987D01*
X002413Y012969D01*
X002385Y012954D01*
X002356Y012942D01*
X002326Y012934D01*
X002295Y012930D01*
X002263Y012930D01*
X002232Y012934D01*
X002202Y012942D01*
X002173Y012954D01*
X002145Y012969D01*
X002120Y012987D01*
X002097Y013009D01*
X002077Y013033D01*
X002060Y013060D01*
X002047Y013088D01*
X002037Y013118D01*
X002031Y013149D01*
X002029Y013180D01*
X001979Y013380D02*
X001979Y013480D01*
X002079Y013480D01*
X002479Y013480D02*
X002579Y013480D01*
X002579Y013380D01*
X002079Y012880D02*
X001979Y012880D01*
X001979Y012980D01*
X013079Y020780D02*
X013079Y023080D01*
X013081Y023131D01*
X013086Y023182D01*
X013096Y023232D01*
X013109Y023282D01*
X013125Y023330D01*
X013145Y023377D01*
X013169Y023423D01*
X013195Y023466D01*
X013225Y023508D01*
X013258Y023547D01*
X013293Y023584D01*
X013331Y023618D01*
X013372Y023649D01*
X013414Y023678D01*
X013459Y023703D01*
X013505Y023724D01*
X013553Y023743D01*
X013602Y023757D01*
X013652Y023768D01*
X013702Y023776D01*
X013753Y023780D01*
X013805Y023780D01*
X013856Y023776D01*
X013906Y023768D01*
X013956Y023757D01*
X014005Y023743D01*
X014053Y023724D01*
X014099Y023703D01*
X014144Y023678D01*
X014186Y023649D01*
X014227Y023618D01*
X014265Y023584D01*
X014300Y023547D01*
X014333Y023508D01*
X014363Y023466D01*
X014389Y023423D01*
X014413Y023377D01*
X014433Y023330D01*
X014449Y023282D01*
X014462Y023232D01*
X014472Y023182D01*
X014477Y023131D01*
X014479Y023080D01*
X014479Y020780D01*
X014477Y020729D01*
X014472Y020678D01*
X014462Y020628D01*
X014449Y020578D01*
X014433Y020530D01*
X014413Y020483D01*
X014389Y020437D01*
X014363Y020394D01*
X014333Y020352D01*
X014300Y020313D01*
X014265Y020276D01*
X014227Y020242D01*
X014186Y020211D01*
X014144Y020182D01*
X014099Y020157D01*
X014053Y020136D01*
X014005Y020117D01*
X013956Y020103D01*
X013906Y020092D01*
X013856Y020084D01*
X013805Y020080D01*
X013753Y020080D01*
X013702Y020084D01*
X013652Y020092D01*
X013602Y020103D01*
X013553Y020117D01*
X013505Y020136D01*
X013459Y020157D01*
X013414Y020182D01*
X013372Y020211D01*
X013331Y020242D01*
X013293Y020276D01*
X013258Y020313D01*
X013225Y020352D01*
X013195Y020394D01*
X013169Y020437D01*
X013145Y020483D01*
X013125Y020530D01*
X013109Y020578D01*
X013096Y020628D01*
X013086Y020678D01*
X013081Y020729D01*
X013079Y020780D01*
X013779Y021430D02*
X013779Y021680D01*
X013429Y021680D01*
X013429Y021830D02*
X013429Y022030D01*
X014129Y022030D01*
X014129Y021830D01*
X013429Y021830D01*
X013779Y021680D02*
X014129Y021680D01*
X014129Y022180D02*
X013779Y022180D01*
X013779Y022430D01*
X013779Y022180D02*
X013429Y022180D01*
X015779Y021680D02*
X015779Y021330D01*
X015779Y021280D01*
X015779Y021080D02*
X015779Y021030D01*
X015779Y020680D01*
X014779Y024680D02*
X014429Y024680D01*
X014379Y024680D01*
X014179Y024680D02*
X014129Y024680D01*
X013779Y024680D01*
X013279Y025480D02*
X013279Y026280D01*
X013279Y028080D01*
X013079Y028080D01*
X013079Y026280D01*
X013279Y026280D01*
X012829Y026430D02*
X012229Y026430D01*
X012229Y027930D01*
X012829Y027930D01*
X012829Y026430D01*
X011979Y026280D02*
X011979Y028080D01*
X011779Y028080D01*
X011779Y026280D01*
X011779Y025480D01*
X013279Y025480D01*
X011979Y026280D02*
X011779Y026280D01*
X010599Y027050D02*
X010599Y027805D01*
X009959Y027805D02*
X009959Y027050D01*
X009029Y026930D02*
X008679Y026930D01*
X008629Y026930D01*
X008429Y026930D02*
X008379Y026930D01*
X008029Y026930D01*
X009959Y029050D02*
X009959Y029805D01*
X010599Y029805D02*
X010599Y029050D01*
X011779Y028880D02*
X013279Y028880D01*
X013409Y029610D02*
X012654Y029610D01*
X012654Y030250D02*
X013409Y030250D01*
X014899Y030250D02*
X015654Y030250D01*
X015654Y029610D02*
X014899Y029610D01*
X014779Y028430D02*
X015129Y028430D01*
X015179Y028430D01*
X015379Y028430D02*
X015429Y028430D01*
X015779Y028430D01*
X015679Y025930D02*
X015629Y025930D01*
X015279Y025930D01*
X015879Y025930D02*
X015929Y025930D01*
X016279Y025930D01*
X002579Y003730D02*
X002479Y003730D01*
X002579Y003730D02*
X002579Y003630D01*
X002029Y003430D02*
X002031Y003461D01*
X002037Y003492D01*
X002047Y003522D01*
X002060Y003550D01*
X002077Y003577D01*
X002097Y003601D01*
X002120Y003623D01*
X002145Y003641D01*
X002173Y003656D01*
X002202Y003668D01*
X002232Y003676D01*
X002263Y003680D01*
X002295Y003680D01*
X002326Y003676D01*
X002356Y003668D01*
X002385Y003656D01*
X002413Y003641D01*
X002438Y003623D01*
X002461Y003601D01*
X002481Y003577D01*
X002498Y003550D01*
X002511Y003522D01*
X002521Y003492D01*
X002527Y003461D01*
X002529Y003430D01*
X002527Y003399D01*
X002521Y003368D01*
X002511Y003338D01*
X002498Y003310D01*
X002481Y003283D01*
X002461Y003259D01*
X002438Y003237D01*
X002413Y003219D01*
X002385Y003204D01*
X002356Y003192D01*
X002326Y003184D01*
X002295Y003180D01*
X002263Y003180D01*
X002232Y003184D01*
X002202Y003192D01*
X002173Y003204D01*
X002145Y003219D01*
X002120Y003237D01*
X002097Y003259D01*
X002077Y003283D01*
X002060Y003310D01*
X002047Y003338D01*
X002037Y003368D01*
X002031Y003399D01*
X002029Y003430D01*
X001979Y003230D02*
X001979Y003130D01*
X002079Y003130D01*
X002479Y003130D02*
X002579Y003130D01*
X002579Y003230D01*
X002079Y003730D02*
X001979Y003730D01*
X001979Y003630D01*
D12*
X012569Y014189D02*
X012709Y014049D01*
X012569Y014189D02*
X012989Y014189D01*
X012989Y014049D02*
X012989Y014329D01*
X012919Y014510D02*
X012639Y014510D01*
X012569Y014580D01*
X012569Y014720D01*
X012639Y014790D01*
X012919Y014510D01*
X012989Y014580D01*
X012989Y014720D01*
X012919Y014790D01*
X012639Y014790D01*
X012709Y014970D02*
X012919Y014970D01*
X012989Y015040D01*
X012989Y015250D01*
X012709Y015250D01*
X012779Y015430D02*
X012779Y015571D01*
X012569Y015430D02*
X012569Y015711D01*
X012569Y015430D02*
X012989Y015430D01*
X011489Y015250D02*
X011489Y014970D01*
X011209Y015250D01*
X011139Y015250D01*
X011069Y015180D01*
X011069Y015040D01*
X011139Y014970D01*
X011139Y014790D02*
X011069Y014720D01*
X011069Y014580D01*
X011139Y014510D01*
X011419Y014510D01*
X011489Y014580D01*
X011489Y014720D01*
X011419Y014790D01*
X014148Y017220D02*
X014428Y017220D01*
X014288Y017220D02*
X014288Y017640D01*
X014148Y017500D01*
X014609Y017570D02*
X014609Y017290D01*
X014889Y017570D01*
X014889Y017290D01*
X014819Y017220D01*
X014679Y017220D01*
X014609Y017290D01*
X014609Y017570D02*
X014679Y017640D01*
X014819Y017640D01*
X014889Y017570D01*
X015069Y017500D02*
X015069Y017290D01*
X015139Y017220D01*
X015349Y017220D01*
X015349Y017500D01*
X015529Y017430D02*
X015670Y017430D01*
X015529Y017640D02*
X015810Y017640D01*
X015529Y017640D02*
X015529Y017220D01*
X015209Y016140D02*
X015209Y015720D01*
X015069Y015720D02*
X015349Y015720D01*
X015069Y016000D02*
X015209Y016140D01*
X014889Y016070D02*
X014819Y016140D01*
X014679Y016140D01*
X014609Y016070D01*
X014609Y015790D01*
X014679Y015720D01*
X014819Y015720D01*
X014889Y015790D01*
X016459Y020299D02*
X016319Y020439D01*
X016739Y020439D01*
X016739Y020299D02*
X016739Y020579D01*
X016669Y020760D02*
X016599Y020760D01*
X016529Y020830D01*
X016529Y020970D01*
X016599Y021040D01*
X016669Y021040D01*
X016739Y020970D01*
X016739Y020830D01*
X016669Y020760D01*
X016529Y020830D02*
X016459Y020760D01*
X016389Y020760D01*
X016319Y020830D01*
X016319Y020970D01*
X016389Y021040D01*
X016459Y021040D01*
X016529Y020970D01*
X016459Y021220D02*
X016459Y021430D01*
X016529Y021500D01*
X016669Y021500D01*
X016739Y021430D01*
X016739Y021220D01*
X016879Y021220D02*
X016459Y021220D01*
X016529Y021680D02*
X016529Y021821D01*
X016319Y021680D02*
X016319Y021961D01*
X016319Y021680D02*
X016739Y021680D01*
X015239Y021220D02*
X015169Y021220D01*
X014889Y021500D01*
X014819Y021500D01*
X014819Y021220D01*
X014889Y021040D02*
X014819Y020970D01*
X014819Y020830D01*
X014889Y020760D01*
X015169Y020760D01*
X015239Y020830D01*
X015239Y020970D01*
X015169Y021040D01*
X014319Y023580D02*
X014319Y024000D01*
X014529Y024000D01*
X014599Y023930D01*
X014599Y023790D01*
X014529Y023720D01*
X014319Y023720D01*
X014139Y023790D02*
X014069Y023720D01*
X013929Y023720D01*
X013859Y023790D01*
X013859Y023860D01*
X013929Y023930D01*
X014069Y023930D01*
X014139Y023860D01*
X014139Y023790D01*
X014069Y023930D02*
X014139Y024000D01*
X014139Y024070D01*
X014069Y024140D01*
X013929Y024140D01*
X013859Y024070D01*
X013859Y024000D01*
X013929Y023930D01*
X013678Y023720D02*
X013398Y023720D01*
X013538Y023720D02*
X013538Y024140D01*
X013398Y024000D01*
X013929Y025220D02*
X013859Y025290D01*
X013859Y025570D01*
X013929Y025640D01*
X014069Y025640D01*
X014139Y025570D01*
X014319Y025570D02*
X014319Y025500D01*
X014389Y025430D01*
X014529Y025430D01*
X014599Y025360D01*
X014599Y025290D01*
X014529Y025220D01*
X014389Y025220D01*
X014319Y025290D01*
X014319Y025360D01*
X014389Y025430D01*
X014529Y025430D02*
X014599Y025500D01*
X014599Y025570D01*
X014529Y025640D01*
X014389Y025640D01*
X014319Y025570D01*
X014139Y025290D02*
X014069Y025220D01*
X013929Y025220D01*
X015128Y025320D02*
X015128Y025040D01*
X015198Y024970D01*
X015339Y024970D01*
X015409Y025040D01*
X015589Y024970D02*
X015869Y024970D01*
X015729Y024970D02*
X015729Y025390D01*
X015589Y025250D01*
X015409Y025320D02*
X015339Y025390D01*
X015198Y025390D01*
X015128Y025320D01*
X016049Y025320D02*
X016049Y025040D01*
X016329Y025320D01*
X016329Y025040D01*
X016259Y024970D01*
X016119Y024970D01*
X016049Y025040D01*
X016049Y025320D02*
X016119Y025390D01*
X016259Y025390D01*
X016329Y025320D01*
X015060Y024140D02*
X014779Y024140D01*
X014779Y023720D01*
X014779Y023930D02*
X014920Y023930D01*
X014898Y026470D02*
X015178Y026470D01*
X015038Y026470D02*
X015038Y026890D01*
X014898Y026750D01*
X015359Y026820D02*
X015359Y026540D01*
X015639Y026820D01*
X015639Y026540D01*
X015569Y026470D01*
X015429Y026470D01*
X015359Y026540D01*
X015359Y026820D02*
X015429Y026890D01*
X015569Y026890D01*
X015639Y026820D01*
X015819Y026750D02*
X015819Y026540D01*
X015889Y026470D01*
X016099Y026470D01*
X016099Y026750D01*
X016279Y026680D02*
X016420Y026680D01*
X016279Y026890D02*
X016560Y026890D01*
X016279Y026890D02*
X016279Y026470D01*
X015895Y027470D02*
X015895Y027890D01*
X016175Y027890D01*
X016035Y027680D02*
X015895Y027680D01*
X015714Y027750D02*
X015714Y027470D01*
X015504Y027470D01*
X015434Y027540D01*
X015434Y027750D01*
X015254Y027470D02*
X014974Y027470D01*
X015114Y027470D02*
X015114Y027890D01*
X014974Y027750D01*
X014814Y027540D02*
X014744Y027540D01*
X014744Y027470D01*
X014814Y027470D01*
X014814Y027540D01*
X014563Y027540D02*
X014563Y027820D01*
X014283Y027540D01*
X014353Y027470D01*
X014493Y027470D01*
X014563Y027540D01*
X014283Y027540D02*
X014283Y027820D01*
X014353Y027890D01*
X014493Y027890D01*
X014563Y027820D01*
X014698Y028970D02*
X014839Y028970D01*
X014909Y029040D01*
X014839Y028970D02*
X014839Y029390D01*
X014698Y029390D01*
X014628Y029320D01*
X014628Y029040D01*
X014698Y028970D01*
X014628Y029180D02*
X014909Y029180D01*
X014909Y029320D02*
X014839Y029390D01*
X014628Y029180D01*
X015089Y029250D02*
X015229Y029390D01*
X015229Y028970D01*
X015089Y028970D02*
X015369Y028970D01*
X015549Y028970D02*
X015829Y028970D01*
X015759Y028970D02*
X015619Y028970D01*
X015549Y029040D01*
X015829Y029320D01*
X015829Y029040D01*
X015759Y028970D01*
X015689Y028970D02*
X015689Y029390D01*
X015549Y029250D01*
X015549Y029320D02*
X015619Y029390D01*
X015759Y029390D01*
X015829Y029320D01*
X015549Y029320D02*
X015549Y029040D01*
X015369Y029320D02*
X015089Y029040D01*
X015089Y028970D01*
X015089Y029390D02*
X015369Y029390D01*
X015369Y029320D01*
X015389Y030470D02*
X015319Y030540D01*
X015389Y030470D02*
X015529Y030470D01*
X015599Y030540D01*
X015599Y030610D01*
X015529Y030680D01*
X015459Y030680D01*
X015529Y030680D02*
X015599Y030750D01*
X015599Y030820D01*
X015529Y030890D01*
X015389Y030890D01*
X015319Y030820D01*
X015139Y030820D02*
X015069Y030890D01*
X014859Y030890D01*
X014859Y030470D01*
X014859Y030610D02*
X015069Y030610D01*
X015139Y030680D01*
X015139Y030820D01*
X014999Y030610D02*
X015139Y030470D01*
X013548Y030470D02*
X013338Y030610D01*
X013548Y030750D01*
X013338Y030890D02*
X013338Y030470D01*
X013157Y030540D02*
X013087Y030470D01*
X012947Y030470D01*
X012877Y030540D01*
X013157Y030820D01*
X013157Y030540D01*
X012877Y030540D02*
X012877Y030820D01*
X012947Y030890D01*
X013087Y030890D01*
X013157Y030820D01*
X012697Y030470D02*
X012417Y030470D01*
X012557Y030470D02*
X012557Y030890D01*
X012417Y030750D01*
X011239Y029910D02*
X011239Y029770D01*
X011169Y029700D01*
X010889Y029980D01*
X011169Y029980D01*
X011239Y029910D01*
X011169Y029700D02*
X010889Y029700D01*
X010819Y029770D01*
X010819Y029910D01*
X010889Y029980D01*
X010889Y029520D02*
X011169Y029240D01*
X011239Y029310D01*
X011239Y029450D01*
X011169Y029520D01*
X010889Y029520D01*
X010819Y029450D01*
X010819Y029310D01*
X010889Y029240D01*
X011169Y029240D01*
X011169Y029060D02*
X011029Y029060D01*
X010959Y028990D01*
X010959Y028920D01*
X011029Y028779D01*
X010819Y028779D01*
X010819Y029060D01*
X011169Y029060D02*
X011239Y028990D01*
X011239Y028849D01*
X011169Y028779D01*
X011239Y027719D02*
X011099Y027508D01*
X010959Y027719D01*
X010819Y027508D02*
X011239Y027508D01*
X011239Y027328D02*
X011239Y027048D01*
X011239Y027188D02*
X010819Y027188D01*
X010959Y027048D01*
X009739Y027010D02*
X009319Y027010D01*
X009319Y027220D01*
X009389Y027290D01*
X009529Y027290D01*
X009599Y027220D01*
X009599Y027010D01*
X009599Y027150D02*
X009739Y027290D01*
X009739Y027470D02*
X009459Y027750D01*
X009389Y027750D01*
X009319Y027680D01*
X009319Y027540D01*
X009389Y027470D01*
X009170Y027680D02*
X009029Y027680D01*
X008849Y027750D02*
X008849Y027470D01*
X008639Y027470D01*
X008569Y027540D01*
X008569Y027750D01*
X008389Y027820D02*
X008109Y027540D01*
X008179Y027470D01*
X008319Y027470D01*
X008389Y027540D01*
X008389Y027820D01*
X008319Y027890D01*
X008179Y027890D01*
X008109Y027820D01*
X008109Y027540D01*
X007928Y027470D02*
X007648Y027470D01*
X007788Y027470D02*
X007788Y027890D01*
X007648Y027750D01*
X007527Y028485D02*
X007527Y030375D01*
X006228Y030375D01*
X006228Y028485D01*
X006031Y028485D01*
X006031Y030375D01*
X006228Y030375D01*
X005651Y029390D02*
X005511Y029320D01*
X005371Y029180D01*
X005581Y029180D01*
X005651Y029110D01*
X005651Y029040D01*
X005581Y028970D01*
X005441Y028970D01*
X005371Y029040D01*
X005371Y029180D01*
X005191Y029320D02*
X005191Y029040D01*
X005121Y028970D01*
X004981Y028970D01*
X004911Y029040D01*
X005191Y029320D01*
X005121Y029390D01*
X004981Y029390D01*
X004911Y029320D01*
X004911Y029040D01*
X004730Y028970D02*
X004450Y028970D01*
X004730Y029250D01*
X004730Y029320D01*
X004660Y029390D01*
X004520Y029390D01*
X004450Y029320D01*
X004130Y029390D02*
X004130Y028970D01*
X003990Y028970D02*
X004270Y028970D01*
X003990Y029250D02*
X004130Y029390D01*
X003810Y029180D02*
X003529Y029180D01*
X003349Y029040D02*
X003349Y029320D01*
X003279Y029390D01*
X003069Y029390D01*
X003069Y028970D01*
X003279Y028970D01*
X003349Y029040D01*
X002889Y028970D02*
X002889Y029390D01*
X002749Y029250D01*
X002609Y029390D01*
X002609Y028970D01*
X002428Y029040D02*
X002358Y028970D01*
X002218Y028970D01*
X002148Y029040D01*
X002218Y029180D02*
X002358Y029180D01*
X002428Y029110D01*
X002428Y029040D01*
X002218Y029180D02*
X002148Y029250D01*
X002148Y029320D01*
X002218Y029390D01*
X002358Y029390D01*
X002428Y029320D01*
X001968Y029180D02*
X001688Y029180D01*
X001508Y029040D02*
X001508Y029320D01*
X001438Y029390D01*
X001227Y029390D01*
X001227Y028970D01*
X001438Y028970D01*
X001508Y029040D01*
X001047Y028970D02*
X000767Y028970D01*
X000767Y029390D01*
X001047Y029390D01*
X000907Y029180D02*
X000767Y029180D01*
X000587Y028970D02*
X000307Y028970D01*
X000307Y029390D01*
X000307Y027890D02*
X000307Y027470D01*
X000587Y027470D01*
X000767Y027470D02*
X001047Y027470D01*
X001227Y027470D02*
X001438Y027470D01*
X001508Y027540D01*
X001508Y027820D01*
X001438Y027890D01*
X001227Y027890D01*
X001227Y027470D01*
X000907Y027680D02*
X000767Y027680D01*
X000767Y027890D02*
X000767Y027470D01*
X000767Y027890D02*
X001047Y027890D01*
X001611Y027890D02*
X001611Y027470D01*
X001688Y027680D02*
X001968Y027680D01*
X002148Y027750D02*
X002218Y027680D01*
X002358Y027680D01*
X002428Y027610D01*
X002428Y027540D01*
X002358Y027470D01*
X002218Y027470D01*
X002148Y027540D01*
X002142Y027470D02*
X002142Y027890D01*
X002072Y027890D02*
X002212Y027890D01*
X002218Y027890D02*
X002148Y027820D01*
X002148Y027750D01*
X002218Y027890D02*
X002358Y027890D01*
X002428Y027820D01*
X002378Y027890D02*
X002378Y027470D01*
X002519Y027610D01*
X002659Y027470D01*
X002659Y027890D01*
X002609Y027890D02*
X002749Y027750D01*
X002889Y027890D01*
X002889Y027470D01*
X002909Y027470D02*
X002909Y027890D01*
X002839Y027890D02*
X002979Y027890D01*
X003069Y027890D02*
X003279Y027890D01*
X003349Y027820D01*
X003349Y027540D01*
X003279Y027470D01*
X003069Y027470D01*
X003069Y027890D01*
X002979Y027470D02*
X002839Y027470D01*
X002609Y027470D02*
X002609Y027890D01*
X002212Y027470D02*
X002072Y027470D01*
X001891Y027470D02*
X001891Y027890D01*
X001751Y027750D01*
X001611Y027890D01*
X001738Y026390D02*
X001738Y025970D01*
X001598Y026110D01*
X001458Y025970D01*
X001458Y026390D01*
X001438Y026390D02*
X001227Y026390D01*
X001227Y025970D01*
X001438Y025970D01*
X001508Y026040D01*
X001508Y026320D01*
X001438Y026390D01*
X001291Y026390D02*
X001151Y026390D01*
X001221Y026390D02*
X001221Y025970D01*
X001151Y025970D02*
X001291Y025970D01*
X001047Y025970D02*
X000767Y025970D01*
X000767Y026390D01*
X001047Y026390D01*
X000971Y026390D02*
X000971Y025970D01*
X000907Y026180D02*
X000767Y026180D01*
X000830Y026250D02*
X000690Y026390D01*
X000690Y025970D01*
X000587Y025970D02*
X000307Y025970D01*
X000307Y026390D01*
X000830Y026250D02*
X000971Y026390D01*
X001688Y026180D02*
X001968Y026180D01*
X002148Y026250D02*
X002218Y026180D01*
X002358Y026180D01*
X002428Y026110D01*
X002428Y026040D01*
X002358Y025970D01*
X002218Y025970D01*
X002148Y026040D01*
X002058Y025970D02*
X001918Y025970D01*
X001988Y025970D02*
X001988Y026390D01*
X001918Y026390D02*
X002058Y026390D01*
X002148Y026320D02*
X002218Y026390D01*
X002358Y026390D01*
X002428Y026320D01*
X002609Y026390D02*
X002609Y025970D01*
X002685Y026040D02*
X002755Y025970D01*
X002896Y025970D01*
X002966Y026040D01*
X002966Y026110D01*
X002896Y026180D01*
X002755Y026180D01*
X002685Y026250D01*
X002685Y026320D01*
X002755Y026390D01*
X002896Y026390D01*
X002966Y026320D01*
X002889Y026390D02*
X002889Y025970D01*
X003069Y025970D02*
X003279Y025970D01*
X003349Y026040D01*
X003349Y026320D01*
X003279Y026390D01*
X003069Y026390D01*
X003069Y025970D01*
X003286Y025970D02*
X003286Y026390D01*
X003146Y026390D02*
X003426Y026390D01*
X003606Y026250D02*
X003746Y026390D01*
X003886Y026250D01*
X003886Y025970D01*
X003990Y025970D02*
X004270Y025970D01*
X004207Y025970D02*
X004207Y026390D01*
X004130Y026390D02*
X004130Y025970D01*
X003990Y026250D02*
X004130Y026390D01*
X004067Y026390D02*
X004347Y026390D01*
X004450Y026320D02*
X004520Y026390D01*
X004660Y026390D01*
X004730Y026320D01*
X004730Y026250D01*
X004450Y025970D01*
X004730Y025970D01*
X004737Y025970D02*
X004807Y026040D01*
X004807Y026390D01*
X004911Y026320D02*
X004981Y026390D01*
X005121Y026390D01*
X005191Y026320D01*
X004911Y026040D01*
X004981Y025970D01*
X005121Y025970D01*
X005191Y026040D01*
X005191Y026320D01*
X005198Y026390D02*
X005268Y026320D01*
X005198Y026390D02*
X005057Y026390D01*
X004987Y026320D01*
X004987Y026250D01*
X005057Y026180D01*
X005198Y026180D01*
X005268Y026110D01*
X005268Y026040D01*
X005198Y025970D01*
X005057Y025970D01*
X004987Y026040D01*
X004911Y026040D02*
X004911Y026320D01*
X004527Y026390D02*
X004527Y026040D01*
X004597Y025970D01*
X004737Y025970D01*
X005371Y026040D02*
X005441Y025970D01*
X005581Y025970D01*
X005651Y026040D01*
X005651Y026110D01*
X005581Y026180D01*
X005371Y026180D01*
X005371Y026040D01*
X005371Y026180D02*
X005511Y026320D01*
X005651Y026390D01*
X005581Y027470D02*
X005651Y027540D01*
X005651Y027610D01*
X005581Y027680D01*
X005371Y027680D01*
X005371Y027540D01*
X005441Y027470D01*
X005581Y027470D01*
X005371Y027680D02*
X005511Y027820D01*
X005651Y027890D01*
X005191Y027820D02*
X005191Y027540D01*
X005121Y027470D01*
X004981Y027470D01*
X004911Y027540D01*
X005191Y027820D01*
X005121Y027890D01*
X004981Y027890D01*
X004911Y027820D01*
X004911Y027540D01*
X004730Y027470D02*
X004450Y027470D01*
X004730Y027750D01*
X004730Y027820D01*
X004660Y027890D01*
X004520Y027890D01*
X004450Y027820D01*
X004347Y027890D02*
X004067Y027470D01*
X004130Y027470D02*
X004130Y027890D01*
X003990Y027750D01*
X004067Y027890D02*
X004347Y027470D01*
X004270Y027470D02*
X003990Y027470D01*
X003746Y027470D02*
X003746Y027890D01*
X003606Y027890D02*
X003886Y027890D01*
X003810Y027680D02*
X003529Y027680D01*
X003426Y027400D02*
X003146Y027400D01*
X002889Y026390D02*
X002749Y026250D01*
X002609Y026390D01*
X002148Y026320D02*
X002148Y026250D01*
X002225Y025900D02*
X002505Y025900D01*
X003529Y026180D02*
X003810Y026180D01*
X003886Y026180D02*
X003606Y026180D01*
X003606Y026250D02*
X003606Y025970D01*
X003509Y024890D02*
X003369Y024890D01*
X003299Y024820D01*
X003299Y024540D01*
X003369Y024470D01*
X003509Y024470D01*
X003579Y024540D01*
X003579Y024680D01*
X003439Y024680D01*
X003529Y024680D02*
X003810Y024680D01*
X003990Y024750D02*
X004130Y024890D01*
X004130Y024470D01*
X004220Y024540D02*
X004500Y024820D01*
X004500Y024540D01*
X004430Y024470D01*
X004290Y024470D01*
X004220Y024540D01*
X004220Y024820D01*
X004290Y024890D01*
X004430Y024890D01*
X004500Y024820D01*
X004450Y024820D02*
X004520Y024890D01*
X004660Y024890D01*
X004730Y024820D01*
X004730Y024750D01*
X004450Y024470D01*
X004730Y024470D01*
X004911Y024540D02*
X005191Y024820D01*
X005191Y024540D01*
X005121Y024470D01*
X004981Y024470D01*
X004911Y024540D01*
X004911Y024820D01*
X004981Y024890D01*
X005121Y024890D01*
X005191Y024820D01*
X005371Y024680D02*
X005581Y024680D01*
X005651Y024610D01*
X005651Y024540D01*
X005581Y024470D01*
X005441Y024470D01*
X005371Y024540D01*
X005371Y024680D01*
X005511Y024820D01*
X005651Y024890D01*
X004270Y024470D02*
X003990Y024470D01*
X004040Y024400D02*
X003760Y024400D01*
X003349Y024540D02*
X003349Y024820D01*
X003279Y024890D01*
X003069Y024890D01*
X003069Y024470D01*
X003279Y024470D01*
X003349Y024540D01*
X003119Y024540D02*
X003119Y024890D01*
X002889Y024890D02*
X002889Y024470D01*
X002909Y024470D02*
X003049Y024470D01*
X003119Y024540D01*
X002909Y024470D02*
X002839Y024540D01*
X002839Y024890D01*
X002889Y024890D02*
X002749Y024750D01*
X002609Y024890D01*
X002609Y024470D01*
X002589Y024470D02*
X002378Y024470D01*
X002378Y024890D01*
X002589Y024890D01*
X002659Y024820D01*
X002659Y024750D01*
X002589Y024680D01*
X002378Y024680D01*
X002358Y024680D02*
X002428Y024610D01*
X002428Y024540D01*
X002358Y024470D01*
X002218Y024470D01*
X002148Y024540D01*
X002198Y024470D02*
X001918Y024470D01*
X001918Y024890D01*
X002198Y024890D01*
X002218Y024890D02*
X002148Y024820D01*
X002148Y024750D01*
X002218Y024680D01*
X002358Y024680D01*
X002428Y024820D02*
X002358Y024890D01*
X002218Y024890D01*
X002058Y024680D02*
X001918Y024680D01*
X001968Y024680D02*
X001688Y024680D01*
X001738Y024540D02*
X001738Y024820D01*
X001668Y024890D01*
X001458Y024890D01*
X001458Y024470D01*
X001668Y024470D01*
X001738Y024540D01*
X001508Y024540D02*
X001508Y024820D01*
X001438Y024890D01*
X001227Y024890D01*
X001227Y024470D01*
X001438Y024470D01*
X001508Y024540D01*
X001047Y024470D02*
X000767Y024470D01*
X000767Y024890D01*
X001047Y024890D01*
X000907Y024680D02*
X000767Y024680D01*
X000587Y024470D02*
X000307Y024470D01*
X000307Y024890D01*
X000307Y023390D02*
X000307Y022970D01*
X000587Y022970D01*
X000767Y022970D02*
X001047Y022970D01*
X001227Y022970D02*
X001438Y022970D01*
X001508Y023040D01*
X001508Y023320D01*
X001438Y023390D01*
X001227Y023390D01*
X001227Y022970D01*
X001458Y022970D02*
X001458Y023390D01*
X001668Y023390D01*
X001738Y023320D01*
X001738Y023040D01*
X001668Y022970D01*
X001458Y022970D01*
X001688Y023180D02*
X001968Y023180D01*
X001918Y023180D02*
X002058Y023180D01*
X002148Y023250D02*
X002218Y023180D01*
X002358Y023180D01*
X002428Y023110D01*
X002428Y023040D01*
X002358Y022970D01*
X002218Y022970D01*
X002148Y023040D01*
X002198Y022970D02*
X001918Y022970D01*
X001918Y023390D01*
X002198Y023390D01*
X002218Y023390D02*
X002148Y023320D01*
X002148Y023250D01*
X002218Y023390D02*
X002358Y023390D01*
X002428Y023320D01*
X002378Y023390D02*
X002589Y023390D01*
X002659Y023320D01*
X002659Y023250D01*
X002589Y023180D01*
X002378Y023180D01*
X002378Y022970D02*
X002378Y023390D01*
X002609Y023390D02*
X002609Y022970D01*
X002589Y022970D02*
X002378Y022970D01*
X002589Y022970D02*
X002659Y023040D01*
X002659Y023110D01*
X002589Y023180D01*
X002749Y023250D02*
X002889Y023390D01*
X002889Y022970D01*
X002909Y022970D02*
X003049Y022970D01*
X003119Y023040D01*
X003119Y023390D01*
X003069Y023390D02*
X003279Y023390D01*
X003349Y023320D01*
X003349Y023040D01*
X003279Y022970D01*
X003069Y022970D01*
X003069Y023390D01*
X002839Y023390D02*
X002839Y023040D01*
X002909Y022970D01*
X002749Y023250D02*
X002609Y023390D01*
X003299Y023320D02*
X003299Y023040D01*
X003369Y022970D01*
X003509Y022970D01*
X003579Y023040D01*
X003579Y023180D01*
X003439Y023180D01*
X003529Y023180D02*
X003810Y023180D01*
X003990Y023250D02*
X004130Y023390D01*
X004130Y022970D01*
X004220Y022970D02*
X004500Y022970D01*
X004450Y022970D02*
X004730Y023250D01*
X004730Y023320D01*
X004660Y023390D01*
X004520Y023390D01*
X004450Y023320D01*
X004360Y023390D02*
X004360Y022970D01*
X004270Y022970D02*
X003990Y022970D01*
X004040Y022900D02*
X003760Y022900D01*
X003579Y023320D02*
X003509Y023390D01*
X003369Y023390D01*
X003299Y023320D01*
X004220Y023250D02*
X004360Y023390D01*
X004450Y022970D02*
X004730Y022970D01*
X004911Y023040D02*
X005191Y023320D01*
X005191Y023040D01*
X005121Y022970D01*
X004981Y022970D01*
X004911Y023040D01*
X004911Y023320D01*
X004981Y023390D01*
X005121Y023390D01*
X005191Y023320D01*
X005371Y023180D02*
X005371Y023040D01*
X005441Y022970D01*
X005581Y022970D01*
X005651Y023040D01*
X005651Y023110D01*
X005581Y023180D01*
X005371Y023180D01*
X005511Y023320D01*
X005651Y023390D01*
X005651Y021890D02*
X005511Y021820D01*
X005371Y021680D01*
X005581Y021680D01*
X005651Y021610D01*
X005651Y021540D01*
X005581Y021470D01*
X005441Y021470D01*
X005371Y021540D01*
X005371Y021680D01*
X005191Y021540D02*
X005121Y021470D01*
X004981Y021470D01*
X004911Y021540D01*
X005191Y021820D01*
X005191Y021540D01*
X005191Y021820D02*
X005121Y021890D01*
X004981Y021890D01*
X004911Y021820D01*
X004911Y021540D01*
X004730Y021470D02*
X004450Y021470D01*
X004730Y021750D01*
X004730Y021820D01*
X004660Y021890D01*
X004520Y021890D01*
X004450Y021820D01*
X004424Y021890D02*
X004143Y021610D01*
X004213Y021680D02*
X004424Y021470D01*
X004270Y021470D02*
X003990Y021470D01*
X003963Y021540D02*
X003893Y021470D01*
X003753Y021470D01*
X003683Y021540D01*
X003683Y021820D01*
X003753Y021890D01*
X003893Y021890D01*
X003963Y021820D01*
X003990Y021750D02*
X004130Y021890D01*
X004130Y021470D01*
X004143Y021470D02*
X004143Y021890D01*
X003810Y021680D02*
X003529Y021680D01*
X003503Y021610D02*
X003503Y021540D01*
X003433Y021470D01*
X003293Y021470D01*
X003222Y021540D01*
X003279Y021470D02*
X003069Y021470D01*
X003069Y021890D01*
X003279Y021890D01*
X003349Y021820D01*
X003349Y021540D01*
X003279Y021470D01*
X003293Y021680D02*
X003222Y021750D01*
X003222Y021820D01*
X003293Y021890D01*
X003433Y021890D01*
X003503Y021820D01*
X003433Y021680D02*
X003503Y021610D01*
X003433Y021680D02*
X003293Y021680D01*
X003042Y021400D02*
X002762Y021400D01*
X002889Y021470D02*
X002889Y021890D01*
X002749Y021750D01*
X002609Y021890D01*
X002609Y021470D01*
X002595Y021470D02*
X002455Y021470D01*
X002525Y021470D02*
X002525Y021890D01*
X002455Y021890D02*
X002595Y021890D01*
X002428Y021820D02*
X002358Y021890D01*
X002218Y021890D01*
X002148Y021820D01*
X002148Y021750D01*
X002218Y021680D01*
X002358Y021680D01*
X002428Y021610D01*
X002428Y021540D01*
X002358Y021470D01*
X002218Y021470D01*
X002148Y021540D01*
X002205Y021610D02*
X001995Y021610D01*
X001968Y021680D02*
X001688Y021680D01*
X001745Y021680D02*
X001815Y021610D01*
X001815Y021540D01*
X001745Y021470D01*
X001604Y021470D01*
X001534Y021540D01*
X001508Y021540D02*
X001508Y021820D01*
X001438Y021890D01*
X001227Y021890D01*
X001227Y021470D01*
X001438Y021470D01*
X001508Y021540D01*
X001604Y021680D02*
X001745Y021680D01*
X001604Y021680D02*
X001534Y021750D01*
X001534Y021820D01*
X001604Y021890D01*
X001745Y021890D01*
X001815Y021820D01*
X001995Y021890D02*
X001995Y021470D01*
X002205Y021610D02*
X002275Y021680D01*
X002275Y021820D01*
X002205Y021890D01*
X001995Y021890D01*
X001047Y021890D02*
X000767Y021890D01*
X000767Y021470D01*
X001047Y021470D01*
X000907Y021680D02*
X000767Y021680D01*
X000587Y021470D02*
X000307Y021470D01*
X000307Y021890D01*
X000767Y022970D02*
X000767Y023390D01*
X001047Y023390D01*
X000907Y023180D02*
X000767Y023180D01*
X002589Y024470D02*
X002659Y024540D01*
X002659Y024610D01*
X002589Y024680D01*
X003509Y024890D02*
X003579Y024820D01*
X007878Y026040D02*
X007948Y025970D01*
X008089Y025970D01*
X008159Y026040D01*
X008339Y025970D02*
X008619Y025970D01*
X008479Y025970D02*
X008479Y026390D01*
X008339Y026250D01*
X008159Y026320D02*
X008089Y026390D01*
X007948Y026390D01*
X007878Y026320D01*
X007878Y026040D01*
X008799Y026180D02*
X009079Y026180D01*
X009009Y025970D02*
X009009Y026390D01*
X008799Y026180D01*
X009029Y027470D02*
X009029Y027890D01*
X009310Y027890D01*
X009739Y027750D02*
X009739Y027470D01*
X009739Y029010D02*
X009319Y029010D01*
X009319Y029220D01*
X009389Y029290D01*
X009529Y029290D01*
X009599Y029220D01*
X009599Y029010D01*
X009599Y029150D02*
X009739Y029290D01*
X009739Y029470D02*
X009739Y029750D01*
X009739Y029610D02*
X009319Y029610D01*
X009459Y029470D01*
X007527Y028485D02*
X006228Y028485D01*
X012609Y028970D02*
X012609Y029390D01*
X012819Y029390D01*
X012889Y029320D01*
X012889Y029180D01*
X012819Y029110D01*
X012609Y029110D01*
X012749Y029110D02*
X012889Y028970D01*
X013069Y029180D02*
X013349Y029180D01*
X013279Y028970D02*
X013279Y029390D01*
X013069Y029180D01*
X019819Y030340D02*
X019889Y030270D01*
X020029Y030270D01*
X020099Y030340D01*
X020099Y030690D01*
X020279Y030620D02*
X020349Y030690D01*
X020490Y030690D01*
X020560Y030620D01*
X020490Y030480D02*
X020349Y030480D01*
X020279Y030550D01*
X020279Y030620D01*
X020420Y030760D02*
X020420Y030200D01*
X020490Y030270D02*
X020349Y030270D01*
X020279Y030340D01*
X020490Y030270D02*
X020560Y030340D01*
X020560Y030410D01*
X020490Y030480D01*
X020740Y030550D02*
X020880Y030690D01*
X020880Y030270D01*
X020740Y030270D02*
X021020Y030270D01*
X020799Y029240D02*
X020869Y029170D01*
X020869Y029030D01*
X020799Y028960D01*
X020519Y029240D01*
X020799Y029240D01*
X020519Y029240D02*
X020449Y029170D01*
X020449Y029030D01*
X020519Y028960D01*
X020799Y028960D01*
X020799Y028779D02*
X020869Y028709D01*
X020869Y028569D01*
X020799Y028499D01*
X020659Y028499D02*
X020589Y028639D01*
X020589Y028709D01*
X020659Y028779D01*
X020799Y028779D01*
X020659Y028499D02*
X020449Y028499D01*
X020449Y028779D01*
X020449Y028319D02*
X020449Y028179D01*
X020449Y028249D02*
X020799Y028249D01*
X020869Y028179D01*
X020869Y028109D01*
X020799Y028039D01*
X020799Y027859D02*
X020729Y027859D01*
X020659Y027789D01*
X020659Y027578D01*
X020799Y027578D01*
X020869Y027648D01*
X020869Y027789D01*
X020799Y027859D01*
X020519Y027719D02*
X020659Y027578D01*
X020589Y027398D02*
X020519Y027398D01*
X020449Y027328D01*
X020449Y027188D01*
X020519Y027118D01*
X020449Y026938D02*
X020449Y026658D01*
X020869Y026658D01*
X020799Y026477D02*
X020869Y026407D01*
X020869Y026267D01*
X020799Y026197D01*
X020729Y026197D01*
X020659Y026267D01*
X020659Y026407D01*
X020729Y026477D01*
X020799Y026477D01*
X020659Y026407D02*
X020589Y026477D01*
X020519Y026477D01*
X020449Y026407D01*
X020449Y026267D01*
X020519Y026197D01*
X020589Y026197D01*
X020659Y026267D01*
X020869Y026017D02*
X020869Y025737D01*
X020869Y025877D02*
X020449Y025877D01*
X020589Y025737D01*
X020519Y025557D02*
X020449Y025487D01*
X020449Y025347D01*
X020519Y025276D01*
X020799Y025276D01*
X020869Y025347D01*
X020869Y025487D01*
X020799Y025557D01*
X020869Y025110D02*
X020869Y024970D01*
X020869Y025040D02*
X020449Y025040D01*
X020449Y024970D02*
X020449Y025110D01*
X020519Y024789D02*
X020659Y024789D01*
X020729Y024719D01*
X020729Y024509D01*
X020869Y024509D02*
X020449Y024509D01*
X020449Y024719D01*
X020519Y024789D01*
X020659Y026658D02*
X020659Y026798D01*
X020869Y027118D02*
X020589Y027398D01*
X020869Y027398D02*
X020869Y027118D01*
X020519Y027719D02*
X020449Y027859D01*
X019819Y030340D02*
X019819Y030690D01*
X025819Y028250D02*
X025819Y027970D01*
X026029Y027970D01*
X025959Y028110D01*
X025959Y028180D01*
X026029Y028250D01*
X026169Y028250D01*
X026239Y028180D01*
X026239Y028040D01*
X026169Y027970D01*
X026239Y027790D02*
X026099Y027650D01*
X026099Y027720D02*
X026099Y027510D01*
X026239Y027510D02*
X025819Y027510D01*
X025819Y027720D01*
X025889Y027790D01*
X026029Y027790D01*
X026099Y027720D01*
X027319Y027740D02*
X027739Y027740D01*
X027599Y027740D02*
X027319Y028020D01*
X027319Y028200D02*
X027319Y028480D01*
X027389Y028480D01*
X027669Y028200D01*
X027739Y028200D01*
X027739Y028020D02*
X027529Y027810D01*
X027529Y027560D02*
X027529Y027279D01*
X027319Y027490D01*
X027739Y027490D01*
X027389Y025730D02*
X027669Y025450D01*
X027739Y025450D01*
X027739Y025270D02*
X027529Y025060D01*
X027599Y024990D02*
X027319Y025270D01*
X027319Y025450D02*
X027319Y025730D01*
X027389Y025730D01*
X026239Y025430D02*
X026239Y025290D01*
X026169Y025220D01*
X026029Y025220D01*
X026029Y025430D01*
X026099Y025500D01*
X026169Y025500D01*
X026239Y025430D01*
X026029Y025220D02*
X025889Y025360D01*
X025819Y025500D01*
X025889Y025040D02*
X026029Y025040D01*
X026099Y024970D01*
X026099Y024760D01*
X026099Y024900D02*
X026239Y025040D01*
X026239Y024760D02*
X025819Y024760D01*
X025819Y024970D01*
X025889Y025040D01*
X027319Y024990D02*
X027739Y024990D01*
X027739Y024740D02*
X027319Y024740D01*
X027529Y024529D01*
X027529Y024810D01*
X028819Y024160D02*
X028819Y024020D01*
X028889Y023950D01*
X029029Y024090D02*
X029029Y024160D01*
X029099Y024230D01*
X029169Y024230D01*
X029239Y024160D01*
X029239Y024020D01*
X029169Y023950D01*
X029239Y023770D02*
X029239Y023490D01*
X029239Y023630D02*
X028819Y023630D01*
X028959Y023490D01*
X028889Y023310D02*
X028819Y023240D01*
X028819Y023099D01*
X028889Y023029D01*
X029169Y023029D01*
X029239Y023099D01*
X029239Y023240D01*
X029169Y023310D01*
X028819Y022480D02*
X028819Y022200D01*
X029239Y022200D01*
X029239Y022020D02*
X028959Y022020D01*
X029029Y022200D02*
X029029Y022340D01*
X029239Y022020D02*
X029239Y021810D01*
X029169Y021740D01*
X028959Y021740D01*
X029239Y021560D02*
X029239Y021279D01*
X029239Y021420D02*
X028819Y021420D01*
X028959Y021279D01*
X030319Y021349D02*
X030389Y021279D01*
X030669Y021279D01*
X030739Y021349D01*
X030739Y021490D01*
X030669Y021560D01*
X030739Y021740D02*
X030739Y022020D01*
X030739Y021880D02*
X030319Y021880D01*
X030459Y021740D01*
X030389Y021560D02*
X030319Y021490D01*
X030319Y021349D01*
X030389Y022200D02*
X030319Y022270D01*
X030319Y022410D01*
X030389Y022480D01*
X030459Y022480D01*
X030739Y022200D01*
X030739Y022480D01*
X030739Y023029D02*
X030739Y023310D01*
X030739Y023170D02*
X030319Y023170D01*
X030459Y023029D01*
X030459Y023490D02*
X030669Y023490D01*
X030739Y023560D01*
X030739Y023770D01*
X030459Y023770D01*
X030529Y023950D02*
X030529Y024090D01*
X030739Y023950D02*
X030319Y023950D01*
X030319Y024230D01*
X029029Y024160D02*
X028959Y024230D01*
X028889Y024230D01*
X028819Y024160D01*
X026349Y022570D02*
X026349Y022290D01*
X026279Y022220D01*
X026139Y022220D01*
X026069Y022290D01*
X026139Y022430D02*
X026349Y022430D01*
X026349Y022570D02*
X026279Y022640D01*
X026139Y022640D01*
X026069Y022570D01*
X026069Y022500D01*
X026139Y022430D01*
X025889Y022290D02*
X025819Y022220D01*
X025679Y022220D01*
X025609Y022290D01*
X025609Y022570D01*
X025679Y022640D01*
X025819Y022640D01*
X025889Y022570D01*
X025864Y021140D02*
X025724Y021000D01*
X025864Y021140D02*
X025864Y020720D01*
X025724Y020720D02*
X026004Y020720D01*
X026184Y020790D02*
X026254Y020720D01*
X026464Y020720D01*
X026464Y021000D01*
X026645Y020930D02*
X026785Y020930D01*
X026645Y021140D02*
X026925Y021140D01*
X026645Y021140D02*
X026645Y020720D01*
X026184Y020790D02*
X026184Y021000D01*
X025564Y020790D02*
X025564Y020720D01*
X025494Y020720D01*
X025494Y020790D01*
X025564Y020790D01*
X025313Y020790D02*
X025313Y021070D01*
X025033Y020790D01*
X025103Y020720D01*
X025243Y020720D01*
X025313Y020790D01*
X025033Y020790D02*
X025033Y021070D01*
X025103Y021140D01*
X025243Y021140D01*
X025313Y021070D01*
X023819Y009961D02*
X023819Y009680D01*
X024239Y009680D01*
X024239Y009500D02*
X023959Y009500D01*
X024029Y009680D02*
X024029Y009821D01*
X024239Y009500D02*
X024239Y009290D01*
X024169Y009220D01*
X023959Y009220D01*
X023889Y009040D02*
X024169Y008760D01*
X024239Y008830D01*
X024239Y008970D01*
X024169Y009040D01*
X023889Y009040D01*
X023819Y008970D01*
X023819Y008830D01*
X023889Y008760D01*
X024169Y008760D01*
X024239Y008579D02*
X024239Y008299D01*
X024239Y008439D02*
X023819Y008439D01*
X023959Y008299D01*
X025319Y008830D02*
X025389Y008760D01*
X025669Y008760D01*
X025739Y008830D01*
X025739Y008970D01*
X025669Y009040D01*
X025669Y009220D02*
X025739Y009290D01*
X025739Y009430D01*
X025669Y009500D01*
X025599Y009500D01*
X025529Y009430D01*
X025529Y009220D01*
X025669Y009220D01*
X025529Y009220D02*
X025389Y009360D01*
X025319Y009500D01*
X025389Y009040D02*
X025319Y008970D01*
X025319Y008830D01*
X026319Y007430D02*
X026529Y007220D01*
X026529Y007500D01*
X026739Y007430D02*
X026319Y007430D01*
X026389Y007040D02*
X026319Y006970D01*
X026319Y006830D01*
X026389Y006760D01*
X026669Y006760D01*
X026739Y006830D01*
X026739Y006970D01*
X026669Y007040D01*
X027819Y006970D02*
X027889Y007040D01*
X028169Y006760D01*
X028239Y006830D01*
X028239Y006970D01*
X028169Y007040D01*
X027889Y007040D01*
X027819Y006970D02*
X027819Y006830D01*
X027889Y006760D01*
X028169Y006760D01*
X028239Y006579D02*
X028239Y006299D01*
X028239Y006439D02*
X027819Y006439D01*
X027959Y006299D01*
X027959Y007220D02*
X028169Y007220D01*
X028239Y007290D01*
X028239Y007500D01*
X027959Y007500D01*
X028029Y007680D02*
X028029Y007821D01*
X027819Y007680D02*
X027819Y007961D01*
X027819Y007680D02*
X028239Y007680D01*
X031342Y008084D02*
X031342Y004776D01*
X034538Y004776D01*
X036020Y004776D01*
X036020Y005387D01*
X034538Y005387D01*
X034538Y004776D01*
X034698Y004390D02*
X034839Y004390D01*
X034909Y004320D01*
X034628Y004040D01*
X034698Y003970D01*
X034839Y003970D01*
X034909Y004040D01*
X034909Y004320D01*
X034698Y004390D02*
X034628Y004320D01*
X034628Y004040D01*
X034448Y003970D02*
X034168Y003970D01*
X034308Y003970D02*
X034308Y004390D01*
X034168Y004250D01*
X033988Y004180D02*
X033988Y004040D01*
X033918Y003970D01*
X033778Y003970D01*
X033708Y004040D01*
X033708Y004180D02*
X033848Y004250D01*
X033918Y004250D01*
X033988Y004180D01*
X033988Y004390D02*
X033708Y004390D01*
X033708Y004180D01*
X033527Y004250D02*
X033247Y003970D01*
X033527Y003970D01*
X033527Y004250D02*
X033527Y004320D01*
X033457Y004390D01*
X033317Y004390D01*
X033247Y004320D01*
X034538Y005141D02*
X031785Y005141D01*
X031785Y007719D01*
X038773Y007719D01*
X038773Y005141D01*
X036020Y005141D01*
X036020Y004776D02*
X037035Y004776D01*
X037035Y004895D01*
X037617Y004895D01*
X037617Y004776D01*
X039216Y004776D01*
X039216Y008084D01*
X031342Y008084D01*
X033247Y008220D02*
X033527Y008500D01*
X033527Y008570D01*
X033457Y008640D01*
X033317Y008640D01*
X033247Y008570D01*
X033247Y008220D02*
X033527Y008220D01*
X033708Y008290D02*
X033778Y008220D01*
X033918Y008220D01*
X033988Y008290D01*
X033988Y008430D01*
X033918Y008500D01*
X033848Y008500D01*
X033708Y008430D01*
X033708Y008640D01*
X033988Y008640D01*
X034168Y008500D02*
X034308Y008640D01*
X034308Y008220D01*
X034168Y008220D02*
X034448Y008220D01*
X034628Y008290D02*
X034909Y008570D01*
X034909Y008290D01*
X034839Y008220D01*
X034698Y008220D01*
X034628Y008290D01*
X034628Y008570D01*
X034698Y008640D01*
X034839Y008640D01*
X034909Y008570D01*
X035089Y008430D02*
X035369Y008430D01*
X035549Y008430D02*
X035759Y008430D01*
X035829Y008360D01*
X035829Y008290D01*
X035759Y008220D01*
X035619Y008220D01*
X035549Y008290D01*
X035549Y008430D01*
X035689Y008570D01*
X035829Y008640D01*
X036010Y008570D02*
X036080Y008640D01*
X036220Y008640D01*
X036290Y008570D01*
X036010Y008290D01*
X036080Y008220D01*
X036220Y008220D01*
X036290Y008290D01*
X036290Y008570D01*
X036470Y008570D02*
X036470Y008290D01*
X036750Y008570D01*
X036750Y008290D01*
X036680Y008220D01*
X036540Y008220D01*
X036470Y008290D01*
X036470Y008570D02*
X036540Y008640D01*
X036680Y008640D01*
X036750Y008570D01*
X036930Y008570D02*
X037000Y008640D01*
X037141Y008640D01*
X037211Y008570D01*
X037211Y008500D01*
X036930Y008220D01*
X037211Y008220D01*
X036010Y008290D02*
X036010Y008570D01*
X036080Y004390D02*
X036010Y004320D01*
X036010Y004040D01*
X036290Y004320D01*
X036290Y004040D01*
X036220Y003970D01*
X036080Y003970D01*
X036010Y004040D01*
X035829Y004040D02*
X035829Y004110D01*
X035759Y004180D01*
X035549Y004180D01*
X035549Y004040D01*
X035619Y003970D01*
X035759Y003970D01*
X035829Y004040D01*
X035689Y004320D02*
X035549Y004180D01*
X035369Y004180D02*
X035089Y004180D01*
X035689Y004320D02*
X035829Y004390D01*
X036080Y004390D02*
X036220Y004390D01*
X036290Y004320D01*
X036470Y004320D02*
X036470Y004040D01*
X036750Y004320D01*
X036750Y004040D01*
X036680Y003970D01*
X036540Y003970D01*
X036470Y004040D01*
X036470Y004320D02*
X036540Y004390D01*
X036680Y004390D01*
X036750Y004320D01*
X036930Y004320D02*
X037000Y004390D01*
X037141Y004390D01*
X037211Y004320D01*
X037211Y004250D01*
X036930Y003970D01*
X037211Y003970D01*
X038773Y003469D02*
X038773Y000891D01*
X036020Y000891D01*
X036020Y001137D02*
X036020Y000526D01*
X034538Y000526D01*
X031342Y000526D01*
X031342Y003834D01*
X039216Y003834D01*
X039216Y000526D01*
X037617Y000526D01*
X037617Y000645D01*
X037035Y000645D01*
X037035Y000526D01*
X036020Y000526D01*
X036020Y001137D02*
X034538Y001137D01*
X034538Y000526D01*
X034538Y000891D02*
X031785Y000891D01*
X031785Y003469D01*
X038773Y003469D01*
X024239Y005830D02*
X024169Y005760D01*
X023889Y005760D01*
X023819Y005830D01*
X023819Y005970D01*
X023889Y006040D01*
X023889Y006220D02*
X023819Y006290D01*
X023819Y006430D01*
X023889Y006500D01*
X023959Y006500D01*
X024029Y006430D01*
X024099Y006500D01*
X024169Y006500D01*
X024239Y006430D01*
X024239Y006290D01*
X024169Y006220D01*
X024169Y006040D02*
X024239Y005970D01*
X024239Y005830D01*
X024029Y006360D02*
X024029Y006430D01*
X022739Y006500D02*
X022739Y006290D01*
X022669Y006220D01*
X022459Y006220D01*
X022389Y006040D02*
X022669Y005760D01*
X022739Y005830D01*
X022739Y005970D01*
X022669Y006040D01*
X022389Y006040D01*
X022319Y005970D01*
X022319Y005830D01*
X022389Y005760D01*
X022669Y005760D01*
X022739Y005579D02*
X022739Y005299D01*
X022739Y005439D02*
X022319Y005439D01*
X022459Y005299D01*
X022459Y006500D02*
X022739Y006500D01*
X022739Y006680D02*
X022319Y006680D01*
X022319Y006961D01*
X022529Y006821D02*
X022529Y006680D01*
X020310Y007640D02*
X020029Y007640D01*
X020029Y007220D01*
X019849Y007220D02*
X019849Y007500D01*
X020029Y007430D02*
X020170Y007430D01*
X019849Y007220D02*
X019639Y007220D01*
X019569Y007290D01*
X019569Y007500D01*
X019389Y007570D02*
X019109Y007290D01*
X019179Y007220D01*
X019319Y007220D01*
X019389Y007290D01*
X019389Y007570D01*
X019319Y007640D01*
X019179Y007640D01*
X019109Y007570D01*
X019109Y007290D01*
X018928Y007220D02*
X018648Y007220D01*
X018788Y007220D02*
X018788Y007640D01*
X018648Y007500D01*
X019179Y008720D02*
X019319Y008720D01*
X019389Y008790D01*
X019569Y008790D02*
X019639Y008720D01*
X019779Y008720D01*
X019849Y008790D01*
X019849Y008930D01*
X019779Y009000D01*
X019709Y009000D01*
X019569Y008930D01*
X019569Y009140D01*
X019849Y009140D01*
X019389Y009070D02*
X019319Y009140D01*
X019179Y009140D01*
X019109Y009070D01*
X019109Y008790D01*
X019179Y008720D01*
X005651Y018540D02*
X005651Y018610D01*
X005581Y018680D01*
X005371Y018680D01*
X005371Y018540D01*
X005441Y018470D01*
X005581Y018470D01*
X005651Y018540D01*
X005511Y018820D02*
X005371Y018680D01*
X005511Y018820D02*
X005651Y018890D01*
X005191Y018820D02*
X005191Y018540D01*
X005121Y018470D01*
X004981Y018470D01*
X004911Y018540D01*
X005191Y018820D01*
X005121Y018890D01*
X004981Y018890D01*
X004911Y018820D01*
X004911Y018540D01*
X004730Y018470D02*
X004450Y018470D01*
X004730Y018750D01*
X004730Y018820D01*
X004660Y018890D01*
X004520Y018890D01*
X004450Y018820D01*
X004500Y018890D02*
X004220Y018470D01*
X004270Y018470D02*
X003990Y018470D01*
X004040Y018470D02*
X003900Y018610D01*
X003970Y018610D02*
X003760Y018610D01*
X003810Y018680D02*
X003529Y018680D01*
X003349Y018540D02*
X003349Y018820D01*
X003279Y018890D01*
X003069Y018890D01*
X003069Y018470D01*
X003279Y018470D01*
X003349Y018540D01*
X003299Y018400D02*
X003579Y018400D01*
X003760Y018470D02*
X003760Y018890D01*
X003970Y018890D01*
X004040Y018820D01*
X004040Y018680D01*
X003970Y018610D01*
X003990Y018750D02*
X004130Y018890D01*
X004130Y018470D01*
X004500Y018470D02*
X004220Y018890D01*
X003119Y018890D02*
X002839Y018890D01*
X002889Y018890D02*
X002749Y018750D01*
X002609Y018890D01*
X002609Y018470D01*
X002659Y018470D02*
X002519Y018610D01*
X002589Y018610D02*
X002378Y018610D01*
X002428Y018610D02*
X002428Y018540D01*
X002358Y018470D01*
X002218Y018470D01*
X002148Y018540D01*
X002198Y018470D02*
X002198Y018750D01*
X002058Y018890D01*
X001918Y018750D01*
X001918Y018470D01*
X001738Y018540D02*
X001738Y018890D01*
X001688Y018680D02*
X001968Y018680D01*
X001918Y018680D02*
X002198Y018680D01*
X002218Y018680D02*
X002358Y018680D01*
X002428Y018610D01*
X002378Y018470D02*
X002378Y018890D01*
X002589Y018890D01*
X002659Y018820D01*
X002659Y018680D01*
X002589Y018610D01*
X002428Y018820D02*
X002358Y018890D01*
X002218Y018890D01*
X002148Y018820D01*
X002148Y018750D01*
X002218Y018680D01*
X001738Y018540D02*
X001668Y018470D01*
X001528Y018470D01*
X001458Y018540D01*
X001458Y018890D01*
X001438Y018890D02*
X001227Y018890D01*
X001227Y018470D01*
X001438Y018470D01*
X001508Y018540D01*
X001508Y018820D01*
X001438Y018890D01*
X001047Y018890D02*
X000767Y018890D01*
X000767Y018470D01*
X001047Y018470D01*
X000907Y018680D02*
X000767Y018680D01*
X000587Y018470D02*
X000307Y018470D01*
X000307Y018890D01*
X000307Y019970D02*
X000587Y019970D01*
X000767Y019970D02*
X001047Y019970D01*
X001227Y019970D02*
X001438Y019970D01*
X001508Y020040D01*
X001508Y020320D01*
X001438Y020390D01*
X001227Y020390D01*
X001227Y019970D01*
X001534Y019970D02*
X001675Y019970D01*
X001604Y019970D02*
X001604Y020390D01*
X001534Y020390D02*
X001675Y020390D01*
X001841Y020320D02*
X001911Y020390D01*
X002051Y020390D01*
X002122Y020320D01*
X002122Y020250D01*
X001841Y019970D01*
X002122Y019970D01*
X002148Y020040D02*
X002218Y019970D01*
X002358Y019970D01*
X002428Y020040D01*
X002428Y020110D01*
X002358Y020180D01*
X002218Y020180D01*
X002148Y020250D01*
X002148Y020320D01*
X002218Y020390D01*
X002358Y020390D01*
X002428Y020320D01*
X002372Y020390D02*
X002302Y020320D01*
X002302Y020040D01*
X002372Y019970D01*
X002512Y019970D01*
X002582Y020040D01*
X002609Y019970D02*
X002609Y020390D01*
X002749Y020250D01*
X002889Y020390D01*
X002889Y019970D01*
X002762Y019900D02*
X003042Y019900D01*
X003069Y019970D02*
X003279Y019970D01*
X003349Y020040D01*
X003349Y020320D01*
X003279Y020390D01*
X003069Y020390D01*
X003069Y019970D01*
X003222Y020040D02*
X003293Y019970D01*
X003433Y019970D01*
X003503Y020040D01*
X003503Y020110D01*
X003433Y020180D01*
X003293Y020180D01*
X003222Y020250D01*
X003222Y020320D01*
X003293Y020390D01*
X003433Y020390D01*
X003503Y020320D01*
X003529Y020180D02*
X003810Y020180D01*
X003683Y020040D02*
X003753Y019970D01*
X003893Y019970D01*
X003963Y020040D01*
X003990Y019970D02*
X004270Y019970D01*
X004143Y019970D02*
X004424Y019970D01*
X004450Y019970D02*
X004730Y020250D01*
X004730Y020320D01*
X004660Y020390D01*
X004520Y020390D01*
X004450Y020320D01*
X004143Y020390D02*
X004143Y019970D01*
X004130Y019970D02*
X004130Y020390D01*
X003990Y020250D01*
X003963Y020320D02*
X003893Y020390D01*
X003753Y020390D01*
X003683Y020320D01*
X003683Y020040D01*
X004450Y019970D02*
X004730Y019970D01*
X004911Y020040D02*
X005191Y020320D01*
X005191Y020040D01*
X005121Y019970D01*
X004981Y019970D01*
X004911Y020040D01*
X004911Y020320D01*
X004981Y020390D01*
X005121Y020390D01*
X005191Y020320D01*
X005371Y020180D02*
X005581Y020180D01*
X005651Y020110D01*
X005651Y020040D01*
X005581Y019970D01*
X005441Y019970D01*
X005371Y020040D01*
X005371Y020180D01*
X005511Y020320D01*
X005651Y020390D01*
X002979Y018890D02*
X002979Y018470D01*
X002889Y018470D02*
X002889Y018890D01*
X002839Y017390D02*
X003119Y017390D01*
X002979Y017390D02*
X002979Y016970D01*
X002659Y016970D02*
X002519Y017110D01*
X002589Y017110D02*
X002378Y017110D01*
X002378Y016970D02*
X002378Y017390D01*
X002589Y017390D01*
X002659Y017320D01*
X002659Y017180D01*
X002589Y017110D01*
X002198Y017180D02*
X001918Y017180D01*
X001918Y017250D02*
X002058Y017390D01*
X002198Y017250D01*
X002198Y016970D01*
X001918Y016970D02*
X001918Y017250D01*
X001738Y017390D02*
X001738Y017040D01*
X001668Y016970D01*
X001528Y016970D01*
X001458Y017040D01*
X001458Y017390D01*
X003299Y016900D02*
X003579Y016900D01*
X003900Y016970D02*
X003900Y017390D01*
X003760Y017390D02*
X004040Y017390D01*
X004220Y017390D02*
X004500Y016970D01*
X004220Y016970D02*
X004500Y017390D01*
X001968Y020180D02*
X001688Y020180D01*
X002372Y020390D02*
X002512Y020390D01*
X002582Y020320D01*
X001047Y020390D02*
X000767Y020390D01*
X000767Y019970D01*
X000767Y020180D02*
X000907Y020180D01*
X000307Y020390D02*
X000307Y019970D01*
D13*
X001779Y016680D02*
X011779Y016680D01*
X011779Y000680D01*
X001779Y000680D01*
X001779Y005180D01*
X001779Y012180D01*
X001779Y016680D01*
X006803Y020871D02*
X006803Y025989D01*
X009755Y025989D02*
X009755Y020871D01*
X012154Y021728D02*
X012229Y021653D01*
X012154Y021728D02*
X012154Y021878D01*
X012229Y021953D01*
X012304Y021953D01*
X012604Y021653D01*
X012604Y021953D01*
X012529Y022113D02*
X012229Y022414D01*
X012529Y022414D01*
X012604Y022339D01*
X012604Y022188D01*
X012529Y022113D01*
X012229Y022113D01*
X012154Y022188D01*
X012154Y022339D01*
X012229Y022414D01*
X012154Y022574D02*
X012304Y022724D01*
X012154Y022874D01*
X012604Y022874D01*
X012604Y023034D02*
X012154Y023034D01*
X012379Y023034D02*
X012379Y023334D01*
X012304Y023495D02*
X012304Y023795D01*
X012604Y023495D01*
X012604Y023795D01*
X012604Y023334D02*
X012154Y023334D01*
X012154Y022574D02*
X012604Y022574D01*
X014954Y023109D02*
X014954Y023259D01*
X015029Y023334D01*
X015329Y023334D01*
X015404Y023259D01*
X015404Y023109D01*
X015329Y023034D01*
X015029Y023034D01*
X014954Y023109D01*
X015254Y023184D02*
X015404Y023334D01*
X015404Y023495D02*
X015404Y023795D01*
X015404Y023645D02*
X014954Y023645D01*
X015104Y023495D01*
X015102Y024855D02*
X015252Y024855D01*
X015327Y024930D01*
X015327Y025230D01*
X015252Y025305D01*
X015102Y025305D01*
X015027Y025230D01*
X015027Y024930D01*
X015102Y024855D01*
X014867Y024855D02*
X014867Y025305D01*
X014717Y025155D01*
X014566Y025305D01*
X014566Y024855D01*
X014406Y025080D02*
X014106Y025080D01*
X013946Y025005D02*
X013946Y024930D01*
X013871Y024855D01*
X013646Y024855D01*
X013646Y025305D01*
X013871Y025305D01*
X013946Y025230D01*
X013946Y025155D01*
X013871Y025080D01*
X013646Y025080D01*
X013485Y025080D02*
X013410Y025005D01*
X013185Y025005D01*
X013185Y024855D02*
X013185Y025305D01*
X013410Y025305D01*
X013485Y025230D01*
X013485Y025080D01*
X013871Y025080D02*
X013946Y025005D01*
X013025Y025080D02*
X012725Y025080D01*
X012565Y024855D02*
X012565Y025305D01*
X012264Y025305D02*
X012264Y024855D01*
X012415Y025005D01*
X012565Y024855D01*
X012104Y024930D02*
X012029Y024855D01*
X011879Y024855D01*
X011804Y024930D01*
X011879Y025080D02*
X011804Y025155D01*
X011804Y025230D01*
X011879Y025305D01*
X012029Y025305D01*
X012104Y025230D01*
X012029Y025080D02*
X012104Y025005D01*
X012104Y024930D01*
X012029Y025080D02*
X011879Y025080D01*
X011779Y027930D02*
X011779Y028930D01*
X011879Y029055D02*
X011804Y029130D01*
X011879Y029055D02*
X012029Y029055D01*
X012104Y029130D01*
X012104Y029205D01*
X012029Y029280D01*
X011879Y029280D01*
X011804Y029355D01*
X011804Y029430D01*
X011879Y029505D01*
X012029Y029505D01*
X012104Y029430D01*
X012264Y029505D02*
X012264Y029055D01*
X012415Y029205D01*
X012565Y029055D01*
X012565Y029505D01*
X012725Y029430D02*
X012725Y029130D01*
X013025Y029430D01*
X013025Y029130D01*
X012950Y029055D01*
X012800Y029055D01*
X012725Y029130D01*
X012725Y029430D02*
X012800Y029505D01*
X012950Y029505D01*
X013025Y029430D01*
X013279Y028930D02*
X013279Y027930D01*
X015487Y025305D02*
X015637Y025155D01*
X015787Y025305D01*
X015787Y024855D01*
X015487Y024855D02*
X015487Y025305D01*
X018789Y028724D02*
X018864Y028724D01*
X018939Y028799D01*
X018939Y028949D01*
X019014Y029024D01*
X019089Y029024D01*
X019164Y028949D01*
X019164Y028799D01*
X019089Y028724D01*
X018789Y028724D02*
X018714Y028799D01*
X018714Y028949D01*
X018789Y029024D01*
X018714Y029184D02*
X019164Y029184D01*
X019164Y029484D01*
X019164Y029645D02*
X018864Y029945D01*
X018789Y029945D01*
X018714Y029870D01*
X018714Y029720D01*
X018789Y029645D01*
X019164Y029645D02*
X019164Y029945D01*
X018151Y029505D02*
X017924Y029505D01*
X018037Y029505D02*
X018037Y029845D01*
X017924Y029732D01*
X030529Y031357D02*
X033088Y031357D01*
X033088Y011672D01*
X030529Y011672D01*
X030529Y031357D01*
X030612Y031672D02*
X040726Y031672D01*
X040726Y009271D01*
X030612Y009271D01*
X030612Y031672D01*
X033088Y031357D02*
X040372Y031357D01*
X040372Y011672D01*
X033088Y011672D01*
X030154Y010395D02*
X029704Y010395D01*
X029704Y010245D02*
X029704Y010545D01*
X029704Y010084D02*
X030154Y010084D01*
X029929Y010084D02*
X029929Y009784D01*
X029929Y009624D02*
X029929Y009474D01*
X029929Y009624D02*
X030079Y009624D01*
X030154Y009549D01*
X030154Y009399D01*
X030079Y009324D01*
X029779Y009324D01*
X029704Y009399D01*
X029704Y009549D01*
X029779Y009624D01*
X029704Y009784D02*
X030154Y009784D01*
X030154Y009167D02*
X030154Y009017D01*
X030154Y009092D02*
X029704Y009092D01*
X029704Y009017D02*
X029704Y009167D01*
X030154Y008857D02*
X030154Y008556D01*
X029704Y008556D01*
X029704Y008396D02*
X030004Y008096D01*
X029929Y008171D02*
X030154Y008396D01*
X030154Y008096D02*
X029704Y008096D01*
X029779Y007936D02*
X029704Y007861D01*
X029704Y007711D01*
X029779Y007636D01*
X030079Y007636D01*
X030154Y007711D01*
X030154Y007861D01*
X030079Y007936D01*
X030154Y007476D02*
X029854Y007476D01*
X029704Y007325D01*
X029854Y007175D01*
X030154Y007175D01*
X030079Y007015D02*
X030154Y006940D01*
X030154Y006715D01*
X029704Y006715D01*
X029704Y006940D01*
X029779Y007015D01*
X029854Y007015D01*
X029929Y006940D01*
X029929Y006715D01*
X029929Y006940D02*
X030004Y007015D01*
X030079Y007015D01*
X029929Y007175D02*
X029929Y007476D01*
X028354Y007943D02*
X027904Y007943D01*
X028054Y008093D01*
X027904Y008243D01*
X028354Y008243D01*
X028354Y008403D02*
X028054Y008403D01*
X027904Y008553D01*
X028054Y008703D01*
X028354Y008703D01*
X028279Y008863D02*
X027979Y009164D01*
X028279Y009164D01*
X028354Y009089D01*
X028354Y008938D01*
X028279Y008863D01*
X027979Y008863D01*
X027904Y008938D01*
X027904Y009089D01*
X027979Y009164D01*
X027979Y009324D02*
X027904Y009399D01*
X027904Y009549D01*
X027979Y009624D01*
X028054Y009624D01*
X028354Y009324D01*
X028354Y009624D01*
X028129Y009784D02*
X028129Y010084D01*
X028054Y010245D02*
X027904Y010395D01*
X028354Y010395D01*
X028354Y010245D02*
X028354Y010545D01*
X028129Y008703D02*
X028129Y008403D01*
X022769Y016305D02*
X022844Y016380D01*
X022844Y016530D01*
X022769Y016605D01*
X022694Y016605D01*
X022619Y016530D01*
X022619Y016380D01*
X022544Y016305D01*
X022469Y016305D01*
X022394Y016380D01*
X022394Y016530D01*
X022469Y016605D01*
X022394Y016765D02*
X022844Y016765D01*
X022844Y017066D01*
X022844Y017226D02*
X022844Y017526D01*
X022844Y017376D02*
X022394Y017376D01*
X022544Y017226D01*
X023325Y016742D02*
X023438Y016855D01*
X023438Y016515D01*
X023325Y016515D02*
X023552Y016515D01*
X007779Y012180D02*
X007779Y005180D01*
X001779Y005180D01*
X001779Y012180D02*
X007779Y012180D01*
D14*
X017529Y016680D03*
X017529Y017680D03*
X017529Y018680D03*
X017529Y019680D03*
X017529Y020680D03*
X017529Y021680D03*
X017529Y022680D03*
X017529Y023680D03*
X017529Y024680D03*
X017529Y025680D03*
X017529Y026680D03*
X017529Y027680D03*
X017529Y028680D03*
X017529Y029680D03*
X024029Y029680D03*
X024029Y028680D03*
X024029Y027680D03*
X024029Y026680D03*
X024029Y025680D03*
X024029Y024680D03*
X024029Y023680D03*
X024029Y022680D03*
X024029Y021680D03*
X024029Y020680D03*
X024029Y019680D03*
X024029Y018680D03*
X024029Y017680D03*
X024029Y016680D03*
D15*
X021348Y010757D02*
X021034Y010443D01*
X021348Y010757D01*
X021348Y010600D02*
X021034Y010600D01*
X021348Y010600D01*
X021348Y010443D02*
X021034Y010757D01*
X021348Y010443D01*
X021191Y010443D02*
X021191Y010757D01*
X021191Y010443D01*
X024034Y007257D02*
X024348Y006943D01*
X024034Y007257D01*
X024034Y007100D02*
X024348Y007100D01*
X024034Y007100D01*
X024034Y006943D02*
X024348Y007257D01*
X024034Y006943D01*
X024191Y006943D02*
X024191Y007257D01*
X024191Y006943D01*
X015524Y013853D02*
X015210Y014167D01*
X015524Y013853D01*
X015367Y013853D02*
X015367Y014167D01*
X015367Y013853D01*
X015210Y013853D02*
X015524Y014167D01*
X015210Y013853D01*
X015210Y014010D02*
X015524Y014010D01*
X015210Y014010D01*
X008923Y020357D02*
X008861Y020295D01*
X008737Y020295D01*
X008676Y020357D01*
X008799Y020480D02*
X008861Y020480D01*
X008923Y020418D01*
X008923Y020357D01*
X008861Y020480D02*
X008923Y020542D01*
X008923Y020604D01*
X008861Y020665D01*
X008737Y020665D01*
X008676Y020604D01*
X008554Y020604D02*
X008307Y020357D01*
X008307Y020295D01*
X008186Y020357D02*
X008124Y020295D01*
X008001Y020295D01*
X007939Y020357D01*
X007818Y020357D02*
X007756Y020295D01*
X007632Y020295D01*
X007571Y020357D01*
X007571Y020604D01*
X007632Y020665D01*
X007756Y020665D01*
X007818Y020604D01*
X007939Y020665D02*
X007939Y020480D01*
X008063Y020542D01*
X008124Y020542D01*
X008186Y020480D01*
X008186Y020357D01*
X008186Y020665D02*
X007939Y020665D01*
X008307Y020665D02*
X008554Y020665D01*
X008554Y020604D01*
X007449Y020665D02*
X007449Y020295D01*
X007449Y020480D02*
X007202Y020480D01*
X007081Y020480D02*
X006834Y020480D01*
X007019Y020665D01*
X007019Y020295D01*
X007202Y020295D02*
X007202Y020665D01*
X006713Y020665D02*
X006713Y020604D01*
X006466Y020357D01*
X006466Y020295D01*
X006466Y020665D02*
X006713Y020665D01*
D16*
X006803Y020871D02*
X009755Y020871D01*
X008594Y021186D02*
X008596Y021204D01*
X008602Y021220D01*
X008611Y021235D01*
X008624Y021248D01*
X008639Y021257D01*
X008655Y021263D01*
X008673Y021265D01*
X008691Y021263D01*
X008707Y021257D01*
X008722Y021248D01*
X008735Y021235D01*
X008744Y021220D01*
X008750Y021204D01*
X008752Y021186D01*
X008750Y021168D01*
X008744Y021152D01*
X008735Y021137D01*
X008722Y021124D01*
X008707Y021115D01*
X008691Y021109D01*
X008673Y021107D01*
X008655Y021109D01*
X008639Y021115D01*
X008624Y021124D01*
X008611Y021137D01*
X008602Y021152D01*
X008596Y021168D01*
X008594Y021186D01*
X004529Y021430D02*
X004279Y021430D01*
X004029Y021430D01*
X004279Y021430D02*
X004279Y021180D01*
X004279Y021430D02*
X004279Y021680D01*
X004279Y022680D02*
X004279Y022930D01*
X004529Y022930D01*
X004279Y022930D02*
X004279Y023180D01*
X004279Y022930D02*
X004029Y022930D01*
X004279Y024180D02*
X004279Y024430D01*
X004529Y024430D01*
X004279Y024430D02*
X004029Y024430D01*
X004279Y024430D02*
X004279Y024680D01*
X004279Y025680D02*
X004279Y025930D01*
X004529Y025930D01*
X004279Y025930D02*
X004279Y026180D01*
X004279Y025930D02*
X004029Y025930D01*
X004279Y027180D02*
X004279Y027430D01*
X004529Y027430D01*
X004279Y027430D02*
X004279Y027680D01*
X004279Y027430D02*
X004029Y027430D01*
X004279Y028680D02*
X004279Y028930D01*
X004529Y028930D01*
X004279Y028930D02*
X004029Y028930D01*
X004279Y028930D02*
X004279Y029180D01*
X006803Y025989D02*
X009755Y025989D01*
X008629Y026630D02*
X008629Y026930D01*
X008629Y027230D01*
X008429Y027230D02*
X008429Y026930D01*
X008429Y026630D01*
X014179Y024980D02*
X014179Y024680D01*
X014179Y024380D01*
X014379Y024380D02*
X014379Y024680D01*
X014379Y024980D01*
X015679Y025630D02*
X015679Y025930D01*
X015679Y026230D01*
X015879Y026230D02*
X015879Y025930D01*
X015879Y025630D01*
X015379Y028130D02*
X015379Y028430D01*
X015379Y028730D01*
X015179Y028730D02*
X015179Y028430D01*
X015179Y028130D01*
X015479Y021280D02*
X015779Y021280D01*
X016079Y021280D01*
X016079Y021080D02*
X015779Y021080D01*
X015479Y021080D01*
X015129Y016980D02*
X015129Y016680D01*
X015129Y016380D01*
X014929Y016380D02*
X014929Y016680D01*
X014929Y016980D01*
X012329Y015030D02*
X012029Y015030D01*
X011729Y015030D01*
X011729Y014830D02*
X012029Y014830D01*
X012329Y014830D01*
X004529Y018430D02*
X004279Y018430D01*
X004029Y018430D01*
X004279Y018430D02*
X004279Y018180D01*
X004279Y018430D02*
X004279Y018680D01*
X004279Y019680D02*
X004279Y019930D01*
X004529Y019930D01*
X004279Y019930D02*
X004029Y019930D01*
X004279Y019930D02*
X004279Y020180D01*
X019429Y008480D02*
X019429Y008180D01*
X019429Y007880D01*
X019629Y007880D02*
X019629Y008180D01*
X019629Y008480D01*
X022979Y006280D02*
X023279Y006280D01*
X023579Y006280D01*
X023579Y006080D02*
X023279Y006080D01*
X022979Y006080D01*
X026979Y007080D02*
X027279Y007080D01*
X027579Y007080D01*
X027579Y007280D02*
X027279Y007280D01*
X026979Y007280D01*
X025079Y009080D02*
X024779Y009080D01*
X024479Y009080D01*
X024479Y009280D02*
X024779Y009280D01*
X025079Y009280D01*
X025929Y021380D02*
X025929Y021680D01*
X025929Y021980D01*
X026129Y021980D02*
X026129Y021680D01*
X026129Y021380D01*
X029479Y021830D02*
X029779Y021830D01*
X030079Y021830D01*
X030079Y022030D02*
X029779Y022030D01*
X029479Y022030D01*
X029479Y023580D02*
X029779Y023580D01*
X030079Y023580D01*
X030079Y023780D02*
X029779Y023780D01*
X029479Y023780D01*
D17*
X032517Y022682D02*
X032517Y022529D01*
X032594Y022452D01*
X032594Y022299D02*
X032517Y022222D01*
X032517Y022069D01*
X032594Y021992D01*
X032671Y021992D01*
X032747Y022069D01*
X032747Y022222D01*
X032824Y022299D01*
X032901Y022299D01*
X032978Y022222D01*
X032978Y022069D01*
X032901Y021992D01*
X032901Y021838D02*
X032517Y021838D01*
X032517Y021531D02*
X032901Y021531D01*
X032978Y021608D01*
X032978Y021762D01*
X032901Y021838D01*
X033054Y022145D02*
X032440Y022145D01*
X032978Y022452D02*
X032671Y022759D01*
X032594Y022759D01*
X032517Y022682D01*
X032978Y022759D02*
X032978Y022452D01*
X033125Y030590D02*
X033048Y030666D01*
X033355Y030973D01*
X033355Y030666D01*
X033278Y030590D01*
X033125Y030590D01*
X033048Y030666D02*
X033048Y030973D01*
X033125Y031050D01*
X033278Y031050D01*
X033355Y030973D01*
X033508Y030973D02*
X033585Y031050D01*
X033738Y031050D01*
X033815Y030973D01*
X033815Y030897D01*
X033508Y030590D01*
X033815Y030590D01*
X033969Y030590D02*
X034276Y030590D01*
X034122Y030590D02*
X034122Y031050D01*
X033969Y030897D01*
X034429Y030820D02*
X034659Y030820D01*
X034736Y030743D01*
X034736Y030666D01*
X034659Y030590D01*
X034506Y030590D01*
X034429Y030666D01*
X034429Y030820D01*
X034582Y030973D01*
X034736Y031050D01*
X034889Y030973D02*
X034889Y030666D01*
X034966Y030590D01*
X035120Y030590D01*
X035196Y030666D01*
X035350Y030590D02*
X035503Y030590D01*
X035427Y030590D02*
X035427Y031050D01*
X035503Y031050D02*
X035350Y031050D01*
X035196Y030973D02*
X035120Y031050D01*
X034966Y031050D01*
X034889Y030973D01*
X035657Y031050D02*
X035964Y031050D01*
X035964Y030973D01*
X035657Y030666D01*
X035657Y030590D01*
X035964Y030590D01*
X036117Y030820D02*
X036424Y030820D01*
X036578Y030820D02*
X036731Y030820D01*
X036578Y031050D02*
X036884Y031050D01*
X037038Y031050D02*
X037345Y030590D01*
X037345Y031050D01*
X037498Y030820D02*
X037805Y030820D01*
X037959Y030820D02*
X038112Y030820D01*
X037959Y031050D02*
X038266Y031050D01*
X038419Y031050D02*
X038649Y031050D01*
X038726Y030973D01*
X038726Y030897D01*
X038649Y030820D01*
X038419Y030820D01*
X038419Y030590D02*
X038419Y031050D01*
X038649Y030820D02*
X038726Y030743D01*
X038726Y030666D01*
X038649Y030590D01*
X038419Y030590D01*
X037959Y030590D02*
X037959Y031050D01*
X038879Y031050D02*
X038879Y030590D01*
X039033Y030743D01*
X039186Y030590D01*
X039186Y031050D01*
X039340Y030820D02*
X039647Y030820D01*
X039800Y030973D02*
X039877Y031050D01*
X040030Y031050D01*
X040107Y030973D01*
X040107Y030897D01*
X040030Y030820D01*
X040107Y030743D01*
X040107Y030666D01*
X040030Y030590D01*
X039877Y030590D01*
X039800Y030666D01*
X039954Y030820D02*
X040030Y030820D01*
X040261Y030743D02*
X040261Y031050D01*
X040568Y031050D02*
X040568Y030743D01*
X040414Y030590D01*
X040261Y030743D01*
X037038Y030590D02*
X037038Y031050D01*
X036578Y031050D02*
X036578Y030590D01*
X032894Y030666D02*
X032818Y030590D01*
X032664Y030590D01*
X032587Y030666D01*
X032587Y030973D01*
X032664Y031050D01*
X032818Y031050D01*
X032894Y030973D01*
X032434Y030820D02*
X032127Y030820D01*
X031974Y030973D02*
X031974Y030666D01*
X031897Y030590D01*
X031667Y030590D01*
X031667Y031050D01*
X031897Y031050D01*
X031974Y030973D01*
X031513Y031050D02*
X031513Y030590D01*
X031513Y030820D02*
X031206Y030820D01*
X031206Y030590D02*
X031206Y031050D01*
X031053Y031050D02*
X031053Y030590D01*
X030746Y031050D01*
X030746Y030590D01*
X011259Y017071D02*
X011259Y016764D01*
X011259Y016918D02*
X010799Y016918D01*
X010952Y016764D01*
X011029Y016611D02*
X011029Y016304D01*
X011029Y016150D02*
X011029Y015844D01*
X010952Y015844D02*
X010799Y015997D01*
X010952Y016150D01*
X011259Y016150D01*
X011259Y015844D02*
X010952Y015844D01*
X010799Y015690D02*
X011259Y015690D01*
X011259Y015383D02*
X010799Y015383D01*
X010952Y015537D01*
X010799Y015690D01*
X010875Y015230D02*
X011182Y014923D01*
X011259Y014999D01*
X011259Y015153D01*
X011182Y015230D01*
X010875Y015230D01*
X010799Y015153D01*
X010799Y014999D01*
X010875Y014923D01*
X011182Y014923D01*
X011029Y014769D02*
X011029Y014462D01*
X010799Y014693D01*
X011259Y014693D01*
X011182Y014232D02*
X010799Y014232D01*
X010799Y014155D02*
X010799Y014309D01*
X011182Y014232D02*
X011259Y014155D01*
X011259Y014079D01*
X011182Y014002D01*
X011029Y013848D02*
X011029Y013542D01*
X010799Y013772D01*
X011259Y013772D01*
X011259Y013388D02*
X011259Y013081D01*
X010952Y013388D01*
X010875Y013388D01*
X010799Y013311D01*
X010799Y013158D01*
X010875Y013081D01*
X010799Y012928D02*
X010799Y012621D01*
X011259Y012621D01*
X011259Y012467D02*
X011106Y012314D01*
X011106Y012391D02*
X011106Y012160D01*
X011259Y012160D02*
X010799Y012160D01*
X010799Y012391D01*
X010875Y012467D01*
X011029Y012467D01*
X011106Y012391D01*
X011029Y012621D02*
X011029Y012774D01*
X010799Y012007D02*
X011259Y012007D01*
X011259Y011700D02*
X010799Y011700D01*
X010952Y011853D01*
X010799Y012007D01*
X007759Y014277D02*
X007682Y014200D01*
X007759Y014277D02*
X007759Y014430D01*
X007682Y014507D01*
X007606Y014507D01*
X007529Y014430D01*
X007529Y014277D01*
X007452Y014200D01*
X007375Y014200D01*
X007299Y014277D01*
X007299Y014430D01*
X007375Y014507D01*
X007299Y014660D02*
X007759Y014660D01*
X007759Y014891D01*
X007682Y014967D01*
X007375Y014967D01*
X007299Y014891D01*
X007299Y014660D01*
X006759Y014737D02*
X006759Y014891D01*
X006682Y014967D01*
X006606Y014967D01*
X006529Y014891D01*
X006529Y014737D01*
X006452Y014660D01*
X006375Y014660D01*
X006299Y014737D01*
X006299Y014891D01*
X006375Y014967D01*
X006682Y014660D02*
X006759Y014737D01*
X006682Y014507D02*
X006759Y014430D01*
X006759Y014277D01*
X006682Y014200D01*
X006375Y014200D01*
X006299Y014277D01*
X006299Y014430D01*
X006375Y014507D01*
X005759Y014507D02*
X005299Y014507D01*
X005375Y014660D02*
X005299Y014737D01*
X005299Y014891D01*
X005375Y014967D01*
X005375Y014660D02*
X005682Y014660D01*
X005759Y014737D01*
X005759Y014891D01*
X005682Y014967D01*
X005759Y014507D02*
X005299Y014200D01*
X005759Y014200D01*
X004759Y014353D02*
X004606Y014507D01*
X004299Y014507D01*
X004452Y014660D02*
X004452Y014737D01*
X004759Y014737D01*
X004759Y014660D02*
X004759Y014814D01*
X004759Y014967D02*
X004452Y014967D01*
X004452Y015198D01*
X004529Y015274D01*
X004759Y015274D01*
X004299Y014737D02*
X004222Y014737D01*
X003759Y014660D02*
X003299Y014660D01*
X003759Y014967D01*
X003299Y014967D01*
X003299Y015121D02*
X003299Y015351D01*
X003375Y015428D01*
X003682Y015428D01*
X003759Y015351D01*
X003759Y015121D01*
X003299Y015121D01*
X002759Y015121D02*
X002759Y015351D01*
X002682Y015428D01*
X002375Y015428D01*
X002299Y015351D01*
X002299Y015121D01*
X002759Y015121D01*
X002759Y014967D02*
X002299Y014967D01*
X002299Y014660D02*
X002759Y014967D01*
X002759Y014660D02*
X002299Y014660D01*
X002375Y014507D02*
X002299Y014430D01*
X002299Y014277D01*
X002375Y014200D01*
X002682Y014200D01*
X002759Y014277D01*
X002759Y014430D01*
X002682Y014507D01*
X002529Y014507D01*
X002529Y014353D01*
X003299Y014277D02*
X003375Y014200D01*
X003682Y014200D01*
X003759Y014277D01*
X003759Y014430D01*
X003682Y014507D01*
X003529Y014507D01*
X003529Y014353D01*
X003375Y014507D02*
X003299Y014430D01*
X003299Y014277D01*
X004299Y014200D02*
X004606Y014200D01*
X004759Y014353D01*
X007299Y015198D02*
X007375Y015121D01*
X007682Y015121D01*
X007759Y015198D01*
X007759Y015351D01*
X007682Y015428D01*
X007375Y015428D01*
X007299Y015351D01*
X007299Y015198D01*
X003403Y017615D02*
X002655Y017615D01*
X002429Y017713D02*
X002431Y017725D01*
X002436Y017736D01*
X002445Y017745D01*
X002456Y017750D01*
X002468Y017752D01*
X002480Y017750D01*
X002491Y017745D01*
X002500Y017736D01*
X002505Y017725D01*
X002507Y017713D01*
X002505Y017701D01*
X002500Y017690D01*
X002491Y017681D01*
X002480Y017676D01*
X002468Y017674D01*
X002456Y017676D01*
X002445Y017681D01*
X002436Y017690D01*
X002431Y017701D01*
X002429Y017713D01*
X002399Y017772D02*
X002423Y017776D01*
X002445Y017782D01*
X002467Y017793D01*
X002487Y017806D01*
X002504Y017822D01*
X002519Y017840D01*
X002531Y017861D01*
X002540Y017883D01*
X002545Y017906D01*
X002547Y017930D01*
X002545Y017954D01*
X002540Y017977D01*
X002531Y017999D01*
X002519Y018020D01*
X002504Y018038D01*
X002487Y018054D01*
X002467Y018067D01*
X002445Y018078D01*
X002423Y018084D01*
X002399Y018088D01*
X002655Y018245D02*
X003403Y018245D01*
X003403Y019115D02*
X002655Y019115D01*
X002429Y019213D02*
X002431Y019225D01*
X002436Y019236D01*
X002445Y019245D01*
X002456Y019250D01*
X002468Y019252D01*
X002480Y019250D01*
X002491Y019245D01*
X002500Y019236D01*
X002505Y019225D01*
X002507Y019213D01*
X002505Y019201D01*
X002500Y019190D01*
X002491Y019181D01*
X002480Y019176D01*
X002468Y019174D01*
X002456Y019176D01*
X002445Y019181D01*
X002436Y019190D01*
X002431Y019201D01*
X002429Y019213D01*
X002399Y019272D02*
X002423Y019276D01*
X002445Y019282D01*
X002467Y019293D01*
X002487Y019306D01*
X002504Y019322D01*
X002519Y019340D01*
X002531Y019361D01*
X002540Y019383D01*
X002545Y019406D01*
X002547Y019430D01*
X002545Y019454D01*
X002540Y019477D01*
X002531Y019499D01*
X002519Y019520D01*
X002504Y019538D01*
X002487Y019554D01*
X002467Y019567D01*
X002445Y019578D01*
X002423Y019584D01*
X002399Y019588D01*
X002655Y019745D02*
X003403Y019745D01*
X003403Y020615D02*
X002655Y020615D01*
X002429Y020713D02*
X002431Y020725D01*
X002436Y020736D01*
X002445Y020745D01*
X002456Y020750D01*
X002468Y020752D01*
X002480Y020750D01*
X002491Y020745D01*
X002500Y020736D01*
X002505Y020725D01*
X002507Y020713D01*
X002505Y020701D01*
X002500Y020690D01*
X002491Y020681D01*
X002480Y020676D01*
X002468Y020674D01*
X002456Y020676D01*
X002445Y020681D01*
X002436Y020690D01*
X002431Y020701D01*
X002429Y020713D01*
X002399Y020772D02*
X002423Y020776D01*
X002445Y020782D01*
X002467Y020793D01*
X002487Y020806D01*
X002504Y020822D01*
X002519Y020840D01*
X002531Y020861D01*
X002540Y020883D01*
X002545Y020906D01*
X002547Y020930D01*
X002545Y020954D01*
X002540Y020977D01*
X002531Y020999D01*
X002519Y021020D01*
X002504Y021038D01*
X002487Y021054D01*
X002467Y021067D01*
X002445Y021078D01*
X002423Y021084D01*
X002399Y021088D01*
X002655Y021245D02*
X003403Y021245D01*
X003403Y022115D02*
X002655Y022115D01*
X002429Y022213D02*
X002431Y022225D01*
X002436Y022236D01*
X002445Y022245D01*
X002456Y022250D01*
X002468Y022252D01*
X002480Y022250D01*
X002491Y022245D01*
X002500Y022236D01*
X002505Y022225D01*
X002507Y022213D01*
X002505Y022201D01*
X002500Y022190D01*
X002491Y022181D01*
X002480Y022176D01*
X002468Y022174D01*
X002456Y022176D01*
X002445Y022181D01*
X002436Y022190D01*
X002431Y022201D01*
X002429Y022213D01*
X002399Y022272D02*
X002423Y022276D01*
X002445Y022282D01*
X002467Y022293D01*
X002487Y022306D01*
X002504Y022322D01*
X002519Y022340D01*
X002531Y022361D01*
X002540Y022383D01*
X002545Y022406D01*
X002547Y022430D01*
X002545Y022454D01*
X002540Y022477D01*
X002531Y022499D01*
X002519Y022520D01*
X002504Y022538D01*
X002487Y022554D01*
X002467Y022567D01*
X002445Y022578D01*
X002423Y022584D01*
X002399Y022588D01*
X002655Y022745D02*
X003403Y022745D01*
X003403Y023615D02*
X002655Y023615D01*
X002429Y023713D02*
X002431Y023725D01*
X002436Y023736D01*
X002445Y023745D01*
X002456Y023750D01*
X002468Y023752D01*
X002480Y023750D01*
X002491Y023745D01*
X002500Y023736D01*
X002505Y023725D01*
X002507Y023713D01*
X002505Y023701D01*
X002500Y023690D01*
X002491Y023681D01*
X002480Y023676D01*
X002468Y023674D01*
X002456Y023676D01*
X002445Y023681D01*
X002436Y023690D01*
X002431Y023701D01*
X002429Y023713D01*
X002399Y023772D02*
X002423Y023776D01*
X002445Y023782D01*
X002467Y023793D01*
X002487Y023806D01*
X002504Y023822D01*
X002519Y023840D01*
X002531Y023861D01*
X002540Y023883D01*
X002545Y023906D01*
X002547Y023930D01*
X002545Y023954D01*
X002540Y023977D01*
X002531Y023999D01*
X002519Y024020D01*
X002504Y024038D01*
X002487Y024054D01*
X002467Y024067D01*
X002445Y024078D01*
X002423Y024084D01*
X002399Y024088D01*
X002655Y024245D02*
X003403Y024245D01*
X003403Y025115D02*
X002655Y025115D01*
X002429Y025213D02*
X002431Y025225D01*
X002436Y025236D01*
X002445Y025245D01*
X002456Y025250D01*
X002468Y025252D01*
X002480Y025250D01*
X002491Y025245D01*
X002500Y025236D01*
X002505Y025225D01*
X002507Y025213D01*
X002505Y025201D01*
X002500Y025190D01*
X002491Y025181D01*
X002480Y025176D01*
X002468Y025174D01*
X002456Y025176D01*
X002445Y025181D01*
X002436Y025190D01*
X002431Y025201D01*
X002429Y025213D01*
X002399Y025272D02*
X002423Y025276D01*
X002445Y025282D01*
X002467Y025293D01*
X002487Y025306D01*
X002504Y025322D01*
X002519Y025340D01*
X002531Y025361D01*
X002540Y025383D01*
X002545Y025406D01*
X002547Y025430D01*
X002545Y025454D01*
X002540Y025477D01*
X002531Y025499D01*
X002519Y025520D01*
X002504Y025538D01*
X002487Y025554D01*
X002467Y025567D01*
X002445Y025578D01*
X002423Y025584D01*
X002399Y025588D01*
X002655Y025745D02*
X003403Y025745D01*
X003403Y026615D02*
X002655Y026615D01*
X002429Y026713D02*
X002431Y026725D01*
X002436Y026736D01*
X002445Y026745D01*
X002456Y026750D01*
X002468Y026752D01*
X002480Y026750D01*
X002491Y026745D01*
X002500Y026736D01*
X002505Y026725D01*
X002507Y026713D01*
X002505Y026701D01*
X002500Y026690D01*
X002491Y026681D01*
X002480Y026676D01*
X002468Y026674D01*
X002456Y026676D01*
X002445Y026681D01*
X002436Y026690D01*
X002431Y026701D01*
X002429Y026713D01*
X002399Y026772D02*
X002423Y026776D01*
X002445Y026782D01*
X002467Y026793D01*
X002487Y026806D01*
X002504Y026822D01*
X002519Y026840D01*
X002531Y026861D01*
X002540Y026883D01*
X002545Y026906D01*
X002547Y026930D01*
X002545Y026954D01*
X002540Y026977D01*
X002531Y026999D01*
X002519Y027020D01*
X002504Y027038D01*
X002487Y027054D01*
X002467Y027067D01*
X002445Y027078D01*
X002423Y027084D01*
X002399Y027088D01*
X002655Y027245D02*
X003403Y027245D01*
X003403Y028115D02*
X002655Y028115D01*
X002429Y028213D02*
X002431Y028225D01*
X002436Y028236D01*
X002445Y028245D01*
X002456Y028250D01*
X002468Y028252D01*
X002480Y028250D01*
X002491Y028245D01*
X002500Y028236D01*
X002505Y028225D01*
X002507Y028213D01*
X002505Y028201D01*
X002500Y028190D01*
X002491Y028181D01*
X002480Y028176D01*
X002468Y028174D01*
X002456Y028176D01*
X002445Y028181D01*
X002436Y028190D01*
X002431Y028201D01*
X002429Y028213D01*
X002399Y028272D02*
X002423Y028276D01*
X002445Y028282D01*
X002467Y028293D01*
X002487Y028306D01*
X002504Y028322D01*
X002519Y028340D01*
X002531Y028361D01*
X002540Y028383D01*
X002545Y028406D01*
X002547Y028430D01*
X002545Y028454D01*
X002540Y028477D01*
X002531Y028499D01*
X002519Y028520D01*
X002504Y028538D01*
X002487Y028554D01*
X002467Y028567D01*
X002445Y028578D01*
X002423Y028584D01*
X002399Y028588D01*
X002655Y028745D02*
X003403Y028745D01*
X006049Y028360D02*
X006049Y027900D01*
X006356Y027900D01*
X006509Y027900D02*
X006509Y028360D01*
X006663Y028207D01*
X006816Y028360D01*
X006816Y027900D01*
X006970Y027977D02*
X007047Y027900D01*
X007200Y027900D01*
X007277Y027977D01*
X007277Y028130D01*
X007200Y028207D01*
X007123Y028207D01*
X006970Y028130D01*
X006970Y028360D01*
X007277Y028360D01*
X007430Y028360D02*
X007430Y028130D01*
X007584Y028207D01*
X007660Y028207D01*
X007737Y028130D01*
X007737Y027977D01*
X007660Y027900D01*
X007507Y027900D01*
X007430Y027977D01*
X007430Y028360D02*
X007737Y028360D01*
X007891Y028360D02*
X007891Y028130D01*
X008044Y028207D01*
X008121Y028207D01*
X008198Y028130D01*
X008198Y027977D01*
X008121Y027900D01*
X007967Y027900D01*
X007891Y027977D01*
X007891Y028360D02*
X008198Y028360D01*
X008351Y028360D02*
X008581Y028360D01*
X008658Y028284D01*
X008658Y027977D01*
X008581Y027900D01*
X008351Y027900D01*
X008351Y028360D01*
X007123Y030500D02*
X006816Y030500D01*
X006970Y030500D02*
X006970Y030960D01*
X006816Y030807D01*
X006663Y030884D02*
X006586Y030960D01*
X006433Y030960D01*
X006356Y030884D01*
X006356Y030577D01*
X006433Y030500D01*
X006586Y030500D01*
X006663Y030577D01*
X006202Y030500D02*
X006049Y030500D01*
X006126Y030500D02*
X006126Y030960D01*
X006202Y030960D02*
X006049Y030960D01*
X014492Y013084D02*
X014492Y012777D01*
X014339Y012930D02*
X014646Y012930D01*
X014646Y007430D02*
X014339Y007430D01*
X007759Y003928D02*
X007529Y003698D01*
X007606Y003621D02*
X007299Y003928D01*
X007299Y003621D02*
X007759Y003621D01*
X007682Y003467D02*
X007759Y003391D01*
X007759Y003237D01*
X007682Y003160D01*
X007375Y003160D01*
X007299Y003237D01*
X007299Y003391D01*
X007375Y003467D01*
X007375Y003007D02*
X007299Y002930D01*
X007299Y002777D01*
X007375Y002700D01*
X007452Y002700D01*
X007529Y002777D01*
X007529Y002930D01*
X007606Y003007D01*
X007682Y003007D01*
X007759Y002930D01*
X007759Y002777D01*
X007682Y002700D01*
X006759Y003277D02*
X006682Y003200D01*
X006759Y003277D02*
X006759Y003430D01*
X006682Y003507D01*
X006606Y003507D01*
X006529Y003430D01*
X006529Y003277D01*
X006452Y003200D01*
X006375Y003200D01*
X006299Y003277D01*
X006299Y003430D01*
X006375Y003507D01*
X006299Y003660D02*
X006299Y003891D01*
X006375Y003967D01*
X006682Y003967D01*
X006759Y003891D01*
X006759Y003660D01*
X006299Y003660D01*
X006299Y004121D02*
X006299Y004274D01*
X006299Y004198D02*
X006759Y004198D01*
X006759Y004274D02*
X006759Y004121D01*
X005759Y004121D02*
X005299Y004121D01*
X005299Y004274D02*
X005299Y003967D01*
X005299Y003814D02*
X005759Y003814D01*
X005299Y003507D01*
X005759Y003507D01*
X005759Y003353D02*
X005759Y003200D01*
X005759Y003277D02*
X005299Y003277D01*
X005299Y003353D02*
X005299Y003200D01*
X004759Y003121D02*
X004299Y003121D01*
X004452Y002967D02*
X004759Y002967D01*
X004606Y003121D02*
X004299Y003428D01*
X004299Y003581D02*
X004759Y003581D01*
X004759Y003888D01*
X004529Y003735D02*
X004529Y003581D01*
X004299Y003581D02*
X004299Y003888D01*
X003759Y003848D02*
X003759Y003542D01*
X003299Y003542D01*
X003299Y003848D01*
X003299Y004002D02*
X003299Y004309D01*
X003299Y004155D02*
X003759Y004155D01*
X003529Y003695D02*
X003529Y003542D01*
X003606Y003388D02*
X003682Y003388D01*
X003759Y003311D01*
X003759Y003158D01*
X003682Y003081D01*
X003529Y003158D02*
X003529Y003311D01*
X003606Y003388D01*
X003375Y003388D02*
X003299Y003311D01*
X003299Y003158D01*
X003375Y003081D01*
X003452Y003081D01*
X003529Y003158D01*
X003759Y002928D02*
X003759Y002621D01*
X003299Y002621D01*
X003299Y002928D01*
X003529Y002774D02*
X003529Y002621D01*
X003529Y002467D02*
X003606Y002391D01*
X003606Y002160D01*
X003759Y002160D02*
X003299Y002160D01*
X003299Y002391D01*
X003375Y002467D01*
X003529Y002467D01*
X003606Y002314D02*
X003759Y002467D01*
X004299Y002507D02*
X004759Y002507D01*
X004606Y002353D01*
X004759Y002200D01*
X004299Y002200D01*
X004452Y002660D02*
X004299Y002814D01*
X004452Y002967D01*
X004529Y002967D02*
X004529Y002660D01*
X004452Y002660D02*
X004759Y002660D01*
X004529Y003198D02*
X004759Y003428D01*
X003299Y002007D02*
X003375Y001930D01*
X003222Y001777D01*
X003299Y001700D01*
X002682Y002700D02*
X002375Y002700D01*
X002299Y002777D01*
X002299Y002930D01*
X002375Y003007D01*
X002529Y003007D02*
X002529Y002853D01*
X002529Y003007D02*
X002682Y003007D01*
X002759Y002930D01*
X002759Y002777D01*
X002682Y002700D01*
X002759Y003160D02*
X002299Y003160D01*
X002759Y003467D01*
X002299Y003467D01*
X002299Y003621D02*
X002299Y003851D01*
X002375Y003928D01*
X002682Y003928D01*
X002759Y003851D01*
X002759Y003621D01*
X002299Y003621D01*
D18*
X012879Y020780D02*
X012879Y023080D01*
X012881Y023139D01*
X012887Y023197D01*
X012896Y023256D01*
X012910Y023313D01*
X012927Y023369D01*
X012948Y023424D01*
X012972Y023478D01*
X013000Y023530D01*
X013031Y023580D01*
X013065Y023628D01*
X013102Y023673D01*
X013143Y023716D01*
X013186Y023757D01*
X013231Y023794D01*
X013279Y023828D01*
X013329Y023859D01*
X013381Y023887D01*
X013435Y023911D01*
X013490Y023932D01*
X013546Y023949D01*
X013603Y023963D01*
X013662Y023972D01*
X013720Y023978D01*
X013779Y023980D01*
X013838Y023978D01*
X013896Y023972D01*
X013955Y023963D01*
X014012Y023949D01*
X014068Y023932D01*
X014123Y023911D01*
X014177Y023887D01*
X014229Y023859D01*
X014279Y023828D01*
X014327Y023794D01*
X014372Y023757D01*
X014415Y023716D01*
X014456Y023673D01*
X014493Y023628D01*
X014527Y023580D01*
X014558Y023530D01*
X014586Y023478D01*
X014610Y023424D01*
X014631Y023369D01*
X014648Y023313D01*
X014662Y023256D01*
X014671Y023197D01*
X014677Y023139D01*
X014679Y023080D01*
X014679Y020780D01*
X014677Y020721D01*
X014671Y020663D01*
X014662Y020604D01*
X014648Y020547D01*
X014631Y020491D01*
X014610Y020436D01*
X014586Y020382D01*
X014558Y020330D01*
X014527Y020280D01*
X014493Y020232D01*
X014456Y020187D01*
X014415Y020144D01*
X014372Y020103D01*
X014327Y020066D01*
X014279Y020032D01*
X014229Y020001D01*
X014177Y019973D01*
X014123Y019949D01*
X014068Y019928D01*
X014012Y019911D01*
X013955Y019897D01*
X013896Y019888D01*
X013838Y019882D01*
X013779Y019880D01*
X013720Y019882D01*
X013662Y019888D01*
X013603Y019897D01*
X013546Y019911D01*
X013490Y019928D01*
X013435Y019949D01*
X013381Y019973D01*
X013329Y020001D01*
X013279Y020032D01*
X013231Y020066D01*
X013186Y020103D01*
X013143Y020144D01*
X013102Y020187D01*
X013065Y020232D01*
X013031Y020280D01*
X013000Y020330D01*
X012972Y020382D01*
X012948Y020436D01*
X012927Y020491D01*
X012910Y020547D01*
X012896Y020604D01*
X012887Y020663D01*
X012881Y020721D01*
X012879Y020780D01*
D19*
X012509Y029930D03*
X013549Y029930D03*
X014759Y029930D03*
X015799Y029930D03*
D20*
X002404Y028194D03*
X002404Y026694D03*
X002404Y025194D03*
X002404Y023694D03*
X002404Y022194D03*
X002404Y020694D03*
X002404Y019194D03*
X002404Y017694D03*
D21*
X002483Y017640D03*
X002483Y019140D03*
X002483Y020640D03*
X002483Y022140D03*
X002483Y023640D03*
X002483Y025140D03*
X002483Y026640D03*
X002483Y028140D03*
D22*
X002502Y028277D03*
X002502Y026777D03*
X002502Y025277D03*
X002502Y023777D03*
X002502Y022277D03*
X002502Y020777D03*
X002502Y019277D03*
X002502Y017777D03*
D23*
X002522Y017758D03*
X002522Y019258D03*
X002522Y020758D03*
X002522Y022258D03*
X002522Y023758D03*
X002522Y025258D03*
X002522Y026758D03*
X002522Y028258D03*
D24*
X002448Y028666D03*
X002448Y027166D03*
X002448Y025666D03*
X002448Y024166D03*
X002448Y022666D03*
X002448Y021166D03*
X002448Y019666D03*
X002448Y018166D03*
D25*
X002522Y018147D03*
X002522Y019647D03*
X002522Y021147D03*
X002522Y022647D03*
X002522Y024147D03*
X002522Y025647D03*
X002522Y027147D03*
X002522Y028647D03*
D26*
X002596Y028430D03*
X002596Y026930D03*
X002596Y025430D03*
X002596Y023930D03*
X002596Y022430D03*
X002596Y020930D03*
X002596Y019430D03*
X002596Y017930D03*
D27*
X003541Y017930D03*
X003541Y019430D03*
X003541Y020930D03*
X003541Y022430D03*
X003541Y023930D03*
X003541Y025430D03*
X003541Y026930D03*
X003541Y028430D03*
D28*
X002808Y028159D03*
X002808Y028701D03*
X002808Y027201D03*
X002808Y026659D03*
X002808Y025701D03*
X002808Y025159D03*
X002808Y024201D03*
X002808Y023659D03*
X002808Y022701D03*
X002808Y022159D03*
X002808Y021201D03*
X002808Y020659D03*
X002808Y019701D03*
X002808Y019159D03*
X002808Y018201D03*
X002808Y017659D03*
D29*
X002960Y017930D03*
X002960Y019430D03*
X002960Y020930D03*
X002960Y022430D03*
X002960Y023930D03*
X002960Y025430D03*
X002960Y026930D03*
X002960Y028430D03*
D30*
X029029Y010180D03*
X029029Y009180D03*
D31*
X007783Y028680D03*
X007783Y029180D03*
X007783Y029680D03*
X007783Y030180D03*
X005775Y030180D03*
X005775Y029680D03*
X005775Y029180D03*
X005775Y028680D03*
D32*
X010279Y028910D03*
X010279Y027950D03*
X010279Y026910D03*
X010279Y029950D03*
X026779Y028450D03*
X026779Y027410D03*
X026779Y025700D03*
X026779Y024660D03*
M02*
