G75*
G70*
%OFA0B0*%
%FSLAX24Y24*%
%IPPOS*%
%LPD*%
%AMOC8*
5,1,8,0,0,1.08239X$1,22.5*
%
%ADD10C,0.2590*%
%ADD11C,0.0600*%
%ADD12C,0.0640*%
%ADD13R,0.0860X0.0300*%
%ADD14OC8,0.0710*%
%ADD15OC8,0.0880*%
%ADD16C,0.1340*%
%ADD17C,0.0600*%
%ADD18C,0.0875*%
%ADD19R,0.0710X0.0790*%
%ADD20R,0.0671X0.0671*%
%ADD21C,0.0674*%
%ADD22R,0.0595X0.0595*%
%ADD23R,0.0880X0.0880*%
%ADD24OC8,0.0580*%
%ADD25R,0.0946X0.0316*%
%ADD26R,0.0790X0.0710*%
%ADD27R,0.1615X0.0316*%
%ADD28C,0.0480*%
%ADD29C,0.0476*%
D10*
X008279Y018430D03*
D11*
X019019Y018680D02*
X019539Y018680D01*
X019539Y017680D02*
X019019Y017680D01*
X019019Y016680D02*
X019539Y016680D01*
X022019Y016680D02*
X022539Y016680D01*
X022539Y017680D02*
X022019Y017680D01*
X022019Y018680D02*
X022539Y018680D01*
X022539Y019680D02*
X022019Y019680D01*
X022019Y020680D02*
X022539Y020680D01*
X022539Y021680D02*
X022019Y021680D01*
X022019Y022680D02*
X022539Y022680D01*
X022539Y023680D02*
X022019Y023680D01*
X022019Y024680D02*
X022539Y024680D01*
X022539Y025680D02*
X022019Y025680D01*
X022019Y026680D02*
X022539Y026680D01*
X022539Y027680D02*
X022019Y027680D01*
X022019Y028680D02*
X022539Y028680D01*
X022539Y029680D02*
X022019Y029680D01*
X019539Y029680D02*
X019019Y029680D01*
X019019Y028680D02*
X019539Y028680D01*
X019539Y027680D02*
X019019Y027680D01*
X019019Y026680D02*
X019539Y026680D01*
X019539Y025680D02*
X019019Y025680D01*
X019019Y024680D02*
X019539Y024680D01*
X019539Y023680D02*
X019019Y023680D01*
X019019Y022680D02*
X019539Y022680D01*
X019539Y021680D02*
X019019Y021680D01*
X019019Y020680D02*
X019539Y020680D01*
X019539Y019680D02*
X019019Y019680D01*
D12*
X017809Y019680D02*
X017249Y019680D01*
X017249Y018680D02*
X017809Y018680D01*
X017809Y017680D02*
X017249Y017680D01*
X017249Y016680D02*
X017809Y016680D01*
X017809Y020680D02*
X017249Y020680D01*
X017249Y021680D02*
X017809Y021680D01*
X017809Y022680D02*
X017249Y022680D01*
X017249Y023680D02*
X017809Y023680D01*
X017809Y024680D02*
X017249Y024680D01*
X017249Y025680D02*
X017809Y025680D01*
X017809Y026680D02*
X017249Y026680D01*
X017249Y027680D02*
X017809Y027680D01*
X017809Y028680D02*
X017249Y028680D01*
X017249Y029680D02*
X017809Y029680D01*
X023749Y029680D02*
X024309Y029680D01*
X024309Y028680D02*
X023749Y028680D01*
X023749Y027680D02*
X024309Y027680D01*
X024309Y026680D02*
X023749Y026680D01*
X023749Y025680D02*
X024309Y025680D01*
X024309Y024680D02*
X023749Y024680D01*
X023749Y023680D02*
X024309Y023680D01*
X024309Y022680D02*
X023749Y022680D01*
X023749Y021680D02*
X024309Y021680D01*
X024309Y020680D02*
X023749Y020680D01*
X023749Y019680D02*
X024309Y019680D01*
X024309Y018680D02*
X023749Y018680D01*
X023749Y017680D02*
X024309Y017680D01*
X024309Y016680D02*
X023749Y016680D01*
D13*
X023209Y010180D03*
X023209Y009680D03*
X023209Y009180D03*
X023209Y008680D03*
X021349Y008680D03*
X021349Y009180D03*
X021349Y009680D03*
X021349Y010180D03*
X024349Y006680D03*
X024349Y006180D03*
X024349Y005680D03*
X024349Y005180D03*
X026209Y005180D03*
X026209Y005680D03*
X026209Y006180D03*
X026209Y006680D03*
X015209Y014430D03*
X015209Y014930D03*
X015209Y015430D03*
X015209Y015930D03*
X013349Y015930D03*
X013349Y015430D03*
X013349Y014930D03*
X013349Y014430D03*
D14*
X012029Y014430D03*
X012029Y015430D03*
X014529Y016680D03*
X015529Y016680D03*
X015779Y020680D03*
X015779Y021680D03*
X014779Y024680D03*
X013779Y024680D03*
X015279Y025930D03*
X016279Y025930D03*
X015779Y028430D03*
X014779Y028430D03*
X009029Y026930D03*
X008029Y026930D03*
X025529Y021680D03*
X026529Y021680D03*
X029779Y021430D03*
X029779Y022430D03*
X029779Y023180D03*
X029779Y024180D03*
X024779Y009680D03*
X024779Y008680D03*
X027279Y007680D03*
X027279Y006680D03*
X023279Y006680D03*
X023279Y005680D03*
X020029Y008180D03*
X019029Y008180D03*
D15*
X013179Y007940D03*
X013189Y012950D03*
X029029Y010180D03*
X029029Y009180D03*
X029029Y025930D03*
X029029Y026930D03*
X029029Y027930D03*
X029029Y028930D03*
X029029Y029930D03*
X029029Y030930D03*
D16*
X022529Y012930D03*
X022529Y003430D03*
D17*
X013779Y020980D03*
X013779Y022880D03*
D18*
X012529Y025533D02*
X012529Y026327D01*
X012529Y028033D02*
X012529Y028827D01*
D19*
X012469Y029930D03*
X013589Y029930D03*
X014719Y029930D03*
X015839Y029930D03*
D20*
X003718Y028430D03*
X002340Y028430D03*
X002340Y026930D03*
X003718Y026930D03*
X003718Y025430D03*
X002340Y025430D03*
X002340Y023930D03*
X003718Y023930D03*
X003718Y022430D03*
X002340Y022430D03*
X002340Y020930D03*
X003718Y020930D03*
X003718Y019430D03*
X002340Y019430D03*
X002340Y017930D03*
X003718Y017930D03*
D21*
X033279Y006930D03*
X034279Y006930D03*
X034279Y005930D03*
X033279Y005930D03*
X035279Y005930D03*
X036279Y005930D03*
X036279Y006930D03*
X035279Y006930D03*
X037279Y006930D03*
X037279Y005930D03*
X037279Y002680D03*
X036279Y002680D03*
X035279Y002680D03*
X034279Y002680D03*
X033279Y002680D03*
X033279Y001680D03*
X034279Y001680D03*
X035279Y001680D03*
X036279Y001680D03*
X037279Y001680D03*
D22*
X037537Y009271D03*
X036553Y009271D03*
X030529Y019546D03*
X030529Y020137D03*
X030529Y020727D03*
X030529Y021318D03*
X030529Y021908D03*
X030529Y022499D03*
X030529Y023089D03*
X030529Y023680D03*
D23*
X007279Y012180D03*
X006279Y012180D03*
X005279Y012180D03*
X004279Y012180D03*
X003279Y012180D03*
X002279Y012180D03*
X002279Y005180D03*
X003279Y005180D03*
X004279Y005180D03*
X005279Y005180D03*
X006279Y005180D03*
X007279Y005180D03*
D24*
X002279Y003430D03*
X002279Y013180D03*
X006279Y013180D03*
D25*
X005755Y028680D03*
X005755Y029180D03*
X005755Y029680D03*
X005755Y030180D03*
X007803Y030180D03*
X007803Y029680D03*
X007803Y029180D03*
X007803Y028680D03*
D26*
X010279Y028870D03*
X010279Y027990D03*
X010279Y026870D03*
X010279Y029990D03*
X026779Y028490D03*
X026779Y027370D03*
X026779Y025740D03*
X026779Y024620D03*
D27*
X009854Y024680D03*
X009854Y024180D03*
X009854Y023680D03*
X009854Y023180D03*
X009854Y022680D03*
X009854Y022180D03*
X009854Y021680D03*
X009854Y021180D03*
X006704Y021180D03*
X006704Y021680D03*
X006704Y022180D03*
X006704Y022680D03*
X006704Y023180D03*
X006704Y023680D03*
X006704Y024180D03*
X006704Y024680D03*
X006704Y025180D03*
X006704Y025680D03*
X009854Y025680D03*
X009854Y025180D03*
D28*
X010779Y026180D03*
X011279Y026680D03*
X008779Y027680D03*
X005779Y028180D03*
X004779Y029680D03*
X008279Y030680D03*
X002779Y026180D03*
X011279Y023180D03*
X011779Y023680D03*
X012279Y022680D03*
X011779Y019680D03*
X011279Y019180D03*
X012279Y018680D03*
X016279Y020180D03*
X018779Y015180D03*
X017279Y014180D03*
X014279Y013680D03*
X020279Y010180D03*
X019779Y007180D03*
X024779Y011180D03*
X026279Y011680D03*
X027779Y009180D03*
X029779Y007180D03*
X030779Y007680D03*
X030779Y005180D03*
X030279Y005180D03*
X029779Y003680D03*
X030279Y003180D03*
X030779Y002680D03*
X026279Y014680D03*
X027279Y016680D03*
X022279Y015680D03*
X020779Y014680D03*
X025779Y020680D03*
X026279Y022680D03*
X028279Y021180D03*
X028779Y021180D03*
X026779Y026680D03*
X019779Y030680D03*
X009779Y006180D03*
X007279Y004180D03*
X006279Y004180D03*
X002279Y004180D03*
D29*
X012529Y016180D03*
X012529Y016180D03*
M02*
