G75*
G70*
%OFA0B0*%
%FSLAX24Y24*%
%IPPOS*%
%LPD*%
%AMOC8*
5,1,8,0,0,1.08239X$1,22.5*
%
%ADD10C,0.2590*%
%ADD11C,0.0600*%
%ADD12C,0.0640*%
%ADD13R,0.0860X0.0300*%
%ADD14OC8,0.0710*%
%ADD15OC8,0.0880*%
%ADD16C,0.1340*%
%ADD17C,0.0600*%
%ADD18C,0.0875*%
%ADD19R,0.0710X0.0790*%
%ADD20R,0.0671X0.0671*%
%ADD21C,0.0674*%
%ADD22C,0.0556*%
%ADD23R,0.0595X0.0595*%
%ADD24R,0.0880X0.0880*%
%ADD25OC8,0.0580*%
%ADD26R,0.0946X0.0316*%
%ADD27R,0.0790X0.0710*%
%ADD28R,0.1615X0.0316*%
%ADD29R,0.1419X0.0828*%
%ADD30R,0.0710X0.0789*%
%ADD31R,0.0474X0.0789*%
%ADD32C,0.0480*%
D10*
X007180Y017850D03*
D11*
X017920Y017600D02*
X018440Y017600D01*
X018440Y016600D02*
X017920Y016600D01*
X017920Y018600D02*
X018440Y018600D01*
X018440Y019600D02*
X017920Y019600D01*
X017920Y020600D02*
X018440Y020600D01*
X018440Y021600D02*
X017920Y021600D01*
X017920Y022600D02*
X018440Y022600D01*
X018440Y023600D02*
X017920Y023600D01*
X017920Y024600D02*
X018440Y024600D01*
X018440Y025600D02*
X017920Y025600D01*
X017920Y026600D02*
X018440Y026600D01*
X018440Y027600D02*
X017920Y027600D01*
X017920Y028600D02*
X018440Y028600D01*
X018440Y029600D02*
X017920Y029600D01*
X020920Y029600D02*
X021440Y029600D01*
X021440Y028600D02*
X020920Y028600D01*
X020920Y027600D02*
X021440Y027600D01*
X021440Y026600D02*
X020920Y026600D01*
X020920Y025600D02*
X021440Y025600D01*
X021440Y024600D02*
X020920Y024600D01*
X020920Y023600D02*
X021440Y023600D01*
X021440Y022600D02*
X020920Y022600D01*
X020920Y021600D02*
X021440Y021600D01*
X021440Y020600D02*
X020920Y020600D01*
X020920Y019600D02*
X021440Y019600D01*
X021440Y018600D02*
X020920Y018600D01*
X020920Y017600D02*
X021440Y017600D01*
X021440Y016600D02*
X020920Y016600D01*
D12*
X022650Y016600D02*
X023210Y016600D01*
X023210Y017600D02*
X022650Y017600D01*
X022650Y018600D02*
X023210Y018600D01*
X023210Y019600D02*
X022650Y019600D01*
X022650Y020600D02*
X023210Y020600D01*
X023210Y021600D02*
X022650Y021600D01*
X022650Y022600D02*
X023210Y022600D01*
X023210Y023600D02*
X022650Y023600D01*
X022650Y024600D02*
X023210Y024600D01*
X023210Y025600D02*
X022650Y025600D01*
X022650Y026600D02*
X023210Y026600D01*
X023210Y027600D02*
X022650Y027600D01*
X022650Y028600D02*
X023210Y028600D01*
X023210Y029600D02*
X022650Y029600D01*
X016710Y029600D02*
X016150Y029600D01*
X016150Y028600D02*
X016710Y028600D01*
X016710Y027600D02*
X016150Y027600D01*
X016150Y026600D02*
X016710Y026600D01*
X016710Y025600D02*
X016150Y025600D01*
X016150Y024600D02*
X016710Y024600D01*
X016710Y023600D02*
X016150Y023600D01*
X016150Y022600D02*
X016710Y022600D01*
X016710Y021600D02*
X016150Y021600D01*
X016150Y020600D02*
X016710Y020600D01*
X016710Y019600D02*
X016150Y019600D01*
X016150Y018600D02*
X016710Y018600D01*
X016710Y017600D02*
X016150Y017600D01*
X016150Y016600D02*
X016710Y016600D01*
D13*
X014110Y015850D03*
X014110Y015350D03*
X014110Y014850D03*
X014110Y014350D03*
X012250Y014350D03*
X012250Y014850D03*
X012250Y015350D03*
X012250Y015850D03*
X020250Y010100D03*
X020250Y009600D03*
X020250Y009100D03*
X020250Y008600D03*
X022110Y008600D03*
X022110Y009100D03*
X022110Y009600D03*
X022110Y010100D03*
X023250Y006600D03*
X023250Y006100D03*
X023250Y005600D03*
X023250Y005100D03*
X025110Y005100D03*
X025110Y005600D03*
X025110Y006100D03*
X025110Y006600D03*
D14*
X026180Y006600D03*
X026180Y007600D03*
X023680Y008600D03*
X023680Y009600D03*
X022180Y006600D03*
X022180Y005600D03*
X019180Y009100D03*
X019180Y010100D03*
X016180Y014350D03*
X016180Y015350D03*
X011180Y015350D03*
X011180Y014350D03*
X014680Y020600D03*
X014680Y021600D03*
X013680Y024600D03*
X012680Y024600D03*
X014180Y025850D03*
X015180Y025850D03*
X014680Y028350D03*
X013680Y028350D03*
X007930Y026850D03*
X006930Y026850D03*
X024430Y021600D03*
X025430Y021600D03*
X039180Y019850D03*
X039180Y018850D03*
X039180Y018100D03*
X039180Y017100D03*
D15*
X027430Y030100D03*
X027430Y031100D03*
X023180Y031850D03*
X022180Y031850D03*
X021180Y031850D03*
X020180Y031850D03*
X019180Y031850D03*
X018180Y031850D03*
X018180Y013100D03*
X018180Y012100D03*
X018180Y011100D03*
X016180Y011100D03*
X016180Y012100D03*
X016180Y013100D03*
X014180Y013100D03*
X014180Y012100D03*
X014180Y011100D03*
X014180Y009850D03*
X014180Y008850D03*
X014180Y007850D03*
X014180Y006850D03*
X014180Y005850D03*
X014180Y004850D03*
X014180Y003850D03*
X016180Y003850D03*
X016180Y004850D03*
X016180Y005850D03*
X016180Y006850D03*
X016180Y007850D03*
X016180Y008850D03*
X016180Y009850D03*
X012180Y010100D03*
X012180Y009100D03*
X012080Y007860D03*
X012090Y012870D03*
D16*
X021430Y012850D03*
X021430Y003350D03*
D17*
X012680Y020900D03*
X012680Y022800D03*
D18*
X011430Y025453D02*
X011430Y026247D01*
X011430Y027953D02*
X011430Y028747D01*
D19*
X011370Y029850D03*
X012490Y029850D03*
X013620Y029850D03*
X014740Y029850D03*
D20*
X002619Y028350D03*
X001241Y028350D03*
X001241Y026850D03*
X002619Y026850D03*
X002619Y025350D03*
X001241Y025350D03*
X001241Y023850D03*
X002619Y023850D03*
X002619Y022350D03*
X001241Y022350D03*
X001241Y020850D03*
X002619Y020850D03*
X002619Y019350D03*
X001241Y019350D03*
X001241Y017850D03*
X002619Y017850D03*
D21*
X032180Y006600D03*
X032180Y005600D03*
X032180Y004600D03*
X032180Y003600D03*
X032180Y002600D03*
X033180Y002600D03*
X033180Y003600D03*
X033180Y004600D03*
X033180Y005600D03*
X033180Y006600D03*
X036680Y006600D03*
X036680Y005600D03*
X036680Y004600D03*
X036680Y003600D03*
X036680Y002600D03*
X037680Y002600D03*
X037680Y003600D03*
X037680Y004600D03*
X037680Y005600D03*
X037680Y006600D03*
D22*
X038430Y017600D03*
X038430Y018191D03*
X038430Y018781D03*
X038430Y019372D03*
X038430Y019962D03*
X038430Y020553D03*
X038430Y021143D03*
X038430Y021734D03*
D23*
X032406Y032009D03*
X031422Y032009D03*
D24*
X006180Y012100D03*
X005180Y012100D03*
X004180Y012100D03*
X003180Y012100D03*
X002180Y012100D03*
X001180Y012100D03*
X001180Y005100D03*
X002180Y005100D03*
X003180Y005100D03*
X004180Y005100D03*
X005180Y005100D03*
X006180Y005100D03*
D25*
X001680Y004350D03*
X001680Y012850D03*
X005430Y013100D03*
X005180Y020350D03*
X027680Y019350D03*
X027680Y016100D03*
D26*
X006704Y028600D03*
X006704Y029100D03*
X006704Y029600D03*
X006704Y030100D03*
X004656Y030100D03*
X004656Y029600D03*
X004656Y029100D03*
X004656Y028600D03*
D27*
X009180Y028790D03*
X009180Y027910D03*
X009180Y026790D03*
X009180Y029910D03*
X024680Y024410D03*
X024680Y023290D03*
X026180Y023290D03*
X026180Y024410D03*
D28*
X008755Y024600D03*
X008755Y025100D03*
X008755Y025600D03*
X008755Y024100D03*
X008755Y023600D03*
X008755Y023100D03*
X008755Y022600D03*
X008755Y022100D03*
X008755Y021600D03*
X008755Y021100D03*
X005605Y021100D03*
X005605Y021600D03*
X005605Y022100D03*
X005605Y022600D03*
X005605Y023100D03*
X005605Y023600D03*
X005605Y024100D03*
X005605Y024600D03*
X005605Y025100D03*
X005605Y025600D03*
D29*
X003180Y014868D03*
X003180Y013332D03*
D30*
X004879Y014100D03*
X005981Y014100D03*
D31*
X011129Y011600D03*
X012231Y011600D03*
D32*
X015180Y016100D03*
X014680Y016600D03*
X013180Y019100D03*
X011180Y017100D03*
X011680Y016600D03*
X009680Y020600D03*
X010180Y021600D03*
X010180Y022600D03*
X010180Y023100D03*
X011180Y022600D03*
X011680Y024600D03*
X010180Y026100D03*
X009180Y026100D03*
X005180Y027600D03*
X004680Y028100D03*
X003180Y029100D03*
X007180Y030600D03*
X015430Y030600D03*
X014180Y023600D03*
X020180Y015100D03*
X025180Y011100D03*
X030180Y007100D03*
X028680Y006600D03*
X028180Y004100D03*
X030180Y002600D03*
X030180Y001100D03*
X034930Y001100D03*
X034930Y004600D03*
X034930Y005600D03*
X034680Y007100D03*
X035180Y009100D03*
X035680Y009100D03*
X027680Y021100D03*
X028180Y023600D03*
X028180Y024100D03*
X025180Y025100D03*
X009180Y004600D03*
X010680Y003600D03*
X011680Y003100D03*
X011680Y002600D03*
M02*
