%
M48
M72
T01C0.0240
T02C0.0315
T03C0.0320
T04C0.0360
T05C0.0394
T06C0.0400
T07C0.0530
T08C0.1260
T09C0.2510
%
T01
X1680Y4350
X9180Y4600
X10680Y3600
X11680Y3100
X11680Y2600
X28180Y4100
X30180Y2600
X30180Y1100
X34930Y1100
X34930Y4600
X34930Y5600
X34680Y7100
X35180Y9100
X35680Y9100
X30180Y7100
X28680Y6600
X25180Y11100
X20180Y15100
X15180Y16100
X14680Y16600
X13180Y19100
X11180Y17100
X11680Y16600
X5180Y20350
X9680Y20600
X10180Y21600
X10180Y22600
X10180Y23100
X11180Y22600
X11680Y24600
X10180Y26100
X9180Y26100
X5180Y27600
X4680Y28100
X3180Y29100
X7180Y30600
X15430Y30600
X14180Y23600
X25180Y25100
X28180Y24100
X28180Y23600
X27680Y21100
X27680Y19350
X27680Y16100
X5430Y13100
X1680Y12850
T02
X38430Y17600
X38430Y18191
X38430Y18781
X38430Y19372
X38430Y19962
X38430Y20553
X38430Y21143
X38430Y21734
X32406Y32009
X31422Y32009
T03
X6930Y26850
X7930Y26850
X12680Y24600
X13680Y24600
X14180Y25850
X15180Y25850
X14680Y28350
X13680Y28350
X18180Y28600
X18180Y27600
X18180Y26600
X18180Y25600
X18180Y24600
X18180Y23600
X18180Y22600
X18180Y21600
X18180Y20600
X18180Y19600
X18180Y18600
X18180Y17600
X18180Y16600
X16180Y15350
X16180Y14350
X21180Y16600
X21180Y17600
X21180Y18600
X21180Y19600
X21180Y20600
X21180Y21600
X21180Y22600
X21180Y23600
X21180Y24600
X21180Y25600
X21180Y26600
X21180Y27600
X21180Y28600
X21180Y29600
X18180Y29600
X12680Y22800
X14680Y21600
X14680Y20600
X12680Y20900
X11180Y15350
X11180Y14350
X19180Y10100
X19180Y9100
X22180Y6600
X22180Y5600
X26180Y6600
X26180Y7600
X23680Y8600
X23680Y9600
X24430Y21600
X25430Y21600
X39180Y19850
X39180Y18850
X39180Y18100
X39180Y17100
T04
X16430Y29600
X16430Y28600
X16430Y27600
X16430Y26600
X16430Y25600
X16430Y24600
X16430Y23600
X16430Y22600
X16430Y21600
X16430Y20600
X16430Y19600
X16430Y18600
X16430Y17600
X16430Y16600
X22930Y16600
X22930Y17600
X22930Y18600
X22930Y19600
X22930Y20600
X22930Y21600
X22930Y22600
X22930Y23600
X22930Y24600
X22930Y25600
X22930Y26600
X22930Y27600
X22930Y28600
X22930Y29600
T05
X32180Y3600
X32180Y2600
X33180Y2600
X33180Y3600
X33180Y4600
X33180Y5600
X33180Y6600
X32180Y6600
X32180Y5600
X32180Y4600
X36680Y4600
X36680Y3600
X36680Y2600
X37680Y2600
X37680Y3600
X37680Y4600
X37680Y5600
X37680Y6600
X36680Y6600
X36680Y5600
T06
X12080Y7860
X12180Y9100
X12180Y10100
X14180Y9850
X14180Y8850
X14180Y7850
X14180Y6850
X14180Y5850
X14180Y4850
X14180Y3850
X16180Y3850
X16180Y4850
X16180Y5850
X16180Y6850
X16180Y7850
X16180Y8850
X16180Y9850
X16180Y11100
X16180Y12100
X16180Y13100
X14180Y13100
X14180Y12100
X14180Y11100
X12090Y12870
X18180Y13100
X18180Y12100
X18180Y11100
X18180Y31850
X19180Y31850
X20180Y31850
X21180Y31850
X22180Y31850
X23180Y31850
X27430Y31100
X27430Y30100
T07
X11430Y28350
X11430Y25850
T08
X21430Y12850
X21430Y3350
T09
X7180Y17850
M30
