G75*
G70*
%OFA0B0*%
%FSLAX24Y24*%
%IPPOS*%
%LPD*%
%AMOC8*
5,1,8,0,0,1.08239X$1,22.5*
%
%ADD10C,0.0520*%
%ADD11C,0.0560*%
%ADD12OC8,0.0630*%
%ADD13OC8,0.0800*%
%ADD14C,0.0520*%
%ADD15C,0.0795*%
%ADD16C,0.0594*%
%ADD17R,0.0515X0.0515*%
%ADD18OC8,0.0500*%
%ADD19C,0.0100*%
%ADD20C,0.0400*%
%ADD21C,0.0160*%
%ADD22C,0.0120*%
%ADD23C,0.0396*%
D10*
X019019Y016680D02*
X019539Y016680D01*
X019539Y017680D02*
X019019Y017680D01*
X019019Y018680D02*
X019539Y018680D01*
X019539Y019680D02*
X019019Y019680D01*
X019019Y020680D02*
X019539Y020680D01*
X019539Y021680D02*
X019019Y021680D01*
X019019Y022680D02*
X019539Y022680D01*
X019539Y023680D02*
X019019Y023680D01*
X019019Y024680D02*
X019539Y024680D01*
X019539Y025680D02*
X019019Y025680D01*
X019019Y026680D02*
X019539Y026680D01*
X019539Y027680D02*
X019019Y027680D01*
X019019Y028680D02*
X019539Y028680D01*
X019539Y029680D02*
X019019Y029680D01*
X022019Y029680D02*
X022539Y029680D01*
X022539Y028680D02*
X022019Y028680D01*
X022019Y027680D02*
X022539Y027680D01*
X022539Y026680D02*
X022019Y026680D01*
X022019Y025680D02*
X022539Y025680D01*
X022539Y024680D02*
X022019Y024680D01*
X022019Y023680D02*
X022539Y023680D01*
X022539Y022680D02*
X022019Y022680D01*
X022019Y021680D02*
X022539Y021680D01*
X022539Y020680D02*
X022019Y020680D01*
X022019Y019680D02*
X022539Y019680D01*
X022539Y018680D02*
X022019Y018680D01*
X022019Y017680D02*
X022539Y017680D01*
X022539Y016680D02*
X022019Y016680D01*
D11*
X023749Y016680D02*
X024309Y016680D01*
X024309Y017680D02*
X023749Y017680D01*
X023749Y018680D02*
X024309Y018680D01*
X024309Y019680D02*
X023749Y019680D01*
X023749Y020680D02*
X024309Y020680D01*
X024309Y021680D02*
X023749Y021680D01*
X023749Y022680D02*
X024309Y022680D01*
X024309Y023680D02*
X023749Y023680D01*
X023749Y024680D02*
X024309Y024680D01*
X024309Y025680D02*
X023749Y025680D01*
X023749Y026680D02*
X024309Y026680D01*
X024309Y027680D02*
X023749Y027680D01*
X023749Y028680D02*
X024309Y028680D01*
X024309Y029680D02*
X023749Y029680D01*
X017809Y029680D02*
X017249Y029680D01*
X017249Y028680D02*
X017809Y028680D01*
X017809Y027680D02*
X017249Y027680D01*
X017249Y026680D02*
X017809Y026680D01*
X017809Y025680D02*
X017249Y025680D01*
X017249Y024680D02*
X017809Y024680D01*
X017809Y023680D02*
X017249Y023680D01*
X017249Y022680D02*
X017809Y022680D01*
X017809Y021680D02*
X017249Y021680D01*
X017249Y020680D02*
X017809Y020680D01*
X017809Y019680D02*
X017249Y019680D01*
X017249Y018680D02*
X017809Y018680D01*
X017809Y017680D02*
X017249Y017680D01*
X017249Y016680D02*
X017809Y016680D01*
D12*
X015529Y016680D03*
X014529Y016680D03*
X012029Y015430D03*
X012029Y014430D03*
X019029Y008180D03*
X020029Y008180D03*
X023279Y006680D03*
X023279Y005680D03*
X024779Y008680D03*
X024779Y009680D03*
X027279Y007680D03*
X027279Y006680D03*
X015779Y020680D03*
X015779Y021680D03*
X014779Y024680D03*
X013779Y024680D03*
X015279Y025930D03*
X016279Y025930D03*
X015779Y028430D03*
X014779Y028430D03*
X009029Y026930D03*
X008029Y026930D03*
X025529Y021680D03*
X026529Y021680D03*
X029779Y021430D03*
X029779Y022430D03*
X029779Y023180D03*
X029779Y024180D03*
D13*
X029029Y025930D03*
X029029Y026930D03*
X029029Y027930D03*
X029029Y028930D03*
X029029Y029930D03*
X029029Y030930D03*
X013189Y012950D03*
X013179Y007940D03*
X029029Y009180D03*
X029029Y010180D03*
D14*
X013779Y020980D03*
X013779Y022880D03*
D15*
X012529Y025533D02*
X012529Y026327D01*
X012529Y028033D02*
X012529Y028827D01*
D16*
X033279Y006930D03*
X034279Y006930D03*
X034279Y005930D03*
X033279Y005930D03*
X035279Y005930D03*
X036279Y005930D03*
X036279Y006930D03*
X035279Y006930D03*
X037279Y006930D03*
X037279Y005930D03*
X037279Y002680D03*
X036279Y002680D03*
X035279Y002680D03*
X034279Y002680D03*
X033279Y002680D03*
X033279Y001680D03*
X034279Y001680D03*
X035279Y001680D03*
X036279Y001680D03*
X037279Y001680D03*
D17*
X037537Y009271D03*
X036553Y009271D03*
X030529Y019546D03*
X030529Y020137D03*
X030529Y020727D03*
X030529Y021318D03*
X030529Y021908D03*
X030529Y022499D03*
X030529Y023089D03*
X030529Y023680D03*
D18*
X006279Y013180D03*
X002279Y013180D03*
X002279Y003430D03*
D19*
X006279Y004180D02*
X008779Y006680D01*
X019279Y006680D01*
X019779Y007180D01*
X019029Y008180D02*
X017779Y008180D01*
X013279Y012680D01*
X013189Y012950D01*
X014279Y013680D02*
X017279Y010680D01*
X020779Y010680D01*
X026779Y004680D01*
X033279Y004680D01*
X034279Y005680D01*
X034279Y005930D01*
X034279Y005680D02*
X035279Y004680D01*
X035779Y004680D01*
X035779Y002180D01*
X034779Y002180D01*
X034279Y001680D01*
X033279Y001680D02*
X032279Y002680D01*
X030779Y002680D01*
X030279Y003180D02*
X032779Y003180D01*
X033279Y002680D01*
X033279Y003680D02*
X034279Y002680D01*
X035279Y002680D02*
X033779Y004180D01*
X026779Y004180D01*
X020779Y010180D01*
X020279Y010180D01*
X017279Y014180D02*
X018279Y015180D01*
X018779Y015180D01*
X019279Y016680D02*
X017529Y016680D01*
X017529Y017680D02*
X010779Y017680D01*
X010779Y019180D01*
X011279Y019680D01*
X011279Y023180D01*
X011779Y023680D02*
X013279Y025180D01*
X016779Y025180D01*
X017279Y025680D01*
X017529Y025680D01*
X016779Y024180D02*
X019779Y024180D01*
X022279Y026680D01*
X024029Y026680D02*
X024279Y026680D01*
X025279Y025680D01*
X027279Y025680D01*
X028279Y024680D01*
X028279Y021180D01*
X029279Y020180D01*
X030279Y020180D01*
X030529Y020137D01*
X030279Y019680D02*
X030529Y019546D01*
X030279Y019680D02*
X028779Y019680D01*
X027279Y021180D01*
X027279Y025180D01*
X024779Y025180D01*
X024279Y025680D01*
X024029Y025680D01*
X024029Y024680D02*
X024279Y024680D01*
X026279Y022680D01*
X024779Y022680D02*
X024779Y021680D01*
X025779Y020680D01*
X024279Y019680D02*
X024029Y019680D01*
X024279Y019680D02*
X027279Y016680D01*
X026279Y014680D02*
X039279Y014680D01*
X039279Y004680D01*
X037279Y002680D01*
X036779Y002180D02*
X036779Y005180D01*
X036279Y005680D01*
X036279Y005930D01*
X035779Y006180D02*
X035779Y005680D01*
X036279Y005180D01*
X035279Y005180D01*
X034779Y005680D01*
X034779Y007180D01*
X033779Y008180D01*
X030279Y008180D01*
X029779Y007680D01*
X029779Y007180D02*
X030279Y007180D01*
X031279Y006180D01*
X030279Y005180D01*
X030779Y005180D02*
X032779Y005180D01*
X033279Y005680D01*
X033279Y005930D01*
X033279Y006680D02*
X033279Y006930D01*
X033279Y006680D02*
X031779Y006680D01*
X031279Y006180D01*
X030779Y007680D02*
X033779Y007680D01*
X034279Y007180D01*
X034279Y006930D01*
X035279Y006930D02*
X035279Y007180D01*
X033779Y008680D01*
X029779Y008680D01*
X029279Y008180D01*
X029029Y009180D02*
X036779Y009180D01*
X036553Y009271D01*
X038279Y008180D02*
X038279Y011680D01*
X026279Y011680D01*
X024279Y014180D02*
X023779Y014680D01*
X020779Y014680D01*
X022279Y015180D02*
X019779Y017680D01*
X019279Y017680D01*
X017529Y017680D01*
X017529Y019680D02*
X013279Y019680D01*
X012279Y018680D01*
X012279Y018180D02*
X021779Y018180D01*
X022279Y018680D01*
X022279Y017680D02*
X021279Y017680D01*
X021279Y016680D01*
X022279Y015680D01*
X022279Y015180D02*
X039779Y015180D01*
X039779Y002680D01*
X037779Y005180D02*
X037279Y005180D01*
X036779Y005680D01*
X036779Y007180D01*
X036279Y007680D01*
X035779Y007680D01*
X035779Y006680D01*
X035279Y006180D01*
X035279Y005930D01*
X035779Y006180D02*
X036279Y006680D01*
X036279Y006930D01*
X037279Y006930D02*
X037279Y007180D01*
X038279Y008180D01*
X038779Y006180D02*
X038779Y014180D01*
X024279Y014180D01*
X022279Y019680D02*
X021779Y019680D01*
X021279Y020180D01*
X016279Y020180D01*
X015779Y020680D02*
X014279Y020680D01*
X013779Y021680D02*
X011779Y019680D01*
X011279Y019180D02*
X012279Y018180D01*
X015779Y020680D02*
X017529Y020680D01*
X014779Y022180D02*
X016779Y024180D01*
X014779Y022180D02*
X012779Y022180D01*
X012279Y022680D01*
X013279Y023180D02*
X013279Y024180D01*
X013779Y024680D01*
X013279Y023180D02*
X013779Y022680D01*
X013779Y022880D01*
X012529Y025930D02*
X012279Y026180D01*
X010779Y026180D01*
X002779Y026180D01*
X004779Y027680D02*
X008779Y027680D01*
X011279Y026680D02*
X011779Y027180D01*
X015779Y027180D01*
X017279Y028680D01*
X017529Y028680D01*
X019779Y030680D02*
X008279Y030680D01*
X005779Y028180D01*
X004779Y027680D02*
X004779Y029680D01*
X022279Y029680D02*
X024029Y029680D01*
X024029Y028680D02*
X022279Y028680D01*
X024029Y027680D02*
X024279Y027680D01*
X025279Y026680D01*
X026779Y026680D01*
X024779Y022680D02*
X024029Y022680D01*
X028779Y021180D02*
X029279Y020680D01*
X030279Y020680D01*
X030529Y020727D01*
X038779Y006180D02*
X037779Y005180D01*
X036279Y005180D02*
X036279Y002680D01*
X035279Y001680D02*
X034279Y000680D01*
X033279Y000680D01*
X032279Y001680D01*
X014279Y001680D01*
X009779Y006180D01*
X009279Y006180D01*
X007279Y004180D01*
X029779Y003680D02*
X033279Y003680D01*
D20*
X030779Y002680D03*
X030279Y003180D03*
X029779Y003680D03*
X030279Y005180D03*
X030779Y005180D03*
X029779Y007180D03*
X030779Y007680D03*
X027779Y009180D03*
X024779Y011180D03*
X026279Y011680D03*
X026279Y014680D03*
X027279Y016680D03*
X022279Y015680D03*
X020779Y014680D03*
X018779Y015180D03*
X017279Y014180D03*
X014279Y013680D03*
X020279Y010180D03*
X019779Y007180D03*
X009779Y006180D03*
X007279Y004180D03*
X006279Y004180D03*
X002279Y004180D03*
X012279Y018680D03*
X011279Y019180D03*
X011779Y019680D03*
X012279Y022680D03*
X011279Y023180D03*
X011779Y023680D03*
X010779Y026180D03*
X011279Y026680D03*
X008779Y027680D03*
X005779Y028180D03*
X004779Y029680D03*
X008279Y030680D03*
X002779Y026180D03*
X016279Y020180D03*
X025779Y020680D03*
X026279Y022680D03*
X028279Y021180D03*
X028779Y021180D03*
X026779Y026680D03*
X019779Y030680D03*
D21*
X001759Y031446D02*
X001759Y000660D01*
X033002Y000660D01*
X032192Y001470D01*
X014192Y001470D01*
X009842Y005820D01*
X009707Y005820D01*
X009575Y005875D01*
X009480Y005970D01*
X009366Y005970D01*
X007639Y004243D01*
X007639Y004108D01*
X007584Y003976D01*
X007483Y003875D01*
X007351Y003820D01*
X007207Y003820D01*
X007075Y003875D01*
X006974Y003976D01*
X006919Y004108D01*
X006919Y004252D01*
X006974Y004384D01*
X007075Y004485D01*
X007207Y004540D01*
X007342Y004540D01*
X009069Y006267D01*
X009192Y006390D01*
X009480Y006390D01*
X009560Y006470D01*
X008866Y006470D01*
X006639Y004243D01*
X006639Y004108D01*
X006584Y003976D01*
X006483Y003875D01*
X006351Y003820D01*
X006207Y003820D01*
X006075Y003875D01*
X005974Y003976D01*
X005919Y004108D01*
X005919Y004252D01*
X005974Y004384D01*
X006075Y004485D01*
X006207Y004540D01*
X006342Y004540D01*
X008569Y006767D01*
X008692Y006890D01*
X019192Y006890D01*
X019419Y007117D01*
X019419Y007252D01*
X019474Y007384D01*
X019575Y007485D01*
X019707Y007540D01*
X019851Y007540D01*
X019983Y007485D01*
X020084Y007384D01*
X020139Y007252D01*
X020139Y007108D01*
X020084Y006976D01*
X019983Y006875D01*
X019851Y006820D01*
X019716Y006820D01*
X019366Y006470D01*
X009998Y006470D01*
X010084Y006384D01*
X010139Y006252D01*
X010139Y006117D01*
X014366Y001890D01*
X032366Y001890D01*
X033366Y000890D01*
X034192Y000890D01*
X034842Y001540D01*
X034822Y001589D01*
X034822Y001771D01*
X034892Y001939D01*
X034923Y001970D01*
X034866Y001970D01*
X034716Y001820D01*
X034736Y001771D01*
X034736Y001589D01*
X034666Y001421D01*
X034538Y001293D01*
X034370Y001223D01*
X034188Y001223D01*
X034020Y001293D01*
X033892Y001421D01*
X033822Y001589D01*
X033822Y001771D01*
X033892Y001939D01*
X034020Y002067D01*
X034188Y002137D01*
X034370Y002137D01*
X034419Y002117D01*
X034569Y002267D01*
X034692Y002390D01*
X034923Y002390D01*
X034892Y002421D01*
X034822Y002589D01*
X034822Y002771D01*
X034842Y002820D01*
X033692Y003970D01*
X029998Y003970D01*
X030078Y003890D01*
X033366Y003890D01*
X033489Y003767D01*
X034139Y003117D01*
X034188Y003137D01*
X034370Y003137D01*
X034538Y003067D01*
X034666Y002939D01*
X034736Y002771D01*
X034736Y002589D01*
X034666Y002421D01*
X034538Y002293D01*
X034370Y002223D01*
X034188Y002223D01*
X034020Y002293D01*
X033892Y002421D01*
X033822Y002589D01*
X033822Y002771D01*
X033842Y002820D01*
X033192Y003470D01*
X030498Y003470D01*
X030578Y003390D01*
X032866Y003390D01*
X032989Y003267D01*
X033139Y003117D01*
X033188Y003137D01*
X033370Y003137D01*
X033538Y003067D01*
X033666Y002939D01*
X033736Y002771D01*
X033736Y002589D01*
X033666Y002421D01*
X033538Y002293D01*
X033370Y002223D01*
X033188Y002223D01*
X033020Y002293D01*
X032892Y002421D01*
X032822Y002589D01*
X032822Y002771D01*
X032842Y002820D01*
X032692Y002970D01*
X030998Y002970D01*
X031078Y002890D01*
X032366Y002890D01*
X033139Y002117D01*
X033188Y002137D01*
X033370Y002137D01*
X033538Y002067D01*
X033666Y001939D01*
X033736Y001771D01*
X033736Y001589D01*
X033666Y001421D01*
X033538Y001293D01*
X033370Y001223D01*
X033188Y001223D01*
X033020Y001293D01*
X032892Y001421D01*
X032822Y001589D01*
X032822Y001771D01*
X032842Y001820D01*
X032192Y002470D01*
X031078Y002470D01*
X030983Y002375D01*
X030851Y002320D01*
X030707Y002320D01*
X030575Y002375D01*
X030474Y002476D01*
X030419Y002608D01*
X030419Y002752D01*
X030467Y002868D01*
X030351Y002820D01*
X030207Y002820D01*
X030075Y002875D01*
X029974Y002976D01*
X029919Y003108D01*
X029919Y003252D01*
X029967Y003368D01*
X029851Y003320D01*
X029707Y003320D01*
X029575Y003375D01*
X029474Y003476D01*
X029419Y003608D01*
X029419Y003752D01*
X029474Y003884D01*
X029560Y003970D01*
X026692Y003970D01*
X026569Y004093D01*
X026569Y004093D01*
X020692Y009970D01*
X020578Y009970D01*
X020483Y009875D01*
X020351Y009820D01*
X020207Y009820D01*
X020075Y009875D01*
X019974Y009976D01*
X019919Y010108D01*
X019919Y010252D01*
X019974Y010384D01*
X020060Y010470D01*
X017192Y010470D01*
X014342Y013320D01*
X014207Y013320D01*
X014075Y013375D01*
X013974Y013476D01*
X013919Y013608D01*
X013919Y013729D01*
X012473Y015174D01*
X012234Y014935D01*
X012029Y014935D01*
X012029Y015430D01*
X012029Y015430D01*
X011534Y015430D01*
X011534Y015225D01*
X011824Y014935D01*
X012029Y014935D01*
X012029Y015430D01*
X011534Y015430D01*
X011534Y015635D01*
X011824Y015925D01*
X012029Y015925D01*
X012029Y015430D01*
X012029Y015430D01*
X012029Y015430D01*
X012029Y015925D01*
X012234Y015925D01*
X012309Y015850D01*
X012309Y015894D01*
X012225Y015977D01*
X012171Y016109D01*
X012171Y016251D01*
X012225Y016383D01*
X012326Y016484D01*
X012458Y016538D01*
X012600Y016538D01*
X012732Y016484D01*
X012833Y016383D01*
X012887Y016251D01*
X012887Y016109D01*
X012833Y015977D01*
X012749Y015894D01*
X012749Y015521D01*
X014230Y014040D01*
X014351Y014040D01*
X014483Y013985D01*
X014584Y013884D01*
X014639Y013752D01*
X014639Y013617D01*
X017366Y010890D01*
X020866Y010890D01*
X020989Y010767D01*
X026866Y004890D01*
X030060Y004890D01*
X029974Y004976D01*
X029919Y005108D01*
X029919Y005252D01*
X026504Y005252D01*
X026663Y005094D02*
X029925Y005094D01*
X029919Y005252D02*
X029974Y005384D01*
X030075Y005485D01*
X030207Y005540D01*
X030342Y005540D01*
X030982Y006180D01*
X030192Y006970D01*
X030078Y006970D01*
X029983Y006875D01*
X029851Y006820D01*
X029707Y006820D01*
X029575Y006875D01*
X029474Y006976D01*
X029419Y007108D01*
X029419Y007252D01*
X029474Y007384D01*
X029550Y007460D01*
X028688Y007460D01*
X027688Y008460D01*
X027559Y008589D01*
X027559Y008891D01*
X027474Y008976D01*
X027419Y009108D01*
X027419Y009252D01*
X027474Y009384D01*
X027575Y009485D01*
X027707Y009540D01*
X027851Y009540D01*
X027983Y009485D01*
X028059Y009409D01*
X028059Y009589D01*
X027188Y010460D01*
X025188Y010460D01*
X024828Y010820D01*
X024707Y010820D01*
X024575Y010875D01*
X024474Y010976D01*
X024419Y011108D01*
X024419Y011252D01*
X024474Y011384D01*
X024575Y011485D01*
X024707Y011540D01*
X024851Y011540D01*
X024983Y011485D01*
X025084Y011384D01*
X025139Y011252D01*
X025139Y011131D01*
X025370Y010900D01*
X027370Y010900D01*
X027499Y010771D01*
X028499Y009771D01*
X028499Y009442D01*
X028737Y009680D01*
X028469Y009948D01*
X028469Y010412D01*
X028797Y010740D01*
X029261Y010740D01*
X029589Y010412D01*
X029589Y009948D01*
X029321Y009680D01*
X029589Y009412D01*
X029589Y009390D01*
X036135Y009390D01*
X036135Y009594D01*
X036229Y009688D01*
X036876Y009688D01*
X036970Y009594D01*
X036970Y009286D01*
X036989Y009267D01*
X036989Y009223D01*
X037006Y009183D01*
X036989Y009140D01*
X036989Y009093D01*
X036970Y009074D01*
X036970Y008947D01*
X036876Y008853D01*
X036229Y008853D01*
X036135Y008947D01*
X036135Y008970D01*
X029589Y008970D01*
X029589Y008948D01*
X029261Y008620D01*
X028900Y008620D01*
X029120Y008400D01*
X029202Y008400D01*
X029692Y008890D01*
X033866Y008890D01*
X033989Y008767D01*
X035366Y007390D01*
X035366Y007390D01*
X035369Y007387D01*
X035370Y007387D01*
X035538Y007317D01*
X035569Y007286D01*
X035569Y007767D01*
X035692Y007890D01*
X036366Y007890D01*
X036866Y007390D01*
X036979Y007277D01*
X037020Y007317D01*
X037188Y007387D01*
X037189Y007387D01*
X037192Y007390D01*
X038069Y008267D01*
X038069Y011470D01*
X026578Y011470D01*
X026483Y011375D01*
X026351Y011320D01*
X026207Y011320D01*
X026075Y011375D01*
X025974Y011476D01*
X025919Y011608D01*
X025919Y011752D01*
X025974Y011884D01*
X026075Y011985D01*
X026207Y012040D01*
X026351Y012040D01*
X026483Y011985D01*
X026578Y011890D01*
X038366Y011890D01*
X038489Y011767D01*
X038489Y008093D01*
X038366Y007970D01*
X037626Y007230D01*
X037666Y007189D01*
X037736Y007021D01*
X037736Y006839D01*
X037666Y006671D01*
X037538Y006543D01*
X037370Y006473D01*
X037188Y006473D01*
X037020Y006543D01*
X036989Y006574D01*
X036989Y006309D01*
X037029Y006338D01*
X037096Y006372D01*
X037167Y006395D01*
X037241Y006407D01*
X037261Y006407D01*
X037261Y005948D01*
X037297Y005948D01*
X037297Y006407D01*
X037317Y006407D01*
X037391Y006395D01*
X037462Y006372D01*
X037529Y006338D01*
X037590Y006294D01*
X037643Y006241D01*
X037687Y006180D01*
X037721Y006113D01*
X037744Y006042D01*
X037756Y005968D01*
X037756Y005948D01*
X037297Y005948D01*
X037297Y005912D01*
X037756Y005912D01*
X037756Y005892D01*
X037744Y005818D01*
X037721Y005747D01*
X037687Y005680D01*
X037643Y005619D01*
X037590Y005566D01*
X037529Y005522D01*
X037462Y005488D01*
X037391Y005465D01*
X037317Y005453D01*
X037303Y005453D01*
X037366Y005390D01*
X037692Y005390D01*
X038569Y006267D01*
X038569Y013970D01*
X024192Y013970D01*
X023692Y014470D01*
X021078Y014470D01*
X020983Y014375D01*
X020851Y014320D01*
X020707Y014320D01*
X020575Y014375D01*
X020474Y014476D01*
X020419Y014608D01*
X020419Y014752D01*
X020474Y014884D01*
X020575Y014985D01*
X020707Y015040D01*
X020851Y015040D01*
X020983Y014985D01*
X021078Y014890D01*
X023866Y014890D01*
X023989Y014767D01*
X024366Y014390D01*
X026060Y014390D01*
X025974Y014476D01*
X025919Y014608D01*
X025919Y014752D01*
X025974Y014884D01*
X026060Y014970D01*
X022192Y014970D01*
X019808Y017355D01*
X019777Y017324D01*
X019623Y017260D01*
X018935Y017260D01*
X018781Y017324D01*
X018663Y017442D01*
X018651Y017470D01*
X018198Y017470D01*
X018182Y017431D01*
X018058Y017307D01*
X017897Y017240D01*
X017162Y017240D01*
X017000Y017307D01*
X016876Y017431D01*
X016860Y017470D01*
X010692Y017470D01*
X010569Y017593D01*
X010569Y019267D01*
X010692Y019390D01*
X011069Y019767D01*
X011069Y022881D01*
X010974Y022976D01*
X010919Y023108D01*
X010919Y023252D01*
X010974Y023384D01*
X011075Y023485D01*
X011207Y023540D01*
X011351Y023540D01*
X011467Y023492D01*
X011419Y023608D01*
X011419Y023752D01*
X011474Y023884D01*
X011575Y023985D01*
X011707Y024040D01*
X011842Y024040D01*
X012865Y025063D01*
X012832Y025039D01*
X012751Y024997D01*
X012664Y024969D01*
X012582Y024956D01*
X012582Y025878D01*
X012582Y025982D01*
X013106Y025982D01*
X013106Y026373D01*
X013092Y026463D01*
X013064Y026549D01*
X013023Y026630D01*
X012969Y026704D01*
X012905Y026768D01*
X012832Y026821D01*
X012751Y026863D01*
X012664Y026891D01*
X012582Y026904D01*
X012582Y025982D01*
X012477Y025982D01*
X012477Y025878D01*
X012582Y025878D01*
X013106Y025878D01*
X013106Y025487D01*
X013092Y025397D01*
X013064Y025311D01*
X013023Y025230D01*
X012999Y025197D01*
X013069Y025267D01*
X013069Y025267D01*
X013192Y025390D01*
X016692Y025390D01*
X016834Y025532D01*
X016809Y025592D01*
X016809Y025768D01*
X016876Y025929D01*
X017000Y026053D01*
X017162Y026120D01*
X017897Y026120D01*
X018058Y026053D01*
X018182Y025929D01*
X018249Y025768D01*
X018249Y025592D01*
X018182Y025431D01*
X018058Y025307D01*
X017897Y025240D01*
X017162Y025240D01*
X017143Y025247D01*
X016866Y024970D01*
X015189Y024970D01*
X015274Y024885D01*
X015274Y024680D01*
X014779Y024680D01*
X014779Y024680D01*
X014284Y024680D01*
X014284Y024475D01*
X014574Y024185D01*
X014779Y024185D01*
X014779Y024680D01*
X014284Y024680D01*
X014284Y024885D01*
X014369Y024970D01*
X014161Y024970D01*
X014254Y024877D01*
X014254Y024483D01*
X013976Y024205D01*
X013601Y024205D01*
X013489Y024093D01*
X013489Y023267D01*
X013531Y023225D01*
X013541Y023236D01*
X013695Y023300D01*
X013863Y023300D01*
X014017Y023236D01*
X014135Y023118D01*
X014199Y022964D01*
X014199Y022796D01*
X014135Y022642D01*
X014017Y022524D01*
X013863Y022460D01*
X013695Y022460D01*
X013541Y022524D01*
X013423Y022642D01*
X013359Y022796D01*
X013359Y022803D01*
X013192Y022970D01*
X013069Y023093D01*
X013069Y024267D01*
X013304Y024502D01*
X013304Y024877D01*
X013397Y024970D01*
X013366Y024970D01*
X012139Y023743D01*
X012139Y023608D01*
X012084Y023476D01*
X011983Y023375D01*
X011851Y023320D01*
X011707Y023320D01*
X011591Y023368D01*
X011639Y023252D01*
X011639Y023108D01*
X011584Y022976D01*
X011489Y022881D01*
X011489Y019899D01*
X011575Y019985D01*
X011707Y020040D01*
X011842Y020040D01*
X013559Y021757D01*
X013559Y021771D01*
X013688Y021900D01*
X014938Y021900D01*
X016809Y023771D01*
X016809Y023771D01*
X016812Y023774D01*
X016876Y023929D01*
X016917Y023970D01*
X016866Y023970D01*
X014989Y022093D01*
X014989Y022093D01*
X014866Y021970D01*
X012692Y021970D01*
X012569Y022093D01*
X012342Y022320D01*
X012207Y022320D01*
X012075Y022375D01*
X011974Y022476D01*
X011919Y022608D01*
X011919Y022752D01*
X011974Y022884D01*
X012075Y022985D01*
X012207Y023040D01*
X012351Y023040D01*
X012483Y022985D01*
X012584Y022884D01*
X012639Y022752D01*
X012639Y022617D01*
X012866Y022390D01*
X014692Y022390D01*
X016569Y024267D01*
X016569Y024267D01*
X016692Y024390D01*
X016917Y024390D01*
X016876Y024431D01*
X016809Y024592D01*
X016809Y024768D01*
X016876Y024929D01*
X017000Y025053D01*
X017162Y025120D01*
X017897Y025120D01*
X018058Y025053D01*
X018182Y024929D01*
X018249Y024768D01*
X018249Y024592D01*
X018182Y024431D01*
X018141Y024390D01*
X018715Y024390D01*
X018663Y024442D01*
X018599Y024596D01*
X018599Y024764D01*
X018663Y024918D01*
X018781Y025036D01*
X018935Y025100D01*
X019623Y025100D01*
X019777Y025036D01*
X019895Y024918D01*
X019959Y024764D01*
X019959Y024657D01*
X021704Y026402D01*
X021663Y026442D01*
X021599Y026596D01*
X021599Y026764D01*
X021663Y026918D01*
X021781Y027036D01*
X021935Y027100D01*
X022623Y027100D01*
X022777Y027036D01*
X022895Y026918D01*
X022959Y026764D01*
X022959Y026596D01*
X022895Y026442D01*
X022777Y026324D01*
X022623Y026260D01*
X022156Y026260D01*
X021996Y026100D01*
X022623Y026100D01*
X022777Y026036D01*
X022895Y025918D01*
X022959Y025764D01*
X022959Y025596D01*
X022895Y025442D01*
X022777Y025324D01*
X022623Y025260D01*
X021935Y025260D01*
X021781Y025324D01*
X021663Y025442D01*
X021599Y025596D01*
X021599Y025703D01*
X019866Y023970D01*
X019843Y023970D01*
X019895Y023918D01*
X019959Y023764D01*
X019959Y023596D01*
X019895Y023442D01*
X019777Y023324D01*
X019623Y023260D01*
X018935Y023260D01*
X018781Y023324D01*
X018663Y023442D01*
X018599Y023596D01*
X018599Y023764D01*
X018663Y023918D01*
X018715Y023970D01*
X018141Y023970D01*
X018182Y023929D01*
X018249Y023768D01*
X018249Y023592D01*
X018182Y023431D01*
X018058Y023307D01*
X017897Y023240D01*
X017162Y023240D01*
X017000Y023307D01*
X016983Y023323D01*
X015835Y022175D01*
X015984Y022175D01*
X016274Y021885D01*
X016274Y021680D01*
X015779Y021680D01*
X015779Y021680D01*
X015779Y021185D01*
X015574Y021185D01*
X015284Y021475D01*
X015284Y021624D01*
X015249Y021589D01*
X015249Y021589D01*
X015120Y021460D01*
X013856Y021460D01*
X013796Y021400D01*
X013863Y021400D01*
X014017Y021336D01*
X014135Y021218D01*
X014199Y021064D01*
X014199Y020900D01*
X015327Y020900D01*
X015582Y021155D01*
X015976Y021155D01*
X016241Y020890D01*
X016860Y020890D01*
X016876Y020929D01*
X017000Y021053D01*
X017162Y021120D01*
X017897Y021120D01*
X018058Y021053D01*
X018182Y020929D01*
X018249Y020768D01*
X018249Y020592D01*
X018182Y020431D01*
X018141Y020390D01*
X018715Y020390D01*
X018663Y020442D01*
X018599Y020596D01*
X018599Y020764D01*
X018663Y020918D01*
X018781Y021036D01*
X018935Y021100D01*
X019623Y021100D01*
X019777Y021036D01*
X019895Y020918D01*
X019959Y020764D01*
X019959Y020596D01*
X019895Y020442D01*
X019843Y020390D01*
X021366Y020390D01*
X021751Y020005D01*
X021781Y020036D01*
X021935Y020100D01*
X022623Y020100D01*
X022777Y020036D01*
X022895Y019918D01*
X022959Y019764D01*
X022959Y019596D01*
X022895Y019442D01*
X022777Y019324D01*
X022623Y019260D01*
X021935Y019260D01*
X021781Y019324D01*
X021663Y019442D01*
X021623Y019539D01*
X021569Y019593D01*
X021192Y019970D01*
X019843Y019970D01*
X019895Y019918D01*
X019959Y019764D01*
X019959Y019596D01*
X019895Y019442D01*
X019777Y019324D01*
X019623Y019260D01*
X018935Y019260D01*
X018781Y019324D01*
X018663Y019442D01*
X018599Y019596D01*
X018599Y019764D01*
X018663Y019918D01*
X018715Y019970D01*
X018141Y019970D01*
X018182Y019929D01*
X018249Y019768D01*
X018249Y019592D01*
X018182Y019431D01*
X018058Y019307D01*
X017897Y019240D01*
X017162Y019240D01*
X017000Y019307D01*
X016876Y019431D01*
X016860Y019470D01*
X013366Y019470D01*
X012639Y018743D01*
X012639Y018608D01*
X012584Y018476D01*
X012498Y018390D01*
X016917Y018390D01*
X016876Y018431D01*
X016809Y018592D01*
X016809Y018768D01*
X016876Y018929D01*
X017000Y019053D01*
X017162Y019120D01*
X017897Y019120D01*
X018058Y019053D01*
X018182Y018929D01*
X018249Y018768D01*
X018249Y018592D01*
X018182Y018431D01*
X018141Y018390D01*
X018715Y018390D01*
X018663Y018442D01*
X018599Y018596D01*
X018599Y018764D01*
X018663Y018918D01*
X018781Y019036D01*
X018935Y019100D01*
X019623Y019100D01*
X019777Y019036D01*
X019895Y018918D01*
X019959Y018764D01*
X019959Y018596D01*
X019895Y018442D01*
X019843Y018390D01*
X021692Y018390D01*
X021704Y018402D01*
X021663Y018442D01*
X021599Y018596D01*
X021599Y018764D01*
X021663Y018918D01*
X021781Y019036D01*
X021935Y019100D01*
X022623Y019100D01*
X022777Y019036D01*
X022895Y018918D01*
X022959Y018764D01*
X022959Y018596D01*
X022895Y018442D01*
X022777Y018324D01*
X022623Y018260D01*
X022156Y018260D01*
X021996Y018100D01*
X022623Y018100D01*
X022777Y018036D01*
X022895Y017918D01*
X022959Y017764D01*
X022959Y017596D01*
X022895Y017442D01*
X022777Y017324D01*
X022623Y017260D01*
X021935Y017260D01*
X021781Y017324D01*
X021663Y017442D01*
X021651Y017470D01*
X021489Y017470D01*
X021489Y016767D01*
X021599Y016657D01*
X021599Y016764D01*
X021663Y016918D01*
X021781Y017036D01*
X021935Y017100D01*
X022623Y017100D01*
X022777Y017036D01*
X022895Y016918D01*
X022959Y016764D01*
X022959Y016596D01*
X022895Y016442D01*
X022777Y016324D01*
X022623Y016260D01*
X021996Y016260D01*
X022216Y016040D01*
X022351Y016040D01*
X022483Y015985D01*
X022584Y015884D01*
X022639Y015752D01*
X022639Y015608D01*
X022584Y015476D01*
X022498Y015390D01*
X039866Y015390D01*
X039989Y015267D01*
X039989Y002781D01*
X039999Y002771D01*
X039999Y002589D01*
X039370Y001960D01*
X037665Y001960D01*
X037687Y001930D01*
X037721Y001863D01*
X037744Y001792D01*
X037756Y001718D01*
X037756Y001698D01*
X037297Y001698D01*
X037297Y001662D01*
X037297Y001203D01*
X037317Y001203D01*
X037391Y001215D01*
X037462Y001238D01*
X037529Y001272D01*
X037590Y001316D01*
X037643Y001369D01*
X037687Y001430D01*
X037721Y001497D01*
X037744Y001568D01*
X037756Y001642D01*
X037756Y001662D01*
X037297Y001662D01*
X037261Y001662D01*
X037261Y001203D01*
X037241Y001203D01*
X037167Y001215D01*
X037096Y001238D01*
X037029Y001272D01*
X036968Y001316D01*
X036915Y001369D01*
X036871Y001430D01*
X036837Y001497D01*
X036814Y001568D01*
X036802Y001642D01*
X036802Y001662D01*
X037261Y001662D01*
X037261Y001698D01*
X036802Y001698D01*
X036802Y001718D01*
X036814Y001792D01*
X036837Y001863D01*
X036871Y001930D01*
X036893Y001960D01*
X036870Y001960D01*
X036720Y001810D01*
X036736Y001771D01*
X036736Y001589D01*
X036666Y001421D01*
X036538Y001293D01*
X036370Y001223D01*
X036188Y001223D01*
X036020Y001293D01*
X035892Y001421D01*
X035822Y001589D01*
X035822Y001771D01*
X035892Y001939D01*
X036020Y002067D01*
X036188Y002137D01*
X036370Y002137D01*
X036409Y002121D01*
X036559Y002271D01*
X036569Y002281D01*
X036569Y002324D01*
X036538Y002293D01*
X036370Y002223D01*
X036188Y002223D01*
X036020Y002293D01*
X035989Y002324D01*
X035989Y002093D01*
X035866Y001970D01*
X035635Y001970D01*
X035666Y001939D01*
X035736Y001771D01*
X035736Y001589D01*
X035666Y001421D01*
X035538Y001293D01*
X035370Y001223D01*
X035188Y001223D01*
X035139Y001243D01*
X034556Y000660D01*
X040169Y000660D01*
X040169Y031446D01*
X029305Y031446D01*
X029589Y031162D01*
X029589Y030698D01*
X029321Y030430D01*
X029589Y030162D01*
X029589Y029698D01*
X029335Y029444D01*
X029609Y029170D01*
X029609Y028950D01*
X029049Y028950D01*
X029049Y028910D01*
X029609Y028910D01*
X029609Y028690D01*
X029335Y028416D01*
X029589Y028162D01*
X029589Y027698D01*
X029321Y027430D01*
X029589Y027162D01*
X029589Y026698D01*
X029321Y026430D01*
X029589Y026162D01*
X029589Y025698D01*
X029261Y025370D01*
X028797Y025370D01*
X028469Y025698D01*
X028469Y026162D01*
X028737Y026430D01*
X028469Y026698D01*
X028469Y027162D01*
X028737Y027430D01*
X028469Y027698D01*
X028469Y028162D01*
X028723Y028416D01*
X028449Y028690D01*
X028449Y028910D01*
X029009Y028910D01*
X029009Y028950D01*
X028449Y028950D01*
X028449Y029170D01*
X028723Y029444D01*
X028469Y029698D01*
X028469Y030162D01*
X028737Y030430D01*
X028469Y030698D01*
X028469Y031162D01*
X028753Y031446D01*
X001759Y031446D01*
X001759Y031405D02*
X028712Y031405D01*
X028553Y031246D02*
X001759Y031246D01*
X001759Y031088D02*
X028469Y031088D01*
X028469Y030929D02*
X020039Y030929D01*
X020084Y030884D02*
X019983Y030985D01*
X019851Y031040D01*
X019707Y031040D01*
X019575Y030985D01*
X019480Y030890D01*
X008578Y030890D01*
X008483Y030985D01*
X008351Y031040D01*
X008207Y031040D01*
X008075Y030985D01*
X007974Y030884D01*
X007919Y030752D01*
X007919Y030617D01*
X005842Y028540D01*
X005707Y028540D01*
X005575Y028485D01*
X005474Y028384D01*
X005419Y028252D01*
X005419Y028108D01*
X005474Y027976D01*
X005560Y027890D01*
X004989Y027890D01*
X004989Y029381D01*
X005084Y029476D01*
X005139Y029608D01*
X005139Y029752D01*
X005084Y029884D01*
X004983Y029985D01*
X004851Y030040D01*
X004707Y030040D01*
X004575Y029985D01*
X004474Y029884D01*
X004419Y029752D01*
X004419Y029608D01*
X004474Y029476D01*
X004569Y029381D01*
X004569Y027767D01*
X004569Y027593D01*
X004692Y027470D01*
X008480Y027470D01*
X008575Y027375D01*
X008707Y027320D01*
X008747Y027320D01*
X008554Y027127D01*
X008554Y026733D01*
X008832Y026455D01*
X009226Y026455D01*
X009504Y026733D01*
X009504Y027127D01*
X009226Y027405D01*
X009013Y027405D01*
X009084Y027476D01*
X009139Y027608D01*
X009139Y027752D01*
X009084Y027884D01*
X008983Y027985D01*
X008851Y028040D01*
X008707Y028040D01*
X008575Y027985D01*
X008480Y027890D01*
X005998Y027890D01*
X006084Y027976D01*
X006139Y028108D01*
X006139Y028243D01*
X008216Y030320D01*
X008351Y030320D01*
X008483Y030375D01*
X008578Y030470D01*
X019480Y030470D01*
X019575Y030375D01*
X019707Y030320D01*
X019851Y030320D01*
X019983Y030375D01*
X020084Y030476D01*
X020139Y030608D01*
X020139Y030752D01*
X020084Y030884D01*
X020131Y030771D02*
X028469Y030771D01*
X028555Y030612D02*
X020139Y030612D01*
X020062Y030454D02*
X028714Y030454D01*
X028602Y030295D02*
X008191Y030295D01*
X008033Y030137D02*
X028469Y030137D01*
X028469Y029978D02*
X024633Y029978D01*
X024682Y029929D02*
X024558Y030053D01*
X024397Y030120D01*
X023662Y030120D01*
X023500Y030053D01*
X023376Y029929D01*
X023360Y029890D01*
X022907Y029890D01*
X022895Y029918D01*
X022777Y030036D01*
X022623Y030100D01*
X021935Y030100D01*
X021781Y030036D01*
X021663Y029918D01*
X021599Y029764D01*
X021599Y029596D01*
X021663Y029442D01*
X021781Y029324D01*
X021935Y029260D01*
X022623Y029260D01*
X022777Y029324D01*
X022895Y029442D01*
X022907Y029470D01*
X023360Y029470D01*
X023376Y029431D01*
X023500Y029307D01*
X023662Y029240D01*
X024397Y029240D01*
X024558Y029307D01*
X024682Y029431D01*
X024749Y029592D01*
X024749Y029768D01*
X024682Y029929D01*
X024727Y029820D02*
X028469Y029820D01*
X028506Y029661D02*
X024749Y029661D01*
X024712Y029503D02*
X028665Y029503D01*
X028623Y029344D02*
X024595Y029344D01*
X024558Y029053D02*
X024397Y029120D01*
X023662Y029120D01*
X023500Y029053D01*
X023376Y028929D01*
X023360Y028890D01*
X022907Y028890D01*
X022895Y028918D01*
X022777Y029036D01*
X022623Y029100D01*
X021935Y029100D01*
X021781Y029036D01*
X021663Y028918D01*
X021599Y028764D01*
X021599Y028596D01*
X021663Y028442D01*
X021781Y028324D01*
X021935Y028260D01*
X022623Y028260D01*
X022777Y028324D01*
X022895Y028442D01*
X022907Y028470D01*
X023360Y028470D01*
X023376Y028431D01*
X023500Y028307D01*
X023662Y028240D01*
X024397Y028240D01*
X024558Y028307D01*
X024682Y028431D01*
X024749Y028592D01*
X024749Y028768D01*
X024682Y028929D01*
X024558Y029053D01*
X024584Y029027D02*
X028449Y029027D01*
X028449Y028869D02*
X024707Y028869D01*
X024749Y028710D02*
X028449Y028710D01*
X028587Y028552D02*
X024732Y028552D01*
X024644Y028393D02*
X028700Y028393D01*
X028542Y028235D02*
X017131Y028235D01*
X017143Y028247D02*
X017162Y028240D01*
X017897Y028240D01*
X018058Y028307D01*
X018182Y028431D01*
X018249Y028592D01*
X018249Y028768D01*
X018182Y028929D01*
X018058Y029053D01*
X017897Y029120D01*
X017162Y029120D01*
X017000Y029053D01*
X016876Y028929D01*
X016809Y028768D01*
X016809Y028592D01*
X016834Y028532D01*
X015692Y027390D01*
X011692Y027390D01*
X011569Y027267D01*
X011342Y027040D01*
X011207Y027040D01*
X011075Y026985D01*
X010974Y026884D01*
X010919Y026752D01*
X010919Y026608D01*
X010974Y026476D01*
X011075Y026375D01*
X011207Y026320D01*
X011351Y026320D01*
X011483Y026375D01*
X011584Y026476D01*
X011639Y026608D01*
X011639Y026743D01*
X011866Y026970D01*
X015866Y026970D01*
X017143Y028247D01*
X017162Y028120D02*
X017000Y028053D01*
X016876Y027929D01*
X016809Y027768D01*
X016809Y027592D01*
X016876Y027431D01*
X017000Y027307D01*
X017162Y027240D01*
X017897Y027240D01*
X018058Y027307D01*
X018182Y027431D01*
X018249Y027592D01*
X018249Y027768D01*
X018182Y027929D01*
X018058Y028053D01*
X017897Y028120D01*
X017162Y028120D01*
X017055Y028076D02*
X016972Y028076D01*
X016871Y027918D02*
X016814Y027918D01*
X016809Y027759D02*
X016655Y027759D01*
X016809Y027601D02*
X016497Y027601D01*
X016338Y027442D02*
X016871Y027442D01*
X017056Y027284D02*
X016180Y027284D01*
X016021Y027125D02*
X024537Y027125D01*
X024558Y027053D02*
X024397Y027120D01*
X023662Y027120D01*
X023500Y027053D01*
X023376Y026929D01*
X023309Y026768D01*
X023309Y026592D01*
X023376Y026431D01*
X023500Y026307D01*
X023662Y026240D01*
X024397Y026240D01*
X024415Y026247D01*
X025069Y025593D01*
X025192Y025470D01*
X027192Y025470D01*
X027272Y025390D01*
X024866Y025390D01*
X024724Y025532D01*
X024749Y025592D01*
X024749Y025768D01*
X024682Y025929D01*
X024558Y026053D01*
X024397Y026120D01*
X023662Y026120D01*
X023500Y026053D01*
X023376Y025929D01*
X023309Y025768D01*
X023309Y025592D01*
X023376Y025431D01*
X023500Y025307D01*
X023662Y025240D01*
X024397Y025240D01*
X024415Y025247D01*
X024692Y024970D01*
X027069Y024970D01*
X027069Y021093D01*
X027192Y020970D01*
X028692Y019470D01*
X030112Y019470D01*
X030112Y019222D01*
X030205Y019129D01*
X030853Y019129D01*
X030947Y019222D01*
X030947Y020977D01*
X030954Y020991D01*
X030967Y021037D01*
X030967Y021318D01*
X030967Y021599D01*
X030954Y021645D01*
X030947Y021658D01*
X030947Y021688D01*
X031059Y021688D01*
X031059Y018900D01*
X028620Y018900D01*
X026335Y021185D01*
X026529Y021185D01*
X026529Y021680D01*
X026529Y021680D01*
X026034Y021680D01*
X026034Y021486D01*
X026004Y021516D01*
X026004Y021877D01*
X025726Y022155D01*
X025332Y022155D01*
X025054Y021877D01*
X025054Y021702D01*
X024989Y021767D01*
X024989Y022767D01*
X024866Y022890D01*
X024698Y022890D01*
X024682Y022929D01*
X024558Y023053D01*
X024397Y023120D01*
X023662Y023120D01*
X023500Y023053D01*
X023376Y022929D01*
X023309Y022768D01*
X023309Y022592D01*
X023376Y022431D01*
X023500Y022307D01*
X023662Y022240D01*
X024397Y022240D01*
X024558Y022307D01*
X024569Y022318D01*
X024569Y022042D01*
X024558Y022053D01*
X024569Y022053D01*
X024558Y022053D02*
X024397Y022120D01*
X023662Y022120D01*
X023500Y022053D01*
X022736Y022053D01*
X022777Y022036D02*
X022623Y022100D01*
X021935Y022100D01*
X021781Y022036D01*
X021663Y021918D01*
X021599Y021764D01*
X021599Y021596D01*
X021663Y021442D01*
X021781Y021324D01*
X021935Y021260D01*
X022623Y021260D01*
X022777Y021324D01*
X022895Y021442D01*
X022959Y021596D01*
X022959Y021764D01*
X022895Y021918D01*
X022777Y022036D01*
X022905Y021895D02*
X023362Y021895D01*
X023376Y021929D02*
X023309Y021768D01*
X023309Y021592D01*
X023376Y021431D01*
X023500Y021307D01*
X023662Y021240D01*
X024397Y021240D01*
X024558Y021307D01*
X024682Y021431D01*
X024696Y021466D01*
X025419Y020743D01*
X025419Y020608D01*
X025474Y020476D01*
X025575Y020375D01*
X025707Y020320D01*
X025851Y020320D01*
X025983Y020375D01*
X026084Y020476D01*
X026139Y020608D01*
X026139Y020752D01*
X026134Y020764D01*
X028438Y018460D01*
X031370Y018460D01*
X031499Y018589D01*
X031499Y021999D01*
X031370Y022128D01*
X030947Y022128D01*
X030947Y024004D01*
X030853Y024097D01*
X030254Y024097D01*
X030254Y024377D01*
X029976Y024655D01*
X029582Y024655D01*
X029304Y024377D01*
X029304Y023983D01*
X029582Y023705D01*
X029976Y023705D01*
X030112Y023841D01*
X030112Y023519D01*
X029976Y023655D01*
X029582Y023655D01*
X029304Y023377D01*
X029304Y022983D01*
X029482Y022805D01*
X029304Y022627D01*
X029304Y022233D01*
X029582Y021955D01*
X029976Y021955D01*
X030112Y022091D01*
X030112Y021798D01*
X029984Y021925D01*
X029779Y021925D01*
X029574Y021925D01*
X029284Y021635D01*
X029284Y021430D01*
X029284Y021225D01*
X029574Y020935D01*
X029779Y020935D01*
X029779Y021430D01*
X029779Y021430D01*
X029284Y021430D01*
X029779Y021430D01*
X029779Y021925D01*
X029779Y021430D01*
X029779Y021430D01*
X029779Y021430D01*
X029779Y020935D01*
X029984Y020935D01*
X030092Y021042D01*
X030092Y021037D01*
X030104Y020991D01*
X030112Y020977D01*
X030112Y020890D01*
X029366Y020890D01*
X029139Y021117D01*
X029139Y021252D01*
X029084Y021384D01*
X028983Y021485D01*
X028851Y021540D01*
X028707Y021540D01*
X028575Y021485D01*
X028529Y021439D01*
X028489Y021479D01*
X028489Y024767D01*
X028366Y024890D01*
X027366Y025890D01*
X025366Y025890D01*
X024724Y026532D01*
X024749Y026592D01*
X024749Y026768D01*
X024682Y026929D01*
X024558Y027053D01*
X024645Y026967D02*
X024695Y026967D01*
X024732Y026808D02*
X024854Y026808D01*
X024749Y026650D02*
X025013Y026650D01*
X025069Y026593D02*
X025192Y026470D01*
X026480Y026470D01*
X026575Y026375D01*
X026707Y026320D01*
X026851Y026320D01*
X026983Y026375D01*
X027084Y026476D01*
X027139Y026608D01*
X027139Y026752D01*
X027084Y026884D01*
X026983Y026985D01*
X026851Y027040D01*
X026707Y027040D01*
X026575Y026985D01*
X026480Y026890D01*
X025366Y026890D01*
X024724Y027532D01*
X024749Y027592D01*
X024749Y027768D01*
X024682Y027929D01*
X024558Y028053D01*
X024397Y028120D01*
X023662Y028120D01*
X023500Y028053D01*
X023376Y027929D01*
X023309Y027768D01*
X023309Y027592D01*
X023376Y027431D01*
X023500Y027307D01*
X023662Y027240D01*
X024397Y027240D01*
X024415Y027247D01*
X025069Y026593D01*
X025171Y026491D02*
X024765Y026491D01*
X024923Y026333D02*
X026677Y026333D01*
X026881Y026333D02*
X028640Y026333D01*
X028676Y026491D02*
X027090Y026491D01*
X027139Y026650D02*
X028518Y026650D01*
X028469Y026808D02*
X027116Y026808D01*
X027002Y026967D02*
X028469Y026967D01*
X028469Y027125D02*
X025131Y027125D01*
X025289Y026967D02*
X026556Y026967D01*
X027399Y025857D02*
X028469Y025857D01*
X028469Y025699D02*
X027557Y025699D01*
X027716Y025540D02*
X028627Y025540D01*
X028786Y025382D02*
X027874Y025382D01*
X028033Y025223D02*
X040169Y025223D01*
X040169Y025065D02*
X028191Y025065D01*
X028350Y024906D02*
X040169Y024906D01*
X040169Y024748D02*
X028489Y024748D01*
X028489Y024589D02*
X029516Y024589D01*
X029358Y024431D02*
X028489Y024431D01*
X028489Y024272D02*
X029304Y024272D01*
X029304Y024114D02*
X028489Y024114D01*
X028489Y023955D02*
X029332Y023955D01*
X029491Y023797D02*
X028489Y023797D01*
X028489Y023638D02*
X029565Y023638D01*
X029407Y023480D02*
X028489Y023480D01*
X028489Y023321D02*
X029304Y023321D01*
X029304Y023163D02*
X028489Y023163D01*
X028489Y023004D02*
X029304Y023004D01*
X029442Y022846D02*
X028489Y022846D01*
X028489Y022687D02*
X029364Y022687D01*
X029304Y022529D02*
X028489Y022529D01*
X028489Y022370D02*
X029304Y022370D01*
X029326Y022212D02*
X028489Y022212D01*
X028489Y022053D02*
X029484Y022053D01*
X029544Y021895D02*
X028489Y021895D01*
X028489Y021736D02*
X029385Y021736D01*
X029284Y021578D02*
X028489Y021578D01*
X029049Y021419D02*
X029284Y021419D01*
X029284Y021261D02*
X029135Y021261D01*
X029154Y021102D02*
X029407Y021102D01*
X029312Y020944D02*
X029565Y020944D01*
X029779Y020944D02*
X029779Y020944D01*
X029779Y021102D02*
X029779Y021102D01*
X029779Y021261D02*
X029779Y021261D01*
X029779Y021419D02*
X029779Y021419D01*
X029779Y021578D02*
X029779Y021578D01*
X029779Y021736D02*
X029779Y021736D01*
X029779Y021895D02*
X029779Y021895D01*
X030015Y021895D02*
X030112Y021895D01*
X030112Y022053D02*
X030074Y022053D01*
X030529Y021318D02*
X030967Y021318D01*
X030529Y021318D01*
X030529Y021318D01*
X030967Y021261D02*
X031059Y021261D01*
X031059Y021419D02*
X030967Y021419D01*
X030967Y021578D02*
X031059Y021578D01*
X031499Y021578D02*
X040169Y021578D01*
X040169Y021736D02*
X031499Y021736D01*
X031499Y021895D02*
X040169Y021895D01*
X040169Y022053D02*
X031445Y022053D01*
X030947Y022212D02*
X040169Y022212D01*
X040169Y022370D02*
X030947Y022370D01*
X030947Y022529D02*
X040169Y022529D01*
X040169Y022687D02*
X030947Y022687D01*
X030947Y022846D02*
X040169Y022846D01*
X040169Y023004D02*
X030947Y023004D01*
X030947Y023163D02*
X040169Y023163D01*
X040169Y023321D02*
X030947Y023321D01*
X030947Y023480D02*
X040169Y023480D01*
X040169Y023638D02*
X030947Y023638D01*
X030947Y023797D02*
X040169Y023797D01*
X040169Y023955D02*
X030947Y023955D01*
X030254Y024114D02*
X040169Y024114D01*
X040169Y024272D02*
X030254Y024272D01*
X030200Y024431D02*
X040169Y024431D01*
X040169Y024589D02*
X030042Y024589D01*
X030067Y023797D02*
X030112Y023797D01*
X030112Y023638D02*
X029993Y023638D01*
X029273Y025382D02*
X040169Y025382D01*
X040169Y025540D02*
X029431Y025540D01*
X029589Y025699D02*
X040169Y025699D01*
X040169Y025857D02*
X029589Y025857D01*
X029589Y026016D02*
X040169Y026016D01*
X040169Y026174D02*
X029577Y026174D01*
X029418Y026333D02*
X040169Y026333D01*
X040169Y026491D02*
X029382Y026491D01*
X029541Y026650D02*
X040169Y026650D01*
X040169Y026808D02*
X029589Y026808D01*
X029589Y026967D02*
X040169Y026967D01*
X040169Y027125D02*
X029589Y027125D01*
X029467Y027284D02*
X040169Y027284D01*
X040169Y027442D02*
X029333Y027442D01*
X029492Y027601D02*
X040169Y027601D01*
X040169Y027759D02*
X029589Y027759D01*
X029589Y027918D02*
X040169Y027918D01*
X040169Y028076D02*
X029589Y028076D01*
X029516Y028235D02*
X040169Y028235D01*
X040169Y028393D02*
X029358Y028393D01*
X029471Y028552D02*
X040169Y028552D01*
X040169Y028710D02*
X029609Y028710D01*
X029609Y028869D02*
X040169Y028869D01*
X040169Y029027D02*
X029609Y029027D01*
X029594Y029186D02*
X040169Y029186D01*
X040169Y029344D02*
X029435Y029344D01*
X029394Y029503D02*
X040169Y029503D01*
X040169Y029661D02*
X029552Y029661D01*
X029589Y029820D02*
X040169Y029820D01*
X040169Y029978D02*
X029589Y029978D01*
X029589Y030137D02*
X040169Y030137D01*
X040169Y030295D02*
X029456Y030295D01*
X029345Y030454D02*
X040169Y030454D01*
X040169Y030612D02*
X029503Y030612D01*
X029589Y030771D02*
X040169Y030771D01*
X040169Y030929D02*
X029589Y030929D01*
X029589Y031088D02*
X040169Y031088D01*
X040169Y031246D02*
X029505Y031246D01*
X029346Y031405D02*
X040169Y031405D01*
X028725Y027442D02*
X024814Y027442D01*
X024749Y027601D02*
X028567Y027601D01*
X028469Y027759D02*
X024749Y027759D01*
X024687Y027918D02*
X028469Y027918D01*
X028469Y028076D02*
X024503Y028076D01*
X023555Y028076D02*
X022680Y028076D01*
X022623Y028100D02*
X022777Y028036D01*
X022895Y027918D01*
X022959Y027764D01*
X022959Y027596D01*
X022895Y027442D01*
X023371Y027442D01*
X023309Y027601D02*
X022959Y027601D01*
X022959Y027759D02*
X023309Y027759D01*
X023371Y027918D02*
X022895Y027918D01*
X022623Y028100D02*
X021935Y028100D01*
X021781Y028036D01*
X021663Y027918D01*
X021599Y027764D01*
X021599Y027596D01*
X021663Y027442D01*
X019895Y027442D01*
X019959Y027596D01*
X019959Y027764D01*
X019895Y027918D01*
X019777Y028036D01*
X019623Y028100D01*
X018935Y028100D01*
X018781Y028036D01*
X018663Y027918D01*
X018599Y027764D01*
X018599Y027596D01*
X018663Y027442D01*
X018187Y027442D01*
X018249Y027601D02*
X018599Y027601D01*
X018599Y027759D02*
X018249Y027759D01*
X018187Y027918D02*
X018663Y027918D01*
X018878Y028076D02*
X018003Y028076D01*
X018144Y028393D02*
X018712Y028393D01*
X018663Y028442D02*
X018781Y028324D01*
X018935Y028260D01*
X019623Y028260D01*
X019777Y028324D01*
X019895Y028442D01*
X019959Y028596D01*
X019959Y028764D01*
X019895Y028918D01*
X019777Y029036D01*
X019623Y029100D01*
X018935Y029100D01*
X018781Y029036D01*
X018663Y028918D01*
X018599Y028764D01*
X018599Y028596D01*
X018663Y028442D01*
X018618Y028552D02*
X018232Y028552D01*
X018249Y028710D02*
X018599Y028710D01*
X018643Y028869D02*
X018207Y028869D01*
X018084Y029027D02*
X018772Y029027D01*
X018935Y029260D02*
X018781Y029324D01*
X018663Y029442D01*
X018599Y029596D01*
X018599Y029764D01*
X018663Y029918D01*
X018781Y030036D01*
X018935Y030100D01*
X019623Y030100D01*
X019777Y030036D01*
X019895Y029918D01*
X019959Y029764D01*
X019959Y029596D01*
X019895Y029442D01*
X019777Y029324D01*
X019623Y029260D01*
X018935Y029260D01*
X018761Y029344D02*
X018095Y029344D01*
X018058Y029307D02*
X018182Y029431D01*
X018249Y029592D01*
X018249Y029768D01*
X018182Y029929D01*
X018058Y030053D01*
X017897Y030120D01*
X017162Y030120D01*
X017000Y030053D01*
X016876Y029929D01*
X016809Y029768D01*
X016809Y029592D01*
X016876Y029431D01*
X017000Y029307D01*
X017162Y029240D01*
X017897Y029240D01*
X018058Y029307D01*
X018212Y029503D02*
X018638Y029503D01*
X018599Y029661D02*
X018249Y029661D01*
X018227Y029820D02*
X018622Y029820D01*
X018723Y029978D02*
X018133Y029978D01*
X016925Y029978D02*
X007874Y029978D01*
X007716Y029820D02*
X016831Y029820D01*
X016809Y029661D02*
X007557Y029661D01*
X007399Y029503D02*
X016846Y029503D01*
X016963Y029344D02*
X012738Y029344D01*
X012640Y029385D02*
X012845Y029300D01*
X013002Y029143D01*
X013086Y028938D01*
X013086Y027922D01*
X013002Y027717D01*
X012845Y027560D01*
X012640Y027475D01*
X012418Y027475D01*
X012213Y027560D01*
X012056Y027717D01*
X011972Y027922D01*
X011972Y028938D01*
X012056Y029143D01*
X012213Y029300D01*
X012418Y029385D01*
X012640Y029385D01*
X012320Y029344D02*
X007240Y029344D01*
X007082Y029186D02*
X012099Y029186D01*
X012008Y029027D02*
X006923Y029027D01*
X006765Y028869D02*
X011972Y028869D01*
X011972Y028710D02*
X006606Y028710D01*
X006448Y028552D02*
X011972Y028552D01*
X011972Y028393D02*
X006289Y028393D01*
X006139Y028235D02*
X011972Y028235D01*
X011972Y028076D02*
X006126Y028076D01*
X006026Y027918D02*
X008507Y027918D01*
X008508Y027442D02*
X001759Y027442D01*
X001759Y027284D02*
X007683Y027284D01*
X007824Y027425D02*
X007534Y027135D01*
X007534Y026930D01*
X007534Y026725D01*
X007824Y026435D01*
X008029Y026435D01*
X008029Y026930D01*
X008029Y026930D01*
X007534Y026930D01*
X008029Y026930D01*
X008029Y027425D01*
X007824Y027425D01*
X008029Y027425D02*
X008234Y027425D01*
X008524Y027135D01*
X008524Y026930D01*
X008029Y026930D01*
X008029Y026930D01*
X008029Y026930D01*
X008029Y027425D01*
X008029Y027284D02*
X008029Y027284D01*
X008029Y027125D02*
X008029Y027125D01*
X008029Y026967D02*
X008029Y026967D01*
X008029Y026930D02*
X008029Y026930D01*
X008029Y026435D01*
X008234Y026435D01*
X008524Y026725D01*
X008524Y026930D01*
X008029Y026930D01*
X008029Y026808D02*
X008029Y026808D01*
X008029Y026650D02*
X008029Y026650D01*
X008029Y026491D02*
X008029Y026491D01*
X007768Y026491D02*
X001759Y026491D01*
X001759Y026333D02*
X011177Y026333D01*
X011381Y026333D02*
X011952Y026333D01*
X011952Y026373D02*
X011952Y025982D01*
X012477Y025982D01*
X012477Y026904D01*
X012394Y026891D01*
X012307Y026863D01*
X012226Y026821D01*
X012153Y026768D01*
X012089Y026704D01*
X012035Y026630D01*
X011994Y026549D01*
X011966Y026463D01*
X011952Y026373D01*
X011975Y026491D02*
X011590Y026491D01*
X011639Y026650D02*
X012049Y026650D01*
X012208Y026808D02*
X011704Y026808D01*
X011863Y026967D02*
X016913Y026967D01*
X016876Y026929D02*
X016809Y026768D01*
X016809Y026592D01*
X016876Y026431D01*
X017000Y026307D01*
X017162Y026240D01*
X017897Y026240D01*
X018058Y026307D01*
X018182Y026431D01*
X018249Y026592D01*
X018249Y026768D01*
X018182Y026929D01*
X018058Y027053D01*
X017897Y027120D01*
X017162Y027120D01*
X017000Y027053D01*
X016876Y026929D01*
X016826Y026808D02*
X012850Y026808D01*
X013009Y026650D02*
X016809Y026650D01*
X016851Y026491D02*
X013083Y026491D01*
X013106Y026333D02*
X014982Y026333D01*
X015074Y026425D02*
X014784Y026135D01*
X014784Y025930D01*
X014784Y025725D01*
X015074Y025435D01*
X015279Y025435D01*
X015279Y025930D01*
X015279Y025930D01*
X014784Y025930D01*
X015279Y025930D01*
X015279Y026425D01*
X015074Y026425D01*
X015279Y026425D02*
X015484Y026425D01*
X015774Y026135D01*
X015774Y025930D01*
X015279Y025930D01*
X015279Y025930D01*
X015279Y025930D01*
X015279Y026425D01*
X015279Y026333D02*
X015279Y026333D01*
X015279Y026174D02*
X015279Y026174D01*
X015279Y026016D02*
X015279Y026016D01*
X015279Y025930D02*
X015279Y025930D01*
X015279Y025435D01*
X015484Y025435D01*
X015774Y025725D01*
X015774Y025930D01*
X015279Y025930D01*
X015279Y025857D02*
X015279Y025857D01*
X015279Y025699D02*
X015279Y025699D01*
X015279Y025540D02*
X015279Y025540D01*
X014969Y025540D02*
X013106Y025540D01*
X013106Y025699D02*
X014810Y025699D01*
X014784Y025857D02*
X013106Y025857D01*
X013106Y026016D02*
X014784Y026016D01*
X014823Y026174D02*
X013106Y026174D01*
X012582Y026174D02*
X012477Y026174D01*
X012477Y026016D02*
X012582Y026016D01*
X012582Y025857D02*
X012477Y025857D01*
X012477Y025878D02*
X012477Y024956D01*
X012394Y024969D01*
X012307Y024997D01*
X012226Y025039D01*
X012153Y025092D01*
X012089Y025156D01*
X012035Y025230D01*
X011994Y025311D01*
X011966Y025397D01*
X011952Y025487D01*
X011952Y025878D01*
X012477Y025878D01*
X012477Y025699D02*
X012582Y025699D01*
X012582Y025540D02*
X012477Y025540D01*
X012477Y025382D02*
X012582Y025382D01*
X012582Y025223D02*
X012477Y025223D01*
X012477Y025065D02*
X012582Y025065D01*
X012708Y024906D02*
X001759Y024906D01*
X001759Y024748D02*
X012550Y024748D01*
X012391Y024589D02*
X001759Y024589D01*
X001759Y024431D02*
X012233Y024431D01*
X012074Y024272D02*
X001759Y024272D01*
X001759Y024114D02*
X011916Y024114D01*
X011545Y023955D02*
X001759Y023955D01*
X001759Y023797D02*
X011438Y023797D01*
X011419Y023638D02*
X001759Y023638D01*
X001759Y023480D02*
X011069Y023480D01*
X010948Y023321D02*
X001759Y023321D01*
X001759Y023163D02*
X010919Y023163D01*
X010962Y023004D02*
X001759Y023004D01*
X001759Y022846D02*
X011069Y022846D01*
X011069Y022687D02*
X001759Y022687D01*
X001759Y022529D02*
X011069Y022529D01*
X011069Y022370D02*
X001759Y022370D01*
X001759Y022212D02*
X011069Y022212D01*
X011069Y022053D02*
X001759Y022053D01*
X001759Y021895D02*
X011069Y021895D01*
X011069Y021736D02*
X001759Y021736D01*
X001759Y021578D02*
X011069Y021578D01*
X011069Y021419D02*
X001759Y021419D01*
X001759Y021261D02*
X011069Y021261D01*
X011069Y021102D02*
X001759Y021102D01*
X001759Y020944D02*
X011069Y020944D01*
X011069Y020785D02*
X001759Y020785D01*
X001759Y020627D02*
X011069Y020627D01*
X011069Y020468D02*
X001759Y020468D01*
X001759Y020310D02*
X011069Y020310D01*
X011069Y020151D02*
X008560Y020151D01*
X008507Y020165D02*
X008051Y020165D01*
X007609Y020047D01*
X007214Y019818D01*
X006891Y019495D01*
X006662Y019100D01*
X006544Y018658D01*
X006544Y018202D01*
X006662Y017760D01*
X006891Y017365D01*
X007214Y017042D01*
X007609Y016813D01*
X008051Y016695D01*
X008507Y016695D01*
X008949Y016813D01*
X009344Y017042D01*
X009667Y017365D01*
X009896Y017760D01*
X010014Y018202D01*
X010014Y018658D01*
X009896Y019100D01*
X009667Y019495D01*
X009344Y019818D01*
X008949Y020047D01*
X008507Y020165D01*
X007998Y020151D02*
X001759Y020151D01*
X001759Y019993D02*
X007515Y019993D01*
X007241Y019834D02*
X001759Y019834D01*
X001759Y019676D02*
X007071Y019676D01*
X006912Y019517D02*
X001759Y019517D01*
X001759Y019359D02*
X006812Y019359D01*
X006720Y019200D02*
X001759Y019200D01*
X001759Y019042D02*
X006647Y019042D01*
X006604Y018883D02*
X001759Y018883D01*
X001759Y018725D02*
X006562Y018725D01*
X006544Y018566D02*
X001759Y018566D01*
X001759Y018408D02*
X006544Y018408D01*
X006544Y018249D02*
X001759Y018249D01*
X001759Y018091D02*
X006574Y018091D01*
X006616Y017932D02*
X001759Y017932D01*
X001759Y017774D02*
X006659Y017774D01*
X006746Y017615D02*
X001759Y017615D01*
X001759Y017457D02*
X006838Y017457D01*
X006957Y017298D02*
X001759Y017298D01*
X001759Y017140D02*
X007116Y017140D01*
X007319Y016981D02*
X001759Y016981D01*
X001759Y016823D02*
X007593Y016823D01*
X008965Y016823D02*
X014034Y016823D01*
X014034Y016885D02*
X014034Y016680D01*
X014034Y016475D01*
X014324Y016185D01*
X014529Y016185D01*
X014529Y016680D01*
X014529Y016680D01*
X014034Y016680D01*
X014529Y016680D01*
X014529Y017175D01*
X014324Y017175D01*
X014034Y016885D01*
X014130Y016981D02*
X009239Y016981D01*
X009442Y017140D02*
X014289Y017140D01*
X014529Y017140D02*
X014529Y017140D01*
X014529Y017175D02*
X014734Y017175D01*
X015024Y016885D01*
X015024Y016680D01*
X014529Y016680D01*
X014529Y016680D01*
X014529Y016680D01*
X014529Y017175D01*
X014529Y016981D02*
X014529Y016981D01*
X014529Y016823D02*
X014529Y016823D01*
X014529Y016680D02*
X014529Y016680D01*
X014529Y016185D01*
X014734Y016185D01*
X015024Y016475D01*
X015024Y016680D01*
X014529Y016680D01*
X014529Y016664D02*
X014529Y016664D01*
X014529Y016506D02*
X014529Y016506D01*
X014529Y016347D02*
X014529Y016347D01*
X014529Y016189D02*
X014529Y016189D01*
X014320Y016189D02*
X012887Y016189D01*
X012855Y016030D02*
X021132Y016030D01*
X021291Y015872D02*
X012749Y015872D01*
X012749Y015713D02*
X021449Y015713D01*
X021608Y015555D02*
X012749Y015555D01*
X012874Y015396D02*
X018486Y015396D01*
X018480Y015390D02*
X018192Y015390D01*
X018069Y015267D01*
X017342Y014540D01*
X017207Y014540D01*
X017075Y014485D01*
X016974Y014384D01*
X016919Y014252D01*
X016919Y014108D01*
X016974Y013976D01*
X017075Y013875D01*
X017207Y013820D01*
X017351Y013820D01*
X017483Y013875D01*
X017584Y013976D01*
X017639Y014108D01*
X017639Y014243D01*
X018366Y014970D01*
X018480Y014970D01*
X018575Y014875D01*
X018707Y014820D01*
X018851Y014820D01*
X018983Y014875D01*
X019084Y014976D01*
X019139Y015108D01*
X019139Y015252D01*
X019084Y015384D01*
X018983Y015485D01*
X018851Y015540D01*
X018707Y015540D01*
X018575Y015485D01*
X018480Y015390D01*
X018040Y015238D02*
X013033Y015238D01*
X013191Y015079D02*
X017881Y015079D01*
X017723Y014921D02*
X013350Y014921D01*
X013508Y014762D02*
X017564Y014762D01*
X017406Y014604D02*
X013667Y014604D01*
X013825Y014445D02*
X017035Y014445D01*
X016933Y014287D02*
X013984Y014287D01*
X014142Y014128D02*
X016919Y014128D01*
X016980Y013970D02*
X014499Y013970D01*
X014614Y013811D02*
X021199Y013811D01*
X021199Y013653D02*
X014639Y013653D01*
X014762Y013494D02*
X021199Y013494D01*
X021199Y013336D02*
X014920Y013336D01*
X015079Y013177D02*
X021199Y013177D01*
X021199Y013019D02*
X015237Y013019D01*
X015396Y012860D02*
X021199Y012860D01*
X021199Y012702D02*
X015554Y012702D01*
X015713Y012543D02*
X021199Y012543D01*
X021199Y012385D02*
X015871Y012385D01*
X016030Y012226D02*
X021199Y012226D01*
X021199Y012068D02*
X016188Y012068D01*
X016347Y011909D02*
X021199Y011909D01*
X021199Y011751D02*
X016505Y011751D01*
X016664Y011592D02*
X025926Y011592D01*
X025919Y011751D02*
X023859Y011751D01*
X023859Y011647D02*
X023812Y011600D01*
X021246Y011600D01*
X021199Y011647D01*
X021199Y014213D01*
X021246Y014260D01*
X023812Y014260D01*
X023859Y014213D01*
X023859Y011647D01*
X023859Y011909D02*
X025999Y011909D01*
X026559Y011909D02*
X038569Y011909D01*
X038569Y011751D02*
X038489Y011751D01*
X038489Y011592D02*
X038569Y011592D01*
X038569Y011434D02*
X038489Y011434D01*
X038489Y011275D02*
X038569Y011275D01*
X038569Y011117D02*
X038489Y011117D01*
X038489Y010958D02*
X038569Y010958D01*
X038569Y010800D02*
X038489Y010800D01*
X038489Y010641D02*
X038569Y010641D01*
X038569Y010483D02*
X038489Y010483D01*
X038489Y010324D02*
X038569Y010324D01*
X038569Y010166D02*
X038489Y010166D01*
X038489Y010007D02*
X038569Y010007D01*
X038569Y009849D02*
X038489Y009849D01*
X038489Y009690D02*
X038569Y009690D01*
X038569Y009532D02*
X038489Y009532D01*
X038489Y009373D02*
X038569Y009373D01*
X038569Y009215D02*
X038489Y009215D01*
X038489Y009056D02*
X038569Y009056D01*
X038569Y008898D02*
X038489Y008898D01*
X038489Y008739D02*
X038569Y008739D01*
X038569Y008581D02*
X038489Y008581D01*
X038489Y008422D02*
X038569Y008422D01*
X038569Y008264D02*
X038489Y008264D01*
X038489Y008105D02*
X038569Y008105D01*
X038569Y007947D02*
X038343Y007947D01*
X038184Y007788D02*
X038569Y007788D01*
X038569Y007630D02*
X038026Y007630D01*
X037867Y007471D02*
X038569Y007471D01*
X038569Y007313D02*
X037709Y007313D01*
X037681Y007154D02*
X038569Y007154D01*
X038569Y006996D02*
X037736Y006996D01*
X037735Y006837D02*
X038569Y006837D01*
X038569Y006679D02*
X037669Y006679D01*
X037483Y006520D02*
X038569Y006520D01*
X038569Y006362D02*
X037482Y006362D01*
X037297Y006362D02*
X037261Y006362D01*
X037261Y006203D02*
X037297Y006203D01*
X037297Y006045D02*
X037261Y006045D01*
X037076Y006362D02*
X036989Y006362D01*
X036989Y006520D02*
X037075Y006520D01*
X037670Y006203D02*
X038505Y006203D01*
X038347Y006045D02*
X037743Y006045D01*
X037755Y005886D02*
X038188Y005886D01*
X038030Y005728D02*
X037711Y005728D01*
X037592Y005569D02*
X037871Y005569D01*
X037713Y005411D02*
X037346Y005411D01*
X037015Y007313D02*
X036943Y007313D01*
X036785Y007471D02*
X037273Y007471D01*
X037432Y007630D02*
X036626Y007630D01*
X036468Y007788D02*
X037590Y007788D01*
X037749Y007947D02*
X034809Y007947D01*
X034651Y008105D02*
X037907Y008105D01*
X038066Y008264D02*
X034492Y008264D01*
X034334Y008422D02*
X038069Y008422D01*
X038069Y008581D02*
X034175Y008581D01*
X034017Y008739D02*
X038069Y008739D01*
X038069Y008898D02*
X037933Y008898D01*
X037938Y008903D02*
X037962Y008944D01*
X037974Y008989D01*
X037974Y009271D01*
X037974Y009552D01*
X037962Y009598D01*
X037938Y009639D01*
X037905Y009672D01*
X037864Y009696D01*
X037818Y009708D01*
X037537Y009708D01*
X037537Y009271D01*
X037537Y009271D01*
X037537Y009708D01*
X037256Y009708D01*
X037210Y009696D01*
X037169Y009672D01*
X037135Y009639D01*
X037112Y009598D01*
X037099Y009552D01*
X037099Y009271D01*
X037537Y009271D01*
X037974Y009271D01*
X037537Y009271D01*
X037537Y009271D01*
X037537Y009271D01*
X037099Y009271D01*
X037099Y008989D01*
X037112Y008944D01*
X037135Y008903D01*
X037169Y008869D01*
X037210Y008845D01*
X037256Y008833D01*
X037537Y008833D01*
X037818Y008833D01*
X037864Y008845D01*
X037905Y008869D01*
X037938Y008903D01*
X037974Y009056D02*
X038069Y009056D01*
X038069Y009215D02*
X037974Y009215D01*
X037974Y009373D02*
X038069Y009373D01*
X038069Y009532D02*
X037974Y009532D01*
X038069Y009690D02*
X037874Y009690D01*
X038069Y009849D02*
X029489Y009849D01*
X029589Y010007D02*
X038069Y010007D01*
X038069Y010166D02*
X029589Y010166D01*
X029589Y010324D02*
X038069Y010324D01*
X038069Y010483D02*
X029518Y010483D01*
X029360Y010641D02*
X038069Y010641D01*
X038069Y010800D02*
X027471Y010800D01*
X027629Y010641D02*
X028698Y010641D01*
X028540Y010483D02*
X027788Y010483D01*
X027946Y010324D02*
X028469Y010324D01*
X028469Y010166D02*
X028105Y010166D01*
X028263Y010007D02*
X028469Y010007D01*
X028422Y009849D02*
X028569Y009849D01*
X028499Y009690D02*
X028727Y009690D01*
X028589Y009532D02*
X028499Y009532D01*
X028059Y009532D02*
X027871Y009532D01*
X027958Y009690D02*
X025254Y009690D01*
X025254Y009532D02*
X027687Y009532D01*
X027469Y009373D02*
X025144Y009373D01*
X025254Y009483D02*
X024976Y009205D01*
X024582Y009205D01*
X024304Y009483D01*
X024304Y009877D01*
X024582Y010155D01*
X024976Y010155D01*
X025254Y009877D01*
X025254Y009483D01*
X025254Y009849D02*
X027799Y009849D01*
X027641Y010007D02*
X025124Y010007D01*
X025165Y010483D02*
X021273Y010483D01*
X021115Y010641D02*
X025007Y010641D01*
X024848Y010800D02*
X020956Y010800D01*
X021432Y010324D02*
X027324Y010324D01*
X027482Y010166D02*
X021590Y010166D01*
X021749Y010007D02*
X024434Y010007D01*
X024304Y009849D02*
X021907Y009849D01*
X022066Y009690D02*
X024304Y009690D01*
X024304Y009532D02*
X022224Y009532D01*
X022383Y009373D02*
X024414Y009373D01*
X024573Y009215D02*
X022541Y009215D01*
X022700Y009056D02*
X024455Y009056D01*
X024574Y009175D02*
X024284Y008885D01*
X024284Y008680D01*
X024284Y008475D01*
X024574Y008185D01*
X024779Y008185D01*
X024779Y008680D01*
X024779Y008680D01*
X024284Y008680D01*
X024779Y008680D01*
X024779Y009175D01*
X024574Y009175D01*
X024779Y009175D02*
X024779Y008680D01*
X024779Y008680D01*
X024779Y008680D01*
X024779Y008185D01*
X024984Y008185D01*
X025274Y008475D01*
X025274Y008680D01*
X024779Y008680D01*
X025274Y008680D01*
X025274Y008885D01*
X024984Y009175D01*
X024779Y009175D01*
X024779Y009056D02*
X024779Y009056D01*
X024779Y008898D02*
X024779Y008898D01*
X024779Y008739D02*
X024779Y008739D01*
X024779Y008680D02*
X024779Y008680D01*
X024779Y008581D02*
X024779Y008581D01*
X024779Y008422D02*
X024779Y008422D01*
X024779Y008264D02*
X024779Y008264D01*
X024495Y008264D02*
X023492Y008264D01*
X023334Y008422D02*
X024337Y008422D01*
X024284Y008581D02*
X023175Y008581D01*
X023017Y008739D02*
X024284Y008739D01*
X024297Y008898D02*
X022858Y008898D01*
X022240Y008422D02*
X020487Y008422D01*
X020524Y008385D02*
X020234Y008675D01*
X020029Y008675D01*
X019824Y008675D01*
X019534Y008385D01*
X019534Y008180D01*
X019534Y007975D01*
X019824Y007685D01*
X020029Y007685D01*
X020029Y008180D01*
X020029Y008180D01*
X019534Y008180D01*
X020029Y008180D01*
X020029Y008675D01*
X020029Y008180D01*
X020029Y008180D01*
X020029Y008180D01*
X020029Y007685D01*
X020234Y007685D01*
X020524Y007975D01*
X020524Y008180D01*
X020029Y008180D01*
X020524Y008180D01*
X020524Y008385D01*
X020524Y008264D02*
X022399Y008264D01*
X022557Y008105D02*
X020524Y008105D01*
X020496Y007947D02*
X022716Y007947D01*
X022874Y007788D02*
X020337Y007788D01*
X020029Y007788D02*
X020029Y007788D01*
X020029Y007947D02*
X020029Y007947D01*
X020029Y008105D02*
X020029Y008105D01*
X020029Y008180D02*
X020029Y008180D01*
X020029Y008264D02*
X020029Y008264D01*
X020029Y008422D02*
X020029Y008422D01*
X020029Y008581D02*
X020029Y008581D01*
X019730Y008581D02*
X019300Y008581D01*
X019226Y008655D02*
X019504Y008377D01*
X019504Y007983D01*
X019226Y007705D01*
X018832Y007705D01*
X018567Y007970D01*
X017692Y007970D01*
X017569Y008093D01*
X013272Y012390D01*
X012957Y012390D01*
X012629Y012718D01*
X012629Y013182D01*
X012957Y013510D01*
X013421Y013510D01*
X013749Y013182D01*
X013749Y012718D01*
X013643Y012613D01*
X017866Y008390D01*
X018567Y008390D01*
X018832Y008655D01*
X019226Y008655D01*
X019459Y008422D02*
X019571Y008422D01*
X019534Y008264D02*
X019504Y008264D01*
X019504Y008105D02*
X019534Y008105D01*
X019562Y007947D02*
X019467Y007947D01*
X019309Y007788D02*
X019721Y007788D01*
X019561Y007471D02*
X013530Y007471D01*
X013419Y007360D02*
X013759Y007700D01*
X013759Y007920D01*
X013199Y007920D01*
X013199Y007360D01*
X013419Y007360D01*
X013199Y007471D02*
X013159Y007471D01*
X013159Y007360D02*
X012939Y007360D01*
X012599Y007700D01*
X012599Y007920D01*
X013159Y007920D01*
X013159Y007960D01*
X012599Y007960D01*
X012599Y008180D01*
X012939Y008520D01*
X013159Y008520D01*
X013159Y007960D01*
X013199Y007960D01*
X013199Y008520D01*
X013419Y008520D01*
X013759Y008180D01*
X013759Y007960D01*
X013199Y007960D01*
X013199Y007920D01*
X013159Y007920D01*
X013159Y007360D01*
X013159Y007630D02*
X013199Y007630D01*
X013199Y007788D02*
X013159Y007788D01*
X013159Y007947D02*
X001759Y007947D01*
X001759Y008105D02*
X012599Y008105D01*
X012682Y008264D02*
X001759Y008264D01*
X001759Y008422D02*
X012841Y008422D01*
X013159Y008422D02*
X013199Y008422D01*
X013199Y008264D02*
X013159Y008264D01*
X013159Y008105D02*
X013199Y008105D01*
X013199Y007947D02*
X018591Y007947D01*
X018749Y007788D02*
X013759Y007788D01*
X013689Y007630D02*
X023033Y007630D01*
X023191Y007471D02*
X019997Y007471D01*
X020114Y007313D02*
X023350Y007313D01*
X023476Y007155D02*
X023082Y007155D01*
X022804Y006877D01*
X022804Y006483D01*
X023082Y006205D01*
X023476Y006205D01*
X023754Y006483D01*
X023754Y006877D01*
X023476Y007155D01*
X023477Y007154D02*
X023508Y007154D01*
X023635Y006996D02*
X023667Y006996D01*
X023754Y006837D02*
X023825Y006837D01*
X023754Y006679D02*
X023984Y006679D01*
X024142Y006520D02*
X023754Y006520D01*
X023632Y006362D02*
X024301Y006362D01*
X024459Y006203D02*
X010139Y006203D01*
X010094Y006362D02*
X022926Y006362D01*
X022804Y006520D02*
X019416Y006520D01*
X019575Y006679D02*
X022804Y006679D01*
X022804Y006837D02*
X019892Y006837D01*
X020092Y006996D02*
X022923Y006996D01*
X023081Y007154D02*
X020139Y007154D01*
X019444Y007313D02*
X001759Y007313D01*
X001759Y007471D02*
X012828Y007471D01*
X012669Y007630D02*
X001759Y007630D01*
X001759Y007788D02*
X012599Y007788D01*
X013517Y008422D02*
X017240Y008422D01*
X017082Y008581D02*
X001759Y008581D01*
X001759Y008739D02*
X016923Y008739D01*
X016765Y008898D02*
X001759Y008898D01*
X001759Y009056D02*
X016606Y009056D01*
X016448Y009215D02*
X001759Y009215D01*
X001759Y009373D02*
X016289Y009373D01*
X016131Y009532D02*
X001759Y009532D01*
X001759Y009690D02*
X015972Y009690D01*
X015814Y009849D02*
X001759Y009849D01*
X001759Y010007D02*
X015655Y010007D01*
X015497Y010166D02*
X001759Y010166D01*
X001759Y010324D02*
X015338Y010324D01*
X015180Y010483D02*
X001759Y010483D01*
X001759Y010641D02*
X015021Y010641D01*
X014863Y010800D02*
X001759Y010800D01*
X001759Y010958D02*
X014704Y010958D01*
X014546Y011117D02*
X001759Y011117D01*
X001759Y011275D02*
X014387Y011275D01*
X014229Y011434D02*
X001759Y011434D01*
X001759Y011592D02*
X014070Y011592D01*
X013912Y011751D02*
X001759Y011751D01*
X001759Y011909D02*
X013753Y011909D01*
X013595Y012068D02*
X001759Y012068D01*
X001759Y012226D02*
X013436Y012226D01*
X013278Y012385D02*
X001759Y012385D01*
X001759Y012543D02*
X012804Y012543D01*
X012646Y012702D02*
X001759Y012702D01*
X001759Y012860D02*
X001991Y012860D01*
X002101Y012750D02*
X001849Y013002D01*
X001849Y013180D01*
X002279Y013180D01*
X002279Y013180D01*
X001849Y013180D01*
X001849Y013358D01*
X002101Y013610D01*
X002279Y013610D01*
X002279Y013180D01*
X002279Y013180D01*
X002279Y013180D01*
X002279Y012750D01*
X002101Y012750D01*
X002279Y012750D02*
X002457Y012750D01*
X002709Y013002D01*
X002709Y013180D01*
X002709Y013358D01*
X002457Y013610D01*
X002279Y013610D01*
X002279Y013180D01*
X002279Y012750D01*
X002279Y012860D02*
X002279Y012860D01*
X002279Y013019D02*
X002279Y013019D01*
X002279Y013177D02*
X002279Y013177D01*
X002279Y013180D02*
X002279Y013180D01*
X002709Y013180D01*
X002279Y013180D01*
X002279Y013336D02*
X002279Y013336D01*
X002279Y013494D02*
X002279Y013494D01*
X001985Y013494D02*
X001759Y013494D01*
X001759Y013336D02*
X001849Y013336D01*
X001849Y013177D02*
X001759Y013177D01*
X001759Y013019D02*
X001849Y013019D01*
X001759Y013653D02*
X013919Y013653D01*
X013966Y013494D02*
X013437Y013494D01*
X013595Y013336D02*
X014170Y013336D01*
X014485Y013177D02*
X013749Y013177D01*
X013749Y013019D02*
X014644Y013019D01*
X014802Y012860D02*
X013749Y012860D01*
X013733Y012702D02*
X014961Y012702D01*
X015119Y012543D02*
X013713Y012543D01*
X013871Y012385D02*
X015278Y012385D01*
X015436Y012226D02*
X014030Y012226D01*
X014188Y012068D02*
X015595Y012068D01*
X015753Y011909D02*
X014347Y011909D01*
X014505Y011751D02*
X015912Y011751D01*
X016070Y011592D02*
X014664Y011592D01*
X014822Y011434D02*
X016229Y011434D01*
X016387Y011275D02*
X014981Y011275D01*
X015139Y011117D02*
X016546Y011117D01*
X016704Y010958D02*
X015298Y010958D01*
X015456Y010800D02*
X016863Y010800D01*
X017021Y010641D02*
X015615Y010641D01*
X015773Y010483D02*
X017180Y010483D01*
X017298Y010958D02*
X024492Y010958D01*
X024419Y011117D02*
X017139Y011117D01*
X016981Y011275D02*
X024429Y011275D01*
X024523Y011434D02*
X016822Y011434D01*
X015932Y010324D02*
X019949Y010324D01*
X019919Y010166D02*
X016090Y010166D01*
X016249Y010007D02*
X019961Y010007D01*
X020139Y009849D02*
X016407Y009849D01*
X016566Y009690D02*
X020972Y009690D01*
X020814Y009849D02*
X020419Y009849D01*
X021131Y009532D02*
X016724Y009532D01*
X016883Y009373D02*
X021289Y009373D01*
X021448Y009215D02*
X017041Y009215D01*
X017200Y009056D02*
X021606Y009056D01*
X021765Y008898D02*
X017358Y008898D01*
X017517Y008739D02*
X021923Y008739D01*
X022082Y008581D02*
X020329Y008581D01*
X018758Y008581D02*
X017675Y008581D01*
X017834Y008422D02*
X018599Y008422D01*
X017557Y008105D02*
X013759Y008105D01*
X013676Y008264D02*
X017399Y008264D01*
X019298Y006996D02*
X001759Y006996D01*
X001759Y007154D02*
X019419Y007154D01*
X021246Y004760D02*
X021199Y004713D01*
X021199Y002147D01*
X021246Y002100D01*
X023812Y002100D01*
X023859Y002147D01*
X023859Y004713D01*
X023812Y004760D01*
X021246Y004760D01*
X021199Y004618D02*
X011638Y004618D01*
X011797Y004460D02*
X021199Y004460D01*
X021199Y004301D02*
X011955Y004301D01*
X012114Y004143D02*
X021199Y004143D01*
X021199Y003984D02*
X012272Y003984D01*
X012431Y003826D02*
X021199Y003826D01*
X021199Y003667D02*
X012589Y003667D01*
X012748Y003509D02*
X021199Y003509D01*
X021199Y003350D02*
X012906Y003350D01*
X013065Y003192D02*
X021199Y003192D01*
X021199Y003033D02*
X013223Y003033D01*
X013382Y002875D02*
X021199Y002875D01*
X021199Y002716D02*
X013540Y002716D01*
X013699Y002558D02*
X021199Y002558D01*
X021199Y002399D02*
X013857Y002399D01*
X014016Y002241D02*
X021199Y002241D01*
X023859Y002241D02*
X032422Y002241D01*
X032263Y002399D02*
X031007Y002399D01*
X030551Y002399D02*
X023859Y002399D01*
X023859Y002558D02*
X030440Y002558D01*
X030419Y002716D02*
X023859Y002716D01*
X023859Y002875D02*
X030076Y002875D01*
X029950Y003033D02*
X023859Y003033D01*
X023859Y003192D02*
X029919Y003192D01*
X029923Y003350D02*
X029960Y003350D01*
X029635Y003350D02*
X023859Y003350D01*
X023859Y003509D02*
X029460Y003509D01*
X029419Y003667D02*
X023859Y003667D01*
X023859Y003826D02*
X029450Y003826D01*
X030015Y004935D02*
X026821Y004935D01*
X026346Y005411D02*
X030000Y005411D01*
X030371Y005569D02*
X026187Y005569D01*
X026029Y005728D02*
X030530Y005728D01*
X030688Y005886D02*
X025870Y005886D01*
X025712Y006045D02*
X030847Y006045D01*
X030959Y006203D02*
X025553Y006203D01*
X025395Y006362D02*
X026926Y006362D01*
X026804Y006483D02*
X027082Y006205D01*
X027476Y006205D01*
X027754Y006483D01*
X027754Y006877D01*
X027476Y007155D01*
X027082Y007155D01*
X026804Y006877D01*
X026804Y006483D01*
X026804Y006520D02*
X025236Y006520D01*
X025078Y006679D02*
X026804Y006679D01*
X026804Y006837D02*
X024919Y006837D01*
X024760Y006996D02*
X026923Y006996D01*
X027081Y007154D02*
X024602Y007154D01*
X024443Y007313D02*
X026946Y007313D01*
X027074Y007185D02*
X026784Y007475D01*
X026784Y007680D01*
X027279Y007680D01*
X027279Y007680D01*
X026784Y007680D01*
X026784Y007885D01*
X027074Y008175D01*
X027279Y008175D01*
X027279Y007680D01*
X027279Y007680D01*
X027279Y007680D01*
X027279Y007185D01*
X027074Y007185D01*
X027279Y007185D02*
X027484Y007185D01*
X027774Y007475D01*
X027774Y007680D01*
X027279Y007680D01*
X027279Y008175D01*
X027484Y008175D01*
X027774Y007885D01*
X027774Y007680D01*
X027279Y007680D01*
X027279Y007185D01*
X027279Y007313D02*
X027279Y007313D01*
X027279Y007471D02*
X027279Y007471D01*
X027279Y007630D02*
X027279Y007630D01*
X027279Y007680D02*
X027279Y007680D01*
X027279Y007788D02*
X027279Y007788D01*
X027279Y007947D02*
X027279Y007947D01*
X027279Y008105D02*
X027279Y008105D01*
X027004Y008105D02*
X023651Y008105D01*
X023809Y007947D02*
X026846Y007947D01*
X026784Y007788D02*
X023968Y007788D01*
X024126Y007630D02*
X026784Y007630D01*
X026788Y007471D02*
X024285Y007471D01*
X025063Y008264D02*
X027884Y008264D01*
X027726Y008422D02*
X025221Y008422D01*
X025274Y008581D02*
X027567Y008581D01*
X027559Y008739D02*
X025274Y008739D01*
X025262Y008898D02*
X027552Y008898D01*
X027441Y009056D02*
X025103Y009056D01*
X024985Y009215D02*
X027419Y009215D01*
X027554Y008105D02*
X028043Y008105D01*
X028201Y007947D02*
X027713Y007947D01*
X027774Y007788D02*
X028360Y007788D01*
X028518Y007630D02*
X027774Y007630D01*
X027770Y007471D02*
X028677Y007471D01*
X029444Y007313D02*
X027612Y007313D01*
X027477Y007154D02*
X029419Y007154D01*
X029466Y006996D02*
X027635Y006996D01*
X027754Y006837D02*
X029666Y006837D01*
X029892Y006837D02*
X030325Y006837D01*
X030484Y006679D02*
X027754Y006679D01*
X027754Y006520D02*
X030642Y006520D01*
X030801Y006362D02*
X027632Y006362D01*
X026044Y004618D02*
X023859Y004618D01*
X023859Y004460D02*
X026203Y004460D01*
X026361Y004301D02*
X023859Y004301D01*
X023859Y004143D02*
X026520Y004143D01*
X026678Y003984D02*
X023859Y003984D01*
X023484Y005185D02*
X023279Y005185D01*
X023279Y005680D01*
X023279Y005680D01*
X022784Y005680D01*
X022784Y005475D01*
X023074Y005185D01*
X023279Y005185D01*
X023279Y005680D01*
X022784Y005680D01*
X022784Y005885D01*
X023074Y006175D01*
X023279Y006175D01*
X023279Y005680D01*
X023279Y005680D01*
X023279Y005680D01*
X023279Y006175D01*
X023484Y006175D01*
X023774Y005885D01*
X023774Y005680D01*
X023279Y005680D01*
X023774Y005680D01*
X023774Y005475D01*
X023484Y005185D01*
X023551Y005252D02*
X025410Y005252D01*
X025252Y005411D02*
X023710Y005411D01*
X023774Y005569D02*
X025093Y005569D01*
X024935Y005728D02*
X023774Y005728D01*
X023773Y005886D02*
X024776Y005886D01*
X024618Y006045D02*
X023615Y006045D01*
X023279Y006045D02*
X023279Y006045D01*
X023279Y005886D02*
X023279Y005886D01*
X023279Y005728D02*
X023279Y005728D01*
X023279Y005680D02*
X023279Y005680D01*
X023279Y005569D02*
X023279Y005569D01*
X023279Y005411D02*
X023279Y005411D01*
X023279Y005252D02*
X023279Y005252D01*
X023007Y005252D02*
X011004Y005252D01*
X011163Y005094D02*
X025569Y005094D01*
X025727Y004935D02*
X011321Y004935D01*
X011480Y004777D02*
X025886Y004777D01*
X022944Y006045D02*
X010212Y006045D01*
X010370Y005886D02*
X022785Y005886D01*
X022784Y005728D02*
X010529Y005728D01*
X010687Y005569D02*
X022784Y005569D01*
X022848Y005411D02*
X010846Y005411D01*
X010569Y005094D02*
X008490Y005094D01*
X008648Y005252D02*
X010410Y005252D01*
X010252Y005411D02*
X008807Y005411D01*
X008965Y005569D02*
X010093Y005569D01*
X009935Y005728D02*
X009124Y005728D01*
X009282Y005886D02*
X009564Y005886D01*
X009164Y006362D02*
X008758Y006362D01*
X008599Y006203D02*
X009005Y006203D01*
X008847Y006045D02*
X008441Y006045D01*
X008282Y005886D02*
X008688Y005886D01*
X008530Y005728D02*
X008124Y005728D01*
X007965Y005569D02*
X008371Y005569D01*
X008213Y005411D02*
X007807Y005411D01*
X007648Y005252D02*
X008054Y005252D01*
X007896Y005094D02*
X007490Y005094D01*
X007331Y004935D02*
X007737Y004935D01*
X007579Y004777D02*
X007173Y004777D01*
X007014Y004618D02*
X007420Y004618D01*
X007049Y004460D02*
X006856Y004460D01*
X006939Y004301D02*
X006697Y004301D01*
X006639Y004143D02*
X006919Y004143D01*
X006971Y003984D02*
X006588Y003984D01*
X006364Y003826D02*
X007194Y003826D01*
X007364Y003826D02*
X011837Y003826D01*
X011678Y003984D02*
X007588Y003984D01*
X007639Y004143D02*
X011520Y004143D01*
X011361Y004301D02*
X007697Y004301D01*
X007856Y004460D02*
X011203Y004460D01*
X011044Y004618D02*
X008014Y004618D01*
X008173Y004777D02*
X010886Y004777D01*
X010727Y004935D02*
X008331Y004935D01*
X007530Y005728D02*
X001759Y005728D01*
X001759Y005886D02*
X007688Y005886D01*
X007847Y006045D02*
X001759Y006045D01*
X001759Y006203D02*
X008005Y006203D01*
X008164Y006362D02*
X001759Y006362D01*
X001759Y006520D02*
X008322Y006520D01*
X008481Y006679D02*
X001759Y006679D01*
X001759Y006837D02*
X008639Y006837D01*
X007371Y005569D02*
X001759Y005569D01*
X001759Y005411D02*
X007213Y005411D01*
X007054Y005252D02*
X001759Y005252D01*
X001759Y005094D02*
X006896Y005094D01*
X006737Y004935D02*
X001759Y004935D01*
X001759Y004777D02*
X006579Y004777D01*
X006420Y004618D02*
X001759Y004618D01*
X001759Y004460D02*
X006049Y004460D01*
X005939Y004301D02*
X001759Y004301D01*
X001759Y004143D02*
X005919Y004143D01*
X005971Y003984D02*
X001759Y003984D01*
X001759Y003826D02*
X002066Y003826D01*
X002101Y003860D02*
X001849Y003608D01*
X001849Y003430D01*
X001849Y003252D01*
X002101Y003000D01*
X002279Y003000D01*
X002279Y003430D01*
X002279Y003430D01*
X001849Y003430D01*
X002279Y003430D01*
X002279Y003860D01*
X002101Y003860D01*
X002279Y003860D02*
X002457Y003860D01*
X002709Y003608D01*
X002709Y003430D01*
X002279Y003430D01*
X002279Y003430D01*
X002279Y003430D01*
X002279Y003860D01*
X002279Y003826D02*
X002279Y003826D01*
X002279Y003667D02*
X002279Y003667D01*
X002279Y003509D02*
X002279Y003509D01*
X002279Y003430D02*
X002279Y003430D01*
X002279Y003000D01*
X002457Y003000D01*
X002709Y003252D01*
X002709Y003430D01*
X002279Y003430D01*
X002279Y003350D02*
X002279Y003350D01*
X002279Y003192D02*
X002279Y003192D01*
X002279Y003033D02*
X002279Y003033D01*
X002068Y003033D02*
X001759Y003033D01*
X001759Y002875D02*
X012788Y002875D01*
X012629Y003033D02*
X002490Y003033D01*
X002649Y003192D02*
X012471Y003192D01*
X012312Y003350D02*
X002709Y003350D01*
X002709Y003509D02*
X012154Y003509D01*
X011995Y003667D02*
X002650Y003667D01*
X002492Y003826D02*
X006194Y003826D01*
X001908Y003667D02*
X001759Y003667D01*
X001759Y003509D02*
X001849Y003509D01*
X001849Y003350D02*
X001759Y003350D01*
X001759Y003192D02*
X001909Y003192D01*
X001759Y002716D02*
X012946Y002716D01*
X013105Y002558D02*
X001759Y002558D01*
X001759Y002399D02*
X013263Y002399D01*
X013422Y002241D02*
X001759Y002241D01*
X001759Y002082D02*
X013580Y002082D01*
X013739Y001924D02*
X001759Y001924D01*
X001759Y001765D02*
X013897Y001765D01*
X014056Y001607D02*
X001759Y001607D01*
X001759Y001448D02*
X032214Y001448D01*
X032373Y001290D02*
X001759Y001290D01*
X001759Y001131D02*
X032531Y001131D01*
X032690Y000973D02*
X001759Y000973D01*
X001759Y000814D02*
X032848Y000814D01*
X033125Y001131D02*
X034433Y001131D01*
X034530Y001290D02*
X034592Y001290D01*
X034677Y001448D02*
X034750Y001448D01*
X034736Y001607D02*
X034822Y001607D01*
X034822Y001765D02*
X034736Y001765D01*
X034820Y001924D02*
X034885Y001924D01*
X034543Y002241D02*
X034412Y002241D01*
X034146Y002241D02*
X033412Y002241D01*
X033502Y002082D02*
X034056Y002082D01*
X033885Y001924D02*
X033673Y001924D01*
X033736Y001765D02*
X033822Y001765D01*
X033822Y001607D02*
X033736Y001607D01*
X033677Y001448D02*
X033881Y001448D01*
X034028Y001290D02*
X033530Y001290D01*
X033284Y000973D02*
X034275Y000973D01*
X034710Y000814D02*
X040169Y000814D01*
X040169Y000973D02*
X034869Y000973D01*
X035027Y001131D02*
X040169Y001131D01*
X040169Y001290D02*
X037553Y001290D01*
X037696Y001448D02*
X040169Y001448D01*
X040169Y001607D02*
X037750Y001607D01*
X037748Y001765D02*
X040169Y001765D01*
X040169Y001924D02*
X037690Y001924D01*
X037297Y001607D02*
X037261Y001607D01*
X037261Y001448D02*
X037297Y001448D01*
X037297Y001290D02*
X037261Y001290D01*
X037005Y001290D02*
X036530Y001290D01*
X036677Y001448D02*
X036862Y001448D01*
X036808Y001607D02*
X036736Y001607D01*
X036736Y001765D02*
X036810Y001765D01*
X036834Y001924D02*
X036868Y001924D01*
X036528Y002241D02*
X036412Y002241D01*
X036146Y002241D02*
X035989Y002241D01*
X035978Y002082D02*
X036056Y002082D01*
X035885Y001924D02*
X035673Y001924D01*
X035736Y001765D02*
X035822Y001765D01*
X035822Y001607D02*
X035736Y001607D01*
X035677Y001448D02*
X035881Y001448D01*
X036028Y001290D02*
X035530Y001290D01*
X034914Y002399D02*
X034644Y002399D01*
X034723Y002558D02*
X034835Y002558D01*
X034822Y002716D02*
X034736Y002716D01*
X034693Y002875D02*
X034788Y002875D01*
X034629Y003033D02*
X034572Y003033D01*
X034471Y003192D02*
X034065Y003192D01*
X033906Y003350D02*
X034312Y003350D01*
X034154Y003509D02*
X033748Y003509D01*
X033589Y003667D02*
X033995Y003667D01*
X033837Y003826D02*
X033431Y003826D01*
X033312Y003350D02*
X032906Y003350D01*
X033065Y003192D02*
X033471Y003192D01*
X033572Y003033D02*
X033629Y003033D01*
X033693Y002875D02*
X033788Y002875D01*
X033822Y002716D02*
X033736Y002716D01*
X033723Y002558D02*
X033835Y002558D01*
X033914Y002399D02*
X033644Y002399D01*
X033146Y002241D02*
X033016Y002241D01*
X032914Y002399D02*
X032857Y002399D01*
X032835Y002558D02*
X032699Y002558D01*
X032822Y002716D02*
X032540Y002716D01*
X032382Y002875D02*
X032788Y002875D01*
X032580Y002082D02*
X014174Y002082D01*
X014333Y001924D02*
X032739Y001924D01*
X032822Y001765D02*
X032491Y001765D01*
X032650Y001607D02*
X032822Y001607D01*
X032808Y001448D02*
X032881Y001448D01*
X032967Y001290D02*
X033028Y001290D01*
X039492Y002082D02*
X040169Y002082D01*
X040169Y002241D02*
X039651Y002241D01*
X039809Y002399D02*
X040169Y002399D01*
X040169Y002558D02*
X039968Y002558D01*
X039999Y002716D02*
X040169Y002716D01*
X040169Y002875D02*
X039989Y002875D01*
X039989Y003033D02*
X040169Y003033D01*
X040169Y003192D02*
X039989Y003192D01*
X039989Y003350D02*
X040169Y003350D01*
X040169Y003509D02*
X039989Y003509D01*
X039989Y003667D02*
X040169Y003667D01*
X040169Y003826D02*
X039989Y003826D01*
X039989Y003984D02*
X040169Y003984D01*
X040169Y004143D02*
X039989Y004143D01*
X039989Y004301D02*
X040169Y004301D01*
X040169Y004460D02*
X039989Y004460D01*
X039989Y004618D02*
X040169Y004618D01*
X040169Y004777D02*
X039989Y004777D01*
X039989Y004935D02*
X040169Y004935D01*
X040169Y005094D02*
X039989Y005094D01*
X039989Y005252D02*
X040169Y005252D01*
X040169Y005411D02*
X039989Y005411D01*
X039989Y005569D02*
X040169Y005569D01*
X040169Y005728D02*
X039989Y005728D01*
X039989Y005886D02*
X040169Y005886D01*
X040169Y006045D02*
X039989Y006045D01*
X039989Y006203D02*
X040169Y006203D01*
X040169Y006362D02*
X039989Y006362D01*
X039989Y006520D02*
X040169Y006520D01*
X040169Y006679D02*
X039989Y006679D01*
X039989Y006837D02*
X040169Y006837D01*
X040169Y006996D02*
X039989Y006996D01*
X039989Y007154D02*
X040169Y007154D01*
X040169Y007313D02*
X039989Y007313D01*
X039989Y007471D02*
X040169Y007471D01*
X040169Y007630D02*
X039989Y007630D01*
X039989Y007788D02*
X040169Y007788D01*
X040169Y007947D02*
X039989Y007947D01*
X039989Y008105D02*
X040169Y008105D01*
X040169Y008264D02*
X039989Y008264D01*
X039989Y008422D02*
X040169Y008422D01*
X040169Y008581D02*
X039989Y008581D01*
X039989Y008739D02*
X040169Y008739D01*
X040169Y008898D02*
X039989Y008898D01*
X039989Y009056D02*
X040169Y009056D01*
X040169Y009215D02*
X039989Y009215D01*
X039989Y009373D02*
X040169Y009373D01*
X040169Y009532D02*
X039989Y009532D01*
X039989Y009690D02*
X040169Y009690D01*
X040169Y009849D02*
X039989Y009849D01*
X039989Y010007D02*
X040169Y010007D01*
X040169Y010166D02*
X039989Y010166D01*
X039989Y010324D02*
X040169Y010324D01*
X040169Y010483D02*
X039989Y010483D01*
X039989Y010641D02*
X040169Y010641D01*
X040169Y010800D02*
X039989Y010800D01*
X039989Y010958D02*
X040169Y010958D01*
X040169Y011117D02*
X039989Y011117D01*
X039989Y011275D02*
X040169Y011275D01*
X040169Y011434D02*
X039989Y011434D01*
X039989Y011592D02*
X040169Y011592D01*
X040169Y011751D02*
X039989Y011751D01*
X039989Y011909D02*
X040169Y011909D01*
X040169Y012068D02*
X039989Y012068D01*
X039989Y012226D02*
X040169Y012226D01*
X040169Y012385D02*
X039989Y012385D01*
X039989Y012543D02*
X040169Y012543D01*
X040169Y012702D02*
X039989Y012702D01*
X039989Y012860D02*
X040169Y012860D01*
X040169Y013019D02*
X039989Y013019D01*
X039989Y013177D02*
X040169Y013177D01*
X040169Y013336D02*
X039989Y013336D01*
X039989Y013494D02*
X040169Y013494D01*
X040169Y013653D02*
X039989Y013653D01*
X039989Y013811D02*
X040169Y013811D01*
X040169Y013970D02*
X039989Y013970D01*
X039989Y014128D02*
X040169Y014128D01*
X040169Y014287D02*
X039989Y014287D01*
X039989Y014445D02*
X040169Y014445D01*
X040169Y014604D02*
X039989Y014604D01*
X039989Y014762D02*
X040169Y014762D01*
X040169Y014921D02*
X039989Y014921D01*
X039989Y015079D02*
X040169Y015079D01*
X040169Y015238D02*
X039989Y015238D01*
X040169Y015396D02*
X022504Y015396D01*
X022617Y015555D02*
X040169Y015555D01*
X040169Y015713D02*
X022639Y015713D01*
X022589Y015872D02*
X040169Y015872D01*
X040169Y016030D02*
X022375Y016030D01*
X022067Y016189D02*
X040169Y016189D01*
X040169Y016347D02*
X027416Y016347D01*
X027351Y016320D02*
X027483Y016375D01*
X027584Y016476D01*
X027639Y016608D01*
X027639Y016752D01*
X027584Y016884D01*
X027483Y016985D01*
X027351Y017040D01*
X027216Y017040D01*
X024724Y019532D01*
X024749Y019592D01*
X024749Y019768D01*
X024682Y019929D01*
X024558Y020053D01*
X024397Y020120D01*
X023662Y020120D01*
X023500Y020053D01*
X023376Y019929D01*
X023309Y019768D01*
X023309Y019592D01*
X023376Y019431D01*
X023500Y019307D01*
X023662Y019240D01*
X024397Y019240D01*
X024415Y019247D01*
X026919Y016743D01*
X026919Y016608D01*
X026974Y016476D01*
X027075Y016375D01*
X027207Y016320D01*
X027351Y016320D01*
X027142Y016347D02*
X024598Y016347D01*
X024558Y016307D02*
X024682Y016431D01*
X024749Y016592D01*
X024749Y016768D01*
X024682Y016929D01*
X024558Y017053D01*
X024397Y017120D01*
X023662Y017120D01*
X023500Y017053D01*
X023376Y016929D01*
X023309Y016768D01*
X023309Y016592D01*
X023376Y016431D01*
X023500Y016307D01*
X023662Y016240D01*
X024397Y016240D01*
X024558Y016307D01*
X024713Y016506D02*
X026962Y016506D01*
X026919Y016664D02*
X024749Y016664D01*
X024726Y016823D02*
X026840Y016823D01*
X026681Y016981D02*
X024630Y016981D01*
X024537Y017298D02*
X026364Y017298D01*
X026523Y017140D02*
X021489Y017140D01*
X021489Y017298D02*
X021844Y017298D01*
X021657Y017457D02*
X021489Y017457D01*
X021489Y016981D02*
X021726Y016981D01*
X021623Y016823D02*
X021489Y016823D01*
X021592Y016664D02*
X021599Y016664D01*
X020974Y016189D02*
X014738Y016189D01*
X014896Y016347D02*
X015190Y016347D01*
X015054Y016483D02*
X015332Y016205D01*
X015726Y016205D01*
X016004Y016483D01*
X016004Y016877D01*
X015726Y017155D01*
X015332Y017155D01*
X015054Y016877D01*
X015054Y016483D01*
X015054Y016506D02*
X015024Y016506D01*
X015024Y016664D02*
X015054Y016664D01*
X015054Y016823D02*
X015024Y016823D01*
X014928Y016981D02*
X015158Y016981D01*
X015317Y017140D02*
X014770Y017140D01*
X014034Y016664D02*
X001759Y016664D01*
X001759Y016506D02*
X012379Y016506D01*
X012211Y016347D02*
X001759Y016347D01*
X001759Y016189D02*
X012171Y016189D01*
X012204Y016030D02*
X001759Y016030D01*
X001759Y015872D02*
X011771Y015872D01*
X011612Y015713D02*
X001759Y015713D01*
X001759Y015555D02*
X011534Y015555D01*
X011534Y015396D02*
X001759Y015396D01*
X001759Y015238D02*
X011534Y015238D01*
X011680Y015079D02*
X001759Y015079D01*
X001759Y014921D02*
X012727Y014921D01*
X012569Y015079D02*
X012378Y015079D01*
X012226Y014905D02*
X012504Y014627D01*
X012504Y014233D01*
X012226Y013955D01*
X011832Y013955D01*
X011554Y014233D01*
X011554Y014627D01*
X011832Y014905D01*
X012226Y014905D01*
X012369Y014762D02*
X012886Y014762D01*
X013044Y014604D02*
X012504Y014604D01*
X012504Y014445D02*
X013203Y014445D01*
X013361Y014287D02*
X012504Y014287D01*
X012399Y014128D02*
X013520Y014128D01*
X013678Y013970D02*
X012240Y013970D01*
X011818Y013970D02*
X001759Y013970D01*
X001759Y014128D02*
X011659Y014128D01*
X011554Y014287D02*
X001759Y014287D01*
X001759Y014445D02*
X011554Y014445D01*
X011554Y014604D02*
X001759Y014604D01*
X001759Y014762D02*
X011689Y014762D01*
X012029Y015079D02*
X012029Y015079D01*
X012029Y015238D02*
X012029Y015238D01*
X012029Y015396D02*
X012029Y015396D01*
X012029Y015555D02*
X012029Y015555D01*
X012029Y015713D02*
X012029Y015713D01*
X012029Y015872D02*
X012029Y015872D01*
X012288Y015872D02*
X012309Y015872D01*
X012847Y016347D02*
X014162Y016347D01*
X014034Y016506D02*
X012679Y016506D01*
X010569Y017615D02*
X009812Y017615D01*
X009899Y017774D02*
X010569Y017774D01*
X010569Y017932D02*
X009942Y017932D01*
X009984Y018091D02*
X010569Y018091D01*
X010569Y018249D02*
X010014Y018249D01*
X010014Y018408D02*
X010569Y018408D01*
X010569Y018566D02*
X010014Y018566D01*
X009996Y018725D02*
X010569Y018725D01*
X010569Y018883D02*
X009954Y018883D01*
X009911Y019042D02*
X010569Y019042D01*
X010569Y019200D02*
X009838Y019200D01*
X009746Y019359D02*
X010661Y019359D01*
X010819Y019517D02*
X009646Y019517D01*
X009487Y019676D02*
X010978Y019676D01*
X011069Y019834D02*
X009317Y019834D01*
X009043Y019993D02*
X011069Y019993D01*
X011489Y019993D02*
X011593Y019993D01*
X011489Y020151D02*
X011953Y020151D01*
X012112Y020310D02*
X011489Y020310D01*
X011489Y020468D02*
X012270Y020468D01*
X012429Y020627D02*
X011489Y020627D01*
X011489Y020785D02*
X012587Y020785D01*
X012746Y020944D02*
X011489Y020944D01*
X011489Y021102D02*
X012904Y021102D01*
X013063Y021261D02*
X011489Y021261D01*
X011489Y021419D02*
X013221Y021419D01*
X013380Y021578D02*
X011489Y021578D01*
X011489Y021736D02*
X013538Y021736D01*
X013682Y021895D02*
X011489Y021895D01*
X011489Y022053D02*
X012609Y022053D01*
X012451Y022212D02*
X011489Y022212D01*
X011489Y022370D02*
X012087Y022370D01*
X011952Y022529D02*
X011489Y022529D01*
X011489Y022687D02*
X011919Y022687D01*
X011958Y022846D02*
X011489Y022846D01*
X011596Y023004D02*
X012121Y023004D01*
X012437Y023004D02*
X013158Y023004D01*
X013069Y023163D02*
X011639Y023163D01*
X011610Y023321D02*
X011705Y023321D01*
X011853Y023321D02*
X013069Y023321D01*
X013069Y023480D02*
X012086Y023480D01*
X012139Y023638D02*
X013069Y023638D01*
X013069Y023797D02*
X012193Y023797D01*
X012351Y023955D02*
X013069Y023955D01*
X013069Y024114D02*
X012510Y024114D01*
X012668Y024272D02*
X013074Y024272D01*
X013233Y024431D02*
X012827Y024431D01*
X012985Y024589D02*
X013304Y024589D01*
X013304Y024748D02*
X013144Y024748D01*
X013302Y024906D02*
X013333Y024906D01*
X013025Y025223D02*
X013018Y025223D01*
X013087Y025382D02*
X013184Y025382D01*
X014225Y024906D02*
X014305Y024906D01*
X014284Y024748D02*
X014254Y024748D01*
X014254Y024589D02*
X014284Y024589D01*
X014328Y024431D02*
X014201Y024431D01*
X014043Y024272D02*
X014487Y024272D01*
X014779Y024272D02*
X014779Y024272D01*
X014779Y024185D02*
X014984Y024185D01*
X015274Y024475D01*
X015274Y024680D01*
X014779Y024680D01*
X014779Y024680D01*
X014779Y024185D01*
X014779Y024431D02*
X014779Y024431D01*
X014779Y024589D02*
X014779Y024589D01*
X014779Y024680D02*
X014779Y024680D01*
X015274Y024748D02*
X016809Y024748D01*
X016810Y024589D02*
X015274Y024589D01*
X015230Y024431D02*
X016876Y024431D01*
X016574Y024272D02*
X015071Y024272D01*
X015253Y024906D02*
X016866Y024906D01*
X016961Y025065D02*
X017028Y025065D01*
X017119Y025223D02*
X020525Y025223D01*
X020367Y025065D02*
X019708Y025065D01*
X019623Y025260D02*
X019777Y025324D01*
X019895Y025442D01*
X019959Y025596D01*
X019959Y025764D01*
X019895Y025918D01*
X019777Y026036D01*
X019623Y026100D01*
X018935Y026100D01*
X018781Y026036D01*
X018663Y025918D01*
X018599Y025764D01*
X018599Y025596D01*
X018663Y025442D01*
X018781Y025324D01*
X018935Y025260D01*
X019623Y025260D01*
X019835Y025382D02*
X020684Y025382D01*
X020842Y025540D02*
X019936Y025540D01*
X019959Y025699D02*
X021001Y025699D01*
X021159Y025857D02*
X019920Y025857D01*
X019797Y026016D02*
X021318Y026016D01*
X021476Y026174D02*
X016707Y026174D01*
X016754Y026127D02*
X016476Y026405D01*
X016082Y026405D01*
X015804Y026127D01*
X015804Y025733D01*
X016082Y025455D01*
X016476Y025455D01*
X016754Y025733D01*
X016754Y026127D01*
X016754Y026016D02*
X016962Y026016D01*
X016846Y025857D02*
X016754Y025857D01*
X016719Y025699D02*
X016809Y025699D01*
X016831Y025540D02*
X016561Y025540D01*
X015997Y025540D02*
X015589Y025540D01*
X015748Y025699D02*
X015839Y025699D01*
X015804Y025857D02*
X015774Y025857D01*
X015774Y026016D02*
X015804Y026016D01*
X015851Y026174D02*
X015735Y026174D01*
X015577Y026333D02*
X016010Y026333D01*
X016548Y026333D02*
X016974Y026333D01*
X018002Y027284D02*
X018879Y027284D01*
X018935Y027260D02*
X019623Y027260D01*
X019777Y027324D01*
X019895Y027442D01*
X019959Y027601D02*
X021599Y027601D01*
X021599Y027759D02*
X019959Y027759D01*
X019895Y027918D02*
X021663Y027918D01*
X021878Y028076D02*
X019680Y028076D01*
X019846Y028393D02*
X021712Y028393D01*
X021618Y028552D02*
X019940Y028552D01*
X019959Y028710D02*
X021599Y028710D01*
X021643Y028869D02*
X019916Y028869D01*
X019786Y029027D02*
X021772Y029027D01*
X021761Y029344D02*
X019797Y029344D01*
X019920Y029503D02*
X021638Y029503D01*
X021599Y029661D02*
X019959Y029661D01*
X019936Y029820D02*
X021622Y029820D01*
X021723Y029978D02*
X019835Y029978D01*
X019496Y030454D02*
X008562Y030454D01*
X007914Y030612D02*
X001759Y030612D01*
X001759Y030454D02*
X007756Y030454D01*
X007597Y030295D02*
X001759Y030295D01*
X001759Y030137D02*
X007439Y030137D01*
X007280Y029978D02*
X004990Y029978D01*
X005111Y029820D02*
X007122Y029820D01*
X006963Y029661D02*
X005139Y029661D01*
X005095Y029503D02*
X006805Y029503D01*
X006646Y029344D02*
X004989Y029344D01*
X004989Y029186D02*
X006488Y029186D01*
X006329Y029027D02*
X004989Y029027D01*
X004989Y028869D02*
X006171Y028869D01*
X006012Y028710D02*
X004989Y028710D01*
X004989Y028552D02*
X005854Y028552D01*
X005483Y028393D02*
X004989Y028393D01*
X004989Y028235D02*
X005419Y028235D01*
X005432Y028076D02*
X004989Y028076D01*
X004989Y027918D02*
X005532Y027918D01*
X004569Y027918D02*
X001759Y027918D01*
X001759Y028076D02*
X004569Y028076D01*
X004569Y028235D02*
X001759Y028235D01*
X001759Y028393D02*
X004569Y028393D01*
X004569Y028552D02*
X001759Y028552D01*
X001759Y028710D02*
X004569Y028710D01*
X004569Y028869D02*
X001759Y028869D01*
X001759Y029027D02*
X004569Y029027D01*
X004569Y029186D02*
X001759Y029186D01*
X001759Y029344D02*
X004569Y029344D01*
X004463Y029503D02*
X001759Y029503D01*
X001759Y029661D02*
X004419Y029661D01*
X004447Y029820D02*
X001759Y029820D01*
X001759Y029978D02*
X004568Y029978D01*
X004569Y027759D02*
X001759Y027759D01*
X001759Y027601D02*
X004569Y027601D01*
X001759Y027125D02*
X007534Y027125D01*
X007534Y026967D02*
X001759Y026967D01*
X001759Y026808D02*
X007534Y026808D01*
X007609Y026650D02*
X001759Y026650D01*
X001759Y026174D02*
X011952Y026174D01*
X011952Y026016D02*
X001759Y026016D01*
X001759Y025857D02*
X011952Y025857D01*
X011952Y025699D02*
X001759Y025699D01*
X001759Y025540D02*
X011952Y025540D01*
X011971Y025382D02*
X001759Y025382D01*
X001759Y025223D02*
X012040Y025223D01*
X012191Y025065D02*
X001759Y025065D01*
X008290Y026491D02*
X008796Y026491D01*
X008638Y026650D02*
X008449Y026650D01*
X008524Y026808D02*
X008554Y026808D01*
X008554Y026967D02*
X008524Y026967D01*
X008524Y027125D02*
X008554Y027125D01*
X008711Y027284D02*
X008376Y027284D01*
X009050Y027442D02*
X015744Y027442D01*
X015903Y027601D02*
X012885Y027601D01*
X013019Y027759D02*
X016061Y027759D01*
X015984Y027935D02*
X016274Y028225D01*
X016274Y028430D01*
X016274Y028635D01*
X015984Y028925D01*
X015779Y028925D01*
X015574Y028925D01*
X015284Y028635D01*
X015284Y028430D01*
X015284Y028225D01*
X015574Y027935D01*
X015779Y027935D01*
X015779Y028430D01*
X015779Y028430D01*
X015284Y028430D01*
X015779Y028430D01*
X015779Y028925D01*
X015779Y028430D01*
X015779Y028430D01*
X015779Y028430D01*
X015779Y027935D01*
X015984Y027935D01*
X016125Y028076D02*
X016378Y028076D01*
X016274Y028235D02*
X016537Y028235D01*
X016695Y028393D02*
X016274Y028393D01*
X016274Y028430D02*
X015779Y028430D01*
X016274Y028430D01*
X016274Y028552D02*
X016826Y028552D01*
X016809Y028710D02*
X016199Y028710D01*
X016041Y028869D02*
X016851Y028869D01*
X016974Y029027D02*
X013050Y029027D01*
X013086Y028869D02*
X014546Y028869D01*
X014582Y028905D02*
X014304Y028627D01*
X014304Y028233D01*
X014582Y027955D01*
X014976Y027955D01*
X015254Y028233D01*
X015254Y028627D01*
X014976Y028905D01*
X014582Y028905D01*
X014387Y028710D02*
X013086Y028710D01*
X013086Y028552D02*
X014304Y028552D01*
X014304Y028393D02*
X013086Y028393D01*
X013086Y028235D02*
X014304Y028235D01*
X014461Y028076D02*
X013086Y028076D01*
X013085Y027918D02*
X016220Y027918D01*
X015779Y028076D02*
X015779Y028076D01*
X015779Y028235D02*
X015779Y028235D01*
X015779Y028393D02*
X015779Y028393D01*
X015779Y028430D02*
X015779Y028430D01*
X015779Y028552D02*
X015779Y028552D01*
X015779Y028710D02*
X015779Y028710D01*
X015779Y028869D02*
X015779Y028869D01*
X015518Y028869D02*
X015012Y028869D01*
X015171Y028710D02*
X015359Y028710D01*
X015284Y028552D02*
X015254Y028552D01*
X015254Y028393D02*
X015284Y028393D01*
X015284Y028235D02*
X015254Y028235D01*
X015097Y028076D02*
X015433Y028076D01*
X012959Y029186D02*
X028464Y029186D01*
X028591Y027284D02*
X024972Y027284D01*
X025082Y026174D02*
X028481Y026174D01*
X028469Y026016D02*
X025240Y026016D01*
X024964Y025699D02*
X024749Y025699D01*
X024727Y025540D02*
X025122Y025540D01*
X024805Y025857D02*
X024712Y025857D01*
X024647Y026016D02*
X024596Y026016D01*
X024488Y026174D02*
X022070Y026174D01*
X021635Y026333D02*
X019786Y026333D01*
X019777Y026324D02*
X019895Y026442D01*
X019959Y026596D01*
X019959Y026764D01*
X019895Y026918D01*
X019777Y027036D01*
X019623Y027100D01*
X018935Y027100D01*
X018781Y027036D01*
X018663Y026918D01*
X018599Y026764D01*
X018599Y026596D01*
X018663Y026442D01*
X018781Y026324D01*
X018935Y026260D01*
X019623Y026260D01*
X019777Y026324D01*
X019915Y026491D02*
X021643Y026491D01*
X021599Y026650D02*
X019959Y026650D01*
X019941Y026808D02*
X021617Y026808D01*
X021712Y026967D02*
X019846Y026967D01*
X019679Y027284D02*
X021879Y027284D01*
X021935Y027260D02*
X022623Y027260D01*
X022777Y027324D01*
X022895Y027442D01*
X022679Y027284D02*
X023556Y027284D01*
X023413Y026967D02*
X022846Y026967D01*
X022941Y026808D02*
X023326Y026808D01*
X023309Y026650D02*
X022959Y026650D01*
X022915Y026491D02*
X023351Y026491D01*
X023474Y026333D02*
X022786Y026333D01*
X022797Y026016D02*
X023462Y026016D01*
X023346Y025857D02*
X022920Y025857D01*
X022959Y025699D02*
X023309Y025699D01*
X023331Y025540D02*
X022936Y025540D01*
X022835Y025382D02*
X023425Y025382D01*
X023528Y025065D02*
X022708Y025065D01*
X022777Y025036D02*
X022623Y025100D01*
X021935Y025100D01*
X021781Y025036D01*
X021663Y024918D01*
X021599Y024764D01*
X021599Y024596D01*
X021663Y024442D01*
X021781Y024324D01*
X021935Y024260D01*
X022623Y024260D01*
X022777Y024324D01*
X022895Y024442D01*
X022959Y024596D01*
X022959Y024764D01*
X022895Y024918D01*
X022777Y025036D01*
X022900Y024906D02*
X023366Y024906D01*
X023376Y024929D02*
X023309Y024768D01*
X023309Y024592D01*
X023376Y024431D01*
X023500Y024307D01*
X023662Y024240D01*
X024397Y024240D01*
X024415Y024247D01*
X025919Y022743D01*
X025919Y022608D01*
X025974Y022476D01*
X026075Y022375D01*
X026207Y022320D01*
X026351Y022320D01*
X026483Y022375D01*
X026584Y022476D01*
X026639Y022608D01*
X026639Y022752D01*
X026584Y022884D01*
X026483Y022985D01*
X026351Y023040D01*
X026216Y023040D01*
X024724Y024532D01*
X024749Y024592D01*
X024749Y024768D01*
X024682Y024929D01*
X024558Y025053D01*
X024397Y025120D01*
X023662Y025120D01*
X023500Y025053D01*
X023376Y024929D01*
X023309Y024748D02*
X022959Y024748D01*
X022956Y024589D02*
X023310Y024589D01*
X023376Y024431D02*
X022884Y024431D01*
X022652Y024272D02*
X023584Y024272D01*
X023646Y024114D02*
X020010Y024114D01*
X019858Y023955D02*
X021700Y023955D01*
X021663Y023918D02*
X021599Y023764D01*
X021599Y023596D01*
X021663Y023442D01*
X021781Y023324D01*
X021935Y023260D01*
X022623Y023260D01*
X022777Y023324D01*
X022895Y023442D01*
X022959Y023596D01*
X022959Y023764D01*
X022895Y023918D01*
X022777Y024036D01*
X022623Y024100D01*
X021935Y024100D01*
X021781Y024036D01*
X021663Y023918D01*
X021613Y023797D02*
X019945Y023797D01*
X019959Y023638D02*
X021599Y023638D01*
X021647Y023480D02*
X019911Y023480D01*
X019770Y023321D02*
X021788Y023321D01*
X021935Y023100D02*
X021781Y023036D01*
X021663Y022918D01*
X021599Y022764D01*
X021599Y022596D01*
X021663Y022442D01*
X021781Y022324D01*
X021935Y022260D01*
X022623Y022260D01*
X022777Y022324D01*
X022895Y022442D01*
X022959Y022596D01*
X022959Y022764D01*
X022895Y022918D01*
X022777Y023036D01*
X022623Y023100D01*
X021935Y023100D01*
X021749Y023004D02*
X019837Y023004D01*
X019826Y023016D02*
X019770Y023056D01*
X019708Y023088D01*
X019642Y023109D01*
X019574Y023120D01*
X019279Y023120D01*
X018984Y023120D01*
X018916Y023109D01*
X018850Y023088D01*
X018788Y023056D01*
X018732Y023016D01*
X018683Y022967D01*
X018643Y022911D01*
X018611Y022849D01*
X018590Y022783D01*
X018579Y022715D01*
X018579Y022680D01*
X018579Y022645D01*
X018590Y022577D01*
X018611Y022511D01*
X018643Y022449D01*
X018683Y022393D01*
X018732Y022344D01*
X018788Y022304D01*
X018850Y022272D01*
X018916Y022251D01*
X018984Y022240D01*
X019279Y022240D01*
X019279Y022680D01*
X019279Y022680D01*
X018579Y022680D01*
X019279Y022680D01*
X019279Y023120D01*
X019279Y022680D01*
X019279Y022680D01*
X019279Y022680D01*
X019279Y022240D01*
X019574Y022240D01*
X019642Y022251D01*
X019708Y022272D01*
X019770Y022304D01*
X019826Y022344D01*
X019875Y022393D01*
X019915Y022449D01*
X019947Y022511D01*
X019968Y022577D01*
X019979Y022645D01*
X019979Y022680D01*
X019279Y022680D01*
X019979Y022680D01*
X019979Y022715D01*
X019968Y022783D01*
X019947Y022849D01*
X019915Y022911D01*
X019875Y022967D01*
X019826Y023016D01*
X019948Y022846D02*
X021633Y022846D01*
X021599Y022687D02*
X019979Y022687D01*
X019952Y022529D02*
X021627Y022529D01*
X021735Y022370D02*
X019851Y022370D01*
X019736Y022053D02*
X021822Y022053D01*
X021653Y021895D02*
X019905Y021895D01*
X019895Y021918D02*
X019777Y022036D01*
X019623Y022100D01*
X018935Y022100D01*
X018781Y022036D01*
X018663Y021918D01*
X018599Y021764D01*
X018599Y021596D01*
X018663Y021442D01*
X018781Y021324D01*
X018935Y021260D01*
X019623Y021260D01*
X019777Y021324D01*
X019895Y021442D01*
X019959Y021596D01*
X019959Y021764D01*
X019895Y021918D01*
X019959Y021736D02*
X021599Y021736D01*
X021607Y021578D02*
X019951Y021578D01*
X019872Y021419D02*
X021686Y021419D01*
X021934Y021261D02*
X019624Y021261D01*
X019869Y020944D02*
X021667Y020944D01*
X021683Y020967D02*
X021643Y020911D01*
X021611Y020849D01*
X021590Y020783D01*
X021579Y020715D01*
X021579Y020680D01*
X021579Y020645D01*
X021590Y020577D01*
X021611Y020511D01*
X021643Y020449D01*
X021683Y020393D01*
X021732Y020344D01*
X021788Y020304D01*
X021850Y020272D01*
X021916Y020251D01*
X021984Y020240D01*
X022279Y020240D01*
X022279Y020680D01*
X022279Y020680D01*
X021579Y020680D01*
X022279Y020680D01*
X022279Y021120D01*
X021984Y021120D01*
X021916Y021109D01*
X021850Y021088D01*
X021788Y021056D01*
X021732Y021016D01*
X021683Y020967D01*
X021591Y020785D02*
X019950Y020785D01*
X019959Y020627D02*
X021582Y020627D01*
X021633Y020468D02*
X019906Y020468D01*
X019930Y019834D02*
X021328Y019834D01*
X021487Y019676D02*
X019959Y019676D01*
X019926Y019517D02*
X021632Y019517D01*
X021747Y019359D02*
X019812Y019359D01*
X019764Y019042D02*
X021794Y019042D01*
X021649Y018883D02*
X019910Y018883D01*
X019959Y018725D02*
X021599Y018725D01*
X021612Y018566D02*
X019946Y018566D01*
X019861Y018408D02*
X021698Y018408D01*
X022145Y018249D02*
X023640Y018249D01*
X023662Y018240D02*
X023500Y018307D01*
X023376Y018431D01*
X023309Y018592D01*
X023309Y018768D01*
X023376Y018929D01*
X023500Y019053D01*
X023662Y019120D01*
X024397Y019120D01*
X024558Y019053D01*
X024682Y018929D01*
X024749Y018768D01*
X024749Y018592D01*
X024682Y018431D01*
X024558Y018307D01*
X024397Y018240D01*
X023662Y018240D01*
X023662Y018120D02*
X023500Y018053D01*
X023376Y017929D01*
X023309Y017768D01*
X023309Y017592D01*
X023376Y017431D01*
X023500Y017307D01*
X023662Y017240D01*
X024397Y017240D01*
X024558Y017307D01*
X024682Y017431D01*
X024749Y017592D01*
X024749Y017768D01*
X024682Y017929D01*
X024558Y018053D01*
X024397Y018120D01*
X023662Y018120D01*
X023590Y018091D02*
X022645Y018091D01*
X022881Y017932D02*
X023379Y017932D01*
X023312Y017774D02*
X022955Y017774D01*
X022959Y017615D02*
X023309Y017615D01*
X023365Y017457D02*
X022901Y017457D01*
X022714Y017298D02*
X023521Y017298D01*
X023428Y016981D02*
X022832Y016981D01*
X022935Y016823D02*
X023332Y016823D01*
X023309Y016664D02*
X022959Y016664D01*
X022921Y016506D02*
X023345Y016506D01*
X023460Y016347D02*
X022800Y016347D01*
X021766Y015396D02*
X019072Y015396D01*
X019139Y015238D02*
X021925Y015238D01*
X022083Y015079D02*
X019127Y015079D01*
X019029Y014921D02*
X020510Y014921D01*
X020423Y014762D02*
X018158Y014762D01*
X018000Y014604D02*
X020421Y014604D01*
X020505Y014445D02*
X017841Y014445D01*
X017683Y014287D02*
X023876Y014287D01*
X023859Y014128D02*
X024034Y014128D01*
X023859Y013970D02*
X038569Y013970D01*
X038569Y013811D02*
X023859Y013811D01*
X023859Y013653D02*
X038569Y013653D01*
X038569Y013494D02*
X023859Y013494D01*
X023859Y013336D02*
X038569Y013336D01*
X038569Y013177D02*
X023859Y013177D01*
X023859Y013019D02*
X038569Y013019D01*
X038569Y012860D02*
X023859Y012860D01*
X023859Y012702D02*
X038569Y012702D01*
X038569Y012543D02*
X023859Y012543D01*
X023859Y012385D02*
X038569Y012385D01*
X038569Y012226D02*
X023859Y012226D01*
X023859Y012068D02*
X038569Y012068D01*
X038069Y011434D02*
X026542Y011434D01*
X026016Y011434D02*
X025035Y011434D01*
X025129Y011275D02*
X038069Y011275D01*
X038069Y011117D02*
X025154Y011117D01*
X025312Y010958D02*
X038069Y010958D01*
X037537Y009690D02*
X037537Y009690D01*
X037537Y009532D02*
X037537Y009532D01*
X037537Y009373D02*
X037537Y009373D01*
X037537Y009271D02*
X037537Y008833D01*
X037537Y009271D01*
X037537Y009271D01*
X037537Y009215D02*
X037537Y009215D01*
X037537Y009056D02*
X037537Y009056D01*
X037537Y008898D02*
X037537Y008898D01*
X037140Y008898D02*
X036921Y008898D01*
X036970Y009056D02*
X037099Y009056D01*
X037099Y009215D02*
X036993Y009215D01*
X036970Y009373D02*
X037099Y009373D01*
X037099Y009532D02*
X036970Y009532D01*
X037200Y009690D02*
X029331Y009690D01*
X029469Y009532D02*
X036135Y009532D01*
X036184Y008898D02*
X029538Y008898D01*
X029541Y008739D02*
X029380Y008739D01*
X029383Y008581D02*
X028940Y008581D01*
X029098Y008422D02*
X029224Y008422D01*
X034968Y007788D02*
X035590Y007788D01*
X035569Y007630D02*
X035126Y007630D01*
X035285Y007471D02*
X035569Y007471D01*
X035569Y007313D02*
X035543Y007313D01*
X026005Y014445D02*
X024311Y014445D01*
X024152Y014604D02*
X025921Y014604D01*
X025923Y014762D02*
X023994Y014762D01*
X023717Y014445D02*
X021053Y014445D01*
X021199Y014128D02*
X017639Y014128D01*
X017578Y013970D02*
X021199Y013970D01*
X021048Y014921D02*
X026010Y014921D01*
X027596Y016506D02*
X040169Y016506D01*
X040169Y016664D02*
X027639Y016664D01*
X027610Y016823D02*
X040169Y016823D01*
X040169Y016981D02*
X027487Y016981D01*
X027116Y017140D02*
X040169Y017140D01*
X040169Y017298D02*
X026958Y017298D01*
X026799Y017457D02*
X040169Y017457D01*
X040169Y017615D02*
X026641Y017615D01*
X026482Y017774D02*
X040169Y017774D01*
X040169Y017932D02*
X026324Y017932D01*
X026165Y018091D02*
X040169Y018091D01*
X040169Y018249D02*
X026007Y018249D01*
X025848Y018408D02*
X040169Y018408D01*
X040169Y018566D02*
X031476Y018566D01*
X031499Y018725D02*
X040169Y018725D01*
X040169Y018883D02*
X031499Y018883D01*
X031499Y019042D02*
X040169Y019042D01*
X040169Y019200D02*
X031499Y019200D01*
X031499Y019359D02*
X040169Y019359D01*
X040169Y019517D02*
X031499Y019517D01*
X031499Y019676D02*
X040169Y019676D01*
X040169Y019834D02*
X031499Y019834D01*
X031499Y019993D02*
X040169Y019993D01*
X040169Y020151D02*
X031499Y020151D01*
X031499Y020310D02*
X040169Y020310D01*
X040169Y020468D02*
X031499Y020468D01*
X031499Y020627D02*
X040169Y020627D01*
X040169Y020785D02*
X031499Y020785D01*
X031499Y020944D02*
X040169Y020944D01*
X040169Y021102D02*
X031499Y021102D01*
X031499Y021261D02*
X040169Y021261D01*
X040169Y021419D02*
X031499Y021419D01*
X031059Y021102D02*
X030967Y021102D01*
X030947Y020944D02*
X031059Y020944D01*
X031059Y020785D02*
X030947Y020785D01*
X030947Y020627D02*
X031059Y020627D01*
X031059Y020468D02*
X030947Y020468D01*
X030947Y020310D02*
X031059Y020310D01*
X031059Y020151D02*
X030947Y020151D01*
X030947Y019993D02*
X031059Y019993D01*
X031059Y019834D02*
X030947Y019834D01*
X030947Y019676D02*
X031059Y019676D01*
X031059Y019517D02*
X030947Y019517D01*
X030947Y019359D02*
X031059Y019359D01*
X031059Y019200D02*
X030924Y019200D01*
X031059Y019042D02*
X028479Y019042D01*
X028320Y019200D02*
X030134Y019200D01*
X030112Y019359D02*
X028162Y019359D01*
X028003Y019517D02*
X028645Y019517D01*
X028487Y019676D02*
X027845Y019676D01*
X027686Y019834D02*
X028328Y019834D01*
X028170Y019993D02*
X027528Y019993D01*
X027369Y020151D02*
X028011Y020151D01*
X027853Y020310D02*
X027211Y020310D01*
X027052Y020468D02*
X027694Y020468D01*
X027536Y020627D02*
X026894Y020627D01*
X026735Y020785D02*
X027377Y020785D01*
X027219Y020944D02*
X026577Y020944D01*
X026418Y021102D02*
X027069Y021102D01*
X027069Y021261D02*
X026810Y021261D01*
X026734Y021185D02*
X027024Y021475D01*
X027024Y021680D01*
X027024Y021885D01*
X026734Y022175D01*
X026529Y022175D01*
X026324Y022175D01*
X026034Y021885D01*
X026034Y021680D01*
X026529Y021680D01*
X026529Y022175D01*
X026529Y021680D01*
X026529Y021680D01*
X026529Y021680D01*
X026529Y021185D01*
X026734Y021185D01*
X026529Y021261D02*
X026529Y021261D01*
X026529Y021419D02*
X026529Y021419D01*
X026529Y021578D02*
X026529Y021578D01*
X026529Y021680D02*
X026529Y021680D01*
X027024Y021680D01*
X026529Y021680D01*
X026529Y021736D02*
X026529Y021736D01*
X026529Y021895D02*
X026529Y021895D01*
X026529Y022053D02*
X026529Y022053D01*
X026471Y022370D02*
X027069Y022370D01*
X027069Y022212D02*
X024989Y022212D01*
X024989Y022370D02*
X026087Y022370D01*
X025952Y022529D02*
X024989Y022529D01*
X024989Y022687D02*
X025919Y022687D01*
X025817Y022846D02*
X024910Y022846D01*
X024607Y023004D02*
X025658Y023004D01*
X025500Y023163D02*
X016823Y023163D01*
X016949Y023031D02*
X016898Y022980D01*
X016856Y022921D01*
X016823Y022857D01*
X016800Y022788D01*
X016789Y022716D01*
X016789Y022690D01*
X017519Y022690D01*
X017519Y022670D01*
X016789Y022670D01*
X016789Y022644D01*
X016800Y022572D01*
X016823Y022503D01*
X016856Y022439D01*
X016898Y022380D01*
X016949Y022329D01*
X017008Y022287D01*
X017072Y022254D01*
X017141Y022231D01*
X017213Y022220D01*
X017519Y022220D01*
X017519Y022670D01*
X017539Y022670D01*
X017539Y022220D01*
X017845Y022220D01*
X017917Y022231D01*
X017986Y022254D01*
X018050Y022287D01*
X018109Y022329D01*
X018160Y022380D01*
X018202Y022439D01*
X018235Y022503D01*
X018258Y022572D01*
X018269Y022644D01*
X018269Y022670D01*
X017539Y022670D01*
X017539Y022690D01*
X017519Y022690D01*
X017519Y023140D01*
X017213Y023140D01*
X017141Y023129D01*
X017072Y023106D01*
X017008Y023073D01*
X016949Y023031D01*
X016923Y023004D02*
X016664Y023004D01*
X016819Y022846D02*
X016506Y022846D01*
X016347Y022687D02*
X017519Y022687D01*
X017539Y022687D02*
X018579Y022687D01*
X018606Y022529D02*
X018243Y022529D01*
X018269Y022690D02*
X018269Y022716D01*
X018258Y022788D01*
X018235Y022857D01*
X018202Y022921D01*
X018160Y022980D01*
X018109Y023031D01*
X018050Y023073D01*
X017986Y023106D01*
X017917Y023129D01*
X017845Y023140D01*
X017539Y023140D01*
X017539Y022690D01*
X018269Y022690D01*
X018239Y022846D02*
X018610Y022846D01*
X018721Y023004D02*
X018136Y023004D01*
X018072Y023321D02*
X018788Y023321D01*
X018647Y023480D02*
X018202Y023480D01*
X018249Y023638D02*
X018599Y023638D01*
X018613Y023797D02*
X018237Y023797D01*
X018156Y023955D02*
X018700Y023955D01*
X018675Y024431D02*
X018182Y024431D01*
X018248Y024589D02*
X018602Y024589D01*
X018599Y024748D02*
X018249Y024748D01*
X018192Y024906D02*
X018658Y024906D01*
X018850Y025065D02*
X018030Y025065D01*
X018133Y025382D02*
X018724Y025382D01*
X018622Y025540D02*
X018227Y025540D01*
X018249Y025699D02*
X018599Y025699D01*
X018638Y025857D02*
X018212Y025857D01*
X018096Y026016D02*
X018761Y026016D01*
X018773Y026333D02*
X018084Y026333D01*
X018207Y026491D02*
X018643Y026491D01*
X018599Y026650D02*
X018249Y026650D01*
X018232Y026808D02*
X018617Y026808D01*
X018712Y026967D02*
X018145Y026967D01*
X018663Y027442D02*
X018781Y027324D01*
X018935Y027260D01*
X021278Y025382D02*
X021724Y025382D01*
X021622Y025540D02*
X021436Y025540D01*
X021595Y025699D02*
X021599Y025699D01*
X021119Y025223D02*
X024439Y025223D01*
X024530Y025065D02*
X024598Y025065D01*
X024692Y024906D02*
X027069Y024906D01*
X027069Y024748D02*
X024749Y024748D01*
X024748Y024589D02*
X027069Y024589D01*
X027069Y024431D02*
X024825Y024431D01*
X024984Y024272D02*
X027069Y024272D01*
X027069Y024114D02*
X025142Y024114D01*
X025301Y023955D02*
X027069Y023955D01*
X027069Y023797D02*
X025459Y023797D01*
X025618Y023638D02*
X027069Y023638D01*
X027069Y023480D02*
X025776Y023480D01*
X025935Y023321D02*
X027069Y023321D01*
X027069Y023163D02*
X026093Y023163D01*
X026437Y023004D02*
X027069Y023004D01*
X027069Y022846D02*
X026600Y022846D01*
X026639Y022687D02*
X027069Y022687D01*
X027069Y022529D02*
X026606Y022529D01*
X026856Y022053D02*
X027069Y022053D01*
X027069Y021895D02*
X027015Y021895D01*
X027024Y021736D02*
X027069Y021736D01*
X027069Y021578D02*
X027024Y021578D01*
X027069Y021419D02*
X026968Y021419D01*
X026034Y021578D02*
X026004Y021578D01*
X026004Y021736D02*
X026034Y021736D01*
X026044Y021895D02*
X025986Y021895D01*
X025828Y022053D02*
X026202Y022053D01*
X025230Y022053D02*
X024989Y022053D01*
X024989Y021895D02*
X025072Y021895D01*
X025054Y021736D02*
X025020Y021736D01*
X024743Y021419D02*
X024670Y021419D01*
X024446Y021261D02*
X024902Y021261D01*
X025060Y021102D02*
X024494Y021102D01*
X024486Y021106D02*
X024417Y021129D01*
X024345Y021140D01*
X024039Y021140D01*
X024039Y020690D01*
X024019Y020690D01*
X024019Y020670D01*
X023289Y020670D01*
X023289Y020644D01*
X023300Y020572D01*
X023323Y020503D01*
X023356Y020439D01*
X023398Y020380D01*
X023449Y020329D01*
X023508Y020287D01*
X023572Y020254D01*
X023641Y020231D01*
X023713Y020220D01*
X024019Y020220D01*
X024019Y020670D01*
X024039Y020670D01*
X024039Y020220D01*
X024345Y020220D01*
X024417Y020231D01*
X024486Y020254D01*
X024550Y020287D01*
X024609Y020329D01*
X024660Y020380D01*
X024702Y020439D01*
X024735Y020503D01*
X024758Y020572D01*
X024769Y020644D01*
X024769Y020670D01*
X024039Y020670D01*
X024039Y020690D01*
X024769Y020690D01*
X024769Y020716D01*
X024758Y020788D01*
X024735Y020857D01*
X024702Y020921D01*
X024660Y020980D01*
X024609Y021031D01*
X024550Y021073D01*
X024486Y021106D01*
X024686Y020944D02*
X025219Y020944D01*
X025377Y020785D02*
X024758Y020785D01*
X024766Y020627D02*
X025419Y020627D01*
X025482Y020468D02*
X024717Y020468D01*
X024582Y020310D02*
X026588Y020310D01*
X026430Y020468D02*
X026076Y020468D01*
X026139Y020627D02*
X026271Y020627D01*
X026747Y020151D02*
X021605Y020151D01*
X021446Y020310D02*
X021780Y020310D01*
X022279Y020310D02*
X022279Y020310D01*
X022279Y020240D02*
X022574Y020240D01*
X022642Y020251D01*
X022708Y020272D01*
X022770Y020304D01*
X022826Y020344D01*
X022875Y020393D01*
X022915Y020449D01*
X022947Y020511D01*
X022968Y020577D01*
X022979Y020645D01*
X022979Y020680D01*
X022979Y020715D01*
X022968Y020783D01*
X022947Y020849D01*
X022915Y020911D01*
X022875Y020967D01*
X022826Y021016D01*
X022770Y021056D01*
X022708Y021088D01*
X022642Y021109D01*
X022574Y021120D01*
X022279Y021120D01*
X022279Y020680D01*
X022279Y020680D01*
X022279Y020680D01*
X022279Y020240D01*
X022279Y020468D02*
X022279Y020468D01*
X022279Y020627D02*
X022279Y020627D01*
X022279Y020680D02*
X022279Y020680D01*
X022979Y020680D01*
X022279Y020680D01*
X022279Y020785D02*
X022279Y020785D01*
X022279Y020944D02*
X022279Y020944D01*
X022279Y021102D02*
X022279Y021102D01*
X022624Y021261D02*
X023612Y021261D01*
X023641Y021129D02*
X023572Y021106D01*
X023508Y021073D01*
X023449Y021031D01*
X023398Y020980D01*
X023356Y020921D01*
X023323Y020857D01*
X023300Y020788D01*
X023289Y020716D01*
X023289Y020690D01*
X024019Y020690D01*
X024019Y021140D01*
X023713Y021140D01*
X023641Y021129D01*
X023564Y021102D02*
X022664Y021102D01*
X022891Y020944D02*
X023372Y020944D01*
X023300Y020785D02*
X022968Y020785D01*
X022976Y020627D02*
X023292Y020627D01*
X023341Y020468D02*
X022925Y020468D01*
X022778Y020310D02*
X023476Y020310D01*
X023439Y019993D02*
X022820Y019993D01*
X022930Y019834D02*
X023337Y019834D01*
X023309Y019676D02*
X022959Y019676D01*
X022926Y019517D02*
X023340Y019517D01*
X023448Y019359D02*
X022812Y019359D01*
X022764Y019042D02*
X023488Y019042D01*
X023357Y018883D02*
X022910Y018883D01*
X022959Y018725D02*
X023309Y018725D01*
X023320Y018566D02*
X022946Y018566D01*
X022861Y018408D02*
X023399Y018408D01*
X024418Y018249D02*
X025413Y018249D01*
X025572Y018091D02*
X024468Y018091D01*
X024679Y017932D02*
X025730Y017932D01*
X025889Y017774D02*
X024747Y017774D01*
X024749Y017615D02*
X026047Y017615D01*
X026206Y017457D02*
X024693Y017457D01*
X024659Y018408D02*
X025255Y018408D01*
X025096Y018566D02*
X024738Y018566D01*
X024749Y018725D02*
X024938Y018725D01*
X024779Y018883D02*
X024701Y018883D01*
X024621Y019042D02*
X024570Y019042D01*
X024462Y019200D02*
X013096Y019200D01*
X012938Y019042D02*
X016988Y019042D01*
X016857Y018883D02*
X012779Y018883D01*
X012639Y018725D02*
X016809Y018725D01*
X016820Y018566D02*
X012621Y018566D01*
X012516Y018408D02*
X016899Y018408D01*
X016948Y019359D02*
X013255Y019359D01*
X014199Y020944D02*
X015371Y020944D01*
X015529Y021102D02*
X014183Y021102D01*
X014092Y021261D02*
X015498Y021261D01*
X015340Y021419D02*
X013815Y021419D01*
X014949Y022053D02*
X015091Y022053D01*
X015108Y022212D02*
X015249Y022212D01*
X015266Y022370D02*
X015408Y022370D01*
X015425Y022529D02*
X015566Y022529D01*
X015583Y022687D02*
X015725Y022687D01*
X015742Y022846D02*
X015883Y022846D01*
X015900Y023004D02*
X016042Y023004D01*
X016059Y023163D02*
X016200Y023163D01*
X016217Y023321D02*
X016359Y023321D01*
X016376Y023480D02*
X016517Y023480D01*
X016534Y023638D02*
X016676Y023638D01*
X016693Y023797D02*
X016821Y023797D01*
X016851Y023955D02*
X016902Y023955D01*
X016416Y024114D02*
X013510Y024114D01*
X013489Y023955D02*
X016257Y023955D01*
X016099Y023797D02*
X013489Y023797D01*
X013489Y023638D02*
X015940Y023638D01*
X015782Y023480D02*
X013489Y023480D01*
X013489Y023321D02*
X015623Y023321D01*
X015465Y023163D02*
X014090Y023163D01*
X014182Y023004D02*
X015306Y023004D01*
X015148Y022846D02*
X014199Y022846D01*
X014154Y022687D02*
X014989Y022687D01*
X014831Y022529D02*
X014022Y022529D01*
X013537Y022529D02*
X012727Y022529D01*
X012639Y022687D02*
X013404Y022687D01*
X013317Y022846D02*
X012600Y022846D01*
X015238Y021578D02*
X015284Y021578D01*
X015779Y021578D02*
X015779Y021578D01*
X015779Y021680D02*
X015779Y021185D01*
X015984Y021185D01*
X016274Y021475D01*
X016274Y021680D01*
X015779Y021680D01*
X015779Y021680D01*
X015779Y021419D02*
X015779Y021419D01*
X015779Y021261D02*
X015779Y021261D01*
X016060Y021261D02*
X017112Y021261D01*
X017162Y021240D02*
X017897Y021240D01*
X018058Y021307D01*
X018182Y021431D01*
X018249Y021592D01*
X018249Y021768D01*
X018182Y021929D01*
X018058Y022053D01*
X018822Y022053D01*
X018653Y021895D02*
X018196Y021895D01*
X018249Y021736D02*
X018599Y021736D01*
X018607Y021578D02*
X018243Y021578D01*
X018170Y021419D02*
X018686Y021419D01*
X018934Y021261D02*
X017946Y021261D01*
X017940Y021102D02*
X021894Y021102D01*
X022872Y021419D02*
X023388Y021419D01*
X023315Y021578D02*
X022951Y021578D01*
X022959Y021736D02*
X023309Y021736D01*
X023376Y021929D02*
X023500Y022053D01*
X023437Y022370D02*
X022823Y022370D01*
X022931Y022529D02*
X023336Y022529D01*
X023309Y022687D02*
X022959Y022687D01*
X022925Y022846D02*
X023341Y022846D01*
X023451Y023004D02*
X022809Y023004D01*
X022770Y023321D02*
X023486Y023321D01*
X023500Y023307D02*
X023662Y023240D01*
X024397Y023240D01*
X024558Y023307D01*
X024682Y023431D01*
X024749Y023592D01*
X024749Y023768D01*
X024682Y023929D01*
X024558Y024053D01*
X024397Y024120D01*
X023662Y024120D01*
X023500Y024053D01*
X023376Y023929D01*
X023309Y023768D01*
X023309Y023592D01*
X023376Y023431D01*
X023500Y023307D01*
X023356Y023480D02*
X022911Y023480D01*
X022959Y023638D02*
X023309Y023638D01*
X023321Y023797D02*
X022945Y023797D01*
X022858Y023955D02*
X023402Y023955D01*
X024412Y024114D02*
X024549Y024114D01*
X024656Y023955D02*
X024707Y023955D01*
X024737Y023797D02*
X024866Y023797D01*
X024749Y023638D02*
X025024Y023638D01*
X025183Y023480D02*
X024702Y023480D01*
X024572Y023321D02*
X025341Y023321D01*
X024569Y022212D02*
X015872Y022212D01*
X016030Y022370D02*
X016908Y022370D01*
X016815Y022529D02*
X016189Y022529D01*
X016106Y022053D02*
X017000Y022053D01*
X016876Y021929D01*
X016809Y021768D01*
X016809Y021592D01*
X016876Y021431D01*
X017000Y021307D01*
X017162Y021240D01*
X017118Y021102D02*
X016029Y021102D01*
X016187Y020944D02*
X016890Y020944D01*
X016888Y021419D02*
X016218Y021419D01*
X016274Y021578D02*
X016815Y021578D01*
X016809Y021736D02*
X016274Y021736D01*
X016265Y021895D02*
X016862Y021895D01*
X017000Y022053D02*
X017162Y022120D01*
X017897Y022120D01*
X018058Y022053D01*
X018150Y022370D02*
X018707Y022370D01*
X019279Y022370D02*
X019279Y022370D01*
X019279Y022529D02*
X019279Y022529D01*
X019279Y022680D02*
X019279Y022680D01*
X019279Y022687D02*
X019279Y022687D01*
X019279Y022846D02*
X019279Y022846D01*
X019279Y023004D02*
X019279Y023004D01*
X020168Y024272D02*
X021906Y024272D01*
X021675Y024431D02*
X020327Y024431D01*
X020485Y024589D02*
X021602Y024589D01*
X021599Y024748D02*
X020644Y024748D01*
X020802Y024906D02*
X021658Y024906D01*
X021850Y025065D02*
X020961Y025065D01*
X020208Y024906D02*
X019900Y024906D01*
X019959Y024748D02*
X020050Y024748D01*
X017539Y023004D02*
X017519Y023004D01*
X017519Y022846D02*
X017539Y022846D01*
X017519Y022529D02*
X017539Y022529D01*
X017539Y022370D02*
X017519Y022370D01*
X016986Y023321D02*
X016981Y023321D01*
X018168Y020944D02*
X018689Y020944D01*
X018608Y020785D02*
X018242Y020785D01*
X018249Y020627D02*
X018599Y020627D01*
X018652Y020468D02*
X018197Y020468D01*
X018221Y019834D02*
X018628Y019834D01*
X018599Y019676D02*
X018249Y019676D01*
X018218Y019517D02*
X018632Y019517D01*
X018747Y019359D02*
X018110Y019359D01*
X018070Y019042D02*
X018794Y019042D01*
X018649Y018883D02*
X018201Y018883D01*
X018249Y018725D02*
X018599Y018725D01*
X018612Y018566D02*
X018238Y018566D01*
X018159Y018408D02*
X018698Y018408D01*
X018657Y017457D02*
X018193Y017457D01*
X018037Y017298D02*
X018844Y017298D01*
X018935Y017100D02*
X018781Y017036D01*
X018663Y016918D01*
X018651Y016890D01*
X018198Y016890D01*
X018182Y016929D01*
X018058Y017053D01*
X017897Y017120D01*
X017162Y017120D01*
X017000Y017053D01*
X016876Y016929D01*
X016809Y016768D01*
X016809Y016592D01*
X016876Y016431D01*
X017000Y016307D01*
X017162Y016240D01*
X017897Y016240D01*
X018058Y016307D01*
X018182Y016431D01*
X018198Y016470D01*
X018651Y016470D01*
X018663Y016442D01*
X018781Y016324D01*
X018935Y016260D01*
X019623Y016260D01*
X019777Y016324D01*
X019895Y016442D01*
X019959Y016596D01*
X019959Y016764D01*
X019895Y016918D01*
X019777Y017036D01*
X019623Y017100D01*
X018935Y017100D01*
X018726Y016981D02*
X018130Y016981D01*
X018098Y016347D02*
X018758Y016347D01*
X019800Y016347D02*
X020815Y016347D01*
X020657Y016506D02*
X019921Y016506D01*
X019959Y016664D02*
X020498Y016664D01*
X020340Y016823D02*
X019935Y016823D01*
X019832Y016981D02*
X020181Y016981D01*
X020023Y017140D02*
X015741Y017140D01*
X015900Y016981D02*
X016928Y016981D01*
X016832Y016823D02*
X016004Y016823D01*
X016004Y016664D02*
X016809Y016664D01*
X016845Y016506D02*
X016004Y016506D01*
X015868Y016347D02*
X016960Y016347D01*
X017021Y017298D02*
X009601Y017298D01*
X009720Y017457D02*
X016865Y017457D01*
X019714Y017298D02*
X019864Y017298D01*
X018529Y014921D02*
X018317Y014921D01*
X013837Y013811D02*
X001759Y013811D01*
X002573Y013494D02*
X005985Y013494D01*
X006101Y013610D02*
X005849Y013358D01*
X005849Y013180D01*
X005849Y013002D01*
X006101Y012750D01*
X006279Y012750D01*
X006279Y013180D01*
X006279Y013180D01*
X005849Y013180D01*
X006279Y013180D01*
X006279Y013610D01*
X006101Y013610D01*
X006279Y013610D02*
X006279Y013180D01*
X006279Y013180D01*
X006279Y013180D01*
X006279Y012750D01*
X006457Y012750D01*
X006709Y013002D01*
X006709Y013180D01*
X006709Y013358D01*
X006457Y013610D01*
X006279Y013610D01*
X006279Y013494D02*
X006279Y013494D01*
X006279Y013336D02*
X006279Y013336D01*
X006279Y013180D02*
X006709Y013180D01*
X006279Y013180D01*
X006279Y013180D01*
X006279Y013177D02*
X006279Y013177D01*
X006279Y013019D02*
X006279Y013019D01*
X006279Y012860D02*
X006279Y012860D01*
X005991Y012860D02*
X002567Y012860D01*
X002709Y013019D02*
X005849Y013019D01*
X005849Y013177D02*
X002709Y013177D01*
X002709Y013336D02*
X005849Y013336D01*
X006573Y013494D02*
X012941Y013494D01*
X012783Y013336D02*
X006709Y013336D01*
X006709Y013177D02*
X012629Y013177D01*
X012629Y013019D02*
X006709Y013019D01*
X006567Y012860D02*
X012629Y012860D01*
X024019Y020310D02*
X024039Y020310D01*
X024039Y020468D02*
X024019Y020468D01*
X024019Y020627D02*
X024039Y020627D01*
X024039Y020785D02*
X024019Y020785D01*
X024019Y020944D02*
X024039Y020944D01*
X024039Y021102D02*
X024019Y021102D01*
X024619Y019993D02*
X026905Y019993D01*
X027064Y019834D02*
X024721Y019834D01*
X024749Y019676D02*
X027222Y019676D01*
X027381Y019517D02*
X024739Y019517D01*
X024897Y019359D02*
X027539Y019359D01*
X027698Y019200D02*
X025056Y019200D01*
X025214Y019042D02*
X027856Y019042D01*
X028015Y018883D02*
X025373Y018883D01*
X025531Y018725D02*
X028173Y018725D01*
X028332Y018566D02*
X025690Y018566D01*
X029993Y020944D02*
X030112Y020944D01*
X021935Y027260D02*
X021781Y027324D01*
X021663Y027442D01*
X022846Y028393D02*
X023414Y028393D01*
X023474Y029027D02*
X022786Y029027D01*
X022797Y029344D02*
X023463Y029344D01*
X023425Y029978D02*
X022835Y029978D01*
X019519Y030929D02*
X008539Y030929D01*
X008019Y030929D02*
X001759Y030929D01*
X001759Y030771D02*
X007927Y030771D01*
X009051Y027918D02*
X011973Y027918D01*
X012039Y027759D02*
X009136Y027759D01*
X009136Y027601D02*
X012173Y027601D01*
X011586Y027284D02*
X009347Y027284D01*
X009504Y027125D02*
X011427Y027125D01*
X011056Y026967D02*
X009504Y026967D01*
X009504Y026808D02*
X010942Y026808D01*
X010919Y026650D02*
X009420Y026650D01*
X009262Y026491D02*
X010968Y026491D01*
X012477Y026491D02*
X012582Y026491D01*
X012582Y026333D02*
X012477Y026333D01*
X012477Y026650D02*
X012582Y026650D01*
X012582Y026808D02*
X012477Y026808D01*
D22*
X017029Y023680D02*
X017529Y023680D01*
X017029Y023680D02*
X015029Y021680D01*
X013779Y021680D01*
X013779Y020980D02*
X014079Y020680D01*
X015779Y020680D01*
X012529Y016180D02*
X012529Y015430D01*
X014279Y013680D01*
X024779Y011180D02*
X025279Y010680D01*
X027279Y010680D01*
X028279Y009680D01*
X028279Y008930D01*
X029029Y008180D01*
X029279Y008180D01*
X028779Y007680D02*
X027779Y008680D01*
X027779Y009180D01*
X028779Y007680D02*
X029779Y007680D01*
X036279Y001680D02*
X036779Y002180D01*
X039279Y002180D01*
X039779Y002680D01*
X031279Y018680D02*
X028529Y018680D01*
X025529Y021680D01*
X030529Y021908D02*
X031279Y021908D01*
X031279Y018680D01*
D23*
X012529Y016180D03*
X012529Y016180D03*
M02*
