G75*
G70*
%OFA0B0*%
%FSLAX24Y24*%
%IPPOS*%
%LPD*%
%AMOC8*
5,1,8,0,0,1.08239X$1,22.5*
%
%ADD10C,0.0000*%
D10*
X000180Y000350D02*
X000180Y032846D01*
X040050Y032846D01*
X040050Y000350D01*
X000180Y000350D01*
X020800Y003350D02*
X020802Y003400D01*
X020808Y003450D01*
X020818Y003499D01*
X020832Y003547D01*
X020849Y003594D01*
X020870Y003639D01*
X020895Y003683D01*
X020923Y003724D01*
X020955Y003763D01*
X020989Y003800D01*
X021026Y003834D01*
X021066Y003864D01*
X021108Y003891D01*
X021152Y003915D01*
X021198Y003936D01*
X021245Y003952D01*
X021293Y003965D01*
X021343Y003974D01*
X021392Y003979D01*
X021443Y003980D01*
X021493Y003977D01*
X021542Y003970D01*
X021591Y003959D01*
X021639Y003944D01*
X021685Y003926D01*
X021730Y003904D01*
X021773Y003878D01*
X021814Y003849D01*
X021853Y003817D01*
X021889Y003782D01*
X021921Y003744D01*
X021951Y003704D01*
X021978Y003661D01*
X022001Y003617D01*
X022020Y003571D01*
X022036Y003523D01*
X022048Y003474D01*
X022056Y003425D01*
X022060Y003375D01*
X022060Y003325D01*
X022056Y003275D01*
X022048Y003226D01*
X022036Y003177D01*
X022020Y003129D01*
X022001Y003083D01*
X021978Y003039D01*
X021951Y002996D01*
X021921Y002956D01*
X021889Y002918D01*
X021853Y002883D01*
X021814Y002851D01*
X021773Y002822D01*
X021730Y002796D01*
X021685Y002774D01*
X021639Y002756D01*
X021591Y002741D01*
X021542Y002730D01*
X021493Y002723D01*
X021443Y002720D01*
X021392Y002721D01*
X021343Y002726D01*
X021293Y002735D01*
X021245Y002748D01*
X021198Y002764D01*
X021152Y002785D01*
X021108Y002809D01*
X021066Y002836D01*
X021026Y002866D01*
X020989Y002900D01*
X020955Y002937D01*
X020923Y002976D01*
X020895Y003017D01*
X020870Y003061D01*
X020849Y003106D01*
X020832Y003153D01*
X020818Y003201D01*
X020808Y003250D01*
X020802Y003300D01*
X020800Y003350D01*
X020800Y012850D02*
X020802Y012900D01*
X020808Y012950D01*
X020818Y012999D01*
X020832Y013047D01*
X020849Y013094D01*
X020870Y013139D01*
X020895Y013183D01*
X020923Y013224D01*
X020955Y013263D01*
X020989Y013300D01*
X021026Y013334D01*
X021066Y013364D01*
X021108Y013391D01*
X021152Y013415D01*
X021198Y013436D01*
X021245Y013452D01*
X021293Y013465D01*
X021343Y013474D01*
X021392Y013479D01*
X021443Y013480D01*
X021493Y013477D01*
X021542Y013470D01*
X021591Y013459D01*
X021639Y013444D01*
X021685Y013426D01*
X021730Y013404D01*
X021773Y013378D01*
X021814Y013349D01*
X021853Y013317D01*
X021889Y013282D01*
X021921Y013244D01*
X021951Y013204D01*
X021978Y013161D01*
X022001Y013117D01*
X022020Y013071D01*
X022036Y013023D01*
X022048Y012974D01*
X022056Y012925D01*
X022060Y012875D01*
X022060Y012825D01*
X022056Y012775D01*
X022048Y012726D01*
X022036Y012677D01*
X022020Y012629D01*
X022001Y012583D01*
X021978Y012539D01*
X021951Y012496D01*
X021921Y012456D01*
X021889Y012418D01*
X021853Y012383D01*
X021814Y012351D01*
X021773Y012322D01*
X021730Y012296D01*
X021685Y012274D01*
X021639Y012256D01*
X021591Y012241D01*
X021542Y012230D01*
X021493Y012223D01*
X021443Y012220D01*
X021392Y012221D01*
X021343Y012226D01*
X021293Y012235D01*
X021245Y012248D01*
X021198Y012264D01*
X021152Y012285D01*
X021108Y012309D01*
X021066Y012336D01*
X021026Y012366D01*
X020989Y012400D01*
X020955Y012437D01*
X020923Y012476D01*
X020895Y012517D01*
X020870Y012561D01*
X020849Y012606D01*
X020832Y012653D01*
X020818Y012701D01*
X020808Y012750D01*
X020802Y012800D01*
X020800Y012850D01*
X005925Y018350D02*
X005927Y018420D01*
X005933Y018491D01*
X005943Y018560D01*
X005956Y018629D01*
X005974Y018697D01*
X005995Y018765D01*
X006021Y018830D01*
X006049Y018895D01*
X006082Y018957D01*
X006117Y019018D01*
X006156Y019076D01*
X006199Y019132D01*
X006244Y019186D01*
X006293Y019237D01*
X006344Y019286D01*
X006398Y019331D01*
X006454Y019374D01*
X006512Y019413D01*
X006573Y019448D01*
X006635Y019481D01*
X006700Y019509D01*
X006765Y019535D01*
X006833Y019556D01*
X006901Y019574D01*
X006970Y019587D01*
X007039Y019597D01*
X007110Y019603D01*
X007180Y019605D01*
X007250Y019603D01*
X007321Y019597D01*
X007390Y019587D01*
X007459Y019574D01*
X007527Y019556D01*
X007595Y019535D01*
X007660Y019509D01*
X007725Y019481D01*
X007787Y019448D01*
X007848Y019413D01*
X007906Y019374D01*
X007962Y019331D01*
X008016Y019286D01*
X008067Y019237D01*
X008116Y019186D01*
X008161Y019132D01*
X008204Y019076D01*
X008243Y019018D01*
X008278Y018957D01*
X008311Y018895D01*
X008339Y018830D01*
X008365Y018765D01*
X008386Y018697D01*
X008404Y018629D01*
X008417Y018560D01*
X008427Y018491D01*
X008433Y018420D01*
X008435Y018350D01*
X008433Y018280D01*
X008427Y018209D01*
X008417Y018140D01*
X008404Y018071D01*
X008386Y018003D01*
X008365Y017935D01*
X008339Y017870D01*
X008311Y017805D01*
X008278Y017743D01*
X008243Y017682D01*
X008204Y017624D01*
X008161Y017568D01*
X008116Y017514D01*
X008067Y017463D01*
X008016Y017414D01*
X007962Y017369D01*
X007906Y017326D01*
X007848Y017287D01*
X007787Y017252D01*
X007725Y017219D01*
X007660Y017191D01*
X007595Y017165D01*
X007527Y017144D01*
X007459Y017126D01*
X007390Y017113D01*
X007321Y017103D01*
X007250Y017097D01*
X007180Y017095D01*
X007110Y017097D01*
X007039Y017103D01*
X006970Y017113D01*
X006901Y017126D01*
X006833Y017144D01*
X006765Y017165D01*
X006700Y017191D01*
X006635Y017219D01*
X006573Y017252D01*
X006512Y017287D01*
X006454Y017326D01*
X006398Y017369D01*
X006344Y017414D01*
X006293Y017463D01*
X006244Y017514D01*
X006199Y017568D01*
X006156Y017624D01*
X006117Y017682D01*
X006082Y017743D01*
X006049Y017805D01*
X006021Y017870D01*
X005995Y017935D01*
X005974Y018003D01*
X005956Y018071D01*
X005943Y018140D01*
X005933Y018209D01*
X005927Y018280D01*
X005925Y018350D01*
M02*
