%
M48
M72
T01C0.0236
T02C0.0240
T03C0.0315
T04C0.0320
T05C0.0360
T06C0.0394
T07C0.0400
T08C0.0530
T09C0.1260
T10C0.2510
%
T01
X12529Y16180
X12529Y16180
T02
X2279Y3430
X2279Y4180
X6279Y4180
X7279Y4180
X9779Y6180
X6279Y13180
X2279Y13180
X11279Y19180
X11779Y19680
X12279Y18680
X16279Y20180
X12279Y22680
X11279Y23180
X11779Y23680
X10779Y26180
X11279Y26680
X8779Y27680
X5779Y28180
X4779Y29680
X8279Y30680
X2779Y26180
X17279Y14180
X18779Y15180
X20779Y14680
X22279Y15680
X24779Y11180
X26279Y11680
X27779Y9180
X29779Y7180
X30779Y7680
X30779Y5180
X30279Y5180
X29779Y3680
X30279Y3180
X30779Y2680
X19779Y7180
X20279Y10180
X14279Y13680
X25779Y20680
X26279Y22680
X28279Y21180
X28779Y21180
X27279Y16680
X26279Y14680
X26779Y26680
X19779Y30680
T03
X30529Y19546
X30529Y20137
X30529Y20727
X30529Y21318
X30529Y21908
X30529Y22499
X30529Y23089
X30529Y23680
X36553Y9271
X37537Y9271
T04
X19029Y8180
X20029Y8180
X23279Y6680
X23279Y5680
X27279Y6680
X27279Y7680
X24779Y8680
X24779Y9680
X22279Y16680
X22279Y17680
X22279Y18680
X22279Y19680
X22279Y20680
X22279Y21680
X22279Y22680
X22279Y23680
X22279Y24680
X22279Y25680
X22279Y26680
X22279Y27680
X22279Y28680
X22279Y29680
X19279Y29680
X19279Y28680
X19279Y27680
X19279Y26680
X19279Y25680
X19279Y24680
X19279Y23680
X19279Y22680
X19279Y21680
X19279Y20680
X19279Y19680
X19279Y18680
X19279Y17680
X19279Y16680
X15529Y16680
X14529Y16680
X12029Y15430
X12029Y14430
X13779Y20980
X15779Y20680
X15779Y21680
X13779Y22880
X13779Y24680
X14779Y24680
X15279Y25930
X16279Y25930
X15779Y28430
X14779Y28430
X9029Y26930
X8029Y26930
X25529Y21680
X26529Y21680
X29779Y21430
X29779Y22430
X29779Y23180
X29779Y24180
T05
X17529Y29680
X17529Y28680
X17529Y27680
X17529Y26680
X17529Y25680
X17529Y24680
X17529Y23680
X17529Y22680
X17529Y21680
X17529Y20680
X17529Y19680
X17529Y18680
X17529Y17680
X17529Y16680
X24029Y16680
X24029Y17680
X24029Y18680
X24029Y19680
X24029Y20680
X24029Y21680
X24029Y22680
X24029Y23680
X24029Y24680
X24029Y25680
X24029Y26680
X24029Y27680
X24029Y28680
X24029Y29680
T06
X33279Y2680
X34279Y2680
X34279Y1680
X33279Y1680
X35279Y1680
X36279Y1680
X36279Y2680
X35279Y2680
X37279Y2680
X37279Y1680
X37279Y5930
X36279Y5930
X35279Y5930
X34279Y5930
X33279Y5930
X33279Y6930
X34279Y6930
X35279Y6930
X36279Y6930
X37279Y6930
T07
X13189Y12950
X13179Y7940
X29029Y9180
X29029Y10180
X29029Y25930
X29029Y26930
X29029Y27930
X29029Y28930
X29029Y29930
X29029Y30930
T08
X12529Y28430
X12529Y25930
T09
X22529Y3430
X22529Y12930
T10
X8279Y18430
M30
