G75*
G70*
%OFA0B0*%
%FSLAX24Y24*%
%IPPOS*%
%LPD*%
%AMOC8*
5,1,8,0,0,1.08239X$1,22.5*
%
%ADD10C,0.0520*%
%ADD11C,0.0560*%
%ADD12R,0.0780X0.0220*%
%ADD13OC8,0.0630*%
%ADD14OC8,0.0800*%
%ADD15C,0.0520*%
%ADD16C,0.0795*%
%ADD17R,0.0630X0.0710*%
%ADD18R,0.0591X0.0591*%
%ADD19C,0.0594*%
%ADD20C,0.0476*%
%ADD21R,0.0515X0.0515*%
%ADD22R,0.0800X0.0800*%
%ADD23OC8,0.0500*%
%ADD24R,0.0866X0.0236*%
%ADD25R,0.0710X0.0630*%
%ADD26R,0.1535X0.0236*%
%ADD27R,0.1339X0.0748*%
%ADD28R,0.0630X0.0709*%
%ADD29R,0.0394X0.0709*%
%ADD30C,0.0100*%
%ADD31C,0.0400*%
%ADD32C,0.0120*%
D10*
X017920Y016600D02*
X018440Y016600D01*
X018440Y017600D02*
X017920Y017600D01*
X017920Y018600D02*
X018440Y018600D01*
X018440Y019600D02*
X017920Y019600D01*
X017920Y020600D02*
X018440Y020600D01*
X018440Y021600D02*
X017920Y021600D01*
X017920Y022600D02*
X018440Y022600D01*
X018440Y023600D02*
X017920Y023600D01*
X017920Y024600D02*
X018440Y024600D01*
X018440Y025600D02*
X017920Y025600D01*
X017920Y026600D02*
X018440Y026600D01*
X018440Y027600D02*
X017920Y027600D01*
X017920Y028600D02*
X018440Y028600D01*
X018440Y029600D02*
X017920Y029600D01*
X020920Y029600D02*
X021440Y029600D01*
X021440Y028600D02*
X020920Y028600D01*
X020920Y027600D02*
X021440Y027600D01*
X021440Y026600D02*
X020920Y026600D01*
X020920Y025600D02*
X021440Y025600D01*
X021440Y024600D02*
X020920Y024600D01*
X020920Y023600D02*
X021440Y023600D01*
X021440Y022600D02*
X020920Y022600D01*
X020920Y021600D02*
X021440Y021600D01*
X021440Y020600D02*
X020920Y020600D01*
X020920Y019600D02*
X021440Y019600D01*
X021440Y018600D02*
X020920Y018600D01*
X020920Y017600D02*
X021440Y017600D01*
X021440Y016600D02*
X020920Y016600D01*
D11*
X022650Y016600D02*
X023210Y016600D01*
X023210Y017600D02*
X022650Y017600D01*
X022650Y018600D02*
X023210Y018600D01*
X023210Y019600D02*
X022650Y019600D01*
X022650Y020600D02*
X023210Y020600D01*
X023210Y021600D02*
X022650Y021600D01*
X022650Y022600D02*
X023210Y022600D01*
X023210Y023600D02*
X022650Y023600D01*
X022650Y024600D02*
X023210Y024600D01*
X023210Y025600D02*
X022650Y025600D01*
X022650Y026600D02*
X023210Y026600D01*
X023210Y027600D02*
X022650Y027600D01*
X022650Y028600D02*
X023210Y028600D01*
X023210Y029600D02*
X022650Y029600D01*
X016710Y029600D02*
X016150Y029600D01*
X016150Y028600D02*
X016710Y028600D01*
X016710Y027600D02*
X016150Y027600D01*
X016150Y026600D02*
X016710Y026600D01*
X016710Y025600D02*
X016150Y025600D01*
X016150Y024600D02*
X016710Y024600D01*
X016710Y023600D02*
X016150Y023600D01*
X016150Y022600D02*
X016710Y022600D01*
X016710Y021600D02*
X016150Y021600D01*
X016150Y020600D02*
X016710Y020600D01*
X016710Y019600D02*
X016150Y019600D01*
X016150Y018600D02*
X016710Y018600D01*
X016710Y017600D02*
X016150Y017600D01*
X016150Y016600D02*
X016710Y016600D01*
D12*
X014110Y015850D03*
X014110Y015350D03*
X014110Y014850D03*
X014110Y014350D03*
X012250Y014350D03*
X012250Y014850D03*
X012250Y015350D03*
X012250Y015850D03*
X020250Y010100D03*
X020250Y009600D03*
X020250Y009100D03*
X020250Y008600D03*
X022110Y008600D03*
X022110Y009100D03*
X022110Y009600D03*
X022110Y010100D03*
X023250Y006600D03*
X023250Y006100D03*
X023250Y005600D03*
X023250Y005100D03*
X025110Y005100D03*
X025110Y005600D03*
X025110Y006100D03*
X025110Y006600D03*
D13*
X026180Y006600D03*
X026180Y007600D03*
X023680Y008600D03*
X023680Y009600D03*
X022180Y006600D03*
X022180Y005600D03*
X019180Y009100D03*
X019180Y010100D03*
X016180Y014350D03*
X016180Y015350D03*
X011180Y015350D03*
X011180Y014350D03*
X014680Y020600D03*
X014680Y021600D03*
X013680Y024600D03*
X012680Y024600D03*
X014180Y025850D03*
X015180Y025850D03*
X014680Y028350D03*
X013680Y028350D03*
X007930Y026850D03*
X006930Y026850D03*
X024430Y021600D03*
X025430Y021600D03*
X039180Y019850D03*
X039180Y018850D03*
X039180Y018100D03*
X039180Y017100D03*
D14*
X027430Y030100D03*
X027430Y031100D03*
X023180Y031850D03*
X022180Y031850D03*
X021180Y031850D03*
X020180Y031850D03*
X019180Y031850D03*
X018180Y031850D03*
X018180Y013100D03*
X018180Y012100D03*
X018180Y011100D03*
X016180Y011100D03*
X016180Y012100D03*
X016180Y013100D03*
X014180Y013100D03*
X014180Y012100D03*
X014180Y011100D03*
X014180Y009850D03*
X014180Y008850D03*
X014180Y007850D03*
X014180Y006850D03*
X014180Y005850D03*
X014180Y004850D03*
X014180Y003850D03*
X016180Y003850D03*
X016180Y004850D03*
X016180Y005850D03*
X016180Y006850D03*
X016180Y007850D03*
X016180Y008850D03*
X016180Y009850D03*
X012180Y010100D03*
X012180Y009100D03*
X012080Y007860D03*
X012090Y012870D03*
D15*
X012680Y020900D03*
X012680Y022800D03*
D16*
X011430Y025453D02*
X011430Y026247D01*
X011430Y027953D02*
X011430Y028747D01*
D17*
X011370Y029850D03*
X012490Y029850D03*
X013620Y029850D03*
X014740Y029850D03*
D18*
X002619Y028350D03*
X001241Y028350D03*
X001241Y026850D03*
X002619Y026850D03*
X002619Y025350D03*
X001241Y025350D03*
X001241Y023850D03*
X002619Y023850D03*
X002619Y022350D03*
X001241Y022350D03*
X001241Y020850D03*
X002619Y020850D03*
X002619Y019350D03*
X001241Y019350D03*
X001241Y017850D03*
X002619Y017850D03*
D19*
X032180Y006600D03*
X032180Y005600D03*
X032180Y004600D03*
X032180Y003600D03*
X032180Y002600D03*
X033180Y002600D03*
X033180Y003600D03*
X033180Y004600D03*
X033180Y005600D03*
X033180Y006600D03*
X036680Y006600D03*
X036680Y005600D03*
X036680Y004600D03*
X036680Y003600D03*
X036680Y002600D03*
X037680Y002600D03*
X037680Y003600D03*
X037680Y004600D03*
X037680Y005600D03*
X037680Y006600D03*
D20*
X038430Y017600D03*
X038430Y018191D03*
X038430Y018781D03*
X038430Y019372D03*
X038430Y019962D03*
X038430Y020553D03*
X038430Y021143D03*
X038430Y021734D03*
D21*
X032406Y032009D03*
X031422Y032009D03*
D22*
X006180Y012100D03*
X005180Y012100D03*
X004180Y012100D03*
X003180Y012100D03*
X002180Y012100D03*
X001180Y012100D03*
X001180Y005100D03*
X002180Y005100D03*
X003180Y005100D03*
X004180Y005100D03*
X005180Y005100D03*
X006180Y005100D03*
D23*
X001680Y004350D03*
X001680Y012850D03*
X005430Y013100D03*
X005180Y020350D03*
X027680Y019350D03*
X027680Y016100D03*
D24*
X006704Y028600D03*
X006704Y029100D03*
X006704Y029600D03*
X006704Y030100D03*
X004656Y030100D03*
X004656Y029600D03*
X004656Y029100D03*
X004656Y028600D03*
D25*
X009180Y028790D03*
X009180Y027910D03*
X009180Y026790D03*
X009180Y029910D03*
X024680Y024410D03*
X024680Y023290D03*
X026180Y023290D03*
X026180Y024410D03*
D26*
X008755Y024600D03*
X008755Y025100D03*
X008755Y025600D03*
X008755Y024100D03*
X008755Y023600D03*
X008755Y023100D03*
X008755Y022600D03*
X008755Y022100D03*
X008755Y021600D03*
X008755Y021100D03*
X005605Y021100D03*
X005605Y021600D03*
X005605Y022100D03*
X005605Y022600D03*
X005605Y023100D03*
X005605Y023600D03*
X005605Y024100D03*
X005605Y024600D03*
X005605Y025100D03*
X005605Y025600D03*
D27*
X003180Y014868D03*
X003180Y013332D03*
D28*
X004879Y014100D03*
X005981Y014100D03*
D29*
X011129Y011600D03*
X012231Y011600D03*
D30*
X011680Y002600D02*
X004680Y002600D01*
X002180Y005100D01*
X003180Y005100D02*
X005180Y003100D01*
X011680Y003100D01*
X010680Y003600D02*
X005680Y003600D01*
X004180Y005100D01*
X005180Y005100D02*
X006180Y004100D01*
X010180Y004100D01*
X010180Y015100D01*
X011680Y016600D01*
X011680Y017100D02*
X011680Y018600D01*
X009680Y020600D01*
X008755Y021100D02*
X011180Y021100D01*
X011180Y022600D01*
X011180Y023100D02*
X011680Y023100D01*
X011680Y020100D01*
X014680Y017100D01*
X017180Y017100D01*
X017180Y016600D01*
X018180Y015600D01*
X022180Y015600D01*
X022180Y019100D01*
X022680Y019600D01*
X022930Y019600D01*
X022180Y019600D02*
X022180Y020100D01*
X023680Y020100D01*
X023680Y019100D01*
X023180Y018600D01*
X022930Y018600D01*
X023180Y018600D02*
X024180Y017600D01*
X024180Y011600D01*
X025180Y010600D01*
X026180Y010600D01*
X030680Y006100D01*
X030680Y005600D01*
X030680Y001600D01*
X030180Y001100D01*
X030180Y002600D02*
X026180Y006600D01*
X025180Y006600D01*
X025110Y006600D01*
X025180Y006600D02*
X025180Y006100D01*
X025110Y006100D01*
X024180Y007600D02*
X023180Y006600D01*
X023250Y006600D01*
X023180Y006600D02*
X022180Y006600D01*
X022180Y005600D02*
X022180Y005100D01*
X023250Y005100D01*
X023250Y005600D02*
X023180Y005600D01*
X023180Y006100D01*
X023250Y006100D01*
X023180Y006100D02*
X023180Y006600D01*
X024180Y007600D02*
X024180Y010100D01*
X023680Y010600D01*
X019680Y010600D01*
X018180Y012100D01*
X018180Y011100D02*
X016180Y011100D01*
X015180Y011100D01*
X015180Y009100D01*
X016180Y008100D01*
X016180Y007850D01*
X016180Y006850D01*
X016180Y005850D01*
X014180Y005850D02*
X014180Y006850D01*
X014180Y007850D01*
X012180Y009100D02*
X013180Y010100D01*
X013180Y012100D01*
X014180Y013100D01*
X014180Y012100D02*
X016180Y014100D01*
X016180Y014350D01*
X016180Y013100D02*
X018180Y013100D01*
X018680Y014600D02*
X023180Y014600D01*
X023180Y011600D01*
X029180Y005600D01*
X030680Y005600D01*
X030180Y007100D02*
X027180Y010100D01*
X027180Y021100D01*
X027680Y021100D01*
X027180Y021100D02*
X027180Y024100D01*
X026180Y024100D01*
X026180Y024410D01*
X026180Y023600D02*
X025180Y023600D01*
X025180Y025100D01*
X024680Y024600D02*
X024680Y024410D01*
X024680Y024600D02*
X023680Y025600D01*
X026180Y025600D01*
X028180Y023600D01*
X028180Y009600D01*
X033680Y009600D01*
X034680Y008600D01*
X035180Y009100D01*
X035680Y009100D02*
X035180Y008600D01*
X035180Y006100D01*
X034930Y005600D01*
X034930Y004600D02*
X034930Y001100D01*
X028680Y006600D02*
X023680Y011600D01*
X023680Y014600D01*
X023180Y015100D01*
X020180Y015100D01*
X018680Y014600D02*
X017180Y016100D01*
X015180Y016100D01*
X014680Y016600D02*
X014180Y017100D01*
X011680Y017100D01*
X009680Y015100D01*
X009680Y005100D01*
X009180Y005100D01*
X009180Y004600D01*
X009180Y005100D02*
X006180Y005100D01*
X012180Y010100D02*
X012180Y011600D01*
X012231Y011600D01*
X011180Y011600D02*
X011129Y011600D01*
X014180Y011100D02*
X015180Y011100D01*
X019180Y010100D02*
X020180Y010100D01*
X020250Y010100D01*
X020180Y010100D02*
X020180Y009600D01*
X020250Y009600D01*
X020180Y009600D02*
X020180Y009100D01*
X020250Y009100D01*
X020250Y008600D02*
X019180Y008600D01*
X019180Y009100D01*
X022110Y009600D02*
X022180Y009600D01*
X023680Y009600D01*
X022180Y009600D02*
X022180Y010100D01*
X022110Y010100D01*
X024680Y011600D02*
X024680Y021600D01*
X024430Y021600D01*
X022930Y021600D01*
X021180Y021600D01*
X021180Y022600D02*
X022930Y022600D01*
X022930Y023600D02*
X021180Y023600D01*
X021180Y024600D02*
X022930Y024600D01*
X022930Y025600D02*
X021180Y025600D01*
X021180Y026600D02*
X022930Y026600D01*
X023180Y026600D01*
X023680Y026100D01*
X023680Y025600D01*
X022930Y027600D02*
X021180Y027600D01*
X022180Y028100D02*
X022180Y029600D01*
X021180Y029600D01*
X021180Y031850D01*
X022180Y031850D02*
X022180Y031600D01*
X023680Y030100D01*
X023680Y029100D01*
X023180Y028600D01*
X022930Y028600D01*
X022180Y028100D02*
X023680Y028100D01*
X024180Y028600D01*
X024180Y030100D01*
X027430Y030100D01*
X028180Y027600D02*
X028180Y024100D01*
X026180Y023600D02*
X026180Y023290D01*
X025180Y023600D02*
X024680Y023600D01*
X024680Y023290D01*
X024680Y021600D01*
X022180Y019600D02*
X021180Y018600D01*
X018180Y018600D02*
X016430Y018600D01*
X016180Y019100D02*
X016180Y019600D01*
X016430Y019600D01*
X018180Y019600D01*
X018180Y020600D02*
X016430Y020600D01*
X014680Y020600D01*
X016180Y021600D02*
X016430Y021600D01*
X018180Y021600D01*
X016180Y021600D02*
X014680Y022850D01*
X012680Y022850D01*
X012180Y023600D02*
X012180Y025100D01*
X013680Y026600D01*
X015680Y026600D01*
X015680Y026100D01*
X016180Y025600D01*
X016430Y025600D01*
X018180Y025600D01*
X018180Y024600D02*
X016430Y024600D01*
X016180Y024600D01*
X015180Y025600D01*
X015180Y025850D01*
X016430Y026600D02*
X018180Y026600D01*
X018180Y027600D02*
X016430Y027600D01*
X016180Y027600D01*
X016180Y027100D01*
X011180Y027100D01*
X010680Y026600D01*
X010680Y024600D01*
X008755Y024600D01*
X008755Y025100D02*
X010180Y025100D01*
X010180Y026100D01*
X009180Y026100D02*
X009180Y025600D01*
X008755Y025600D01*
X009180Y026790D02*
X009180Y027100D01*
X007680Y027100D01*
X007680Y027600D01*
X005180Y027600D01*
X004680Y028100D02*
X004680Y028600D01*
X004656Y028600D01*
X004656Y029100D02*
X003680Y029100D01*
X003680Y027100D01*
X005180Y025600D01*
X005605Y025600D01*
X005605Y025100D02*
X004680Y025100D01*
X003180Y026600D01*
X003180Y027600D01*
X002680Y028100D01*
X002619Y028350D01*
X003180Y029100D02*
X003180Y029600D01*
X004656Y029600D01*
X004680Y029600D01*
X004680Y029100D02*
X004656Y029100D01*
X004680Y030100D02*
X004656Y030100D01*
X001180Y030100D01*
X001180Y028600D01*
X001241Y028350D01*
X001180Y028100D01*
X001180Y027100D01*
X001241Y026850D01*
X001180Y026600D01*
X001180Y025600D01*
X001241Y025350D01*
X001180Y025100D01*
X001180Y024100D01*
X001241Y023850D01*
X001180Y023600D01*
X001180Y022600D01*
X001241Y022350D01*
X001180Y022100D01*
X001180Y021100D01*
X001241Y020850D01*
X001180Y020600D01*
X001180Y019600D01*
X001241Y019350D01*
X001180Y019100D01*
X001180Y018100D01*
X001241Y017850D01*
X001180Y017600D01*
X002619Y017850D02*
X002680Y018100D01*
X004680Y020100D01*
X004680Y021600D01*
X005605Y021600D01*
X005605Y022100D02*
X004680Y022100D01*
X004180Y021600D01*
X004180Y021100D01*
X002680Y019600D01*
X002619Y019350D01*
X002619Y020850D02*
X002680Y021100D01*
X003680Y022100D01*
X004180Y022100D01*
X004680Y022600D01*
X005605Y022600D01*
X005605Y023100D02*
X004680Y023100D01*
X004180Y022600D01*
X002680Y022600D01*
X002619Y022350D01*
X002680Y023600D02*
X002619Y023850D01*
X002680Y023600D02*
X005605Y023600D01*
X005605Y024100D02*
X003680Y024100D01*
X002680Y025100D01*
X002619Y025350D01*
X002680Y026600D02*
X002619Y026850D01*
X002680Y026600D02*
X004680Y024600D01*
X005605Y024600D01*
X008755Y024100D02*
X011680Y024100D01*
X011680Y024600D01*
X012180Y023600D02*
X008755Y023600D01*
X008755Y023100D02*
X010180Y023100D01*
X010180Y022600D02*
X008755Y022600D01*
X008755Y022100D02*
X010680Y022100D01*
X010680Y022600D01*
X011180Y023100D01*
X010180Y021600D02*
X008755Y021600D01*
X005605Y021100D02*
X005180Y021100D01*
X011180Y017100D02*
X006180Y012100D01*
X005180Y012100D02*
X005430Y013100D01*
X013180Y019100D02*
X016180Y019100D01*
X016430Y017600D02*
X018180Y017600D01*
X018180Y023600D02*
X016430Y023600D01*
X014180Y023600D01*
X009180Y027910D02*
X009180Y028600D01*
X009180Y028790D01*
X009180Y028600D02*
X008680Y029100D01*
X008680Y029600D01*
X006704Y029600D01*
X006680Y029600D01*
X006680Y029100D02*
X006704Y029100D01*
X007180Y029100D01*
X007680Y028600D01*
X007680Y027600D01*
X009180Y029910D02*
X009180Y030100D01*
X006704Y030100D01*
X006680Y030100D01*
X007180Y030600D01*
X009180Y030100D02*
X011180Y030100D01*
X011370Y029850D01*
X011680Y030100D01*
X012180Y030600D01*
X015430Y030600D01*
X014740Y029850D02*
X014680Y029600D01*
X016430Y029600D01*
X018180Y029600D01*
X018180Y031850D01*
X022180Y029600D02*
X022930Y029600D01*
X022930Y027600D02*
X028180Y027600D01*
X018180Y028600D02*
X016430Y028600D01*
X013680Y028350D02*
X013680Y029600D01*
X013620Y029850D01*
X013680Y030100D01*
X012680Y030100D01*
X012490Y029850D01*
X012180Y029600D01*
X012180Y029100D01*
X011430Y028350D01*
X024680Y011600D02*
X025180Y011100D01*
X023180Y004100D02*
X023180Y002100D01*
X022680Y001600D01*
X012680Y001600D01*
X023180Y004100D02*
X028180Y004100D01*
X034680Y007100D02*
X034680Y008600D01*
X039180Y017100D02*
X038680Y017600D01*
X038430Y017600D01*
X038680Y018100D02*
X038430Y018191D01*
X038680Y018100D02*
X039180Y018100D01*
X039180Y018600D02*
X038680Y018600D01*
X038430Y018781D01*
X039180Y018850D02*
X039180Y018600D01*
D31*
X028180Y023600D03*
X028180Y024100D03*
X025180Y025100D03*
X027680Y021100D03*
X020180Y015100D03*
X025180Y011100D03*
X030180Y007100D03*
X028680Y006600D03*
X028180Y004100D03*
X030180Y002600D03*
X030180Y001100D03*
X034930Y001100D03*
X034930Y004600D03*
X034930Y005600D03*
X034680Y007100D03*
X035180Y009100D03*
X035680Y009100D03*
X015180Y016100D03*
X014680Y016600D03*
X013180Y019100D03*
X011180Y017100D03*
X011680Y016600D03*
X009680Y020600D03*
X010180Y021600D03*
X010180Y022600D03*
X010180Y023100D03*
X011180Y022600D03*
X011680Y024600D03*
X010180Y026100D03*
X009180Y026100D03*
X005180Y027600D03*
X004680Y028100D03*
X003180Y029100D03*
X007180Y030600D03*
X015430Y030600D03*
X014180Y023600D03*
X009180Y004600D03*
X010680Y003600D03*
X011680Y003100D03*
X011680Y002600D03*
D32*
X012680Y002600D02*
X012680Y001600D01*
X012680Y002600D02*
X011180Y004100D01*
X010180Y004100D01*
X001680Y004350D02*
X001180Y004850D01*
X001180Y005100D01*
X001180Y012100D02*
X001180Y012350D01*
X001680Y012850D01*
X001680Y013600D01*
X001180Y014100D01*
X001180Y017789D01*
X001241Y017850D01*
X003180Y017850D02*
X003180Y015100D01*
X003180Y014868D01*
X003180Y014850D01*
X003180Y013350D02*
X003180Y013332D01*
X004162Y013332D01*
X004930Y014100D01*
X005981Y014100D02*
X005981Y013651D01*
X005430Y013100D01*
X003180Y013332D02*
X003180Y012100D01*
X002180Y012100D02*
X002180Y012350D01*
X001680Y012850D01*
X003180Y017850D02*
X005180Y019850D01*
X005180Y020350D01*
X005180Y021100D01*
X007930Y026850D02*
X007680Y027100D01*
X012680Y024600D02*
X012680Y022850D01*
X012680Y022800D01*
X012680Y020900D02*
X014380Y020900D01*
X014680Y020600D01*
X014680Y015850D02*
X014110Y015850D01*
X014110Y015350D02*
X014110Y014850D01*
X014110Y014350D01*
X016180Y014350D01*
X016180Y015350D02*
X015930Y015600D01*
X014930Y015600D01*
X014680Y015850D01*
X012250Y014850D02*
X012250Y014420D01*
X012180Y014350D01*
X011180Y014350D01*
X011700Y012870D02*
X011180Y012350D01*
X011180Y011600D01*
X011700Y012870D02*
X012090Y012870D01*
X027680Y016100D02*
X027680Y019350D01*
X038430Y019850D02*
X039180Y019850D01*
M02*
