G75*
G70*
%OFA0B0*%
%FSLAX24Y24*%
%IPPOS*%
%LPD*%
%AMOC8*
5,1,8,0,0,1.08239X$1,22.5*
%
%ADD10OC8,0.0800*%
%ADD11OC8,0.0630*%
%ADD12OC8,0.0760*%
%ADD13C,0.0520*%
%ADD14C,0.0594*%
%ADD15C,0.0100*%
%ADD16C,0.0160*%
D10*
X002100Y017100D03*
X002100Y018100D03*
X002100Y019100D03*
X002100Y020100D03*
X002100Y021100D03*
X002100Y022100D03*
X002100Y023100D03*
X011100Y018100D03*
X012100Y018100D03*
X037100Y018100D03*
X037100Y017100D03*
X037100Y019100D03*
X037100Y020100D03*
X037100Y021100D03*
X037100Y022100D03*
X037100Y023100D03*
D11*
X033600Y023600D03*
X030600Y022100D03*
X029600Y022100D03*
X029600Y023600D03*
X030100Y020100D03*
X030100Y019100D03*
X033100Y019100D03*
X033100Y020100D03*
X033600Y016100D03*
X033100Y014600D03*
X034100Y014600D03*
X029600Y016100D03*
X028600Y016100D03*
X028600Y015100D03*
X027600Y011600D03*
X027600Y007600D03*
X027600Y005600D03*
X033600Y005100D03*
X033600Y004100D03*
X027600Y001600D03*
X021600Y003600D03*
X020600Y003600D03*
X016600Y007100D03*
X017100Y009100D03*
X018100Y009100D03*
X012600Y007100D03*
X009100Y007100D03*
X009100Y008100D03*
X008100Y013600D03*
X007100Y013600D03*
X005100Y016600D03*
X006100Y018100D03*
X006100Y019100D03*
X009100Y016600D03*
X014100Y017100D03*
X014100Y018100D03*
X018100Y019600D03*
X018100Y020600D03*
X009100Y023600D03*
X005100Y023600D03*
D12*
X005100Y021100D03*
X010100Y021100D03*
X019600Y018600D03*
X024100Y018100D03*
X026600Y016600D03*
X026600Y012600D03*
X024100Y022100D03*
X019600Y023600D03*
D13*
X021840Y008100D02*
X022360Y008100D01*
X022360Y007100D02*
X021840Y007100D01*
X021840Y006100D02*
X022360Y006100D01*
X022360Y005100D02*
X021840Y005100D01*
X024840Y005100D02*
X025360Y005100D01*
X025360Y006100D02*
X024840Y006100D01*
X024840Y007100D02*
X025360Y007100D01*
X025360Y008100D02*
X024840Y008100D01*
D14*
X036600Y007600D03*
X037600Y007600D03*
X037600Y006600D03*
X036600Y006600D03*
X036600Y005600D03*
X037600Y005600D03*
X037600Y004600D03*
X036600Y004600D03*
X036600Y008600D03*
X037600Y008600D03*
D15*
X039020Y000600D02*
X000600Y000600D01*
X000600Y024600D01*
X039020Y024600D01*
X039020Y000600D01*
X039020Y000692D02*
X000600Y000692D01*
X000600Y000791D02*
X039020Y000791D01*
X039020Y000889D02*
X000600Y000889D01*
X000600Y000988D02*
X039020Y000988D01*
X039020Y001086D02*
X000600Y001086D01*
X000600Y001185D02*
X027358Y001185D01*
X027407Y001135D02*
X027135Y001407D01*
X027135Y001561D01*
X027561Y001561D01*
X027561Y001639D01*
X027561Y002065D01*
X027407Y002065D01*
X027135Y001793D01*
X027135Y001639D01*
X027561Y001639D01*
X027639Y001639D01*
X027639Y002065D01*
X027793Y002065D01*
X028065Y001793D01*
X028065Y001639D01*
X027639Y001639D01*
X027639Y001561D01*
X028065Y001561D01*
X028065Y001407D01*
X027793Y001135D01*
X027639Y001135D01*
X027639Y001561D01*
X027561Y001561D01*
X027561Y001135D01*
X027407Y001135D01*
X027561Y001185D02*
X027639Y001185D01*
X027639Y001283D02*
X027561Y001283D01*
X027561Y001382D02*
X027639Y001382D01*
X027639Y001480D02*
X027561Y001480D01*
X027561Y001579D02*
X000600Y001579D01*
X000600Y001677D02*
X027135Y001677D01*
X027135Y001776D02*
X000600Y001776D01*
X000600Y001874D02*
X027216Y001874D01*
X027315Y001973D02*
X000600Y001973D01*
X000600Y002071D02*
X039020Y002071D01*
X039020Y001973D02*
X027885Y001973D01*
X027984Y001874D02*
X039020Y001874D01*
X039020Y001776D02*
X028065Y001776D01*
X028065Y001677D02*
X039020Y001677D01*
X039020Y001579D02*
X027639Y001579D01*
X027639Y001677D02*
X027561Y001677D01*
X027561Y001776D02*
X027639Y001776D01*
X027639Y001874D02*
X027561Y001874D01*
X027561Y001973D02*
X027639Y001973D01*
X028065Y001480D02*
X039020Y001480D01*
X039020Y001382D02*
X028039Y001382D01*
X027941Y001283D02*
X039020Y001283D01*
X039020Y001185D02*
X027842Y001185D01*
X027259Y001283D02*
X000600Y001283D01*
X000600Y001382D02*
X027161Y001382D01*
X027135Y001480D02*
X000600Y001480D01*
X000600Y002170D02*
X039020Y002170D01*
X039020Y002268D02*
X000600Y002268D01*
X000600Y002367D02*
X039020Y002367D01*
X039020Y002465D02*
X000600Y002465D01*
X000600Y002564D02*
X039020Y002564D01*
X039020Y002662D02*
X000600Y002662D01*
X000600Y002761D02*
X039020Y002761D01*
X039020Y002859D02*
X000600Y002859D01*
X000600Y002958D02*
X039020Y002958D01*
X039020Y003056D02*
X000600Y003056D01*
X000600Y003155D02*
X020388Y003155D01*
X020407Y003135D02*
X020570Y003135D01*
X020570Y003570D01*
X020630Y003570D01*
X020630Y003630D01*
X021065Y003630D01*
X021065Y003793D01*
X020793Y004065D01*
X020630Y004065D01*
X020630Y003630D01*
X020570Y003630D01*
X020570Y004065D01*
X020407Y004065D01*
X020135Y003793D01*
X020135Y003630D01*
X020570Y003630D01*
X020570Y003570D01*
X020135Y003570D01*
X020135Y003407D01*
X020407Y003135D01*
X020570Y003155D02*
X020630Y003155D01*
X020630Y003135D02*
X020793Y003135D01*
X021065Y003407D01*
X021065Y003570D01*
X020630Y003570D01*
X020630Y003135D01*
X020630Y003253D02*
X020570Y003253D01*
X020570Y003352D02*
X020630Y003352D01*
X020630Y003450D02*
X020570Y003450D01*
X020570Y003549D02*
X020630Y003549D01*
X020630Y003647D02*
X020570Y003647D01*
X020570Y003746D02*
X020630Y003746D01*
X020630Y003844D02*
X020570Y003844D01*
X020570Y003943D02*
X020630Y003943D01*
X020630Y004041D02*
X020570Y004041D01*
X020383Y004041D02*
X000600Y004041D01*
X000600Y003943D02*
X020285Y003943D01*
X020186Y003844D02*
X000600Y003844D01*
X000600Y003746D02*
X020135Y003746D01*
X020135Y003647D02*
X000600Y003647D01*
X000600Y003549D02*
X020135Y003549D01*
X020135Y003450D02*
X000600Y003450D01*
X000600Y003352D02*
X020191Y003352D01*
X020289Y003253D02*
X000600Y003253D01*
X000600Y004140D02*
X033135Y004140D01*
X033135Y004130D02*
X033570Y004130D01*
X033570Y004565D01*
X033407Y004565D01*
X033135Y004293D01*
X033135Y004130D01*
X033135Y004070D02*
X033135Y003907D01*
X033407Y003635D01*
X033570Y003635D01*
X033570Y004070D01*
X033135Y004070D01*
X033135Y004041D02*
X021788Y004041D01*
X021784Y004045D02*
X021416Y004045D01*
X021155Y003784D01*
X021155Y003416D01*
X021416Y003155D01*
X021784Y003155D01*
X022045Y003416D01*
X022045Y003784D01*
X021784Y004045D01*
X021887Y003943D02*
X033135Y003943D01*
X033198Y003844D02*
X021985Y003844D01*
X022045Y003746D02*
X033297Y003746D01*
X033395Y003647D02*
X022045Y003647D01*
X022045Y003549D02*
X039020Y003549D01*
X039020Y003647D02*
X033805Y003647D01*
X033793Y003635D02*
X034065Y003907D01*
X034065Y004070D01*
X033630Y004070D01*
X033630Y004130D01*
X033570Y004130D01*
X033570Y004070D01*
X033630Y004070D01*
X033630Y003635D01*
X033793Y003635D01*
X033903Y003746D02*
X039020Y003746D01*
X039020Y003844D02*
X034002Y003844D01*
X034065Y003943D02*
X039020Y003943D01*
X039020Y004041D02*
X034065Y004041D01*
X034065Y004130D02*
X034065Y004293D01*
X033793Y004565D01*
X033630Y004565D01*
X033630Y004130D01*
X034065Y004130D01*
X034065Y004140D02*
X039020Y004140D01*
X039020Y004238D02*
X037862Y004238D01*
X037834Y004218D02*
X037891Y004259D01*
X037941Y004309D01*
X037982Y004366D01*
X038014Y004428D01*
X038036Y004495D01*
X038045Y004552D01*
X037648Y004552D01*
X037648Y004648D01*
X037552Y004648D01*
X037552Y004552D01*
X037155Y004552D01*
X037164Y004495D01*
X037186Y004428D01*
X037218Y004366D01*
X037259Y004309D01*
X037309Y004259D01*
X037366Y004218D01*
X037428Y004186D01*
X037495Y004164D01*
X037552Y004155D01*
X037552Y004552D01*
X037648Y004552D01*
X037648Y004155D01*
X037705Y004164D01*
X037772Y004186D01*
X037834Y004218D01*
X037961Y004337D02*
X039020Y004337D01*
X039020Y004435D02*
X038016Y004435D01*
X038042Y004534D02*
X039020Y004534D01*
X039020Y004632D02*
X037648Y004632D01*
X037648Y004648D02*
X038045Y004648D01*
X038036Y004705D01*
X038014Y004772D01*
X037982Y004834D01*
X037941Y004891D01*
X037891Y004941D01*
X037834Y004982D01*
X037772Y005014D01*
X037705Y005036D01*
X037648Y005045D01*
X037648Y004648D01*
X037648Y004731D02*
X037552Y004731D01*
X037552Y004648D02*
X037552Y005045D01*
X037495Y005036D01*
X037428Y005014D01*
X037366Y004982D01*
X037309Y004941D01*
X037259Y004891D01*
X037218Y004834D01*
X037186Y004772D01*
X037164Y004705D01*
X037155Y004648D01*
X037552Y004648D01*
X037552Y004632D02*
X036648Y004632D01*
X036648Y004648D02*
X037045Y004648D01*
X037036Y004705D01*
X037014Y004772D01*
X036982Y004834D01*
X036941Y004891D01*
X036891Y004941D01*
X036834Y004982D01*
X036772Y005014D01*
X036705Y005036D01*
X036648Y005045D01*
X036648Y004648D01*
X036552Y004648D01*
X036552Y004552D01*
X036155Y004552D01*
X036164Y004495D01*
X036186Y004428D01*
X036218Y004366D01*
X036259Y004309D01*
X036309Y004259D01*
X036366Y004218D01*
X036428Y004186D01*
X036495Y004164D01*
X036552Y004155D01*
X036552Y004552D01*
X036648Y004552D01*
X036648Y004648D01*
X036648Y004731D02*
X036552Y004731D01*
X036552Y004648D02*
X036552Y005045D01*
X036495Y005036D01*
X036428Y005014D01*
X036366Y004982D01*
X036309Y004941D01*
X036259Y004891D01*
X036218Y004834D01*
X036186Y004772D01*
X036164Y004705D01*
X036155Y004648D01*
X036552Y004648D01*
X036552Y004632D02*
X000600Y004632D01*
X000600Y004534D02*
X033376Y004534D01*
X033416Y004655D02*
X033784Y004655D01*
X034045Y004916D01*
X034045Y005284D01*
X033784Y005545D01*
X033416Y005545D01*
X033155Y005284D01*
X033155Y004916D01*
X033416Y004655D01*
X033340Y004731D02*
X025487Y004731D01*
X025438Y004710D02*
X025581Y004769D01*
X025691Y004879D01*
X025750Y005022D01*
X025750Y005178D01*
X025691Y005321D01*
X025581Y005431D01*
X025438Y005490D01*
X024762Y005490D01*
X024619Y005431D01*
X024509Y005321D01*
X024450Y005178D01*
X024450Y005022D01*
X024509Y004879D01*
X024619Y004769D01*
X024762Y004710D01*
X025438Y004710D01*
X025641Y004829D02*
X033242Y004829D01*
X033155Y004928D02*
X025711Y004928D01*
X025750Y005026D02*
X033155Y005026D01*
X033155Y005125D02*
X025750Y005125D01*
X025731Y005223D02*
X027348Y005223D01*
X027416Y005155D02*
X027784Y005155D01*
X028045Y005416D01*
X028045Y005784D01*
X027784Y006045D01*
X027416Y006045D01*
X027155Y005784D01*
X027155Y005416D01*
X027416Y005155D01*
X027249Y005322D02*
X025690Y005322D01*
X025592Y005420D02*
X027155Y005420D01*
X027155Y005519D02*
X000600Y005519D01*
X000600Y005617D02*
X027155Y005617D01*
X027155Y005716D02*
X025451Y005716D01*
X025438Y005710D02*
X025581Y005769D01*
X025691Y005879D01*
X025750Y006022D01*
X025750Y006178D01*
X025691Y006321D01*
X025581Y006431D01*
X025438Y006490D01*
X024762Y006490D01*
X024619Y006431D01*
X024509Y006321D01*
X024450Y006178D01*
X024450Y006022D01*
X024509Y005879D01*
X024619Y005769D01*
X024762Y005710D01*
X025438Y005710D01*
X025626Y005814D02*
X027185Y005814D01*
X027283Y005913D02*
X025704Y005913D01*
X025745Y006011D02*
X027382Y006011D01*
X027818Y006011D02*
X036477Y006011D01*
X036515Y006027D02*
X036358Y005962D01*
X036238Y005842D01*
X036173Y005685D01*
X036173Y005515D01*
X036238Y005358D01*
X036358Y005238D01*
X036515Y005173D01*
X036685Y005173D01*
X036842Y005238D01*
X036962Y005358D01*
X037027Y005515D01*
X037027Y005685D01*
X036962Y005842D01*
X036842Y005962D01*
X036685Y006027D01*
X036515Y006027D01*
X036515Y006173D02*
X036358Y006238D01*
X036238Y006358D01*
X036173Y006515D01*
X036173Y006685D01*
X036238Y006842D01*
X036358Y006962D01*
X036515Y007027D01*
X036685Y007027D01*
X036842Y006962D01*
X036962Y006842D01*
X036975Y006810D01*
X037225Y006810D01*
X037238Y006842D01*
X037358Y006962D01*
X037515Y007027D01*
X037685Y007027D01*
X037842Y006962D01*
X037962Y006842D01*
X037975Y006810D01*
X038390Y006810D01*
X038390Y014390D01*
X034519Y014390D01*
X034284Y014155D01*
X033916Y014155D01*
X033655Y014416D01*
X033655Y014784D01*
X033916Y015045D01*
X034284Y015045D01*
X034519Y014810D01*
X038687Y014810D01*
X038810Y014687D01*
X038810Y006513D01*
X038687Y006390D01*
X037975Y006390D01*
X037962Y006358D01*
X037842Y006238D01*
X037685Y006173D01*
X037515Y006173D01*
X037358Y006238D01*
X037238Y006358D01*
X037225Y006390D01*
X036975Y006390D01*
X036962Y006358D01*
X036842Y006238D01*
X036685Y006173D01*
X036515Y006173D01*
X036431Y006208D02*
X025737Y006208D01*
X025750Y006110D02*
X039020Y006110D01*
X039020Y006208D02*
X037769Y006208D01*
X037910Y006307D02*
X039020Y006307D01*
X039020Y006405D02*
X038702Y006405D01*
X038801Y006504D02*
X039020Y006504D01*
X039020Y006602D02*
X038810Y006602D01*
X038810Y006701D02*
X039020Y006701D01*
X039020Y006799D02*
X038810Y006799D01*
X038810Y006898D02*
X039020Y006898D01*
X039020Y006996D02*
X038810Y006996D01*
X038810Y007095D02*
X039020Y007095D01*
X039020Y007193D02*
X038810Y007193D01*
X038810Y007292D02*
X039020Y007292D01*
X039020Y007390D02*
X038810Y007390D01*
X038810Y007489D02*
X039020Y007489D01*
X039020Y007587D02*
X038810Y007587D01*
X038810Y007686D02*
X039020Y007686D01*
X039020Y007784D02*
X038810Y007784D01*
X038810Y007883D02*
X039020Y007883D01*
X039020Y007981D02*
X038810Y007981D01*
X038810Y008080D02*
X039020Y008080D01*
X039020Y008178D02*
X038810Y008178D01*
X038810Y008277D02*
X039020Y008277D01*
X039020Y008375D02*
X038810Y008375D01*
X038810Y008474D02*
X039020Y008474D01*
X039020Y008572D02*
X038810Y008572D01*
X038810Y008671D02*
X039020Y008671D01*
X039020Y008769D02*
X038810Y008769D01*
X038810Y008868D02*
X039020Y008868D01*
X039020Y008966D02*
X038810Y008966D01*
X038810Y009065D02*
X039020Y009065D01*
X039020Y009163D02*
X038810Y009163D01*
X038810Y009262D02*
X039020Y009262D01*
X039020Y009360D02*
X038810Y009360D01*
X038810Y009459D02*
X039020Y009459D01*
X039020Y009557D02*
X038810Y009557D01*
X038810Y009656D02*
X039020Y009656D01*
X039020Y009754D02*
X038810Y009754D01*
X038810Y009853D02*
X039020Y009853D01*
X039020Y009951D02*
X038810Y009951D01*
X038810Y010050D02*
X039020Y010050D01*
X039020Y010148D02*
X038810Y010148D01*
X038810Y010247D02*
X039020Y010247D01*
X039020Y010345D02*
X038810Y010345D01*
X038810Y010444D02*
X039020Y010444D01*
X039020Y010542D02*
X038810Y010542D01*
X038810Y010641D02*
X039020Y010641D01*
X039020Y010739D02*
X038810Y010739D01*
X038810Y010838D02*
X039020Y010838D01*
X039020Y010936D02*
X038810Y010936D01*
X038810Y011035D02*
X039020Y011035D01*
X039020Y011133D02*
X038810Y011133D01*
X038810Y011232D02*
X039020Y011232D01*
X039020Y011330D02*
X038810Y011330D01*
X038810Y011429D02*
X039020Y011429D01*
X039020Y011527D02*
X038810Y011527D01*
X038810Y011626D02*
X039020Y011626D01*
X039020Y011724D02*
X038810Y011724D01*
X038810Y011823D02*
X039020Y011823D01*
X039020Y011921D02*
X038810Y011921D01*
X038810Y012020D02*
X039020Y012020D01*
X039020Y012118D02*
X038810Y012118D01*
X038810Y012217D02*
X039020Y012217D01*
X039020Y012315D02*
X038810Y012315D01*
X038810Y012414D02*
X039020Y012414D01*
X039020Y012512D02*
X038810Y012512D01*
X038810Y012611D02*
X039020Y012611D01*
X039020Y012709D02*
X038810Y012709D01*
X038810Y012808D02*
X039020Y012808D01*
X039020Y012906D02*
X038810Y012906D01*
X038810Y013005D02*
X039020Y013005D01*
X039020Y013103D02*
X038810Y013103D01*
X038810Y013202D02*
X039020Y013202D01*
X039020Y013300D02*
X038810Y013300D01*
X038810Y013399D02*
X039020Y013399D01*
X039020Y013497D02*
X038810Y013497D01*
X038810Y013596D02*
X039020Y013596D01*
X039020Y013694D02*
X038810Y013694D01*
X038810Y013793D02*
X039020Y013793D01*
X039020Y013891D02*
X038810Y013891D01*
X038810Y013990D02*
X039020Y013990D01*
X039020Y014088D02*
X038810Y014088D01*
X038810Y014187D02*
X039020Y014187D01*
X039020Y014285D02*
X038810Y014285D01*
X038810Y014384D02*
X039020Y014384D01*
X039020Y014482D02*
X038810Y014482D01*
X038810Y014581D02*
X039020Y014581D01*
X039020Y014679D02*
X038810Y014679D01*
X038719Y014778D02*
X039020Y014778D01*
X039020Y014876D02*
X034453Y014876D01*
X034355Y014975D02*
X039020Y014975D01*
X039020Y015073D02*
X029810Y015073D01*
X029810Y014975D02*
X032817Y014975D01*
X032907Y015065D02*
X032635Y014793D01*
X032635Y014630D01*
X033070Y014630D01*
X033070Y015065D01*
X032907Y015065D01*
X033070Y014975D02*
X033130Y014975D01*
X033130Y015065D02*
X033293Y015065D01*
X033565Y014793D01*
X033565Y014630D01*
X033130Y014630D01*
X033130Y014570D01*
X033565Y014570D01*
X033565Y014407D01*
X033293Y014135D01*
X033130Y014135D01*
X033130Y014570D01*
X033070Y014570D01*
X033070Y014135D01*
X032907Y014135D01*
X032635Y014407D01*
X032635Y014570D01*
X033070Y014570D01*
X033070Y014630D01*
X033130Y014630D01*
X033130Y015065D01*
X033130Y014876D02*
X033070Y014876D01*
X033070Y014778D02*
X033130Y014778D01*
X033130Y014679D02*
X033070Y014679D01*
X033070Y014581D02*
X029810Y014581D01*
X029810Y014679D02*
X032635Y014679D01*
X032635Y014778D02*
X029810Y014778D01*
X029810Y014876D02*
X032718Y014876D01*
X032635Y014482D02*
X029810Y014482D01*
X029810Y014384D02*
X032659Y014384D01*
X032757Y014285D02*
X029810Y014285D01*
X029810Y014187D02*
X032856Y014187D01*
X033070Y014187D02*
X033130Y014187D01*
X033130Y014285D02*
X033070Y014285D01*
X033070Y014384D02*
X033130Y014384D01*
X033130Y014482D02*
X033070Y014482D01*
X033130Y014581D02*
X033655Y014581D01*
X033655Y014679D02*
X033565Y014679D01*
X033565Y014778D02*
X033655Y014778D01*
X033747Y014876D02*
X033482Y014876D01*
X033383Y014975D02*
X033845Y014975D01*
X033655Y014482D02*
X033565Y014482D01*
X033541Y014384D02*
X033687Y014384D01*
X033786Y014285D02*
X033443Y014285D01*
X033344Y014187D02*
X033884Y014187D01*
X034316Y014187D02*
X038390Y014187D01*
X038390Y014285D02*
X034414Y014285D01*
X034513Y014384D02*
X038390Y014384D01*
X038390Y014088D02*
X029810Y014088D01*
X029810Y013990D02*
X038390Y013990D01*
X038390Y013891D02*
X029810Y013891D01*
X029810Y013793D02*
X038390Y013793D01*
X038390Y013694D02*
X029810Y013694D01*
X029810Y013596D02*
X038390Y013596D01*
X038390Y013497D02*
X029810Y013497D01*
X029810Y013399D02*
X038390Y013399D01*
X038390Y013300D02*
X029810Y013300D01*
X029810Y013202D02*
X038390Y013202D01*
X038390Y013103D02*
X029810Y013103D01*
X029810Y013005D02*
X038390Y013005D01*
X038390Y012906D02*
X029810Y012906D01*
X029810Y012808D02*
X038390Y012808D01*
X038390Y012709D02*
X029810Y012709D01*
X029810Y012611D02*
X038390Y012611D01*
X038390Y012512D02*
X029810Y012512D01*
X029810Y012414D02*
X038390Y012414D01*
X038390Y012315D02*
X029810Y012315D01*
X029810Y012217D02*
X038390Y012217D01*
X038390Y012118D02*
X029810Y012118D01*
X029810Y012020D02*
X038390Y012020D01*
X038390Y011921D02*
X029810Y011921D01*
X029810Y011823D02*
X038390Y011823D01*
X038390Y011724D02*
X029810Y011724D01*
X029810Y011687D02*
X029810Y015681D01*
X030045Y015916D01*
X030045Y016284D01*
X029784Y016545D01*
X029416Y016545D01*
X029155Y016284D01*
X029155Y015916D01*
X029390Y015681D01*
X029390Y011513D01*
X033390Y007513D01*
X033513Y007390D01*
X036225Y007390D01*
X036238Y007358D01*
X036358Y007238D01*
X036515Y007173D01*
X036685Y007173D01*
X036842Y007238D01*
X036962Y007358D01*
X037027Y007515D01*
X037027Y007685D01*
X036962Y007842D01*
X036842Y007962D01*
X036685Y008027D01*
X036515Y008027D01*
X036358Y007962D01*
X036238Y007842D01*
X036225Y007810D01*
X033687Y007810D01*
X029810Y011687D01*
X029871Y011626D02*
X038390Y011626D01*
X038390Y011527D02*
X029970Y011527D01*
X030068Y011429D02*
X038390Y011429D01*
X038390Y011330D02*
X030167Y011330D01*
X030265Y011232D02*
X038390Y011232D01*
X038390Y011133D02*
X030364Y011133D01*
X030462Y011035D02*
X038390Y011035D01*
X038390Y010936D02*
X030561Y010936D01*
X030659Y010838D02*
X038390Y010838D01*
X038390Y010739D02*
X030758Y010739D01*
X030856Y010641D02*
X038390Y010641D01*
X038390Y010542D02*
X030955Y010542D01*
X031053Y010444D02*
X038390Y010444D01*
X038390Y010345D02*
X031152Y010345D01*
X031250Y010247D02*
X038390Y010247D01*
X038390Y010148D02*
X031349Y010148D01*
X031447Y010050D02*
X038390Y010050D01*
X038390Y009951D02*
X031546Y009951D01*
X031644Y009853D02*
X038390Y009853D01*
X038390Y009754D02*
X031743Y009754D01*
X031841Y009656D02*
X038390Y009656D01*
X038390Y009557D02*
X031940Y009557D01*
X032038Y009459D02*
X038390Y009459D01*
X038390Y009360D02*
X032137Y009360D01*
X032235Y009262D02*
X038390Y009262D01*
X038390Y009163D02*
X032334Y009163D01*
X032432Y009065D02*
X038390Y009065D01*
X038390Y008966D02*
X037832Y008966D01*
X037842Y008962D02*
X037685Y009027D01*
X037515Y009027D01*
X037358Y008962D01*
X037238Y008842D01*
X037173Y008685D01*
X037173Y008515D01*
X037238Y008358D01*
X037358Y008238D01*
X037515Y008173D01*
X037685Y008173D01*
X037842Y008238D01*
X037962Y008358D01*
X038027Y008515D01*
X038027Y008685D01*
X037962Y008842D01*
X037842Y008962D01*
X037936Y008868D02*
X038390Y008868D01*
X038390Y008769D02*
X037992Y008769D01*
X038027Y008671D02*
X038390Y008671D01*
X038390Y008572D02*
X038027Y008572D01*
X038010Y008474D02*
X038390Y008474D01*
X038390Y008375D02*
X037969Y008375D01*
X037880Y008277D02*
X038390Y008277D01*
X038390Y008178D02*
X037697Y008178D01*
X037685Y008027D02*
X037515Y008027D01*
X037358Y007962D01*
X037238Y007842D01*
X037173Y007685D01*
X037173Y007515D01*
X037238Y007358D01*
X037358Y007238D01*
X037515Y007173D01*
X037685Y007173D01*
X037842Y007238D01*
X037962Y007358D01*
X038027Y007515D01*
X038027Y007685D01*
X037962Y007842D01*
X037842Y007962D01*
X037685Y008027D01*
X037796Y007981D02*
X038390Y007981D01*
X038390Y007883D02*
X037921Y007883D01*
X037986Y007784D02*
X038390Y007784D01*
X038390Y007686D02*
X038027Y007686D01*
X038027Y007587D02*
X038390Y007587D01*
X038390Y007489D02*
X038016Y007489D01*
X037975Y007390D02*
X038390Y007390D01*
X038390Y007292D02*
X037895Y007292D01*
X037733Y007193D02*
X038390Y007193D01*
X038390Y007095D02*
X025750Y007095D01*
X025750Y007022D02*
X025750Y007178D01*
X025691Y007321D01*
X025581Y007431D01*
X025438Y007490D01*
X024762Y007490D01*
X024687Y007459D01*
X022750Y008105D01*
X022750Y008178D01*
X024437Y008178D01*
X024440Y008196D02*
X024430Y008132D01*
X024430Y008130D01*
X025070Y008130D01*
X025070Y008510D01*
X024808Y008510D01*
X024744Y008500D01*
X024683Y008480D01*
X024625Y008451D01*
X024573Y008413D01*
X024527Y008367D01*
X024489Y008315D01*
X024460Y008257D01*
X024440Y008196D01*
X024470Y008277D02*
X022709Y008277D01*
X022691Y008321D02*
X022750Y008178D01*
X022825Y008080D02*
X025070Y008080D01*
X025070Y008070D02*
X024430Y008070D01*
X024430Y008068D01*
X024440Y008004D01*
X024460Y007943D01*
X024489Y007885D01*
X024527Y007833D01*
X024573Y007787D01*
X024625Y007749D01*
X024683Y007720D01*
X024744Y007700D01*
X024808Y007690D01*
X025070Y007690D01*
X025070Y008070D01*
X025130Y008070D01*
X025130Y008130D01*
X025070Y008130D01*
X025070Y008070D01*
X025130Y008070D02*
X025130Y007690D01*
X025392Y007690D01*
X025456Y007700D01*
X025517Y007720D01*
X025575Y007749D01*
X025627Y007787D01*
X025673Y007833D01*
X025711Y007885D01*
X025740Y007943D01*
X025760Y008004D01*
X025770Y008068D01*
X025770Y008070D01*
X025130Y008070D01*
X025130Y008080D02*
X032823Y008080D01*
X032725Y008178D02*
X025763Y008178D01*
X025760Y008196D02*
X025740Y008257D01*
X025711Y008315D01*
X025673Y008367D01*
X025627Y008413D01*
X025575Y008451D01*
X025517Y008480D01*
X025456Y008500D01*
X025392Y008510D01*
X025130Y008510D01*
X025130Y008130D01*
X025770Y008130D01*
X025770Y008132D01*
X025760Y008196D01*
X025730Y008277D02*
X032626Y008277D01*
X032528Y008375D02*
X025665Y008375D01*
X025530Y008474D02*
X032429Y008474D01*
X032331Y008572D02*
X000600Y008572D01*
X000600Y008474D02*
X008844Y008474D01*
X008916Y008545D02*
X008655Y008284D01*
X008655Y007916D01*
X008916Y007655D01*
X009284Y007655D01*
X009519Y007890D01*
X021505Y007890D01*
X021509Y007879D01*
X021619Y007769D01*
X021762Y007710D01*
X022438Y007710D01*
X022513Y007741D01*
X024450Y007095D01*
X024450Y007022D01*
X024509Y006879D01*
X024619Y006769D01*
X024762Y006710D01*
X025438Y006710D01*
X025581Y006769D01*
X025691Y006879D01*
X025750Y007022D01*
X025739Y006996D02*
X036441Y006996D01*
X036294Y006898D02*
X025698Y006898D01*
X025611Y006799D02*
X036220Y006799D01*
X036180Y006701D02*
X022280Y006701D01*
X022280Y006710D02*
X022438Y006710D01*
X022581Y006769D01*
X022691Y006879D01*
X022750Y007022D01*
X022750Y007178D01*
X022691Y007321D01*
X022581Y007431D01*
X022438Y007490D01*
X021762Y007490D01*
X021619Y007431D01*
X021509Y007321D01*
X021450Y007178D01*
X021450Y007022D01*
X021509Y006879D01*
X021619Y006769D01*
X021762Y006710D01*
X021920Y006710D01*
X021920Y006490D01*
X021762Y006490D01*
X021619Y006431D01*
X021509Y006321D01*
X021450Y006178D01*
X021450Y006022D01*
X021509Y005879D01*
X021619Y005769D01*
X021762Y005710D01*
X022438Y005710D01*
X022581Y005769D01*
X022691Y005879D01*
X022750Y006022D01*
X022750Y006178D01*
X022691Y006321D01*
X022581Y006431D01*
X022438Y006490D01*
X022280Y006490D01*
X022280Y006710D01*
X022280Y006602D02*
X036173Y006602D01*
X036178Y006504D02*
X022280Y006504D01*
X022607Y006405D02*
X024593Y006405D01*
X024503Y006307D02*
X022697Y006307D01*
X022737Y006208D02*
X024463Y006208D01*
X024450Y006110D02*
X022750Y006110D01*
X022745Y006011D02*
X024455Y006011D01*
X024496Y005913D02*
X022704Y005913D01*
X022626Y005814D02*
X024574Y005814D01*
X024749Y005716D02*
X022451Y005716D01*
X022438Y005490D02*
X021762Y005490D01*
X021619Y005431D01*
X021509Y005321D01*
X021450Y005178D01*
X021450Y005022D01*
X021509Y004879D01*
X021619Y004769D01*
X021762Y004710D01*
X022438Y004710D01*
X022581Y004769D01*
X022691Y004879D01*
X022750Y005022D01*
X022750Y005178D01*
X022691Y005321D01*
X022581Y005431D01*
X022438Y005490D01*
X022592Y005420D02*
X024608Y005420D01*
X024510Y005322D02*
X022690Y005322D01*
X022731Y005223D02*
X024469Y005223D01*
X024450Y005125D02*
X022750Y005125D01*
X022750Y005026D02*
X024450Y005026D01*
X024489Y004928D02*
X022711Y004928D01*
X022641Y004829D02*
X024559Y004829D01*
X024713Y004731D02*
X022487Y004731D01*
X021713Y004731D02*
X000600Y004731D01*
X000600Y004829D02*
X021559Y004829D01*
X021489Y004928D02*
X000600Y004928D01*
X000600Y005026D02*
X021450Y005026D01*
X021450Y005125D02*
X000600Y005125D01*
X000600Y005223D02*
X021469Y005223D01*
X021510Y005322D02*
X000600Y005322D01*
X000600Y005420D02*
X021608Y005420D01*
X021749Y005716D02*
X000600Y005716D01*
X000600Y005814D02*
X021574Y005814D01*
X021496Y005913D02*
X000600Y005913D01*
X000600Y006011D02*
X021455Y006011D01*
X021450Y006110D02*
X000600Y006110D01*
X000600Y006208D02*
X021463Y006208D01*
X021503Y006307D02*
X000600Y006307D01*
X000600Y006405D02*
X021593Y006405D01*
X021920Y006504D02*
X000600Y006504D01*
X000600Y006602D02*
X021920Y006602D01*
X021920Y006701D02*
X016830Y006701D01*
X016784Y006655D02*
X017045Y006916D01*
X017045Y007284D01*
X016784Y007545D01*
X016416Y007545D01*
X016155Y007284D01*
X016155Y006916D01*
X016416Y006655D01*
X016784Y006655D01*
X016928Y006799D02*
X021589Y006799D01*
X021502Y006898D02*
X017027Y006898D01*
X017045Y006996D02*
X021461Y006996D01*
X021450Y007095D02*
X017045Y007095D01*
X017045Y007193D02*
X021456Y007193D01*
X021497Y007292D02*
X017038Y007292D01*
X016939Y007390D02*
X021578Y007390D01*
X021759Y007489D02*
X016841Y007489D01*
X016359Y007489D02*
X012841Y007489D01*
X012784Y007545D02*
X012416Y007545D01*
X012155Y007284D01*
X012155Y006916D01*
X012416Y006655D01*
X012784Y006655D01*
X013045Y006916D01*
X013045Y007284D01*
X012784Y007545D01*
X012939Y007390D02*
X016261Y007390D01*
X016162Y007292D02*
X013038Y007292D01*
X013045Y007193D02*
X016155Y007193D01*
X016155Y007095D02*
X013045Y007095D01*
X013045Y006996D02*
X016155Y006996D01*
X016173Y006898D02*
X013027Y006898D01*
X012928Y006799D02*
X016272Y006799D01*
X016370Y006701D02*
X012830Y006701D01*
X012370Y006701D02*
X009358Y006701D01*
X009293Y006635D02*
X009565Y006907D01*
X009565Y007070D01*
X009130Y007070D01*
X009130Y007130D01*
X009070Y007130D01*
X009070Y007565D01*
X008907Y007565D01*
X008635Y007293D01*
X008635Y007130D01*
X009070Y007130D01*
X009070Y007070D01*
X008635Y007070D01*
X008635Y006907D01*
X008907Y006635D01*
X009070Y006635D01*
X009070Y007070D01*
X009130Y007070D01*
X009130Y006635D01*
X009293Y006635D01*
X009130Y006701D02*
X009070Y006701D01*
X009070Y006799D02*
X009130Y006799D01*
X009130Y006898D02*
X009070Y006898D01*
X009070Y006996D02*
X009130Y006996D01*
X009130Y007095D02*
X012155Y007095D01*
X012155Y007193D02*
X009565Y007193D01*
X009565Y007130D02*
X009565Y007293D01*
X009293Y007565D01*
X009130Y007565D01*
X009130Y007130D01*
X009565Y007130D01*
X009565Y006996D02*
X012155Y006996D01*
X012173Y006898D02*
X009555Y006898D01*
X009457Y006799D02*
X012272Y006799D01*
X012162Y007292D02*
X009565Y007292D01*
X009468Y007390D02*
X012261Y007390D01*
X012359Y007489D02*
X009369Y007489D01*
X009315Y007686D02*
X022679Y007686D01*
X022622Y007390D02*
X023566Y007390D01*
X023861Y007292D02*
X022703Y007292D01*
X022744Y007193D02*
X024157Y007193D01*
X024450Y007095D02*
X022750Y007095D01*
X022739Y006996D02*
X024461Y006996D01*
X024502Y006898D02*
X022698Y006898D01*
X022611Y006799D02*
X024589Y006799D01*
X025607Y006405D02*
X036219Y006405D01*
X036290Y006307D02*
X025697Y006307D01*
X025744Y007193D02*
X027378Y007193D01*
X027416Y007155D02*
X027784Y007155D01*
X028045Y007416D01*
X028045Y007784D01*
X033119Y007784D01*
X033217Y007686D02*
X028045Y007686D01*
X028045Y007784D02*
X027784Y008045D01*
X027416Y008045D01*
X027155Y007784D01*
X025623Y007784D01*
X025709Y007883D02*
X027253Y007883D01*
X027155Y007784D02*
X027155Y007416D01*
X027416Y007155D01*
X027279Y007292D02*
X025703Y007292D01*
X025622Y007390D02*
X027181Y007390D01*
X027155Y007489D02*
X025441Y007489D01*
X025130Y007784D02*
X025070Y007784D01*
X025070Y007883D02*
X025130Y007883D01*
X025130Y007981D02*
X025070Y007981D01*
X025070Y008178D02*
X025130Y008178D01*
X025130Y008277D02*
X025070Y008277D01*
X025070Y008375D02*
X025130Y008375D01*
X025130Y008474D02*
X025070Y008474D01*
X024670Y008474D02*
X022477Y008474D01*
X022438Y008490D02*
X021762Y008490D01*
X021619Y008431D01*
X021509Y008321D01*
X021505Y008310D01*
X009519Y008310D01*
X009284Y008545D01*
X008916Y008545D01*
X008746Y008375D02*
X000600Y008375D01*
X000600Y008277D02*
X008655Y008277D01*
X008655Y008178D02*
X000600Y008178D01*
X000600Y008080D02*
X008655Y008080D01*
X008655Y007981D02*
X000600Y007981D01*
X000600Y007883D02*
X008688Y007883D01*
X008787Y007784D02*
X000600Y007784D01*
X000600Y007686D02*
X008885Y007686D01*
X008831Y007489D02*
X000600Y007489D01*
X000600Y007587D02*
X022975Y007587D01*
X023270Y007489D02*
X022441Y007489D01*
X022100Y007100D02*
X022100Y006100D01*
X021604Y007784D02*
X009413Y007784D01*
X009512Y007883D02*
X021508Y007883D01*
X021563Y008375D02*
X009454Y008375D01*
X009356Y008474D02*
X021723Y008474D01*
X022438Y008490D02*
X022581Y008431D01*
X022691Y008321D01*
X022637Y008375D02*
X024535Y008375D01*
X024448Y007981D02*
X023121Y007981D01*
X023416Y007883D02*
X024491Y007883D01*
X024577Y007784D02*
X023712Y007784D01*
X024007Y007686D02*
X027155Y007686D01*
X027155Y007587D02*
X024303Y007587D01*
X024598Y007489D02*
X024759Y007489D01*
X025752Y007981D02*
X027352Y007981D01*
X027848Y007981D02*
X032922Y007981D01*
X033020Y007883D02*
X027947Y007883D01*
X028045Y007587D02*
X033316Y007587D01*
X033414Y007489D02*
X028045Y007489D01*
X028019Y007390D02*
X033513Y007390D01*
X033614Y007883D02*
X036279Y007883D01*
X036404Y007981D02*
X033516Y007981D01*
X033417Y008080D02*
X038390Y008080D01*
X037503Y008178D02*
X036697Y008178D01*
X036685Y008173D02*
X036842Y008238D01*
X036962Y008358D01*
X037027Y008515D01*
X037027Y008685D01*
X036962Y008842D01*
X036842Y008962D01*
X036685Y009027D01*
X036515Y009027D01*
X036358Y008962D01*
X036238Y008842D01*
X036173Y008685D01*
X036173Y008515D01*
X036238Y008358D01*
X036358Y008238D01*
X036515Y008173D01*
X036685Y008173D01*
X036503Y008178D02*
X033319Y008178D01*
X033220Y008277D02*
X036320Y008277D01*
X036231Y008375D02*
X033122Y008375D01*
X033023Y008474D02*
X036190Y008474D01*
X036173Y008572D02*
X032925Y008572D01*
X032826Y008671D02*
X036173Y008671D01*
X036208Y008769D02*
X032728Y008769D01*
X032629Y008868D02*
X036264Y008868D01*
X036368Y008966D02*
X032531Y008966D01*
X032232Y008671D02*
X018300Y008671D01*
X018284Y008655D02*
X018545Y008916D01*
X018545Y009284D01*
X018284Y009545D01*
X017916Y009545D01*
X017913Y009542D01*
X014280Y013175D01*
X014175Y013280D01*
X008675Y013280D01*
X008542Y013413D01*
X008545Y013416D01*
X008545Y013784D01*
X008284Y014045D01*
X007916Y014045D01*
X007655Y013784D01*
X007655Y013416D01*
X007916Y013155D01*
X008284Y013155D01*
X008287Y013158D01*
X008525Y012920D01*
X014025Y012920D01*
X017658Y009287D01*
X017655Y009284D01*
X017655Y008916D01*
X017916Y008655D01*
X018284Y008655D01*
X018398Y008769D02*
X032134Y008769D01*
X032035Y008868D02*
X018497Y008868D01*
X018545Y008966D02*
X031937Y008966D01*
X031838Y009065D02*
X018545Y009065D01*
X018545Y009163D02*
X031740Y009163D01*
X031641Y009262D02*
X018545Y009262D01*
X018469Y009360D02*
X031543Y009360D01*
X031444Y009459D02*
X018371Y009459D01*
X018100Y009100D02*
X014100Y013100D01*
X008600Y013100D01*
X008100Y013600D01*
X008545Y013596D02*
X029390Y013596D01*
X029390Y013694D02*
X008545Y013694D01*
X008537Y013793D02*
X029390Y013793D01*
X029390Y013891D02*
X008438Y013891D01*
X008340Y013990D02*
X029390Y013990D01*
X029390Y014088D02*
X000600Y014088D01*
X000600Y013990D02*
X006832Y013990D01*
X006907Y014065D02*
X006635Y013793D01*
X006635Y013630D01*
X007070Y013630D01*
X007070Y014065D01*
X006907Y014065D01*
X007070Y013990D02*
X007130Y013990D01*
X007130Y014065D02*
X007293Y014065D01*
X007565Y013793D01*
X007565Y013630D01*
X007130Y013630D01*
X007130Y013570D01*
X007565Y013570D01*
X007565Y013407D01*
X007293Y013135D01*
X007130Y013135D01*
X007130Y013570D01*
X007070Y013570D01*
X007070Y013135D01*
X006907Y013135D01*
X006635Y013407D01*
X006635Y013570D01*
X007070Y013570D01*
X007070Y013630D01*
X007130Y013630D01*
X007130Y014065D01*
X007130Y013891D02*
X007070Y013891D01*
X007070Y013793D02*
X007130Y013793D01*
X007130Y013694D02*
X007070Y013694D01*
X007070Y013596D02*
X000600Y013596D01*
X000600Y013694D02*
X006635Y013694D01*
X006635Y013793D02*
X000600Y013793D01*
X000600Y013891D02*
X006733Y013891D01*
X007368Y013990D02*
X007860Y013990D01*
X007762Y013891D02*
X007467Y013891D01*
X007565Y013793D02*
X007663Y013793D01*
X007655Y013694D02*
X007565Y013694D01*
X007655Y013596D02*
X007130Y013596D01*
X007130Y013497D02*
X007070Y013497D01*
X007070Y013399D02*
X007130Y013399D01*
X007130Y013300D02*
X007070Y013300D01*
X007070Y013202D02*
X007130Y013202D01*
X007359Y013202D02*
X007869Y013202D01*
X007771Y013300D02*
X007458Y013300D01*
X007556Y013399D02*
X007672Y013399D01*
X007655Y013497D02*
X007565Y013497D01*
X006841Y013202D02*
X000600Y013202D01*
X000600Y013300D02*
X006742Y013300D01*
X006644Y013399D02*
X000600Y013399D01*
X000600Y013497D02*
X006635Y013497D01*
X008342Y013103D02*
X000600Y013103D01*
X000600Y013005D02*
X008441Y013005D01*
X008655Y013300D02*
X029390Y013300D01*
X029390Y013202D02*
X014253Y013202D01*
X014352Y013103D02*
X026354Y013103D01*
X026380Y013130D02*
X026070Y012820D01*
X026070Y012650D01*
X026550Y012650D01*
X026550Y013130D01*
X026380Y013130D01*
X026550Y013103D02*
X026650Y013103D01*
X026650Y013130D02*
X026650Y012650D01*
X026550Y012650D01*
X026550Y012550D01*
X026070Y012550D01*
X026070Y012380D01*
X026380Y012070D01*
X026550Y012070D01*
X026550Y012550D01*
X026650Y012550D01*
X026650Y012650D01*
X027130Y012650D01*
X027130Y012820D01*
X026820Y013130D01*
X026650Y013130D01*
X026650Y013005D02*
X026550Y013005D01*
X026550Y012906D02*
X026650Y012906D01*
X026650Y012808D02*
X026550Y012808D01*
X026550Y012709D02*
X026650Y012709D01*
X026650Y012611D02*
X029390Y012611D01*
X029390Y012709D02*
X027130Y012709D01*
X027130Y012808D02*
X029390Y012808D01*
X029390Y012906D02*
X027043Y012906D01*
X026945Y013005D02*
X029390Y013005D01*
X029390Y013103D02*
X026846Y013103D01*
X026255Y013005D02*
X014450Y013005D01*
X014549Y012906D02*
X026157Y012906D01*
X026070Y012808D02*
X014647Y012808D01*
X014746Y012709D02*
X026070Y012709D01*
X026070Y012512D02*
X014943Y012512D01*
X015041Y012414D02*
X026070Y012414D01*
X026135Y012315D02*
X015140Y012315D01*
X015238Y012217D02*
X026234Y012217D01*
X026332Y012118D02*
X015337Y012118D01*
X015435Y012020D02*
X027390Y012020D01*
X027416Y012045D02*
X027155Y011784D01*
X027155Y011416D01*
X027416Y011155D01*
X027784Y011155D01*
X028045Y011416D01*
X028045Y011784D01*
X027784Y012045D01*
X027416Y012045D01*
X027292Y011921D02*
X015534Y011921D01*
X015632Y011823D02*
X027193Y011823D01*
X027155Y011724D02*
X015731Y011724D01*
X015829Y011626D02*
X027155Y011626D01*
X027155Y011527D02*
X015928Y011527D01*
X016026Y011429D02*
X027155Y011429D01*
X027241Y011330D02*
X016125Y011330D01*
X016223Y011232D02*
X027339Y011232D01*
X027861Y011232D02*
X029671Y011232D01*
X029573Y011330D02*
X027959Y011330D01*
X028045Y011429D02*
X029474Y011429D01*
X029390Y011527D02*
X028045Y011527D01*
X028045Y011626D02*
X029390Y011626D01*
X029390Y011724D02*
X028045Y011724D01*
X028007Y011823D02*
X029390Y011823D01*
X029390Y011921D02*
X027908Y011921D01*
X027810Y012020D02*
X029390Y012020D01*
X029390Y012118D02*
X026868Y012118D01*
X026820Y012070D02*
X027130Y012380D01*
X027130Y012550D01*
X026650Y012550D01*
X026650Y012070D01*
X026820Y012070D01*
X026650Y012118D02*
X026550Y012118D01*
X026550Y012217D02*
X026650Y012217D01*
X026650Y012315D02*
X026550Y012315D01*
X026550Y012414D02*
X026650Y012414D01*
X026650Y012512D02*
X026550Y012512D01*
X026550Y012611D02*
X014844Y012611D01*
X014532Y012414D02*
X000600Y012414D01*
X000600Y012512D02*
X014433Y012512D01*
X014335Y012611D02*
X000600Y012611D01*
X000600Y012709D02*
X014236Y012709D01*
X014138Y012808D02*
X000600Y012808D01*
X000600Y012906D02*
X014039Y012906D01*
X014630Y012315D02*
X000600Y012315D01*
X000600Y012217D02*
X014729Y012217D01*
X014827Y012118D02*
X000600Y012118D01*
X000600Y012020D02*
X014926Y012020D01*
X015024Y011921D02*
X000600Y011921D01*
X000600Y011823D02*
X015123Y011823D01*
X015221Y011724D02*
X000600Y011724D01*
X000600Y011626D02*
X015320Y011626D01*
X015418Y011527D02*
X000600Y011527D01*
X000600Y011429D02*
X015517Y011429D01*
X015615Y011330D02*
X000600Y011330D01*
X000600Y011232D02*
X015714Y011232D01*
X015812Y011133D02*
X000600Y011133D01*
X000600Y011035D02*
X015911Y011035D01*
X016009Y010936D02*
X000600Y010936D01*
X000600Y010838D02*
X016108Y010838D01*
X016206Y010739D02*
X000600Y010739D01*
X000600Y010641D02*
X016305Y010641D01*
X016403Y010542D02*
X000600Y010542D01*
X000600Y010444D02*
X016502Y010444D01*
X016600Y010345D02*
X000600Y010345D01*
X000600Y010247D02*
X016699Y010247D01*
X016797Y010148D02*
X000600Y010148D01*
X000600Y010050D02*
X016896Y010050D01*
X016994Y009951D02*
X000600Y009951D01*
X000600Y009853D02*
X017093Y009853D01*
X017191Y009754D02*
X000600Y009754D01*
X000600Y009656D02*
X017290Y009656D01*
X017293Y009565D02*
X017130Y009565D01*
X017130Y009130D01*
X017565Y009130D01*
X017565Y009293D01*
X017293Y009565D01*
X017301Y009557D02*
X017388Y009557D01*
X017399Y009459D02*
X017487Y009459D01*
X017498Y009360D02*
X017585Y009360D01*
X017565Y009262D02*
X017655Y009262D01*
X017655Y009163D02*
X017565Y009163D01*
X017565Y009070D02*
X017130Y009070D01*
X017130Y009130D01*
X017070Y009130D01*
X017070Y009565D01*
X016907Y009565D01*
X016635Y009293D01*
X016635Y009130D01*
X017070Y009130D01*
X017070Y009070D01*
X017130Y009070D01*
X017130Y008635D01*
X017293Y008635D01*
X017565Y008907D01*
X017565Y009070D01*
X017565Y009065D02*
X017655Y009065D01*
X017655Y008966D02*
X017565Y008966D01*
X017525Y008868D02*
X017703Y008868D01*
X017802Y008769D02*
X017427Y008769D01*
X017328Y008671D02*
X017900Y008671D01*
X017130Y008671D02*
X017070Y008671D01*
X017070Y008635D02*
X017070Y009070D01*
X016635Y009070D01*
X016635Y008907D01*
X016907Y008635D01*
X017070Y008635D01*
X017070Y008769D02*
X017130Y008769D01*
X017130Y008868D02*
X017070Y008868D01*
X017070Y008966D02*
X017130Y008966D01*
X017130Y009065D02*
X017070Y009065D01*
X017070Y009163D02*
X017130Y009163D01*
X017130Y009262D02*
X017070Y009262D01*
X017070Y009360D02*
X017130Y009360D01*
X017130Y009459D02*
X017070Y009459D01*
X017070Y009557D02*
X017130Y009557D01*
X016899Y009557D02*
X000600Y009557D01*
X000600Y009459D02*
X016801Y009459D01*
X016702Y009360D02*
X000600Y009360D01*
X000600Y009262D02*
X016635Y009262D01*
X016635Y009163D02*
X000600Y009163D01*
X000600Y009065D02*
X016635Y009065D01*
X016635Y008966D02*
X000600Y008966D01*
X000600Y008868D02*
X016675Y008868D01*
X016773Y008769D02*
X000600Y008769D01*
X000600Y008671D02*
X016872Y008671D01*
X017898Y009557D02*
X031346Y009557D01*
X031247Y009656D02*
X017799Y009656D01*
X017701Y009754D02*
X031149Y009754D01*
X031050Y009853D02*
X017602Y009853D01*
X017504Y009951D02*
X030952Y009951D01*
X030853Y010050D02*
X017405Y010050D01*
X017307Y010148D02*
X030755Y010148D01*
X030656Y010247D02*
X017208Y010247D01*
X017110Y010345D02*
X030558Y010345D01*
X030459Y010444D02*
X017011Y010444D01*
X016913Y010542D02*
X030361Y010542D01*
X030262Y010641D02*
X016814Y010641D01*
X016716Y010739D02*
X030164Y010739D01*
X030065Y010838D02*
X016617Y010838D01*
X016519Y010936D02*
X029967Y010936D01*
X029868Y011035D02*
X016420Y011035D01*
X016322Y011133D02*
X029770Y011133D01*
X029390Y012217D02*
X026966Y012217D01*
X027065Y012315D02*
X029390Y012315D01*
X029390Y012414D02*
X027130Y012414D01*
X027130Y012512D02*
X029390Y012512D01*
X029390Y013399D02*
X008556Y013399D01*
X008545Y013497D02*
X029390Y013497D01*
X029390Y014187D02*
X000600Y014187D01*
X000600Y014285D02*
X029390Y014285D01*
X029390Y014384D02*
X000600Y014384D01*
X000600Y014482D02*
X029390Y014482D01*
X029390Y014581D02*
X000600Y014581D01*
X000600Y014679D02*
X028363Y014679D01*
X028407Y014635D02*
X028135Y014907D01*
X028135Y015070D01*
X028570Y015070D01*
X028570Y015130D01*
X028570Y015565D01*
X028407Y015565D01*
X028135Y015293D01*
X028135Y015130D01*
X028570Y015130D01*
X028630Y015130D01*
X028630Y015565D01*
X028793Y015565D01*
X029065Y015293D01*
X029065Y015130D01*
X028630Y015130D01*
X028630Y015070D01*
X029065Y015070D01*
X029065Y014907D01*
X028793Y014635D01*
X028630Y014635D01*
X028630Y015070D01*
X028570Y015070D01*
X028570Y014635D01*
X028407Y014635D01*
X028570Y014679D02*
X028630Y014679D01*
X028630Y014778D02*
X028570Y014778D01*
X028570Y014876D02*
X028630Y014876D01*
X028630Y014975D02*
X028570Y014975D01*
X028570Y015073D02*
X000600Y015073D01*
X000600Y014975D02*
X028135Y014975D01*
X028166Y014876D02*
X000600Y014876D01*
X000600Y014778D02*
X028265Y014778D01*
X028630Y015073D02*
X029390Y015073D01*
X029390Y014975D02*
X029065Y014975D01*
X029034Y014876D02*
X029390Y014876D01*
X029390Y014778D02*
X028935Y014778D01*
X028837Y014679D02*
X029390Y014679D01*
X029390Y015172D02*
X029065Y015172D01*
X029065Y015270D02*
X029390Y015270D01*
X029390Y015369D02*
X028989Y015369D01*
X028891Y015467D02*
X029390Y015467D01*
X029390Y015566D02*
X025863Y015566D01*
X025961Y015664D02*
X028407Y015664D01*
X028416Y015655D02*
X028784Y015655D01*
X029045Y015916D01*
X029045Y016284D01*
X028813Y016516D01*
X030187Y017890D01*
X036570Y017890D01*
X036570Y017880D01*
X036836Y017614D01*
X036550Y017328D01*
X036550Y017150D01*
X037050Y017150D01*
X037050Y017050D01*
X037150Y017050D01*
X037150Y017150D01*
X037650Y017150D01*
X037650Y017328D01*
X037364Y017614D01*
X037630Y017880D01*
X037630Y018320D01*
X037350Y018600D01*
X037630Y018880D01*
X037630Y019320D01*
X037350Y019600D01*
X037630Y019880D01*
X037630Y020320D01*
X037350Y020600D01*
X037630Y020880D01*
X037630Y020890D01*
X037890Y020890D01*
X037890Y016310D01*
X034019Y016310D01*
X033784Y016545D01*
X033416Y016545D01*
X033155Y016284D01*
X033155Y015916D01*
X033416Y015655D01*
X033784Y015655D01*
X034019Y015890D01*
X038187Y015890D01*
X038310Y016013D01*
X038310Y021187D01*
X038187Y021310D01*
X037630Y021310D01*
X037630Y021320D01*
X037350Y021600D01*
X037630Y021880D01*
X037630Y022320D01*
X037364Y022586D01*
X037650Y022872D01*
X037650Y023050D01*
X037150Y023050D01*
X037150Y023150D01*
X037050Y023150D01*
X037050Y023650D01*
X036872Y023650D01*
X036550Y023328D01*
X036550Y023150D01*
X037050Y023150D01*
X037050Y023050D01*
X036550Y023050D01*
X036550Y022872D01*
X036836Y022586D01*
X036570Y022320D01*
X036570Y021880D01*
X036850Y021600D01*
X036570Y021320D01*
X036570Y020927D01*
X034045Y023452D01*
X034045Y023784D01*
X033784Y024045D01*
X033416Y024045D01*
X033155Y023784D01*
X033155Y023416D01*
X033416Y023155D01*
X033748Y023155D01*
X036577Y020326D01*
X036570Y020320D01*
X036570Y019880D01*
X036850Y019600D01*
X036570Y019320D01*
X036570Y019310D01*
X033519Y019310D01*
X033284Y019545D01*
X032916Y019545D01*
X032655Y019284D01*
X032655Y018916D01*
X032916Y018655D01*
X033284Y018655D01*
X033519Y018890D01*
X036570Y018890D01*
X036570Y018880D01*
X036850Y018600D01*
X036570Y018320D01*
X036570Y018310D01*
X030013Y018310D01*
X028513Y016810D01*
X027110Y016810D01*
X027110Y016811D01*
X026811Y017110D01*
X026389Y017110D01*
X026090Y016811D01*
X026090Y016389D01*
X026091Y016388D01*
X025513Y015810D01*
X006187Y015810D01*
X005545Y016452D01*
X005545Y016784D01*
X005284Y017045D01*
X004916Y017045D01*
X004655Y016784D01*
X004655Y016416D01*
X004916Y016155D01*
X005248Y016155D01*
X005890Y015513D01*
X006013Y015390D01*
X025687Y015390D01*
X026388Y016091D01*
X026389Y016090D01*
X026811Y016090D01*
X027110Y016389D01*
X027110Y016390D01*
X028261Y016390D01*
X028155Y016284D01*
X028155Y015916D01*
X028416Y015655D01*
X028308Y015763D02*
X026060Y015763D01*
X026158Y015861D02*
X028210Y015861D01*
X028155Y015960D02*
X026257Y015960D01*
X026355Y016058D02*
X028155Y016058D01*
X028155Y016157D02*
X026878Y016157D01*
X026976Y016255D02*
X028155Y016255D01*
X028224Y016354D02*
X027075Y016354D01*
X027075Y016846D02*
X028549Y016846D01*
X028648Y016945D02*
X026977Y016945D01*
X026878Y017043D02*
X028746Y017043D01*
X028845Y017142D02*
X014565Y017142D01*
X014565Y017130D02*
X014565Y017293D01*
X014293Y017565D01*
X014130Y017565D01*
X014130Y017130D01*
X014070Y017130D01*
X014070Y017565D01*
X013907Y017565D01*
X013635Y017293D01*
X013635Y017130D01*
X014070Y017130D01*
X014070Y017070D01*
X013635Y017070D01*
X013635Y016907D01*
X013907Y016635D01*
X014070Y016635D01*
X014070Y017070D01*
X014130Y017070D01*
X014130Y017130D01*
X014565Y017130D01*
X014565Y017070D02*
X014130Y017070D01*
X014130Y016635D01*
X014293Y016635D01*
X014565Y016907D01*
X014565Y017070D01*
X014565Y017043D02*
X026322Y017043D01*
X026223Y016945D02*
X014565Y016945D01*
X014504Y016846D02*
X026125Y016846D01*
X026090Y016748D02*
X014405Y016748D01*
X014307Y016649D02*
X026090Y016649D01*
X026090Y016551D02*
X009545Y016551D01*
X009545Y016649D02*
X013893Y016649D01*
X013795Y016748D02*
X009545Y016748D01*
X009545Y016784D02*
X009542Y016787D01*
X009780Y017025D01*
X009780Y020525D01*
X009867Y020612D01*
X009889Y020590D01*
X010311Y020590D01*
X010610Y020889D01*
X010610Y021311D01*
X010311Y021610D01*
X010280Y021610D01*
X010280Y022675D01*
X010175Y022780D01*
X010175Y022780D01*
X009542Y023413D01*
X009545Y023416D01*
X009545Y023784D01*
X009284Y024045D01*
X008916Y024045D01*
X008655Y023784D01*
X008655Y023416D01*
X008916Y023155D01*
X009284Y023155D01*
X009287Y023158D01*
X009920Y022525D01*
X009920Y021610D01*
X009889Y021610D01*
X009590Y021311D01*
X009590Y020889D01*
X009612Y020867D01*
X009525Y020780D01*
X009420Y020675D01*
X009420Y017175D01*
X009287Y017042D01*
X009284Y017045D01*
X008916Y017045D01*
X008655Y016784D01*
X008655Y016416D01*
X008916Y016155D01*
X009284Y016155D01*
X009545Y016416D01*
X009545Y016784D01*
X009601Y016846D02*
X013696Y016846D01*
X013635Y016945D02*
X009699Y016945D01*
X009780Y017043D02*
X013635Y017043D01*
X013635Y017142D02*
X009780Y017142D01*
X009780Y017240D02*
X013635Y017240D01*
X013681Y017339D02*
X009780Y017339D01*
X009780Y017437D02*
X013779Y017437D01*
X013878Y017536D02*
X009780Y017536D01*
X009780Y017634D02*
X010816Y017634D01*
X010880Y017570D02*
X011320Y017570D01*
X011600Y017850D01*
X011880Y017570D01*
X012320Y017570D01*
X012630Y017880D01*
X012630Y018320D01*
X012320Y018630D01*
X011880Y018630D01*
X011600Y018350D01*
X011320Y018630D01*
X010880Y018630D01*
X010570Y018320D01*
X010570Y017880D01*
X010880Y017570D01*
X010718Y017733D02*
X009780Y017733D01*
X009780Y017831D02*
X010619Y017831D01*
X010570Y017930D02*
X009780Y017930D01*
X009780Y018028D02*
X010570Y018028D01*
X010570Y018127D02*
X009780Y018127D01*
X009780Y018225D02*
X010570Y018225D01*
X010574Y018324D02*
X009780Y018324D01*
X009780Y018422D02*
X010673Y018422D01*
X010771Y018521D02*
X009780Y018521D01*
X009780Y018619D02*
X010870Y018619D01*
X011330Y018619D02*
X011870Y018619D01*
X011771Y018521D02*
X011429Y018521D01*
X011527Y018422D02*
X011673Y018422D01*
X012330Y018619D02*
X019090Y018619D01*
X019090Y018521D02*
X014309Y018521D01*
X014284Y018545D02*
X013916Y018545D01*
X013655Y018284D01*
X013655Y017916D01*
X013916Y017655D01*
X014284Y017655D01*
X014545Y017916D01*
X014545Y018284D01*
X014284Y018545D01*
X014407Y018422D02*
X019090Y018422D01*
X019090Y018389D02*
X019389Y018090D01*
X019811Y018090D01*
X020110Y018389D01*
X020110Y018811D01*
X019811Y019110D01*
X019389Y019110D01*
X019090Y018811D01*
X019090Y018389D01*
X019155Y018324D02*
X014506Y018324D01*
X014545Y018225D02*
X019254Y018225D01*
X019352Y018127D02*
X014545Y018127D01*
X014545Y018028D02*
X023570Y018028D01*
X023570Y018050D02*
X023570Y017880D01*
X023880Y017570D01*
X024050Y017570D01*
X024050Y018050D01*
X023570Y018050D01*
X023570Y018150D02*
X024050Y018150D01*
X024050Y018630D01*
X023880Y018630D01*
X023570Y018320D01*
X023570Y018150D01*
X023570Y018225D02*
X019946Y018225D01*
X019848Y018127D02*
X024050Y018127D01*
X024050Y018150D02*
X024050Y018050D01*
X024150Y018050D01*
X024150Y018150D01*
X024050Y018150D01*
X024050Y018225D02*
X024150Y018225D01*
X024150Y018150D02*
X024150Y018630D01*
X024320Y018630D01*
X024630Y018320D01*
X024630Y018150D01*
X024150Y018150D01*
X024150Y018127D02*
X029830Y018127D01*
X029928Y018225D02*
X024630Y018225D01*
X024626Y018324D02*
X036574Y018324D01*
X036673Y018422D02*
X024527Y018422D01*
X024429Y018521D02*
X036771Y018521D01*
X036831Y018619D02*
X024330Y018619D01*
X024150Y018619D02*
X024050Y018619D01*
X024050Y018521D02*
X024150Y018521D01*
X024150Y018422D02*
X024050Y018422D01*
X024050Y018324D02*
X024150Y018324D01*
X024150Y018050D02*
X024630Y018050D01*
X024630Y017880D01*
X024320Y017570D01*
X024150Y017570D01*
X024150Y018050D01*
X024150Y018028D02*
X024050Y018028D01*
X024050Y017930D02*
X024150Y017930D01*
X024150Y017831D02*
X024050Y017831D01*
X024050Y017733D02*
X024150Y017733D01*
X024150Y017634D02*
X024050Y017634D01*
X023816Y017634D02*
X012384Y017634D01*
X012482Y017733D02*
X013838Y017733D01*
X013740Y017831D02*
X012581Y017831D01*
X012630Y017930D02*
X013655Y017930D01*
X013655Y018028D02*
X012630Y018028D01*
X012630Y018127D02*
X013655Y018127D01*
X013655Y018225D02*
X012630Y018225D01*
X012626Y018324D02*
X013694Y018324D01*
X013793Y018422D02*
X012527Y018422D01*
X012429Y018521D02*
X013891Y018521D01*
X014545Y017930D02*
X023570Y017930D01*
X023619Y017831D02*
X014460Y017831D01*
X014362Y017733D02*
X023718Y017733D01*
X023574Y018324D02*
X020045Y018324D01*
X020110Y018422D02*
X023673Y018422D01*
X023771Y018521D02*
X020110Y018521D01*
X020110Y018619D02*
X023870Y018619D01*
X024630Y018028D02*
X029731Y018028D01*
X029633Y017930D02*
X024630Y017930D01*
X024581Y017831D02*
X029534Y017831D01*
X029436Y017733D02*
X024482Y017733D01*
X024384Y017634D02*
X029337Y017634D01*
X029239Y017536D02*
X014322Y017536D01*
X014421Y017437D02*
X029140Y017437D01*
X029042Y017339D02*
X014519Y017339D01*
X014565Y017240D02*
X028943Y017240D01*
X029242Y016945D02*
X036550Y016945D01*
X036550Y016872D02*
X036550Y017050D01*
X037050Y017050D01*
X037050Y016550D01*
X036872Y016550D01*
X036550Y016872D01*
X036576Y016846D02*
X029143Y016846D01*
X029045Y016748D02*
X036675Y016748D01*
X036773Y016649D02*
X028946Y016649D01*
X028848Y016551D02*
X036872Y016551D01*
X037050Y016551D02*
X037150Y016551D01*
X037150Y016550D02*
X037328Y016550D01*
X037650Y016872D01*
X037650Y017050D01*
X037150Y017050D01*
X037150Y016550D01*
X037150Y016649D02*
X037050Y016649D01*
X037050Y016748D02*
X037150Y016748D01*
X037150Y016846D02*
X037050Y016846D01*
X037050Y016945D02*
X037150Y016945D01*
X037150Y017043D02*
X037050Y017043D01*
X037050Y017142D02*
X029439Y017142D01*
X029537Y017240D02*
X036550Y017240D01*
X036561Y017339D02*
X029636Y017339D01*
X029734Y017437D02*
X036659Y017437D01*
X036758Y017536D02*
X029833Y017536D01*
X029931Y017634D02*
X036816Y017634D01*
X036718Y017733D02*
X030030Y017733D01*
X030128Y017831D02*
X036619Y017831D01*
X037384Y017634D02*
X037890Y017634D01*
X037890Y017536D02*
X037442Y017536D01*
X037541Y017437D02*
X037890Y017437D01*
X037890Y017339D02*
X037639Y017339D01*
X037650Y017240D02*
X037890Y017240D01*
X037890Y017142D02*
X037150Y017142D01*
X036550Y017043D02*
X029340Y017043D01*
X029323Y016452D02*
X028877Y016452D01*
X028976Y016354D02*
X029224Y016354D01*
X029155Y016255D02*
X029045Y016255D01*
X029045Y016157D02*
X029155Y016157D01*
X029155Y016058D02*
X029045Y016058D01*
X029045Y015960D02*
X029155Y015960D01*
X029210Y015861D02*
X028990Y015861D01*
X028892Y015763D02*
X029308Y015763D01*
X029390Y015664D02*
X028793Y015664D01*
X028630Y015467D02*
X028570Y015467D01*
X028570Y015369D02*
X028630Y015369D01*
X028630Y015270D02*
X028570Y015270D01*
X028570Y015172D02*
X028630Y015172D01*
X028309Y015467D02*
X025764Y015467D01*
X025564Y015861D02*
X006136Y015861D01*
X006037Y015960D02*
X025663Y015960D01*
X025761Y016058D02*
X005939Y016058D01*
X005840Y016157D02*
X008914Y016157D01*
X008816Y016255D02*
X005742Y016255D01*
X005643Y016354D02*
X008717Y016354D01*
X008655Y016452D02*
X005545Y016452D01*
X005545Y016551D02*
X008655Y016551D01*
X008655Y016649D02*
X005545Y016649D01*
X005545Y016748D02*
X008655Y016748D01*
X008717Y016846D02*
X005483Y016846D01*
X005385Y016945D02*
X008815Y016945D01*
X008914Y017043D02*
X005286Y017043D01*
X004914Y017043D02*
X002650Y017043D01*
X002650Y017050D02*
X002150Y017050D01*
X002150Y017150D01*
X002650Y017150D01*
X002650Y017328D01*
X002364Y017614D01*
X002630Y017880D01*
X002630Y018320D01*
X002350Y018600D01*
X002630Y018880D01*
X002630Y019320D01*
X002350Y019600D01*
X002630Y019880D01*
X002630Y020320D01*
X002350Y020600D01*
X002630Y020880D01*
X002630Y021320D01*
X002350Y021600D01*
X002630Y021880D01*
X002630Y022320D01*
X002364Y022586D01*
X002650Y022872D01*
X002650Y023050D01*
X002150Y023050D01*
X002150Y023150D01*
X002650Y023150D01*
X002650Y023328D01*
X002328Y023650D01*
X002150Y023650D01*
X002150Y023150D01*
X002050Y023150D01*
X002050Y023650D01*
X001872Y023650D01*
X001550Y023328D01*
X001550Y023150D01*
X002050Y023150D01*
X002050Y023050D01*
X001550Y023050D01*
X001550Y022872D01*
X001836Y022586D01*
X001570Y022320D01*
X001570Y021880D01*
X001850Y021600D01*
X001570Y021320D01*
X001570Y020880D01*
X001850Y020600D01*
X001570Y020320D01*
X001570Y019880D01*
X001850Y019600D01*
X001570Y019320D01*
X001570Y018880D01*
X001850Y018600D01*
X001570Y018320D01*
X001570Y017880D01*
X001836Y017614D01*
X001550Y017328D01*
X001550Y017150D01*
X002050Y017150D01*
X002050Y017050D01*
X002150Y017050D01*
X002150Y016550D01*
X002328Y016550D01*
X002650Y016872D01*
X002650Y017050D01*
X002650Y016945D02*
X004815Y016945D01*
X004717Y016846D02*
X002624Y016846D01*
X002525Y016748D02*
X004655Y016748D01*
X004655Y016649D02*
X002427Y016649D01*
X002328Y016551D02*
X004655Y016551D01*
X004655Y016452D02*
X000600Y016452D01*
X000600Y016354D02*
X004717Y016354D01*
X004816Y016255D02*
X000600Y016255D01*
X000600Y016157D02*
X004914Y016157D01*
X005345Y016058D02*
X000600Y016058D01*
X000600Y015960D02*
X005443Y015960D01*
X005542Y015861D02*
X000600Y015861D01*
X000600Y015763D02*
X005640Y015763D01*
X005739Y015664D02*
X000600Y015664D01*
X000600Y015566D02*
X005837Y015566D01*
X005936Y015467D02*
X000600Y015467D01*
X000600Y015369D02*
X028211Y015369D01*
X028135Y015270D02*
X000600Y015270D01*
X000600Y015172D02*
X028135Y015172D01*
X029810Y015172D02*
X039020Y015172D01*
X039020Y015270D02*
X029810Y015270D01*
X029810Y015369D02*
X039020Y015369D01*
X039020Y015467D02*
X029810Y015467D01*
X029810Y015566D02*
X039020Y015566D01*
X039020Y015664D02*
X033793Y015664D01*
X033892Y015763D02*
X039020Y015763D01*
X039020Y015861D02*
X033990Y015861D01*
X033407Y015664D02*
X029810Y015664D01*
X029892Y015763D02*
X033308Y015763D01*
X033210Y015861D02*
X029990Y015861D01*
X030045Y015960D02*
X033155Y015960D01*
X033155Y016058D02*
X030045Y016058D01*
X030045Y016157D02*
X033155Y016157D01*
X033155Y016255D02*
X030045Y016255D01*
X029976Y016354D02*
X033224Y016354D01*
X033323Y016452D02*
X029877Y016452D01*
X029916Y018655D02*
X030284Y018655D01*
X030545Y018916D01*
X030545Y019284D01*
X030284Y019545D01*
X029916Y019545D01*
X029655Y019284D01*
X029655Y018916D01*
X029916Y018655D01*
X029853Y018718D02*
X020110Y018718D01*
X020105Y018816D02*
X029755Y018816D01*
X029656Y018915D02*
X020007Y018915D01*
X019908Y019013D02*
X029655Y019013D01*
X029655Y019112D02*
X009780Y019112D01*
X009780Y019210D02*
X017861Y019210D01*
X017916Y019155D02*
X018284Y019155D01*
X018545Y019416D01*
X018545Y019784D01*
X018284Y020045D01*
X017916Y020045D01*
X017655Y019784D01*
X017655Y019416D01*
X017916Y019155D01*
X017762Y019309D02*
X009780Y019309D01*
X009780Y019407D02*
X017664Y019407D01*
X017655Y019506D02*
X009780Y019506D01*
X009780Y019604D02*
X017655Y019604D01*
X017655Y019703D02*
X009780Y019703D01*
X009780Y019801D02*
X017672Y019801D01*
X017770Y019900D02*
X009780Y019900D01*
X009780Y019998D02*
X017869Y019998D01*
X017907Y020135D02*
X017635Y020407D01*
X017635Y020570D01*
X018070Y020570D01*
X018070Y020630D01*
X018070Y021065D01*
X017907Y021065D01*
X017635Y020793D01*
X017635Y020630D01*
X018070Y020630D01*
X018130Y020630D01*
X018130Y021065D01*
X018293Y021065D01*
X018565Y020793D01*
X018565Y020630D01*
X018130Y020630D01*
X018130Y020570D01*
X018565Y020570D01*
X018565Y020407D01*
X018293Y020135D01*
X018130Y020135D01*
X018130Y020570D01*
X018070Y020570D01*
X018070Y020135D01*
X017907Y020135D01*
X017847Y020195D02*
X009780Y020195D01*
X009780Y020097D02*
X030070Y020097D01*
X030070Y020070D02*
X029635Y020070D01*
X029635Y019907D01*
X029907Y019635D01*
X030070Y019635D01*
X030070Y020070D01*
X030070Y020130D01*
X030070Y020565D01*
X029907Y020565D01*
X029635Y020293D01*
X029635Y020130D01*
X030070Y020130D01*
X030130Y020130D01*
X030130Y020565D01*
X030293Y020565D01*
X030565Y020293D01*
X030565Y020130D01*
X030130Y020130D01*
X030130Y020070D01*
X030565Y020070D01*
X030565Y019907D01*
X030293Y019635D01*
X030130Y019635D01*
X030130Y020070D01*
X030070Y020070D01*
X030130Y020097D02*
X033070Y020097D01*
X033070Y020070D02*
X032635Y020070D01*
X032635Y019907D01*
X032907Y019635D01*
X033070Y019635D01*
X033070Y020070D01*
X033070Y020130D01*
X033070Y020565D01*
X032907Y020565D01*
X032635Y020293D01*
X032635Y020130D01*
X033070Y020130D01*
X033130Y020130D01*
X033130Y020565D01*
X033293Y020565D01*
X033565Y020293D01*
X033565Y020130D01*
X033130Y020130D01*
X033130Y020070D01*
X033565Y020070D01*
X033565Y019907D01*
X033293Y019635D01*
X033130Y019635D01*
X033130Y020070D01*
X033070Y020070D01*
X033130Y020097D02*
X036570Y020097D01*
X036570Y020195D02*
X033565Y020195D01*
X033564Y020294D02*
X036570Y020294D01*
X036511Y020392D02*
X033466Y020392D01*
X033367Y020491D02*
X036412Y020491D01*
X036314Y020589D02*
X018130Y020589D01*
X018070Y020589D02*
X009844Y020589D01*
X009780Y020491D02*
X017635Y020491D01*
X017650Y020392D02*
X009780Y020392D01*
X009780Y020294D02*
X017749Y020294D01*
X018070Y020294D02*
X018130Y020294D01*
X018130Y020392D02*
X018070Y020392D01*
X018070Y020491D02*
X018130Y020491D01*
X018130Y020688D02*
X018070Y020688D01*
X018070Y020786D02*
X018130Y020786D01*
X018130Y020885D02*
X018070Y020885D01*
X018070Y020983D02*
X018130Y020983D01*
X018375Y020983D02*
X035920Y020983D01*
X036018Y020885D02*
X018473Y020885D01*
X018565Y020786D02*
X036117Y020786D01*
X036215Y020688D02*
X018565Y020688D01*
X018565Y020491D02*
X029833Y020491D01*
X029734Y020392D02*
X018550Y020392D01*
X018451Y020294D02*
X029636Y020294D01*
X029635Y020195D02*
X018353Y020195D01*
X018331Y019998D02*
X029635Y019998D01*
X029643Y019900D02*
X018430Y019900D01*
X018528Y019801D02*
X029741Y019801D01*
X029840Y019703D02*
X018545Y019703D01*
X018545Y019604D02*
X036846Y019604D01*
X036756Y019506D02*
X033324Y019506D01*
X033422Y019407D02*
X036658Y019407D01*
X036748Y019703D02*
X033360Y019703D01*
X033459Y019801D02*
X036649Y019801D01*
X036570Y019900D02*
X033557Y019900D01*
X033565Y019998D02*
X036570Y019998D01*
X037354Y019604D02*
X037890Y019604D01*
X037890Y019506D02*
X037444Y019506D01*
X037542Y019407D02*
X037890Y019407D01*
X037890Y019309D02*
X037630Y019309D01*
X037630Y019210D02*
X037890Y019210D01*
X037890Y019112D02*
X037630Y019112D01*
X037630Y019013D02*
X037890Y019013D01*
X037890Y018915D02*
X037630Y018915D01*
X037566Y018816D02*
X037890Y018816D01*
X037890Y018718D02*
X037467Y018718D01*
X037369Y018619D02*
X037890Y018619D01*
X037890Y018521D02*
X037429Y018521D01*
X037527Y018422D02*
X037890Y018422D01*
X037890Y018324D02*
X037626Y018324D01*
X037630Y018225D02*
X037890Y018225D01*
X037890Y018127D02*
X037630Y018127D01*
X037630Y018028D02*
X037890Y018028D01*
X037890Y017930D02*
X037630Y017930D01*
X037581Y017831D02*
X037890Y017831D01*
X037890Y017733D02*
X037482Y017733D01*
X038310Y017733D02*
X039020Y017733D01*
X039020Y017831D02*
X038310Y017831D01*
X038310Y017930D02*
X039020Y017930D01*
X039020Y018028D02*
X038310Y018028D01*
X038310Y018127D02*
X039020Y018127D01*
X039020Y018225D02*
X038310Y018225D01*
X038310Y018324D02*
X039020Y018324D01*
X039020Y018422D02*
X038310Y018422D01*
X038310Y018521D02*
X039020Y018521D01*
X039020Y018619D02*
X038310Y018619D01*
X038310Y018718D02*
X039020Y018718D01*
X039020Y018816D02*
X038310Y018816D01*
X038310Y018915D02*
X039020Y018915D01*
X039020Y019013D02*
X038310Y019013D01*
X038310Y019112D02*
X039020Y019112D01*
X039020Y019210D02*
X038310Y019210D01*
X038310Y019309D02*
X039020Y019309D01*
X039020Y019407D02*
X038310Y019407D01*
X038310Y019506D02*
X039020Y019506D01*
X039020Y019604D02*
X038310Y019604D01*
X038310Y019703D02*
X039020Y019703D01*
X039020Y019801D02*
X038310Y019801D01*
X038310Y019900D02*
X039020Y019900D01*
X039020Y019998D02*
X038310Y019998D01*
X038310Y020097D02*
X039020Y020097D01*
X039020Y020195D02*
X038310Y020195D01*
X038310Y020294D02*
X039020Y020294D01*
X039020Y020392D02*
X038310Y020392D01*
X038310Y020491D02*
X039020Y020491D01*
X039020Y020589D02*
X038310Y020589D01*
X038310Y020688D02*
X039020Y020688D01*
X039020Y020786D02*
X038310Y020786D01*
X038310Y020885D02*
X039020Y020885D01*
X039020Y020983D02*
X038310Y020983D01*
X038310Y021082D02*
X039020Y021082D01*
X039020Y021180D02*
X038310Y021180D01*
X038218Y021279D02*
X039020Y021279D01*
X039020Y021377D02*
X037572Y021377D01*
X037474Y021476D02*
X039020Y021476D01*
X039020Y021574D02*
X037375Y021574D01*
X037422Y021673D02*
X039020Y021673D01*
X039020Y021771D02*
X037521Y021771D01*
X037619Y021870D02*
X039020Y021870D01*
X039020Y021968D02*
X037630Y021968D01*
X037630Y022067D02*
X039020Y022067D01*
X039020Y022165D02*
X037630Y022165D01*
X037630Y022264D02*
X039020Y022264D01*
X039020Y022362D02*
X037587Y022362D01*
X037489Y022461D02*
X039020Y022461D01*
X039020Y022559D02*
X037390Y022559D01*
X037435Y022658D02*
X039020Y022658D01*
X039020Y022756D02*
X037534Y022756D01*
X037632Y022855D02*
X039020Y022855D01*
X039020Y022953D02*
X037650Y022953D01*
X037650Y023150D02*
X037650Y023328D01*
X037328Y023650D01*
X037150Y023650D01*
X037150Y023150D01*
X037650Y023150D01*
X039020Y023150D01*
X039020Y023052D02*
X037150Y023052D01*
X037150Y023150D02*
X037050Y023150D01*
X037050Y023052D02*
X034445Y023052D01*
X034347Y023150D02*
X036550Y023150D01*
X036550Y023249D02*
X034248Y023249D01*
X034150Y023347D02*
X036569Y023347D01*
X036668Y023446D02*
X034051Y023446D01*
X034045Y023544D02*
X036766Y023544D01*
X036865Y023643D02*
X034045Y023643D01*
X034045Y023741D02*
X039020Y023741D01*
X039020Y023643D02*
X037335Y023643D01*
X037434Y023544D02*
X039020Y023544D01*
X039020Y023446D02*
X037532Y023446D01*
X037631Y023347D02*
X039020Y023347D01*
X039020Y023249D02*
X037650Y023249D01*
X037150Y023249D02*
X037050Y023249D01*
X037050Y023347D02*
X037150Y023347D01*
X037150Y023446D02*
X037050Y023446D01*
X037050Y023544D02*
X037150Y023544D01*
X037150Y023643D02*
X037050Y023643D01*
X036550Y022953D02*
X034544Y022953D01*
X034642Y022855D02*
X036568Y022855D01*
X036666Y022756D02*
X034741Y022756D01*
X034839Y022658D02*
X036765Y022658D01*
X036810Y022559D02*
X034938Y022559D01*
X035036Y022461D02*
X036711Y022461D01*
X036613Y022362D02*
X035135Y022362D01*
X035233Y022264D02*
X036570Y022264D01*
X036570Y022165D02*
X035332Y022165D01*
X035430Y022067D02*
X036570Y022067D01*
X036570Y021968D02*
X035529Y021968D01*
X035627Y021870D02*
X036581Y021870D01*
X036679Y021771D02*
X035726Y021771D01*
X035824Y021673D02*
X036778Y021673D01*
X036825Y021574D02*
X035923Y021574D01*
X036021Y021476D02*
X036726Y021476D01*
X036628Y021377D02*
X036120Y021377D01*
X036218Y021279D02*
X036570Y021279D01*
X036570Y021180D02*
X036317Y021180D01*
X036415Y021082D02*
X036570Y021082D01*
X036570Y020983D02*
X036514Y020983D01*
X035821Y021082D02*
X010610Y021082D01*
X010610Y021180D02*
X035723Y021180D01*
X035624Y021279D02*
X010610Y021279D01*
X010544Y021377D02*
X035526Y021377D01*
X035427Y021476D02*
X010446Y021476D01*
X010347Y021574D02*
X035329Y021574D01*
X035230Y021673D02*
X030830Y021673D01*
X030793Y021635D02*
X031065Y021907D01*
X031065Y022070D01*
X030630Y022070D01*
X030630Y022130D01*
X031065Y022130D01*
X031065Y022293D01*
X030793Y022565D01*
X030630Y022565D01*
X030630Y022130D01*
X030570Y022130D01*
X030570Y022565D01*
X030407Y022565D01*
X030135Y022293D01*
X030135Y022130D01*
X030570Y022130D01*
X030570Y022070D01*
X030630Y022070D01*
X030630Y021635D01*
X030793Y021635D01*
X030630Y021673D02*
X030570Y021673D01*
X030570Y021635D02*
X030407Y021635D01*
X030135Y021907D01*
X030135Y022070D01*
X030570Y022070D01*
X030570Y021635D01*
X030570Y021771D02*
X030630Y021771D01*
X030630Y021870D02*
X030570Y021870D01*
X030570Y021968D02*
X030630Y021968D01*
X030630Y022067D02*
X030570Y022067D01*
X030570Y022165D02*
X030630Y022165D01*
X030630Y022264D02*
X030570Y022264D01*
X030570Y022362D02*
X030630Y022362D01*
X030630Y022461D02*
X030570Y022461D01*
X030570Y022559D02*
X030630Y022559D01*
X030799Y022559D02*
X034344Y022559D01*
X034442Y022461D02*
X030897Y022461D01*
X030996Y022362D02*
X034541Y022362D01*
X034639Y022264D02*
X031065Y022264D01*
X031065Y022165D02*
X034738Y022165D01*
X034836Y022067D02*
X031065Y022067D01*
X031065Y021968D02*
X034935Y021968D01*
X035033Y021870D02*
X031027Y021870D01*
X030929Y021771D02*
X035132Y021771D01*
X034245Y022658D02*
X029297Y022658D01*
X029280Y022675D02*
X029413Y022542D01*
X029416Y022545D01*
X029784Y022545D01*
X030045Y022284D01*
X030045Y021916D01*
X029784Y021655D01*
X029416Y021655D01*
X029155Y021916D01*
X029155Y022284D01*
X029158Y022287D01*
X029025Y022420D01*
X028920Y022525D01*
X028920Y023175D01*
X029158Y023413D01*
X029155Y023416D01*
X029155Y023784D01*
X029416Y024045D01*
X029784Y024045D01*
X030045Y023784D01*
X030045Y023416D01*
X029784Y023155D01*
X029416Y023155D01*
X029413Y023158D01*
X029280Y023025D01*
X029280Y022675D01*
X029280Y022756D02*
X034147Y022756D01*
X034048Y022855D02*
X029280Y022855D01*
X029280Y022953D02*
X033950Y022953D01*
X033851Y023052D02*
X029306Y023052D01*
X029405Y023150D02*
X033753Y023150D01*
X033322Y023249D02*
X029878Y023249D01*
X029976Y023347D02*
X033224Y023347D01*
X033155Y023446D02*
X030045Y023446D01*
X030045Y023544D02*
X033155Y023544D01*
X033155Y023643D02*
X030045Y023643D01*
X030045Y023741D02*
X033155Y023741D01*
X033210Y023840D02*
X029990Y023840D01*
X029891Y023938D02*
X033309Y023938D01*
X033407Y024037D02*
X029793Y024037D01*
X029407Y024037D02*
X019913Y024037D01*
X019820Y024130D02*
X019650Y024130D01*
X019650Y023650D01*
X019550Y023650D01*
X019550Y024130D01*
X019380Y024130D01*
X019070Y023820D01*
X019070Y023650D01*
X019550Y023650D01*
X019550Y023550D01*
X019070Y023550D01*
X019070Y023380D01*
X019380Y023070D01*
X019550Y023070D01*
X019550Y023550D01*
X019650Y023550D01*
X019650Y023650D01*
X020130Y023650D01*
X020130Y023820D01*
X019820Y024130D01*
X019650Y024037D02*
X019550Y024037D01*
X019550Y023938D02*
X019650Y023938D01*
X019650Y023840D02*
X019550Y023840D01*
X019550Y023741D02*
X019650Y023741D01*
X019650Y023643D02*
X029155Y023643D01*
X029155Y023741D02*
X020130Y023741D01*
X020110Y023840D02*
X029210Y023840D01*
X029309Y023938D02*
X020011Y023938D01*
X020130Y023550D02*
X019650Y023550D01*
X019650Y023070D01*
X019820Y023070D01*
X020130Y023380D01*
X020130Y023550D01*
X020130Y023544D02*
X029155Y023544D01*
X029155Y023446D02*
X020130Y023446D01*
X020097Y023347D02*
X029093Y023347D01*
X028994Y023249D02*
X019998Y023249D01*
X019900Y023150D02*
X028920Y023150D01*
X028920Y023052D02*
X009903Y023052D01*
X009804Y023150D02*
X019300Y023150D01*
X019202Y023249D02*
X009706Y023249D01*
X009607Y023347D02*
X019103Y023347D01*
X019070Y023446D02*
X009545Y023446D01*
X009545Y023544D02*
X019070Y023544D01*
X019070Y023741D02*
X009545Y023741D01*
X009545Y023643D02*
X019550Y023643D01*
X019550Y023544D02*
X019650Y023544D01*
X019650Y023446D02*
X019550Y023446D01*
X019550Y023347D02*
X019650Y023347D01*
X019650Y023249D02*
X019550Y023249D01*
X019550Y023150D02*
X019650Y023150D01*
X019090Y023840D02*
X009490Y023840D01*
X009391Y023938D02*
X019189Y023938D01*
X019287Y024037D02*
X009293Y024037D01*
X008907Y024037D02*
X005293Y024037D01*
X005284Y024045D02*
X004916Y024045D01*
X004655Y023784D01*
X004655Y023416D01*
X004916Y023155D01*
X005284Y023155D01*
X005545Y023416D01*
X005545Y023784D01*
X005284Y024045D01*
X005391Y023938D02*
X008809Y023938D01*
X008710Y023840D02*
X005490Y023840D01*
X005545Y023741D02*
X008655Y023741D01*
X008655Y023643D02*
X005545Y023643D01*
X005545Y023544D02*
X008655Y023544D01*
X008655Y023446D02*
X005545Y023446D01*
X005476Y023347D02*
X008724Y023347D01*
X008822Y023249D02*
X005378Y023249D01*
X004822Y023249D02*
X002650Y023249D01*
X002650Y023150D02*
X009295Y023150D01*
X009394Y023052D02*
X002150Y023052D01*
X002150Y023150D02*
X002050Y023150D01*
X002050Y023052D02*
X000600Y023052D01*
X000600Y023150D02*
X001550Y023150D01*
X001550Y023249D02*
X000600Y023249D01*
X000600Y023347D02*
X001569Y023347D01*
X001668Y023446D02*
X000600Y023446D01*
X000600Y023544D02*
X001766Y023544D01*
X001865Y023643D02*
X000600Y023643D01*
X000600Y023741D02*
X004655Y023741D01*
X004655Y023643D02*
X002335Y023643D01*
X002434Y023544D02*
X004655Y023544D01*
X004655Y023446D02*
X002532Y023446D01*
X002631Y023347D02*
X004724Y023347D01*
X004710Y023840D02*
X000600Y023840D01*
X000600Y023938D02*
X004809Y023938D01*
X004907Y024037D02*
X000600Y024037D01*
X000600Y024135D02*
X039020Y024135D01*
X039020Y024037D02*
X033793Y024037D01*
X033891Y023938D02*
X039020Y023938D01*
X039020Y023840D02*
X033990Y023840D01*
X030401Y022559D02*
X029395Y022559D01*
X029100Y022600D02*
X029100Y023100D01*
X029600Y023600D01*
X028920Y022953D02*
X010001Y022953D01*
X010100Y022855D02*
X028920Y022855D01*
X028920Y022756D02*
X010198Y022756D01*
X010280Y022658D02*
X028920Y022658D01*
X028920Y022559D02*
X024362Y022559D01*
X024311Y022610D02*
X023889Y022610D01*
X023590Y022311D01*
X023590Y021889D01*
X023889Y021590D01*
X024311Y021590D01*
X024610Y021889D01*
X024610Y022311D01*
X024311Y022610D01*
X024461Y022461D02*
X028985Y022461D01*
X029083Y022362D02*
X024559Y022362D01*
X024610Y022264D02*
X029155Y022264D01*
X029155Y022165D02*
X024610Y022165D01*
X024610Y022067D02*
X029155Y022067D01*
X029155Y021968D02*
X024610Y021968D01*
X024591Y021870D02*
X029201Y021870D01*
X029300Y021771D02*
X024492Y021771D01*
X024394Y021673D02*
X029398Y021673D01*
X029802Y021673D02*
X030370Y021673D01*
X030271Y021771D02*
X029900Y021771D01*
X029999Y021870D02*
X030173Y021870D01*
X030135Y021968D02*
X030045Y021968D01*
X030045Y022067D02*
X030135Y022067D01*
X030135Y022165D02*
X030045Y022165D01*
X030045Y022264D02*
X030135Y022264D01*
X030204Y022362D02*
X029967Y022362D01*
X029869Y022461D02*
X030303Y022461D01*
X029600Y022100D02*
X029100Y022600D01*
X030070Y020491D02*
X030130Y020491D01*
X030130Y020392D02*
X030070Y020392D01*
X030070Y020294D02*
X030130Y020294D01*
X030130Y020195D02*
X030070Y020195D01*
X030070Y019998D02*
X030130Y019998D01*
X030130Y019900D02*
X030070Y019900D01*
X030070Y019801D02*
X030130Y019801D01*
X030130Y019703D02*
X030070Y019703D01*
X029876Y019506D02*
X018545Y019506D01*
X018536Y019407D02*
X029778Y019407D01*
X029679Y019309D02*
X018438Y019309D01*
X018339Y019210D02*
X029655Y019210D01*
X030324Y019506D02*
X032876Y019506D01*
X032778Y019407D02*
X030422Y019407D01*
X030521Y019309D02*
X032679Y019309D01*
X032655Y019210D02*
X030545Y019210D01*
X030545Y019112D02*
X032655Y019112D01*
X032655Y019013D02*
X030545Y019013D01*
X030544Y018915D02*
X032656Y018915D01*
X032755Y018816D02*
X030445Y018816D01*
X030347Y018718D02*
X032853Y018718D01*
X033347Y018718D02*
X036733Y018718D01*
X036634Y018816D02*
X033445Y018816D01*
X033130Y019703D02*
X033070Y019703D01*
X033070Y019801D02*
X033130Y019801D01*
X033130Y019900D02*
X033070Y019900D01*
X033070Y019998D02*
X033130Y019998D01*
X033130Y020195D02*
X033070Y020195D01*
X033070Y020294D02*
X033130Y020294D01*
X033130Y020392D02*
X033070Y020392D01*
X033070Y020491D02*
X033130Y020491D01*
X032833Y020491D02*
X030367Y020491D01*
X030466Y020392D02*
X032734Y020392D01*
X032636Y020294D02*
X030564Y020294D01*
X030565Y020195D02*
X032635Y020195D01*
X032635Y019998D02*
X030565Y019998D01*
X030557Y019900D02*
X032643Y019900D01*
X032741Y019801D02*
X030459Y019801D01*
X030360Y019703D02*
X032840Y019703D01*
X037360Y020589D02*
X037890Y020589D01*
X037890Y020491D02*
X037459Y020491D01*
X037557Y020392D02*
X037890Y020392D01*
X037890Y020294D02*
X037630Y020294D01*
X037630Y020195D02*
X037890Y020195D01*
X037890Y020097D02*
X037630Y020097D01*
X037630Y019998D02*
X037890Y019998D01*
X037890Y019900D02*
X037630Y019900D01*
X037551Y019801D02*
X037890Y019801D01*
X037890Y019703D02*
X037452Y019703D01*
X037437Y020688D02*
X037890Y020688D01*
X037890Y020786D02*
X037536Y020786D01*
X037630Y020885D02*
X037890Y020885D01*
X038310Y017634D02*
X039020Y017634D01*
X039020Y017536D02*
X038310Y017536D01*
X038310Y017437D02*
X039020Y017437D01*
X039020Y017339D02*
X038310Y017339D01*
X038310Y017240D02*
X039020Y017240D01*
X039020Y017142D02*
X038310Y017142D01*
X038310Y017043D02*
X039020Y017043D01*
X039020Y016945D02*
X038310Y016945D01*
X038310Y016846D02*
X039020Y016846D01*
X039020Y016748D02*
X038310Y016748D01*
X038310Y016649D02*
X039020Y016649D01*
X039020Y016551D02*
X038310Y016551D01*
X038310Y016452D02*
X039020Y016452D01*
X039020Y016354D02*
X038310Y016354D01*
X038310Y016255D02*
X039020Y016255D01*
X039020Y016157D02*
X038310Y016157D01*
X038310Y016058D02*
X039020Y016058D01*
X039020Y015960D02*
X038257Y015960D01*
X037890Y016354D02*
X033976Y016354D01*
X033877Y016452D02*
X037890Y016452D01*
X037890Y016551D02*
X037328Y016551D01*
X037427Y016649D02*
X037890Y016649D01*
X037890Y016748D02*
X037525Y016748D01*
X037624Y016846D02*
X037890Y016846D01*
X037890Y016945D02*
X037650Y016945D01*
X037650Y017043D02*
X037890Y017043D01*
X039020Y024234D02*
X000600Y024234D01*
X000600Y024332D02*
X039020Y024332D01*
X039020Y024431D02*
X000600Y024431D01*
X000600Y024529D02*
X039020Y024529D01*
X026090Y016452D02*
X009545Y016452D01*
X009483Y016354D02*
X026057Y016354D01*
X025958Y016255D02*
X009384Y016255D01*
X009286Y016157D02*
X025860Y016157D01*
X019292Y019013D02*
X009780Y019013D01*
X009780Y018915D02*
X019193Y018915D01*
X019095Y018816D02*
X009780Y018816D01*
X009780Y018718D02*
X019090Y018718D01*
X018130Y020195D02*
X018070Y020195D01*
X017635Y020688D02*
X010409Y020688D01*
X010507Y020786D02*
X017635Y020786D01*
X017727Y020885D02*
X010606Y020885D01*
X010610Y020983D02*
X017825Y020983D01*
X014130Y017536D02*
X014070Y017536D01*
X014070Y017437D02*
X014130Y017437D01*
X014130Y017339D02*
X014070Y017339D01*
X014070Y017240D02*
X014130Y017240D01*
X014130Y017142D02*
X014070Y017142D01*
X014070Y017043D02*
X014130Y017043D01*
X014130Y016945D02*
X014070Y016945D01*
X014070Y016846D02*
X014130Y016846D01*
X014130Y016748D02*
X014070Y016748D01*
X014070Y016649D02*
X014130Y016649D01*
X011816Y017634D02*
X011384Y017634D01*
X011482Y017733D02*
X011718Y017733D01*
X011619Y017831D02*
X011581Y017831D01*
X009600Y017100D02*
X009100Y016600D01*
X009286Y017043D02*
X009289Y017043D01*
X009387Y017142D02*
X002150Y017142D01*
X002150Y017043D02*
X002050Y017043D01*
X002050Y017050D02*
X002050Y016550D01*
X001872Y016550D01*
X001550Y016872D01*
X001550Y017050D01*
X002050Y017050D01*
X002050Y017142D02*
X000600Y017142D01*
X000600Y017240D02*
X001550Y017240D01*
X001561Y017339D02*
X000600Y017339D01*
X000600Y017437D02*
X001659Y017437D01*
X001758Y017536D02*
X000600Y017536D01*
X000600Y017634D02*
X001816Y017634D01*
X001718Y017733D02*
X000600Y017733D01*
X000600Y017831D02*
X001619Y017831D01*
X001570Y017930D02*
X000600Y017930D01*
X000600Y018028D02*
X001570Y018028D01*
X001570Y018127D02*
X000600Y018127D01*
X000600Y018225D02*
X001570Y018225D01*
X001574Y018324D02*
X000600Y018324D01*
X000600Y018422D02*
X001673Y018422D01*
X001771Y018521D02*
X000600Y018521D01*
X000600Y018619D02*
X001831Y018619D01*
X001733Y018718D02*
X000600Y018718D01*
X000600Y018816D02*
X001634Y018816D01*
X001570Y018915D02*
X000600Y018915D01*
X000600Y019013D02*
X001570Y019013D01*
X001570Y019112D02*
X000600Y019112D01*
X000600Y019210D02*
X001570Y019210D01*
X001570Y019309D02*
X000600Y019309D01*
X000600Y019407D02*
X001658Y019407D01*
X001756Y019506D02*
X000600Y019506D01*
X000600Y019604D02*
X001846Y019604D01*
X001748Y019703D02*
X000600Y019703D01*
X000600Y019801D02*
X001649Y019801D01*
X001570Y019900D02*
X000600Y019900D01*
X000600Y019998D02*
X001570Y019998D01*
X001570Y020097D02*
X000600Y020097D01*
X000600Y020195D02*
X001570Y020195D01*
X001570Y020294D02*
X000600Y020294D01*
X000600Y020392D02*
X001643Y020392D01*
X001741Y020491D02*
X000600Y020491D01*
X000600Y020589D02*
X001840Y020589D01*
X001763Y020688D02*
X000600Y020688D01*
X000600Y020786D02*
X001664Y020786D01*
X001570Y020885D02*
X000600Y020885D01*
X000600Y020983D02*
X001570Y020983D01*
X001570Y021082D02*
X000600Y021082D01*
X000600Y021180D02*
X001570Y021180D01*
X001570Y021279D02*
X000600Y021279D01*
X000600Y021377D02*
X001628Y021377D01*
X001726Y021476D02*
X000600Y021476D01*
X000600Y021574D02*
X001825Y021574D01*
X001778Y021673D02*
X000600Y021673D01*
X000600Y021771D02*
X001679Y021771D01*
X001581Y021870D02*
X000600Y021870D01*
X000600Y021968D02*
X001570Y021968D01*
X001570Y022067D02*
X000600Y022067D01*
X000600Y022165D02*
X001570Y022165D01*
X001570Y022264D02*
X000600Y022264D01*
X000600Y022362D02*
X001613Y022362D01*
X001711Y022461D02*
X000600Y022461D01*
X000600Y022559D02*
X001810Y022559D01*
X001765Y022658D02*
X000600Y022658D01*
X000600Y022756D02*
X001666Y022756D01*
X001568Y022855D02*
X000600Y022855D01*
X000600Y022953D02*
X001550Y022953D01*
X002050Y023249D02*
X002150Y023249D01*
X002150Y023347D02*
X002050Y023347D01*
X002050Y023446D02*
X002150Y023446D01*
X002150Y023544D02*
X002050Y023544D01*
X002050Y023643D02*
X002150Y023643D01*
X002650Y022953D02*
X009492Y022953D01*
X009591Y022855D02*
X002632Y022855D01*
X002534Y022756D02*
X009689Y022756D01*
X009788Y022658D02*
X002435Y022658D01*
X002390Y022559D02*
X009886Y022559D01*
X009920Y022461D02*
X002489Y022461D01*
X002587Y022362D02*
X009920Y022362D01*
X009920Y022264D02*
X002630Y022264D01*
X002630Y022165D02*
X009920Y022165D01*
X009920Y022067D02*
X002630Y022067D01*
X002630Y021968D02*
X009920Y021968D01*
X009920Y021870D02*
X002619Y021870D01*
X002521Y021771D02*
X009920Y021771D01*
X009920Y021673D02*
X002422Y021673D01*
X002375Y021574D02*
X004853Y021574D01*
X004889Y021610D02*
X004590Y021311D01*
X004590Y020889D01*
X004889Y020590D01*
X005311Y020590D01*
X005610Y020889D01*
X005610Y021311D01*
X005311Y021610D01*
X004889Y021610D01*
X004754Y021476D02*
X002474Y021476D01*
X002572Y021377D02*
X004656Y021377D01*
X004590Y021279D02*
X002630Y021279D01*
X002630Y021180D02*
X004590Y021180D01*
X004590Y021082D02*
X002630Y021082D01*
X002630Y020983D02*
X004590Y020983D01*
X004594Y020885D02*
X002630Y020885D01*
X002536Y020786D02*
X004693Y020786D01*
X004791Y020688D02*
X002437Y020688D01*
X002360Y020589D02*
X009420Y020589D01*
X009420Y020491D02*
X002459Y020491D01*
X002557Y020392D02*
X009420Y020392D01*
X009420Y020294D02*
X002630Y020294D01*
X002630Y020195D02*
X009420Y020195D01*
X009420Y020097D02*
X002630Y020097D01*
X002630Y019998D02*
X009420Y019998D01*
X009420Y019900D02*
X002630Y019900D01*
X002551Y019801D02*
X009420Y019801D01*
X009420Y019703D02*
X002452Y019703D01*
X002354Y019604D02*
X009420Y019604D01*
X009420Y019506D02*
X006324Y019506D01*
X006284Y019545D02*
X005916Y019545D01*
X005655Y019284D01*
X005655Y018916D01*
X005916Y018655D01*
X006284Y018655D01*
X006545Y018916D01*
X006545Y019284D01*
X006284Y019545D01*
X006422Y019407D02*
X009420Y019407D01*
X009420Y019309D02*
X006521Y019309D01*
X006545Y019210D02*
X009420Y019210D01*
X009420Y019112D02*
X006545Y019112D01*
X006545Y019013D02*
X009420Y019013D01*
X009420Y018915D02*
X006544Y018915D01*
X006445Y018816D02*
X009420Y018816D01*
X009420Y018718D02*
X006347Y018718D01*
X006293Y018565D02*
X006130Y018565D01*
X006130Y018130D01*
X006070Y018130D01*
X006070Y018565D01*
X005907Y018565D01*
X005635Y018293D01*
X005635Y018130D01*
X006070Y018130D01*
X006070Y018070D01*
X005635Y018070D01*
X005635Y017907D01*
X005907Y017635D01*
X006070Y017635D01*
X006070Y018070D01*
X006130Y018070D01*
X006130Y018130D01*
X006565Y018130D01*
X006565Y018293D01*
X006293Y018565D01*
X006337Y018521D02*
X009420Y018521D01*
X009420Y018619D02*
X002369Y018619D01*
X002429Y018521D02*
X005863Y018521D01*
X005764Y018422D02*
X002527Y018422D01*
X002626Y018324D02*
X005666Y018324D01*
X005635Y018225D02*
X002630Y018225D01*
X002630Y018127D02*
X006070Y018127D01*
X006130Y018127D02*
X009420Y018127D01*
X009420Y018225D02*
X006565Y018225D01*
X006534Y018324D02*
X009420Y018324D01*
X009420Y018422D02*
X006436Y018422D01*
X006130Y018422D02*
X006070Y018422D01*
X006070Y018324D02*
X006130Y018324D01*
X006130Y018225D02*
X006070Y018225D01*
X006130Y018070D02*
X006565Y018070D01*
X006565Y017907D01*
X006293Y017635D01*
X006130Y017635D01*
X006130Y018070D01*
X006130Y018028D02*
X006070Y018028D01*
X006070Y017930D02*
X006130Y017930D01*
X006130Y017831D02*
X006070Y017831D01*
X006070Y017733D02*
X006130Y017733D01*
X006390Y017733D02*
X009420Y017733D01*
X009420Y017831D02*
X006489Y017831D01*
X006565Y017930D02*
X009420Y017930D01*
X009420Y018028D02*
X006565Y018028D01*
X006130Y018521D02*
X006070Y018521D01*
X005853Y018718D02*
X002467Y018718D01*
X002566Y018816D02*
X005755Y018816D01*
X005656Y018915D02*
X002630Y018915D01*
X002630Y019013D02*
X005655Y019013D01*
X005655Y019112D02*
X002630Y019112D01*
X002630Y019210D02*
X005655Y019210D01*
X005679Y019309D02*
X002630Y019309D01*
X002542Y019407D02*
X005778Y019407D01*
X005876Y019506D02*
X002444Y019506D01*
X002630Y018028D02*
X005635Y018028D01*
X005635Y017930D02*
X002630Y017930D01*
X002581Y017831D02*
X005711Y017831D01*
X005810Y017733D02*
X002482Y017733D01*
X002384Y017634D02*
X009420Y017634D01*
X009420Y017536D02*
X002442Y017536D01*
X002541Y017437D02*
X009420Y017437D01*
X009420Y017339D02*
X002639Y017339D01*
X002650Y017240D02*
X009420Y017240D01*
X009600Y017100D02*
X009600Y020600D01*
X010100Y021100D01*
X010100Y022600D01*
X009100Y023600D01*
X010280Y022559D02*
X023838Y022559D01*
X023739Y022461D02*
X010280Y022461D01*
X010280Y022362D02*
X023641Y022362D01*
X023590Y022264D02*
X010280Y022264D01*
X010280Y022165D02*
X023590Y022165D01*
X023590Y022067D02*
X010280Y022067D01*
X010280Y021968D02*
X023590Y021968D01*
X023609Y021870D02*
X010280Y021870D01*
X010280Y021771D02*
X023708Y021771D01*
X023806Y021673D02*
X010280Y021673D01*
X009853Y021574D02*
X005347Y021574D01*
X005446Y021476D02*
X009754Y021476D01*
X009656Y021377D02*
X005544Y021377D01*
X005610Y021279D02*
X009590Y021279D01*
X009590Y021180D02*
X005610Y021180D01*
X005610Y021082D02*
X009590Y021082D01*
X009590Y020983D02*
X005610Y020983D01*
X005606Y020885D02*
X009594Y020885D01*
X009532Y020786D02*
X005507Y020786D01*
X005409Y020688D02*
X009433Y020688D01*
X002150Y016945D02*
X002050Y016945D01*
X002050Y016846D02*
X002150Y016846D01*
X002150Y016748D02*
X002050Y016748D01*
X002050Y016649D02*
X002150Y016649D01*
X002150Y016551D02*
X002050Y016551D01*
X001872Y016551D02*
X000600Y016551D01*
X000600Y016649D02*
X001773Y016649D01*
X001675Y016748D02*
X000600Y016748D01*
X000600Y016846D02*
X001576Y016846D01*
X001550Y016945D02*
X000600Y016945D01*
X000600Y017043D02*
X001550Y017043D01*
X000600Y007390D02*
X008732Y007390D01*
X008635Y007292D02*
X000600Y007292D01*
X000600Y007193D02*
X008635Y007193D01*
X008635Y006996D02*
X000600Y006996D01*
X000600Y006898D02*
X008645Y006898D01*
X008743Y006799D02*
X000600Y006799D01*
X000600Y006701D02*
X008842Y006701D01*
X009070Y007095D02*
X000600Y007095D01*
X000600Y004435D02*
X033277Y004435D01*
X033179Y004337D02*
X000600Y004337D01*
X000600Y004238D02*
X033135Y004238D01*
X033570Y004238D02*
X033630Y004238D01*
X033630Y004140D02*
X033570Y004140D01*
X033570Y004041D02*
X033630Y004041D01*
X033630Y003943D02*
X033570Y003943D01*
X033570Y003844D02*
X033630Y003844D01*
X033630Y003746D02*
X033570Y003746D01*
X033570Y003647D02*
X033630Y003647D01*
X034065Y004238D02*
X036338Y004238D01*
X036239Y004337D02*
X034021Y004337D01*
X033923Y004435D02*
X036184Y004435D01*
X036158Y004534D02*
X033824Y004534D01*
X033630Y004534D02*
X033570Y004534D01*
X033570Y004435D02*
X033630Y004435D01*
X033630Y004337D02*
X033570Y004337D01*
X033860Y004731D02*
X036173Y004731D01*
X036215Y004829D02*
X033958Y004829D01*
X034045Y004928D02*
X036296Y004928D01*
X036465Y005026D02*
X034045Y005026D01*
X034045Y005125D02*
X039020Y005125D01*
X039020Y005223D02*
X037805Y005223D01*
X037842Y005238D02*
X037962Y005358D01*
X038027Y005515D01*
X038027Y005685D01*
X037962Y005842D01*
X037842Y005962D01*
X037685Y006027D01*
X037515Y006027D01*
X037358Y005962D01*
X037238Y005842D01*
X037173Y005685D01*
X037173Y005515D01*
X037238Y005358D01*
X037358Y005238D01*
X037515Y005173D01*
X037685Y005173D01*
X037842Y005238D01*
X037925Y005322D02*
X039020Y005322D01*
X039020Y005420D02*
X037987Y005420D01*
X038027Y005519D02*
X039020Y005519D01*
X039020Y005617D02*
X038027Y005617D01*
X038014Y005716D02*
X039020Y005716D01*
X039020Y005814D02*
X037973Y005814D01*
X037891Y005913D02*
X039020Y005913D01*
X039020Y006011D02*
X037723Y006011D01*
X037477Y006011D02*
X036723Y006011D01*
X036891Y005913D02*
X037309Y005913D01*
X037227Y005814D02*
X036973Y005814D01*
X037014Y005716D02*
X037186Y005716D01*
X037173Y005617D02*
X037027Y005617D01*
X037027Y005519D02*
X037173Y005519D01*
X037213Y005420D02*
X036987Y005420D01*
X036925Y005322D02*
X037275Y005322D01*
X037395Y005223D02*
X036805Y005223D01*
X036735Y005026D02*
X037465Y005026D01*
X037552Y005026D02*
X037648Y005026D01*
X037735Y005026D02*
X039020Y005026D01*
X039020Y004928D02*
X037904Y004928D01*
X037985Y004829D02*
X039020Y004829D01*
X039020Y004731D02*
X038027Y004731D01*
X037648Y004829D02*
X037552Y004829D01*
X037552Y004928D02*
X037648Y004928D01*
X037296Y004928D02*
X036904Y004928D01*
X036985Y004829D02*
X037215Y004829D01*
X037173Y004731D02*
X037027Y004731D01*
X037045Y004552D02*
X036648Y004552D01*
X036648Y004155D01*
X036705Y004164D01*
X036772Y004186D01*
X036834Y004218D01*
X036891Y004259D01*
X036941Y004309D01*
X036982Y004366D01*
X037014Y004428D01*
X037036Y004495D01*
X037045Y004552D01*
X037042Y004534D02*
X037158Y004534D01*
X037184Y004435D02*
X037016Y004435D01*
X036961Y004337D02*
X037239Y004337D01*
X037338Y004238D02*
X036862Y004238D01*
X036648Y004238D02*
X036552Y004238D01*
X036552Y004337D02*
X036648Y004337D01*
X036648Y004435D02*
X036552Y004435D01*
X036552Y004534D02*
X036648Y004534D01*
X036648Y004829D02*
X036552Y004829D01*
X036552Y004928D02*
X036648Y004928D01*
X036648Y005026D02*
X036552Y005026D01*
X036395Y005223D02*
X034045Y005223D01*
X034008Y005322D02*
X036275Y005322D01*
X036213Y005420D02*
X033909Y005420D01*
X033811Y005519D02*
X036173Y005519D01*
X036173Y005617D02*
X028045Y005617D01*
X028045Y005519D02*
X033389Y005519D01*
X033291Y005420D02*
X028045Y005420D01*
X027951Y005322D02*
X033192Y005322D01*
X033155Y005223D02*
X027852Y005223D01*
X028045Y005716D02*
X036186Y005716D01*
X036227Y005814D02*
X028015Y005814D01*
X027917Y005913D02*
X036309Y005913D01*
X036769Y006208D02*
X037431Y006208D01*
X037290Y006307D02*
X036910Y006307D01*
X036906Y006898D02*
X037294Y006898D01*
X037441Y006996D02*
X036759Y006996D01*
X036733Y007193D02*
X037467Y007193D01*
X037305Y007292D02*
X036895Y007292D01*
X036975Y007390D02*
X037225Y007390D01*
X037184Y007489D02*
X037016Y007489D01*
X037027Y007587D02*
X037173Y007587D01*
X037173Y007686D02*
X037027Y007686D01*
X036986Y007784D02*
X037214Y007784D01*
X037279Y007883D02*
X036921Y007883D01*
X036796Y007981D02*
X037404Y007981D01*
X037320Y008277D02*
X036880Y008277D01*
X036969Y008375D02*
X037231Y008375D01*
X037190Y008474D02*
X037010Y008474D01*
X037027Y008572D02*
X037173Y008572D01*
X037173Y008671D02*
X037027Y008671D01*
X036992Y008769D02*
X037208Y008769D01*
X037264Y008868D02*
X036936Y008868D01*
X036832Y008966D02*
X037368Y008966D01*
X036305Y007292D02*
X027921Y007292D01*
X027822Y007193D02*
X036467Y007193D01*
X037759Y006996D02*
X038390Y006996D01*
X038390Y006898D02*
X037906Y006898D01*
X037648Y004534D02*
X037552Y004534D01*
X037552Y004435D02*
X037648Y004435D01*
X037648Y004337D02*
X037552Y004337D01*
X037552Y004238D02*
X037648Y004238D01*
X039020Y003450D02*
X022045Y003450D01*
X021981Y003352D02*
X039020Y003352D01*
X039020Y003253D02*
X021882Y003253D01*
X021318Y003253D02*
X020911Y003253D01*
X021009Y003352D02*
X021219Y003352D01*
X021155Y003450D02*
X021065Y003450D01*
X021065Y003549D02*
X021155Y003549D01*
X021155Y003647D02*
X021065Y003647D01*
X021065Y003746D02*
X021155Y003746D01*
X021215Y003844D02*
X021014Y003844D01*
X020915Y003943D02*
X021313Y003943D01*
X021412Y004041D02*
X020817Y004041D01*
X020812Y003155D02*
X039020Y003155D01*
X009130Y007193D02*
X009070Y007193D01*
X009070Y007292D02*
X009130Y007292D01*
X009130Y007390D02*
X009070Y007390D01*
X009070Y007489D02*
X009130Y007489D01*
D16*
X009100Y008100D02*
X022100Y008100D01*
X025100Y007100D01*
X029600Y011600D02*
X033600Y007600D01*
X036600Y007600D01*
X036600Y006600D02*
X038600Y006600D01*
X038600Y014600D01*
X034100Y014600D01*
X033600Y016100D02*
X038100Y016100D01*
X038100Y021100D01*
X037100Y021100D01*
X037100Y020100D01*
X037100Y019100D01*
X033100Y019100D01*
X030100Y018100D02*
X028600Y016600D01*
X026600Y016600D01*
X025600Y015600D01*
X006100Y015600D01*
X005100Y016600D01*
X029600Y016100D02*
X029600Y011600D01*
X030100Y018100D02*
X037100Y018100D01*
X037100Y020100D02*
X033600Y023600D01*
M02*
