%
M48
M72
T01C0.0320
T02C0.0354
T03C0.0394
T04C0.0400
T05C0.0440
%
T01
X9100Y7100
X9100Y8100
X8100Y13600
X7100Y13600
X6100Y18100
X6100Y19100
X14100Y18100
X14100Y17100
X18100Y19600
X18100Y20600
X28600Y16100
X28600Y15100
X33100Y14600
X34100Y14600
X33100Y19100
X33100Y20100
X30100Y20100
X30100Y19100
X29600Y22100
X30600Y22100
X18100Y9100
X17100Y9100
X22100Y8100
X22100Y7100
X22100Y6100
X22100Y5100
X21600Y3600
X20600Y3600
X25100Y5100
X25100Y6100
X25100Y7100
X25100Y8100
X33600Y5100
X33600Y4100
T02
X12600Y7100
X16600Y7100
X27600Y7600
X27600Y5600
X27600Y1600
X27600Y11600
X29600Y16100
X33600Y16100
X33600Y23600
X29600Y23600
X9100Y23600
X5100Y23600
X5100Y16600
X9100Y16600
T03
X36600Y8600
X37600Y8600
X37600Y7600
X36600Y7600
X36600Y6600
X37600Y6600
X37600Y5600
X36600Y5600
X36600Y4600
X37600Y4600
T04
X2100Y17100
X2100Y18100
X2100Y19100
X2100Y20100
X2100Y21100
X2100Y22100
X2100Y23100
X11100Y18100
X12100Y18100
X37100Y18100
X37100Y17100
X37100Y19100
X37100Y20100
X37100Y21100
X37100Y22100
X37100Y23100
T05
X5100Y21100
X10100Y21100
X19600Y18600
X24100Y18100
X26600Y16600
X26600Y12600
X24100Y22100
X19600Y23600
M30
