G75*
G70*
%OFA0B0*%
%FSLAX24Y24*%
%IPPOS*%
%LPD*%
%AMOC8*
5,1,8,0,0,1.08239X$1,22.5*
%
%ADD10OC8,0.0880*%
%ADD11OC8,0.0710*%
%ADD12OC8,0.0840*%
%ADD13C,0.0600*%
%ADD14C,0.0674*%
D10*
X002100Y017100D03*
X002100Y018100D03*
X002100Y019100D03*
X002100Y020100D03*
X002100Y021100D03*
X002100Y022100D03*
X002100Y023100D03*
X011100Y018100D03*
X012100Y018100D03*
X037100Y018100D03*
X037100Y017100D03*
X037100Y019100D03*
X037100Y020100D03*
X037100Y021100D03*
X037100Y022100D03*
X037100Y023100D03*
D11*
X009100Y007100D03*
X009100Y008100D03*
X012600Y007100D03*
X016600Y007100D03*
X017100Y009100D03*
X018100Y009100D03*
X020600Y003600D03*
X021600Y003600D03*
X027600Y001600D03*
X033600Y004100D03*
X033600Y005100D03*
X027600Y005600D03*
X027600Y007600D03*
X027600Y011600D03*
X028600Y015100D03*
X028600Y016100D03*
X029600Y016100D03*
X033100Y014600D03*
X034100Y014600D03*
X033600Y016100D03*
X033100Y019100D03*
X033100Y020100D03*
X030100Y020100D03*
X030100Y019100D03*
X029600Y022100D03*
X030600Y022100D03*
X029600Y023600D03*
X033600Y023600D03*
X018100Y020600D03*
X018100Y019600D03*
X014100Y018100D03*
X014100Y017100D03*
X009100Y016600D03*
X006100Y018100D03*
X006100Y019100D03*
X005100Y016600D03*
X007100Y013600D03*
X008100Y013600D03*
X009100Y023600D03*
X005100Y023600D03*
D12*
X005100Y021100D03*
X010100Y021100D03*
X019600Y018600D03*
X024100Y018100D03*
X026600Y016600D03*
X026600Y012600D03*
X024100Y022100D03*
X019600Y023600D03*
D13*
X021840Y008100D02*
X022360Y008100D01*
X022360Y007100D02*
X021840Y007100D01*
X021840Y006100D02*
X022360Y006100D01*
X022360Y005100D02*
X021840Y005100D01*
X024840Y005100D02*
X025360Y005100D01*
X025360Y006100D02*
X024840Y006100D01*
X024840Y007100D02*
X025360Y007100D01*
X025360Y008100D02*
X024840Y008100D01*
D14*
X036600Y007600D03*
X037600Y007600D03*
X037600Y006600D03*
X036600Y006600D03*
X036600Y005600D03*
X037600Y005600D03*
X037600Y004600D03*
X036600Y004600D03*
X036600Y008600D03*
X037600Y008600D03*
M02*
