G75*
G70*
%OFA0B0*%
%FSLAX24Y24*%
%IPPOS*%
%LPD*%
%AMOC8*
5,1,8,0,0,1.08239X$1,22.5*
%
%ADD10C,0.0000*%
%ADD11C,0.0040*%
%ADD12C,0.0080*%
%ADD13C,0.0060*%
%ADD14R,0.0200X0.0200*%
%ADD15C,0.0020*%
%ADD16R,0.0200X0.0450*%
%ADD17C,0.0100*%
%ADD18C,0.0240*%
%ADD19R,0.0340X0.0240*%
%ADD20C,0.0300*%
%ADD21R,0.1000X0.0200*%
%ADD22R,0.0300X0.0750*%
%ADD23R,0.0290X0.0690*%
%ADD24R,0.0187X0.0327*%
%ADD25R,0.0240X0.0340*%
%ADD26R,0.0450X0.0200*%
%ADD27R,0.0690X0.0290*%
%ADD28R,0.0049X0.0197*%
%ADD29R,0.0128X0.0089*%
%ADD30R,0.0089X0.0049*%
%ADD31R,0.0049X0.0167*%
%ADD32R,0.0138X0.0197*%
%ADD33R,0.0049X0.0236*%
%ADD34R,0.0118X0.0669*%
%ADD35R,0.0276X0.0669*%
%ADD36R,0.0167X0.0128*%
%ADD37R,0.0138X0.0138*%
D10*
X000100Y000100D02*
X000100Y025096D01*
X039470Y025096D01*
X039470Y000100D01*
X000100Y000100D01*
D11*
X003273Y017120D02*
X003427Y017273D01*
X003427Y017580D01*
X003580Y017504D02*
X003580Y017427D01*
X003657Y017350D01*
X003811Y017350D01*
X003887Y017273D01*
X003887Y017197D01*
X003811Y017120D01*
X003657Y017120D01*
X003580Y017197D01*
X003580Y017504D02*
X003657Y017580D01*
X003811Y017580D01*
X003887Y017504D01*
X004041Y017504D02*
X004041Y017427D01*
X004118Y017350D01*
X004271Y017350D01*
X004348Y017273D01*
X004348Y017197D01*
X004271Y017120D01*
X004118Y017120D01*
X004041Y017197D01*
X004041Y017504D02*
X004118Y017580D01*
X004271Y017580D01*
X004348Y017504D01*
X003273Y017120D02*
X003120Y017273D01*
X003120Y017580D01*
X003657Y019120D02*
X003580Y019197D01*
X003657Y019120D02*
X003811Y019120D01*
X003887Y019197D01*
X003887Y019350D01*
X003811Y019427D01*
X003734Y019427D01*
X003580Y019350D01*
X003580Y019580D01*
X003887Y019580D01*
X004041Y019580D02*
X004041Y019273D01*
X004194Y019120D01*
X004348Y019273D01*
X004348Y019580D01*
X004194Y020120D02*
X004348Y020273D01*
X004348Y020580D01*
X004041Y020580D02*
X004041Y020273D01*
X004194Y020120D01*
X003887Y020197D02*
X003811Y020120D01*
X003657Y020120D01*
X003580Y020197D01*
X003580Y020350D02*
X003734Y020427D01*
X003811Y020427D01*
X003887Y020350D01*
X003887Y020197D01*
X003580Y020350D02*
X003580Y020580D01*
X003887Y020580D01*
X003427Y020350D02*
X003120Y020350D01*
X003273Y020197D02*
X003273Y020504D01*
X003657Y021120D02*
X003580Y021197D01*
X003657Y021120D02*
X003811Y021120D01*
X003887Y021197D01*
X003887Y021350D01*
X003811Y021427D01*
X003734Y021427D01*
X003580Y021350D01*
X003580Y021580D01*
X003887Y021580D01*
X004041Y021580D02*
X004041Y021273D01*
X004194Y021120D01*
X004348Y021273D01*
X004348Y021580D01*
X003427Y021350D02*
X003120Y021350D01*
X003273Y021197D02*
X003273Y021504D01*
X003273Y023120D02*
X003427Y023273D01*
X003427Y023580D01*
X003580Y023504D02*
X003580Y023427D01*
X003657Y023350D01*
X003811Y023350D01*
X003887Y023273D01*
X003887Y023197D01*
X003811Y023120D01*
X003657Y023120D01*
X003580Y023197D01*
X003580Y023504D02*
X003657Y023580D01*
X003811Y023580D01*
X003887Y023504D01*
X004041Y023504D02*
X004041Y023427D01*
X004118Y023350D01*
X004271Y023350D01*
X004348Y023273D01*
X004348Y023197D01*
X004271Y023120D01*
X004118Y023120D01*
X004041Y023197D01*
X004041Y023504D02*
X004118Y023580D01*
X004271Y023580D01*
X004348Y023504D01*
X003273Y023120D02*
X003120Y023273D01*
X003120Y023580D01*
X003273Y019504D02*
X003273Y019197D01*
X003120Y019350D02*
X003427Y019350D01*
X007726Y019415D02*
X008474Y019415D01*
X008622Y019317D02*
X008624Y019329D01*
X008629Y019340D01*
X008638Y019349D01*
X008649Y019354D01*
X008661Y019356D01*
X008673Y019354D01*
X008684Y019349D01*
X008693Y019340D01*
X008698Y019329D01*
X008700Y019317D01*
X008698Y019305D01*
X008693Y019294D01*
X008684Y019285D01*
X008673Y019280D01*
X008661Y019278D01*
X008649Y019280D01*
X008638Y019285D01*
X008629Y019294D01*
X008624Y019305D01*
X008622Y019317D01*
X008730Y019258D02*
X008706Y019254D01*
X008684Y019248D01*
X008662Y019237D01*
X008642Y019224D01*
X008625Y019208D01*
X008610Y019190D01*
X008598Y019169D01*
X008589Y019147D01*
X008584Y019124D01*
X008582Y019100D01*
X008584Y019076D01*
X008589Y019053D01*
X008598Y019031D01*
X008610Y019010D01*
X008625Y018992D01*
X008642Y018976D01*
X008662Y018963D01*
X008684Y018952D01*
X008706Y018946D01*
X008730Y018942D01*
X008474Y018785D02*
X007726Y018785D01*
X031120Y006850D02*
X031427Y006850D01*
X031580Y006850D02*
X031734Y006927D01*
X031811Y006927D01*
X031887Y006850D01*
X031887Y006697D01*
X031811Y006620D01*
X031657Y006620D01*
X031580Y006697D01*
X031580Y006850D02*
X031580Y007080D01*
X031887Y007080D01*
X032041Y007080D02*
X032041Y006773D01*
X032194Y006620D01*
X032348Y006773D01*
X032348Y007080D01*
X031273Y007004D02*
X031273Y006697D01*
X031120Y006080D02*
X031120Y005773D01*
X031273Y005620D01*
X031427Y005773D01*
X031427Y006080D01*
X031580Y006004D02*
X031580Y005697D01*
X031657Y005620D01*
X031811Y005620D01*
X031887Y005697D01*
X031887Y006004D01*
X031811Y006080D01*
X031657Y006080D01*
X031580Y006004D01*
X032041Y006080D02*
X032041Y005697D01*
X032118Y005620D01*
X032271Y005620D01*
X032348Y005697D01*
X032348Y006080D01*
X032501Y006080D02*
X032808Y006080D01*
X032655Y006080D02*
X032655Y005620D01*
X032962Y005620D02*
X033268Y006080D01*
X033422Y006004D02*
X033499Y006080D01*
X033652Y006080D01*
X033729Y006004D01*
X033729Y005927D01*
X033422Y005620D01*
X033729Y005620D01*
X032348Y005004D02*
X032271Y005080D01*
X032118Y005080D01*
X032041Y005004D01*
X032041Y004927D01*
X032118Y004850D01*
X032271Y004850D01*
X032348Y004773D01*
X032348Y004697D01*
X032271Y004620D01*
X032118Y004620D01*
X032041Y004697D01*
X031887Y004697D02*
X031811Y004620D01*
X031657Y004620D01*
X031580Y004697D01*
X031427Y004773D02*
X031427Y005080D01*
X031580Y005004D02*
X031580Y004927D01*
X031657Y004850D01*
X031811Y004850D01*
X031887Y004773D01*
X031887Y004697D01*
X031887Y005004D02*
X031811Y005080D01*
X031657Y005080D01*
X031580Y005004D01*
X031427Y004773D02*
X031273Y004620D01*
X031120Y004773D01*
X031120Y005080D01*
X035273Y017120D02*
X035427Y017273D01*
X035427Y017580D01*
X035580Y017504D02*
X035580Y017427D01*
X035657Y017350D01*
X035811Y017350D01*
X035887Y017273D01*
X035887Y017197D01*
X035811Y017120D01*
X035657Y017120D01*
X035580Y017197D01*
X035580Y017504D02*
X035657Y017580D01*
X035811Y017580D01*
X035887Y017504D01*
X036041Y017504D02*
X036041Y017427D01*
X036118Y017350D01*
X036271Y017350D01*
X036348Y017273D01*
X036348Y017197D01*
X036271Y017120D01*
X036118Y017120D01*
X036041Y017197D01*
X036041Y017504D02*
X036118Y017580D01*
X036271Y017580D01*
X036348Y017504D01*
X035273Y017120D02*
X035120Y017273D01*
X035120Y017580D01*
X035657Y019120D02*
X035580Y019197D01*
X035657Y019120D02*
X035811Y019120D01*
X035887Y019197D01*
X035887Y019350D01*
X035811Y019427D01*
X035734Y019427D01*
X035580Y019350D01*
X035580Y019580D01*
X035887Y019580D01*
X036041Y019580D02*
X036041Y019273D01*
X036194Y019120D01*
X036348Y019273D01*
X036348Y019580D01*
X036194Y020120D02*
X036348Y020273D01*
X036348Y020580D01*
X036041Y020580D02*
X036041Y020273D01*
X036194Y020120D01*
X035887Y020197D02*
X035811Y020120D01*
X035657Y020120D01*
X035580Y020197D01*
X035580Y020350D02*
X035734Y020427D01*
X035811Y020427D01*
X035887Y020350D01*
X035887Y020197D01*
X035580Y020350D02*
X035580Y020580D01*
X035887Y020580D01*
X035427Y020350D02*
X035120Y020350D01*
X035273Y020197D02*
X035273Y020504D01*
X035657Y021120D02*
X035580Y021197D01*
X035657Y021120D02*
X035811Y021120D01*
X035887Y021197D01*
X035887Y021350D01*
X035811Y021427D01*
X035734Y021427D01*
X035580Y021350D01*
X035580Y021580D01*
X035887Y021580D01*
X036041Y021580D02*
X036041Y021273D01*
X036194Y021120D01*
X036348Y021273D01*
X036348Y021580D01*
X035427Y021350D02*
X035120Y021350D01*
X035273Y021197D02*
X035273Y021504D01*
X035273Y023120D02*
X035427Y023273D01*
X035427Y023580D01*
X035580Y023504D02*
X035580Y023427D01*
X035657Y023350D01*
X035811Y023350D01*
X035887Y023273D01*
X035887Y023197D01*
X035811Y023120D01*
X035657Y023120D01*
X035580Y023197D01*
X035580Y023504D02*
X035657Y023580D01*
X035811Y023580D01*
X035887Y023504D01*
X036041Y023504D02*
X036041Y023427D01*
X036118Y023350D01*
X036271Y023350D01*
X036348Y023273D01*
X036348Y023197D01*
X036271Y023120D01*
X036118Y023120D01*
X036041Y023197D01*
X036041Y023504D02*
X036118Y023580D01*
X036271Y023580D01*
X036348Y023504D01*
X035273Y023120D02*
X035120Y023273D01*
X035120Y023580D01*
X035273Y019504D02*
X035273Y019197D01*
X035120Y019350D02*
X035427Y019350D01*
D12*
X035552Y018560D02*
X035482Y018490D01*
X035482Y018210D01*
X035552Y018140D01*
X035692Y018140D01*
X035762Y018210D01*
X035942Y018140D02*
X036222Y018140D01*
X035942Y018140D02*
X035942Y018560D01*
X035762Y018490D02*
X035692Y018560D01*
X035552Y018560D01*
X035301Y018350D02*
X035021Y018350D01*
X034841Y018280D02*
X034841Y018210D01*
X034771Y018140D01*
X034631Y018140D01*
X034561Y018210D01*
X034631Y018350D02*
X034771Y018350D01*
X034841Y018280D01*
X034841Y018490D02*
X034771Y018560D01*
X034631Y018560D01*
X034561Y018490D01*
X034561Y018420D01*
X034631Y018350D01*
X034381Y018210D02*
X034311Y018140D01*
X034170Y018140D01*
X034100Y018210D01*
X034100Y018560D01*
X033920Y018490D02*
X033920Y018420D01*
X033850Y018350D01*
X033640Y018350D01*
X033640Y018140D02*
X033850Y018140D01*
X033920Y018210D01*
X033920Y018280D01*
X033850Y018350D01*
X033920Y018490D02*
X033850Y018560D01*
X033640Y018560D01*
X033640Y018140D01*
X034381Y018210D02*
X034381Y018560D01*
X032150Y016310D02*
X031870Y016310D01*
X031690Y016310D02*
X031410Y016030D01*
X031480Y016100D02*
X031690Y015890D01*
X031870Y015890D02*
X031870Y015960D01*
X032150Y016240D01*
X032150Y016310D01*
X031410Y016310D02*
X031410Y015890D01*
X031160Y015890D02*
X031160Y016310D01*
X030949Y016100D01*
X031230Y016100D01*
X033090Y014060D02*
X033090Y013640D01*
X033230Y013640D02*
X032949Y013640D01*
X032949Y013920D02*
X033090Y014060D01*
X033410Y013990D02*
X033410Y013710D01*
X033690Y013990D01*
X033690Y013710D01*
X033620Y013640D01*
X033480Y013640D01*
X033410Y013710D01*
X033410Y013990D02*
X033480Y014060D01*
X033620Y014060D01*
X033690Y013990D01*
X033870Y013850D02*
X034150Y013850D01*
X034080Y013640D02*
X034080Y014060D01*
X033870Y013850D01*
X031810Y012571D02*
X031810Y012291D01*
X031810Y012431D02*
X031390Y012431D01*
X031530Y012291D01*
X031530Y012111D02*
X031460Y012111D01*
X031390Y012041D01*
X031390Y011901D01*
X031460Y011831D01*
X031460Y011650D02*
X031390Y011580D01*
X031390Y011440D01*
X031460Y011370D01*
X031460Y011190D02*
X031530Y011190D01*
X031600Y011120D01*
X031670Y011190D01*
X031740Y011190D01*
X031810Y011120D01*
X031810Y010980D01*
X031740Y010910D01*
X031600Y011050D02*
X031600Y011120D01*
X031460Y011190D02*
X031390Y011120D01*
X031390Y010980D01*
X031460Y010910D01*
X031460Y010730D02*
X031600Y010730D01*
X031670Y010660D01*
X031670Y010449D01*
X031810Y010449D02*
X031390Y010449D01*
X031390Y010660D01*
X031460Y010730D01*
X031460Y010269D02*
X031390Y010199D01*
X031390Y010059D01*
X031460Y009989D01*
X031740Y009989D01*
X031810Y010059D01*
X031810Y010199D01*
X031740Y010269D01*
X031810Y009809D02*
X031390Y009809D01*
X031530Y009669D01*
X031390Y009529D01*
X031810Y009529D01*
X031811Y009060D02*
X031881Y008990D01*
X031881Y008710D01*
X031811Y008640D01*
X031670Y008640D01*
X031600Y008710D01*
X031600Y008990D01*
X031670Y009060D01*
X031811Y009060D01*
X032061Y008990D02*
X032061Y008710D01*
X032131Y008640D01*
X032271Y008640D01*
X032341Y008710D01*
X032521Y008640D02*
X032521Y008920D01*
X032661Y009060D01*
X032801Y008920D01*
X032801Y008640D01*
X032982Y008640D02*
X032982Y009060D01*
X032801Y008850D02*
X032521Y008850D01*
X032341Y008990D02*
X032271Y009060D01*
X032131Y009060D01*
X032061Y008990D01*
X031420Y008640D02*
X031140Y008640D01*
X031140Y009060D01*
X031140Y008060D02*
X031140Y007640D01*
X031420Y007640D01*
X031600Y007710D02*
X031670Y007640D01*
X031811Y007640D01*
X031881Y007710D01*
X031881Y007990D01*
X031811Y008060D01*
X031670Y008060D01*
X031600Y007990D01*
X031600Y007710D01*
X032061Y007710D02*
X032131Y007640D01*
X032271Y007640D01*
X032341Y007710D01*
X032521Y007640D02*
X032521Y007920D01*
X032661Y008060D01*
X032801Y007920D01*
X032801Y007640D01*
X032982Y007640D02*
X032982Y008060D01*
X032801Y007850D02*
X032521Y007850D01*
X032341Y007990D02*
X032271Y008060D01*
X032131Y008060D01*
X032061Y007990D01*
X032061Y007710D01*
X032982Y007640D02*
X033262Y007640D01*
X033442Y007850D02*
X033722Y007850D01*
X033902Y008060D02*
X033902Y007640D01*
X034113Y007640D01*
X034183Y007710D01*
X034183Y007990D01*
X034113Y008060D01*
X033902Y008060D01*
X034363Y007920D02*
X034363Y007640D01*
X034363Y007850D02*
X034643Y007850D01*
X034643Y007920D02*
X034643Y007640D01*
X034890Y007541D02*
X034960Y007611D01*
X035240Y007331D01*
X035310Y007401D01*
X035310Y007541D01*
X035240Y007611D01*
X034960Y007611D01*
X034890Y007541D02*
X034890Y007401D01*
X034960Y007331D01*
X035240Y007331D01*
X035240Y007150D02*
X035170Y007150D01*
X035100Y007080D01*
X035100Y006870D01*
X035240Y006870D01*
X035310Y006940D01*
X035310Y007080D01*
X035240Y007150D01*
X034960Y007010D02*
X035100Y006870D01*
X035100Y006690D02*
X035100Y006410D01*
X034960Y006230D02*
X035240Y006230D01*
X035310Y006160D01*
X035310Y006019D01*
X035240Y005949D01*
X034960Y006230D01*
X034890Y006160D01*
X034890Y006019D01*
X034960Y005949D01*
X035240Y005949D01*
X035310Y005769D02*
X035310Y005489D01*
X035310Y005629D02*
X034890Y005629D01*
X035030Y005489D01*
X035100Y005309D02*
X035240Y005309D01*
X035310Y005239D01*
X035310Y005099D01*
X035240Y005029D01*
X035100Y005029D02*
X035030Y005169D01*
X035030Y005239D01*
X035100Y005309D01*
X034890Y005309D02*
X034890Y005029D01*
X035100Y005029D01*
X035030Y004848D02*
X034960Y004848D01*
X034890Y004778D01*
X034890Y004638D01*
X034960Y004568D01*
X035030Y004848D02*
X035310Y004568D01*
X035310Y004848D01*
X035811Y003106D02*
X038389Y003106D01*
X038389Y005859D01*
X038143Y005859D02*
X038754Y005859D01*
X038754Y002663D01*
X035446Y002663D01*
X035446Y010537D01*
X038754Y010537D01*
X038754Y008938D01*
X038635Y008938D01*
X038635Y008356D01*
X038754Y008356D01*
X038754Y007341D01*
X038754Y005859D01*
X038143Y005859D02*
X038143Y007341D01*
X038754Y007341D01*
X038389Y007341D02*
X038389Y010094D01*
X035811Y010094D01*
X035811Y003106D01*
X034960Y007010D02*
X034890Y007150D01*
X034960Y007791D02*
X034890Y007861D01*
X034890Y008001D01*
X034960Y008071D01*
X035240Y007791D01*
X035310Y007861D01*
X035310Y008001D01*
X035240Y008071D01*
X034960Y008071D01*
X034960Y008251D02*
X034890Y008321D01*
X034890Y008462D01*
X034960Y008532D01*
X035030Y008532D01*
X035310Y008251D01*
X035310Y008532D01*
X034643Y008640D02*
X034363Y008640D01*
X034363Y009060D01*
X034183Y008990D02*
X034113Y009060D01*
X033972Y009060D01*
X033902Y008990D01*
X033902Y008710D01*
X033972Y008640D01*
X034113Y008640D01*
X034183Y008710D01*
X033722Y008850D02*
X033442Y008850D01*
X033262Y008640D02*
X032982Y008640D01*
X034363Y007920D02*
X034503Y008060D01*
X034643Y007920D01*
X034960Y007791D02*
X035240Y007791D01*
X031810Y011370D02*
X031530Y011650D01*
X031460Y011650D01*
X031810Y011650D02*
X031810Y011370D01*
X031810Y011831D02*
X031530Y012111D01*
X031810Y012111D02*
X031810Y011831D01*
X027810Y010080D02*
X027390Y010080D01*
X027600Y009870D01*
X027600Y010150D01*
X027810Y009690D02*
X027600Y009480D01*
X027670Y009410D02*
X027390Y009690D01*
X027390Y009410D02*
X027810Y009410D01*
X027810Y009230D02*
X027810Y008949D01*
X027530Y009230D01*
X027460Y009230D01*
X027390Y009160D01*
X027390Y009019D01*
X027460Y008949D01*
X024841Y009240D02*
X024561Y008960D01*
X024561Y008890D01*
X024381Y008890D02*
X024100Y008890D01*
X024241Y008890D02*
X024241Y009310D01*
X024100Y009170D01*
X023920Y009030D02*
X023850Y009100D01*
X023640Y009100D01*
X023640Y008960D01*
X023710Y008890D01*
X023850Y008890D01*
X023920Y008960D01*
X023920Y009030D01*
X023780Y009240D02*
X023640Y009100D01*
X023460Y009100D02*
X023390Y009030D01*
X023180Y009030D01*
X023180Y008890D02*
X023180Y009310D01*
X023390Y009310D01*
X023460Y009240D01*
X023460Y009100D01*
X023780Y009240D02*
X023920Y009310D01*
X024561Y009310D02*
X024841Y009310D01*
X024841Y009240D01*
X022999Y009240D02*
X022929Y009310D01*
X022789Y009310D01*
X022719Y009240D01*
X022719Y008960D01*
X022789Y008890D01*
X022929Y008890D01*
X022999Y008960D01*
X022539Y008890D02*
X022539Y009310D01*
X022399Y009170D01*
X022259Y009310D01*
X022259Y008890D01*
X020810Y007571D02*
X020810Y007291D01*
X020810Y007431D02*
X020390Y007431D01*
X020530Y007291D01*
X020810Y007111D02*
X020810Y006831D01*
X020810Y006971D02*
X020390Y006971D01*
X020530Y006831D01*
X020390Y006650D02*
X020810Y006650D01*
X020390Y006370D01*
X020810Y006370D01*
X020740Y006190D02*
X020670Y006190D01*
X020600Y006120D01*
X020600Y005910D01*
X020740Y005910D01*
X020810Y005980D01*
X020810Y006120D01*
X020740Y006190D01*
X020460Y006050D02*
X020600Y005910D01*
X020600Y005730D02*
X020460Y005730D01*
X020390Y005660D01*
X020390Y005449D01*
X020810Y005449D01*
X020670Y005449D02*
X020670Y005660D01*
X020600Y005730D01*
X020460Y006050D02*
X020390Y006190D01*
X020460Y005269D02*
X020390Y005199D01*
X020390Y005059D01*
X020460Y004989D01*
X020740Y004989D01*
X020810Y005059D01*
X020810Y005199D01*
X020740Y005269D01*
X020810Y004809D02*
X020390Y004809D01*
X020530Y004669D01*
X020390Y004529D01*
X020810Y004529D01*
X020910Y004490D02*
X020980Y004560D01*
X021120Y004560D01*
X021190Y004490D01*
X020910Y004210D01*
X020980Y004140D01*
X021120Y004140D01*
X021190Y004210D01*
X021190Y004490D01*
X021370Y004350D02*
X021580Y004560D01*
X021580Y004140D01*
X021650Y004350D02*
X021370Y004350D01*
X020910Y004210D02*
X020910Y004490D01*
X020590Y004560D02*
X020590Y004140D01*
X020730Y004140D02*
X020449Y004140D01*
X020449Y004420D02*
X020590Y004560D01*
X015150Y006890D02*
X014940Y007100D01*
X014870Y007030D02*
X015150Y007310D01*
X014870Y007310D02*
X014870Y006890D01*
X014690Y006960D02*
X014620Y006890D01*
X014480Y006890D01*
X014410Y006960D01*
X014690Y007240D01*
X014690Y006960D01*
X014410Y006960D02*
X014410Y007240D01*
X014480Y007310D01*
X014620Y007310D01*
X014690Y007240D01*
X014230Y006890D02*
X013949Y006890D01*
X014090Y006890D02*
X014090Y007310D01*
X013949Y007170D01*
X008560Y007230D02*
X008560Y006949D01*
X008560Y007090D02*
X008140Y007090D01*
X008280Y006949D01*
X008210Y007410D02*
X008140Y007480D01*
X008140Y007620D01*
X008210Y007690D01*
X008490Y007410D01*
X008560Y007480D01*
X008560Y007620D01*
X008490Y007690D01*
X008210Y007690D01*
X008140Y007870D02*
X008350Y007870D01*
X008280Y008010D01*
X008280Y008080D01*
X008350Y008150D01*
X008490Y008150D01*
X008560Y008080D01*
X008560Y007940D01*
X008490Y007870D01*
X008140Y007870D02*
X008140Y008150D01*
X008210Y007410D02*
X008490Y007410D01*
X007650Y006060D02*
X007370Y005780D01*
X007440Y005850D02*
X007650Y005640D01*
X007370Y005640D02*
X007370Y006060D01*
X007190Y005990D02*
X006910Y005710D01*
X006980Y005640D01*
X007120Y005640D01*
X007190Y005710D01*
X007190Y005990D01*
X007120Y006060D01*
X006980Y006060D01*
X006910Y005990D01*
X006910Y005710D01*
X006730Y005640D02*
X006449Y005640D01*
X006730Y005920D01*
X006730Y005990D01*
X006660Y006060D01*
X006519Y006060D01*
X006449Y005990D01*
X006519Y005060D02*
X006449Y004990D01*
X006519Y005060D02*
X006660Y005060D01*
X006730Y004990D01*
X006730Y004920D01*
X006449Y004640D01*
X006730Y004640D01*
X006910Y004640D02*
X007190Y004640D01*
X007050Y004640D02*
X007050Y005060D01*
X006910Y004920D01*
X007370Y004780D02*
X007650Y005060D01*
X007370Y005060D02*
X007370Y004640D01*
X007440Y004850D02*
X007650Y004640D01*
X004060Y005140D02*
X004060Y005280D01*
X004060Y005210D02*
X003640Y005210D01*
X003640Y005140D02*
X003640Y005280D01*
X003710Y005447D02*
X003640Y005517D01*
X003640Y005657D01*
X003710Y005727D01*
X003780Y005727D01*
X004060Y005447D01*
X004060Y005727D01*
X003990Y005907D02*
X003710Y005907D01*
X003640Y005977D01*
X003640Y006118D01*
X003710Y006188D01*
X003710Y006368D02*
X003640Y006438D01*
X003640Y006578D01*
X003710Y006648D01*
X003780Y006648D01*
X004060Y006368D01*
X004060Y006648D01*
X003990Y006188D02*
X004060Y006118D01*
X004060Y005977D01*
X003990Y005907D01*
X002560Y005907D02*
X002560Y006047D01*
X002560Y005977D02*
X002140Y005977D01*
X002140Y005907D01*
X002140Y005670D02*
X002070Y005670D01*
X002280Y005670D02*
X002560Y005670D01*
X002560Y005600D02*
X002560Y005741D01*
X002280Y005670D02*
X002280Y005600D01*
X002140Y005420D02*
X002560Y005420D01*
X002560Y005140D02*
X002140Y005140D01*
X002280Y005280D01*
X002140Y005420D01*
X001560Y005420D02*
X001560Y005140D01*
X001140Y005140D01*
X001140Y005420D01*
X001210Y005600D02*
X001140Y005670D01*
X001140Y005811D01*
X001210Y005881D01*
X001140Y006061D02*
X001560Y006061D01*
X001560Y006341D01*
X001350Y006201D02*
X001350Y006061D01*
X001140Y006061D02*
X001140Y006341D01*
X001490Y005881D02*
X001560Y005811D01*
X001560Y005670D01*
X001490Y005600D01*
X001210Y005600D01*
X001350Y005280D02*
X001350Y005140D01*
X002350Y006214D02*
X002280Y006284D01*
X002280Y006424D01*
X002350Y006494D01*
X002420Y006494D01*
X002420Y006214D01*
X002490Y006214D02*
X002350Y006214D01*
X002490Y006214D02*
X002560Y006284D01*
X002560Y006424D01*
X002560Y006675D02*
X002560Y006885D01*
X002490Y006955D01*
X002420Y006885D01*
X002420Y006745D01*
X002350Y006675D01*
X002280Y006745D01*
X002280Y006955D01*
X002280Y007135D02*
X002280Y007275D01*
X002210Y007205D02*
X002490Y007205D01*
X002560Y007275D01*
X002490Y007442D02*
X002350Y007442D01*
X002280Y007512D01*
X002280Y007652D01*
X002350Y007722D01*
X002490Y007722D01*
X002560Y007652D01*
X002560Y007512D01*
X002490Y007442D01*
X002560Y007902D02*
X002280Y007902D01*
X002280Y008113D01*
X002350Y008183D01*
X002560Y008183D01*
X002490Y008363D02*
X002350Y008363D01*
X002280Y008433D01*
X002280Y008573D01*
X002350Y008643D01*
X002420Y008643D01*
X002420Y008363D01*
X002490Y008363D02*
X002560Y008433D01*
X002560Y008573D01*
X002560Y009284D02*
X002560Y009564D01*
X002560Y009424D02*
X002140Y009424D01*
X002280Y009284D01*
X002350Y009744D02*
X002350Y009954D01*
X002420Y010024D01*
X002490Y010024D01*
X002560Y009954D01*
X002560Y009744D01*
X002140Y009744D01*
X002140Y009954D01*
X002210Y010024D01*
X002280Y010024D01*
X002350Y009954D01*
X001560Y010274D02*
X001560Y010414D01*
X001490Y010485D01*
X001420Y010485D01*
X001350Y010414D01*
X001350Y010274D01*
X001280Y010204D01*
X001210Y010204D01*
X001140Y010274D01*
X001140Y010414D01*
X001210Y010485D01*
X001280Y010665D02*
X001140Y010805D01*
X001560Y010805D01*
X001560Y010665D02*
X001560Y010945D01*
X001560Y011125D02*
X001280Y011405D01*
X001210Y011405D01*
X001140Y011335D01*
X001140Y011195D01*
X001210Y011125D01*
X001560Y011125D02*
X001560Y011405D01*
X001350Y012046D02*
X001350Y012326D01*
X001490Y012967D02*
X001560Y013037D01*
X001560Y013177D01*
X001490Y013247D01*
X001350Y013247D01*
X001350Y013107D01*
X001210Y013247D02*
X001140Y013177D01*
X001140Y013037D01*
X001210Y012967D01*
X001490Y012967D01*
X001560Y013427D02*
X001280Y013427D01*
X001420Y013427D02*
X001280Y013567D01*
X001280Y013637D01*
X001350Y013811D02*
X001490Y013811D01*
X001560Y013881D01*
X001560Y014021D01*
X001490Y014091D01*
X001350Y014091D01*
X001280Y014021D01*
X001280Y013881D01*
X001350Y013811D01*
X001280Y014271D02*
X001490Y014271D01*
X001560Y014341D01*
X001560Y014551D01*
X001280Y014551D01*
X001280Y014732D02*
X001280Y014942D01*
X001350Y015012D01*
X001490Y015012D01*
X001560Y014942D01*
X001560Y014732D01*
X001700Y014732D02*
X001280Y014732D01*
X001350Y015652D02*
X001350Y015862D01*
X001420Y015933D01*
X001490Y015933D01*
X001560Y015862D01*
X001560Y015722D01*
X001490Y015652D01*
X001350Y015652D01*
X001210Y015792D01*
X001140Y015933D01*
X003140Y018140D02*
X003350Y018140D01*
X003420Y018210D01*
X003420Y018280D01*
X003350Y018350D01*
X003140Y018350D01*
X003140Y018140D02*
X003140Y018560D01*
X003350Y018560D01*
X003420Y018490D01*
X003420Y018420D01*
X003350Y018350D01*
X003600Y018210D02*
X003670Y018140D01*
X003811Y018140D01*
X003881Y018210D01*
X003881Y018560D01*
X004061Y018490D02*
X004061Y018420D01*
X004131Y018350D01*
X004271Y018350D01*
X004341Y018280D01*
X004341Y018210D01*
X004271Y018140D01*
X004131Y018140D01*
X004061Y018210D01*
X004061Y018490D02*
X004131Y018560D01*
X004271Y018560D01*
X004341Y018490D01*
X004521Y018350D02*
X004801Y018350D01*
X004982Y018210D02*
X005052Y018140D01*
X005192Y018140D01*
X005262Y018210D01*
X005140Y018090D02*
X005560Y018090D01*
X005442Y018140D02*
X005722Y018140D01*
X005560Y018230D02*
X005560Y017949D01*
X005442Y018140D02*
X005442Y018560D01*
X005560Y018620D02*
X005490Y018690D01*
X005210Y018690D01*
X005490Y018410D01*
X005560Y018480D01*
X005560Y018620D01*
X005490Y018410D02*
X005210Y018410D01*
X005140Y018480D01*
X005140Y018620D01*
X005210Y018690D01*
X005192Y018560D02*
X005052Y018560D01*
X004982Y018490D01*
X004982Y018210D01*
X005140Y018090D02*
X005280Y017949D01*
X005262Y018490D02*
X005192Y018560D01*
X005350Y018870D02*
X005350Y019150D01*
X005560Y019080D02*
X005140Y019080D01*
X005350Y018870D01*
X003600Y018560D02*
X003600Y018210D01*
X001310Y018640D02*
X000890Y018640D01*
X000890Y018850D01*
X000960Y018920D01*
X001100Y018920D01*
X001170Y018850D01*
X001170Y018640D01*
X001170Y018780D02*
X001310Y018920D01*
X001310Y019100D02*
X001310Y019381D01*
X001310Y019561D02*
X000890Y019561D01*
X001030Y019701D01*
X000890Y019841D01*
X001310Y019841D01*
X001240Y020021D02*
X000960Y020021D01*
X000890Y020091D01*
X000890Y020231D01*
X000960Y020301D01*
X001240Y020301D01*
X001310Y020231D01*
X001310Y020091D01*
X001240Y020021D01*
X000890Y020482D02*
X000890Y020762D01*
X000890Y020622D02*
X001310Y020622D01*
X001310Y020942D02*
X000890Y020942D01*
X000890Y021222D01*
X001100Y021082D02*
X001100Y020942D01*
X001310Y020942D02*
X001310Y021222D01*
X001310Y021863D02*
X001310Y022003D01*
X001310Y021933D02*
X000890Y021933D01*
X000890Y021863D02*
X000890Y022003D01*
X000960Y022170D02*
X000890Y022240D01*
X000890Y022380D01*
X000960Y022450D01*
X001030Y022450D01*
X001310Y022170D01*
X001310Y022450D01*
X001240Y022630D02*
X001310Y022700D01*
X001310Y022840D01*
X001240Y022910D01*
X001240Y022630D02*
X000960Y022630D01*
X000890Y022700D01*
X000890Y022840D01*
X000960Y022910D01*
X003140Y022560D02*
X003140Y022140D01*
X003350Y022140D01*
X003420Y022210D01*
X003420Y022280D01*
X003350Y022350D01*
X003140Y022350D01*
X003350Y022350D02*
X003420Y022420D01*
X003420Y022490D01*
X003350Y022560D01*
X003140Y022560D01*
X003600Y022560D02*
X003600Y022210D01*
X003670Y022140D01*
X003811Y022140D01*
X003881Y022210D01*
X003881Y022560D01*
X004061Y022490D02*
X004061Y022420D01*
X004131Y022350D01*
X004271Y022350D01*
X004341Y022280D01*
X004341Y022210D01*
X004271Y022140D01*
X004131Y022140D01*
X004061Y022210D01*
X004061Y022490D02*
X004131Y022560D01*
X004271Y022560D01*
X004341Y022490D01*
X004521Y022350D02*
X004801Y022350D01*
X004982Y022140D02*
X005192Y022140D01*
X005262Y022210D01*
X005262Y022490D01*
X005192Y022560D01*
X004982Y022560D01*
X004982Y022140D01*
X005442Y022140D02*
X005442Y022420D01*
X005582Y022560D01*
X005722Y022420D01*
X005722Y022140D01*
X005722Y022350D02*
X005442Y022350D01*
X006660Y023390D02*
X006660Y023810D01*
X006449Y023600D01*
X006730Y023600D01*
X006910Y023460D02*
X006910Y023390D01*
X006910Y023460D02*
X007190Y023740D01*
X007190Y023810D01*
X006910Y023810D01*
X007370Y023740D02*
X007370Y023460D01*
X007650Y023740D01*
X007650Y023460D01*
X007580Y023390D01*
X007440Y023390D01*
X007370Y023460D01*
X007370Y023740D02*
X007440Y023810D01*
X007580Y023810D01*
X007650Y023740D01*
X007825Y021310D02*
X007965Y021310D01*
X008035Y021240D01*
X007755Y020960D01*
X007825Y020890D01*
X007965Y020890D01*
X008035Y020960D01*
X008035Y021240D01*
X007825Y021310D02*
X007755Y021240D01*
X007755Y020960D01*
X007595Y020960D02*
X007595Y020890D01*
X007525Y020890D01*
X007525Y020960D01*
X007595Y020960D01*
X007345Y020890D02*
X007065Y020890D01*
X007205Y020890D02*
X007205Y021310D01*
X007065Y021170D01*
X007449Y018560D02*
X007449Y018140D01*
X007730Y018140D01*
X007910Y018140D02*
X008190Y018140D01*
X008370Y018140D02*
X008580Y018140D01*
X008650Y018210D01*
X008650Y018490D01*
X008580Y018560D01*
X008370Y018560D01*
X008370Y018140D01*
X008050Y018350D02*
X007910Y018350D01*
X007910Y018560D02*
X007910Y018140D01*
X007910Y018560D02*
X008190Y018560D01*
X007580Y016810D02*
X007440Y016810D01*
X007370Y016740D01*
X007370Y016460D01*
X007650Y016740D01*
X007650Y016460D01*
X007580Y016390D01*
X007440Y016390D01*
X007370Y016460D01*
X007190Y016740D02*
X006910Y016460D01*
X006910Y016390D01*
X006660Y016390D02*
X006660Y016810D01*
X006449Y016600D01*
X006730Y016600D01*
X006910Y016810D02*
X007190Y016810D01*
X007190Y016740D01*
X007580Y016810D02*
X007650Y016740D01*
X007620Y013060D02*
X007480Y013060D01*
X007410Y012990D01*
X007410Y012710D01*
X007690Y012990D01*
X007690Y012710D01*
X007620Y012640D01*
X007480Y012640D01*
X007410Y012710D01*
X007230Y012640D02*
X006949Y012640D01*
X007090Y012640D02*
X007090Y013060D01*
X006949Y012920D01*
X007620Y013060D02*
X007690Y012990D01*
X007870Y013060D02*
X007870Y012850D01*
X008010Y012920D01*
X008080Y012920D01*
X008150Y012850D01*
X008150Y012710D01*
X008080Y012640D01*
X007940Y012640D01*
X007870Y012710D01*
X007870Y013060D02*
X008150Y013060D01*
X006310Y011501D02*
X006310Y011361D01*
X006240Y011291D01*
X006100Y011291D02*
X006030Y011431D01*
X006030Y011501D01*
X006100Y011571D01*
X006240Y011571D01*
X006310Y011501D01*
X006100Y011291D02*
X005890Y011291D01*
X005890Y011571D01*
X005960Y011111D02*
X005890Y011041D01*
X005890Y010901D01*
X005960Y010831D01*
X005960Y010650D02*
X006240Y010370D01*
X006310Y010370D01*
X006310Y010190D02*
X006310Y009910D01*
X006310Y010050D02*
X005890Y010050D01*
X006030Y009910D01*
X006100Y009730D02*
X006170Y009660D01*
X006170Y009449D01*
X006310Y009449D02*
X005890Y009449D01*
X005890Y009660D01*
X005960Y009730D01*
X006100Y009730D01*
X006240Y009269D02*
X006310Y009199D01*
X006310Y009059D01*
X006240Y008989D01*
X005960Y008989D01*
X005890Y009059D01*
X005890Y009199D01*
X005960Y009269D01*
X005890Y008809D02*
X006310Y008809D01*
X006310Y008529D02*
X005890Y008529D01*
X006030Y008669D01*
X005890Y008809D01*
X004060Y008670D02*
X003780Y008670D01*
X003780Y008810D02*
X003780Y008880D01*
X003780Y008810D02*
X003920Y008670D01*
X003920Y008490D02*
X003920Y008279D01*
X003990Y008209D01*
X004060Y008279D01*
X004060Y008490D01*
X003850Y008490D01*
X003780Y008419D01*
X003780Y008279D01*
X003850Y008029D02*
X003780Y007959D01*
X003780Y007819D01*
X003850Y007749D01*
X003990Y007749D01*
X004060Y007819D01*
X004060Y007959D01*
X003990Y008029D01*
X003850Y008029D01*
X003920Y007569D02*
X003990Y007569D01*
X004060Y007499D01*
X004060Y007288D01*
X003640Y007288D01*
X003640Y007499D01*
X003710Y007569D01*
X003780Y007569D01*
X003850Y007499D01*
X003850Y007288D01*
X003850Y007499D02*
X003920Y007569D01*
X003990Y009053D02*
X003850Y009053D01*
X003780Y009123D01*
X003780Y009334D01*
X003640Y009334D02*
X004060Y009334D01*
X004060Y009123D01*
X003990Y009053D01*
X005890Y010370D02*
X005890Y010650D01*
X005960Y010650D01*
X006310Y010831D02*
X006030Y011111D01*
X005960Y011111D01*
X006310Y011111D02*
X006310Y010831D01*
X001560Y010274D02*
X001490Y010204D01*
X001350Y009564D02*
X001350Y009284D01*
X001350Y008643D02*
X001350Y008363D01*
X001140Y008573D01*
X001560Y008573D01*
X001490Y008183D02*
X001560Y008113D01*
X001560Y007972D01*
X001490Y007902D01*
X001490Y007722D02*
X001560Y007652D01*
X001560Y007512D01*
X001490Y007442D01*
X001350Y007442D02*
X001280Y007582D01*
X001280Y007652D01*
X001350Y007722D01*
X001490Y007722D01*
X001350Y007442D02*
X001140Y007442D01*
X001140Y007722D01*
X001210Y007902D02*
X001140Y007972D01*
X001140Y008113D01*
X001210Y008183D01*
X001280Y008183D01*
X001350Y008113D01*
X001420Y008183D01*
X001490Y008183D01*
X001350Y008113D02*
X001350Y008042D01*
X001350Y007262D02*
X001350Y006982D01*
X001140Y007192D01*
X001560Y007192D01*
X015529Y015890D02*
X015529Y016310D01*
X015669Y016170D01*
X015809Y016310D01*
X015809Y015890D01*
X015989Y015960D02*
X015989Y016240D01*
X016059Y016310D01*
X016199Y016310D01*
X016269Y016240D01*
X016449Y016310D02*
X016660Y016310D01*
X016730Y016240D01*
X016730Y016100D01*
X016660Y016030D01*
X016449Y016030D01*
X016449Y015890D02*
X016449Y016310D01*
X016269Y015960D02*
X016199Y015890D01*
X016059Y015890D01*
X015989Y015960D01*
X016910Y015890D02*
X017190Y015890D01*
X017050Y015890D02*
X017050Y016310D01*
X016910Y016170D01*
X017370Y016310D02*
X017650Y016310D01*
X017650Y016240D01*
X017370Y015960D01*
X017370Y015890D01*
X017831Y015890D02*
X018111Y016170D01*
X018111Y016240D01*
X018041Y016310D01*
X017901Y016310D01*
X017831Y016240D01*
X017831Y015890D02*
X018111Y015890D01*
X018291Y015960D02*
X018361Y015890D01*
X018501Y015890D01*
X018571Y015960D01*
X018571Y016100D01*
X018501Y016170D01*
X018431Y016170D01*
X018291Y016100D01*
X018291Y016310D01*
X018571Y016310D01*
X021640Y016150D02*
X021920Y015870D01*
X021850Y015940D02*
X022060Y016150D01*
X022060Y015870D02*
X021640Y015870D01*
X021640Y015550D02*
X022060Y015550D01*
X022060Y015410D02*
X022060Y015690D01*
X021780Y015410D02*
X021640Y015550D01*
X021710Y015230D02*
X021640Y015160D01*
X021640Y015019D01*
X021710Y014949D01*
X021710Y015230D02*
X021780Y015230D01*
X022060Y014949D01*
X022060Y015230D01*
X022060Y017449D02*
X021780Y017730D01*
X021710Y017730D01*
X021640Y017660D01*
X021640Y017519D01*
X021710Y017449D01*
X022060Y017449D02*
X022060Y017730D01*
X021990Y017910D02*
X021710Y017910D01*
X021640Y017980D01*
X021640Y018120D01*
X021710Y018190D01*
X021990Y017910D01*
X022060Y017980D01*
X022060Y018120D01*
X021990Y018190D01*
X021710Y018190D01*
X021640Y018370D02*
X022060Y018370D01*
X021920Y018370D02*
X021640Y018650D01*
X021850Y018440D02*
X022060Y018650D01*
X022890Y018899D02*
X023310Y018899D01*
X023310Y018759D02*
X023310Y019039D01*
X023310Y019219D02*
X022890Y019219D01*
X023310Y019499D01*
X022890Y019499D01*
X022890Y019680D02*
X023100Y019680D01*
X023030Y019820D01*
X023030Y019890D01*
X023100Y019960D01*
X023240Y019960D01*
X023310Y019890D01*
X023310Y019750D01*
X023240Y019680D01*
X022890Y019680D02*
X022890Y019960D01*
X022960Y020140D02*
X022890Y020210D01*
X022890Y020350D01*
X022960Y020420D01*
X023030Y020420D01*
X023100Y020350D01*
X023100Y020210D01*
X023030Y020140D01*
X022960Y020140D01*
X023100Y020210D02*
X023170Y020140D01*
X023240Y020140D01*
X023310Y020210D01*
X023310Y020350D01*
X023240Y020420D01*
X023170Y020420D01*
X023100Y020350D01*
X023030Y020600D02*
X022890Y020741D01*
X023310Y020741D01*
X023310Y020881D02*
X023310Y020600D01*
X023310Y021061D02*
X023240Y021061D01*
X022960Y021341D01*
X022890Y021341D01*
X022890Y021061D01*
X019810Y021120D02*
X019810Y020980D01*
X019740Y020910D01*
X019460Y021190D01*
X019740Y021190D01*
X019810Y021120D01*
X019740Y020910D02*
X019460Y020910D01*
X019390Y020980D01*
X019390Y021120D01*
X019460Y021190D01*
X019460Y021370D02*
X019390Y021440D01*
X019390Y021580D01*
X019460Y021650D01*
X019740Y021370D01*
X019810Y021440D01*
X019810Y021580D01*
X019740Y021650D01*
X019460Y021650D01*
X019460Y021370D02*
X019740Y021370D01*
X019810Y020730D02*
X019810Y020449D01*
X019810Y020590D02*
X019390Y020590D01*
X019530Y020449D01*
X019060Y020440D02*
X018990Y020370D01*
X019060Y020440D02*
X019060Y020580D01*
X018990Y020650D01*
X018850Y020650D01*
X018780Y020580D01*
X018780Y020510D01*
X018850Y020370D01*
X018640Y020370D01*
X018640Y020650D01*
X018710Y020190D02*
X018990Y019910D01*
X019060Y019980D01*
X019060Y020120D01*
X018990Y020190D01*
X018710Y020190D01*
X018640Y020120D01*
X018640Y019980D01*
X018710Y019910D01*
X018990Y019910D01*
X019060Y019730D02*
X019060Y019449D01*
X019060Y019590D02*
X018640Y019590D01*
X018780Y019449D01*
X015060Y018080D02*
X015060Y017940D01*
X014990Y017870D01*
X014850Y017870D02*
X014780Y018010D01*
X014780Y018080D01*
X014850Y018150D01*
X014990Y018150D01*
X015060Y018080D01*
X014850Y017870D02*
X014640Y017870D01*
X014640Y018150D01*
X014710Y017690D02*
X014990Y017410D01*
X015060Y017480D01*
X015060Y017620D01*
X014990Y017690D01*
X014710Y017690D01*
X014640Y017620D01*
X014640Y017480D01*
X014710Y017410D01*
X014990Y017410D01*
X015060Y017230D02*
X015060Y016949D01*
X015060Y017090D02*
X014640Y017090D01*
X014780Y016949D01*
X022890Y018899D02*
X023030Y018759D01*
X025890Y018699D02*
X025890Y018559D01*
X025960Y018489D01*
X026240Y018489D01*
X026310Y018559D01*
X026310Y018699D01*
X026240Y018769D01*
X026310Y018949D02*
X026030Y018949D01*
X025890Y019090D01*
X026030Y019230D01*
X026310Y019230D01*
X026240Y019410D02*
X026310Y019480D01*
X026310Y019620D01*
X026240Y019690D01*
X025960Y019690D01*
X025890Y019620D01*
X025890Y019480D01*
X025960Y019410D01*
X026030Y019410D01*
X026100Y019480D01*
X026100Y019690D01*
X026100Y019870D02*
X026100Y020080D01*
X026170Y020150D01*
X026240Y020150D01*
X026310Y020080D01*
X026310Y019940D01*
X026240Y019870D01*
X026100Y019870D01*
X025960Y020010D01*
X025890Y020150D01*
X025960Y020331D02*
X025890Y020401D01*
X025890Y020541D01*
X025960Y020611D01*
X026240Y020331D01*
X026310Y020401D01*
X026310Y020541D01*
X026240Y020611D01*
X025960Y020611D01*
X025960Y020791D02*
X025890Y020861D01*
X025890Y021001D01*
X025960Y021071D01*
X026240Y020791D01*
X026310Y020861D01*
X026310Y021001D01*
X026240Y021071D01*
X025960Y021071D01*
X025960Y020791D02*
X026240Y020791D01*
X026240Y020331D02*
X025960Y020331D01*
X026100Y019230D02*
X026100Y018949D01*
X025960Y018769D02*
X025890Y018699D01*
X025960Y018309D02*
X026100Y018309D01*
X026170Y018239D01*
X026170Y018029D01*
X026310Y018029D02*
X025890Y018029D01*
X025890Y018239D01*
X025960Y018309D01*
X028060Y016150D02*
X028060Y015870D01*
X028060Y016010D02*
X027640Y016010D01*
X027780Y015870D01*
X027710Y015690D02*
X027990Y015410D01*
X028060Y015480D01*
X028060Y015620D01*
X027990Y015690D01*
X027710Y015690D01*
X027640Y015620D01*
X027640Y015480D01*
X027710Y015410D01*
X027990Y015410D01*
X028060Y015230D02*
X028060Y014949D01*
X028060Y015090D02*
X027640Y015090D01*
X027780Y014949D01*
X025810Y014850D02*
X025810Y014710D01*
X025740Y014640D01*
X025670Y014640D01*
X025600Y014710D01*
X025600Y014850D01*
X025670Y014920D01*
X025740Y014920D01*
X025810Y014850D01*
X025600Y014850D02*
X025530Y014920D01*
X025460Y014920D01*
X025390Y014850D01*
X025390Y014710D01*
X025460Y014640D01*
X025530Y014640D01*
X025600Y014710D01*
X025600Y014460D02*
X025740Y014460D01*
X025810Y014390D01*
X025810Y014250D01*
X025740Y014180D01*
X025600Y014180D02*
X025530Y014320D01*
X025530Y014390D01*
X025600Y014460D01*
X025390Y014460D02*
X025390Y014180D01*
X025600Y014180D01*
X025810Y013999D02*
X025390Y013999D01*
X025390Y013719D02*
X025810Y013999D01*
X025810Y013719D02*
X025390Y013719D01*
X025390Y013399D02*
X025810Y013399D01*
X025810Y013259D02*
X025810Y013539D01*
X025530Y013259D02*
X025390Y013399D01*
X025530Y015100D02*
X025390Y015241D01*
X025810Y015241D01*
X025810Y015381D02*
X025810Y015100D01*
X025810Y015561D02*
X025740Y015561D01*
X025460Y015841D01*
X025390Y015841D01*
X025390Y015561D01*
X029140Y019090D02*
X029560Y019090D01*
X029560Y019230D02*
X029560Y018949D01*
X029280Y018949D02*
X029140Y019090D01*
X029210Y019410D02*
X029140Y019480D01*
X029140Y019620D01*
X029210Y019690D01*
X029490Y019410D01*
X029560Y019480D01*
X029560Y019620D01*
X029490Y019690D01*
X029210Y019690D01*
X029350Y019870D02*
X029140Y020080D01*
X029560Y020080D01*
X029350Y020150D02*
X029350Y019870D01*
X029490Y019410D02*
X029210Y019410D01*
X029449Y021140D02*
X029730Y021140D01*
X029590Y021140D02*
X029590Y021560D01*
X029449Y021420D01*
X029910Y021490D02*
X029910Y021210D01*
X030190Y021490D01*
X030190Y021210D01*
X030120Y021140D01*
X029980Y021140D01*
X029910Y021210D01*
X029910Y021490D02*
X029980Y021560D01*
X030120Y021560D01*
X030190Y021490D01*
X030370Y021420D02*
X030510Y021560D01*
X030510Y021140D01*
X030370Y021140D02*
X030650Y021140D01*
X033640Y022140D02*
X033850Y022140D01*
X033920Y022210D01*
X033920Y022280D01*
X033850Y022350D01*
X033640Y022350D01*
X033640Y022140D02*
X033640Y022560D01*
X033850Y022560D01*
X033920Y022490D01*
X033920Y022420D01*
X033850Y022350D01*
X034100Y022210D02*
X034170Y022140D01*
X034311Y022140D01*
X034381Y022210D01*
X034381Y022560D01*
X034561Y022490D02*
X034561Y022420D01*
X034631Y022350D01*
X034771Y022350D01*
X034841Y022280D01*
X034841Y022210D01*
X034771Y022140D01*
X034631Y022140D01*
X034561Y022210D01*
X034561Y022490D02*
X034631Y022560D01*
X034771Y022560D01*
X034841Y022490D01*
X035021Y022350D02*
X035301Y022350D01*
X035482Y022140D02*
X035692Y022140D01*
X035762Y022210D01*
X035762Y022490D01*
X035692Y022560D01*
X035482Y022560D01*
X035482Y022140D01*
X035942Y022140D02*
X035942Y022420D01*
X036082Y022560D01*
X036222Y022420D01*
X036222Y022140D01*
X036222Y022350D02*
X035942Y022350D01*
X034100Y022210D02*
X034100Y022560D01*
X032150Y023740D02*
X031870Y023460D01*
X031870Y023390D01*
X031690Y023390D02*
X031480Y023600D01*
X031410Y023530D02*
X031690Y023810D01*
X031870Y023810D02*
X032150Y023810D01*
X032150Y023740D01*
X031410Y023810D02*
X031410Y023390D01*
X031160Y023390D02*
X031160Y023810D01*
X030949Y023600D01*
X031230Y023600D01*
X037890Y022340D02*
X037890Y022200D01*
X037960Y022130D01*
X038240Y022130D01*
X038310Y022200D01*
X038310Y022340D01*
X038240Y022410D01*
X037960Y022410D02*
X037890Y022340D01*
X037960Y021950D02*
X037890Y021880D01*
X037890Y021740D01*
X037960Y021670D01*
X037890Y021503D02*
X037890Y021363D01*
X037890Y021433D02*
X038310Y021433D01*
X038310Y021363D02*
X038310Y021503D01*
X038310Y021670D02*
X038030Y021950D01*
X037960Y021950D01*
X038310Y021950D02*
X038310Y021670D01*
X038310Y020722D02*
X038170Y020582D01*
X038170Y020652D02*
X038170Y020442D01*
X038310Y020442D02*
X037890Y020442D01*
X037890Y020652D01*
X037960Y020722D01*
X038100Y020722D01*
X038170Y020652D01*
X038310Y020262D02*
X038310Y019982D01*
X037890Y019982D01*
X037890Y020262D01*
X038100Y020122D02*
X038100Y019982D01*
X037890Y019801D02*
X037890Y019521D01*
X037890Y019661D02*
X038310Y019661D01*
X038240Y019341D02*
X038310Y019271D01*
X038310Y019131D01*
X038240Y019061D01*
X038100Y019131D02*
X038100Y019271D01*
X038170Y019341D01*
X038240Y019341D01*
X038100Y019131D02*
X038030Y019061D01*
X037960Y019061D01*
X037890Y019131D01*
X037890Y019271D01*
X037960Y019341D01*
X038030Y018881D02*
X037890Y018741D01*
X038030Y018600D01*
X038310Y018600D01*
X038310Y018420D02*
X037890Y018420D01*
X038030Y018280D01*
X037890Y018140D01*
X038310Y018140D01*
X038100Y018600D02*
X038100Y018881D01*
X038030Y018881D02*
X038310Y018881D01*
X027810Y004080D02*
X027390Y004080D01*
X027600Y003870D01*
X027600Y004150D01*
X027810Y003690D02*
X027600Y003480D01*
X027670Y003410D02*
X027390Y003690D01*
X027390Y003410D02*
X027810Y003410D01*
X027810Y003230D02*
X027810Y002949D01*
X027530Y003230D01*
X027460Y003230D01*
X027390Y003160D01*
X027390Y003019D01*
X027460Y002949D01*
X001310Y019100D02*
X000890Y019100D01*
X000890Y019381D01*
X001100Y019241D02*
X001100Y019100D01*
D13*
X001600Y018850D02*
X001850Y018600D01*
X001600Y018350D01*
X001600Y017850D01*
X001850Y017600D01*
X001600Y017350D01*
X001600Y016850D01*
X001850Y016600D01*
X002350Y016600D01*
X002600Y016850D01*
X002600Y017350D01*
X002350Y017600D01*
X002600Y017850D01*
X002600Y018350D01*
X002350Y018600D01*
X002600Y018850D01*
X002600Y019350D01*
X002350Y019600D01*
X002600Y019850D01*
X002600Y020350D01*
X002350Y020600D01*
X002600Y020850D01*
X002600Y021350D01*
X002350Y021600D01*
X002600Y021850D01*
X002600Y022350D01*
X002350Y022600D01*
X002600Y022850D01*
X002600Y023350D01*
X002350Y023600D01*
X001850Y023600D01*
X001600Y023350D01*
X001600Y022850D01*
X001850Y022600D01*
X001600Y022350D01*
X001600Y021850D01*
X001850Y021600D01*
X001600Y021350D01*
X001600Y020850D01*
X001850Y020600D01*
X001600Y020350D01*
X001600Y019850D01*
X001850Y019600D01*
X001600Y019350D01*
X001600Y018850D01*
X005850Y016950D02*
X005850Y016250D01*
X005852Y016233D01*
X005856Y016216D01*
X005863Y016200D01*
X005873Y016186D01*
X005886Y016173D01*
X005900Y016163D01*
X005916Y016156D01*
X005933Y016152D01*
X005950Y016150D01*
X006100Y016150D01*
X006150Y016200D01*
X008050Y016200D01*
X008100Y016150D01*
X008250Y016150D01*
X008267Y016152D01*
X008284Y016156D01*
X008300Y016163D01*
X008314Y016173D01*
X008327Y016186D01*
X008337Y016200D01*
X008344Y016216D01*
X008348Y016233D01*
X008350Y016250D01*
X008350Y016950D01*
X008348Y016967D01*
X008344Y016984D01*
X008337Y017000D01*
X008327Y017014D01*
X008314Y017027D01*
X008300Y017037D01*
X008284Y017044D01*
X008267Y017048D01*
X008250Y017050D01*
X008100Y017050D01*
X008050Y017000D01*
X006150Y017000D01*
X006100Y017050D01*
X005950Y017050D01*
X005933Y017048D01*
X005916Y017044D01*
X005900Y017037D01*
X005886Y017027D01*
X005873Y017014D01*
X005863Y017000D01*
X005856Y016984D01*
X005852Y016967D01*
X005850Y016950D01*
X006100Y018100D02*
X006100Y018450D01*
X006100Y018500D01*
X006100Y018700D02*
X006100Y018750D01*
X006100Y019100D01*
X006450Y020650D02*
X006600Y020650D01*
X006650Y020700D01*
X008550Y020700D01*
X008600Y020650D01*
X008750Y020650D01*
X008767Y020652D01*
X008784Y020656D01*
X008800Y020663D01*
X008814Y020673D01*
X008827Y020686D01*
X008837Y020700D01*
X008844Y020716D01*
X008848Y020733D01*
X008850Y020750D01*
X008850Y021450D01*
X008848Y021467D01*
X008844Y021484D01*
X008837Y021500D01*
X008827Y021514D01*
X008814Y021527D01*
X008800Y021537D01*
X008784Y021544D01*
X008767Y021548D01*
X008750Y021550D01*
X008600Y021550D01*
X008550Y021500D01*
X006650Y021500D01*
X006600Y021550D01*
X006450Y021550D01*
X006433Y021548D01*
X006416Y021544D01*
X006400Y021537D01*
X006386Y021527D01*
X006373Y021514D01*
X006363Y021500D01*
X006356Y021484D01*
X006352Y021467D01*
X006350Y021450D01*
X006350Y020750D01*
X006352Y020733D01*
X006356Y020716D01*
X006363Y020700D01*
X006373Y020686D01*
X006386Y020673D01*
X006400Y020663D01*
X006416Y020656D01*
X006433Y020652D01*
X006450Y020650D01*
X006100Y023150D02*
X006150Y023200D01*
X008050Y023200D01*
X008100Y023150D01*
X008250Y023150D01*
X008267Y023152D01*
X008284Y023156D01*
X008300Y023163D01*
X008314Y023173D01*
X008327Y023186D01*
X008337Y023200D01*
X008344Y023216D01*
X008348Y023233D01*
X008350Y023250D01*
X008350Y023950D01*
X008348Y023967D01*
X008344Y023984D01*
X008337Y024000D01*
X008327Y024014D01*
X008314Y024027D01*
X008300Y024037D01*
X008284Y024044D01*
X008267Y024048D01*
X008250Y024050D01*
X008100Y024050D01*
X008050Y024000D01*
X006150Y024000D01*
X006100Y024050D01*
X005950Y024050D01*
X005933Y024048D01*
X005916Y024044D01*
X005900Y024037D01*
X005886Y024027D01*
X005873Y024014D01*
X005863Y024000D01*
X005856Y023984D01*
X005852Y023967D01*
X005850Y023950D01*
X005850Y023250D01*
X005852Y023233D01*
X005856Y023216D01*
X005863Y023200D01*
X005873Y023186D01*
X005886Y023173D01*
X005900Y023163D01*
X005916Y023156D01*
X005933Y023152D01*
X005950Y023150D01*
X006100Y023150D01*
X010850Y018600D02*
X011350Y018600D01*
X011600Y018350D01*
X011850Y018600D01*
X012350Y018600D01*
X012600Y018350D01*
X012600Y017850D01*
X012350Y017600D01*
X011850Y017600D01*
X011600Y017850D01*
X011350Y017600D01*
X010850Y017600D01*
X010600Y017850D01*
X010600Y018350D01*
X010850Y018600D01*
X014100Y018100D02*
X014100Y017750D01*
X014100Y017700D01*
X014100Y017500D02*
X014100Y017450D01*
X014100Y017100D01*
X016330Y016750D02*
X016330Y018450D01*
X016332Y018473D01*
X016337Y018496D01*
X016346Y018518D01*
X016359Y018538D01*
X016374Y018556D01*
X016392Y018571D01*
X016412Y018584D01*
X016434Y018593D01*
X016457Y018598D01*
X016480Y018600D01*
X016900Y018600D01*
X017300Y018600D01*
X017720Y018600D01*
X017743Y018598D01*
X017766Y018593D01*
X017788Y018584D01*
X017808Y018571D01*
X017826Y018556D01*
X017841Y018538D01*
X017854Y018518D01*
X017863Y018496D01*
X017868Y018473D01*
X017870Y018450D01*
X017870Y016750D01*
X017868Y016727D01*
X017863Y016704D01*
X017854Y016682D01*
X017841Y016662D01*
X017826Y016644D01*
X017808Y016629D01*
X017788Y016616D01*
X017766Y016607D01*
X017743Y016602D01*
X017720Y016600D01*
X016480Y016600D01*
X016457Y016602D01*
X016434Y016607D01*
X016412Y016616D01*
X016392Y016629D01*
X016374Y016644D01*
X016359Y016662D01*
X016346Y016682D01*
X016337Y016704D01*
X016332Y016727D01*
X016330Y016750D01*
X016900Y018600D02*
X016902Y018573D01*
X016907Y018546D01*
X016917Y018520D01*
X016929Y018496D01*
X016945Y018474D01*
X016963Y018454D01*
X016985Y018437D01*
X017008Y018422D01*
X017033Y018412D01*
X017059Y018404D01*
X017086Y018400D01*
X017114Y018400D01*
X017141Y018404D01*
X017167Y018412D01*
X017192Y018422D01*
X017215Y018437D01*
X017237Y018454D01*
X017255Y018474D01*
X017271Y018496D01*
X017283Y018520D01*
X017293Y018546D01*
X017298Y018573D01*
X017300Y018600D01*
X018100Y019600D02*
X018100Y019950D01*
X018100Y020000D01*
X018100Y020200D02*
X018100Y020250D01*
X018100Y020600D01*
X019150Y020100D02*
X019200Y020150D01*
X019200Y022050D01*
X019150Y022100D01*
X019150Y022250D01*
X019152Y022267D01*
X019156Y022284D01*
X019163Y022300D01*
X019173Y022314D01*
X019186Y022327D01*
X019200Y022337D01*
X019216Y022344D01*
X019233Y022348D01*
X019250Y022350D01*
X019950Y022350D01*
X019967Y022348D01*
X019984Y022344D01*
X020000Y022337D01*
X020014Y022327D01*
X020027Y022314D01*
X020037Y022300D01*
X020044Y022284D01*
X020048Y022267D01*
X020050Y022250D01*
X020050Y022100D01*
X020000Y022050D01*
X020000Y020150D01*
X020050Y020100D01*
X020050Y019950D01*
X020048Y019933D01*
X020044Y019916D01*
X020037Y019900D01*
X020027Y019886D01*
X020014Y019873D01*
X020000Y019863D01*
X019984Y019856D01*
X019967Y019852D01*
X019950Y019850D01*
X019250Y019850D01*
X019233Y019852D01*
X019216Y019856D01*
X019200Y019863D01*
X019186Y019873D01*
X019173Y019886D01*
X019163Y019900D01*
X019156Y019916D01*
X019152Y019933D01*
X019150Y019950D01*
X019150Y020100D01*
X020780Y018475D02*
X020780Y017720D01*
X021420Y017720D02*
X021420Y018475D01*
X023600Y019300D02*
X024600Y019300D01*
X024600Y020900D01*
X023600Y020900D01*
X023600Y019300D01*
X024100Y019500D02*
X024100Y020100D01*
X023850Y020100D01*
X024100Y020100D02*
X024350Y020100D01*
X024100Y020100D02*
X023850Y019700D01*
X024350Y019700D01*
X024100Y020100D01*
X024100Y020350D01*
X026600Y020220D02*
X026600Y018980D01*
X026602Y018957D01*
X026607Y018934D01*
X026616Y018912D01*
X026629Y018892D01*
X026644Y018874D01*
X026662Y018859D01*
X026682Y018846D01*
X026704Y018837D01*
X026727Y018832D01*
X026750Y018830D01*
X028450Y018830D01*
X028473Y018832D01*
X028496Y018837D01*
X028518Y018846D01*
X028538Y018859D01*
X028556Y018874D01*
X028571Y018892D01*
X028584Y018912D01*
X028593Y018934D01*
X028598Y018957D01*
X028600Y018980D01*
X028600Y019400D01*
X028600Y019800D01*
X028600Y020220D01*
X028598Y020243D01*
X028593Y020266D01*
X028584Y020288D01*
X028571Y020308D01*
X028556Y020326D01*
X028538Y020341D01*
X028518Y020354D01*
X028496Y020363D01*
X028473Y020368D01*
X028450Y020370D01*
X026750Y020370D01*
X026727Y020368D01*
X026704Y020363D01*
X026682Y020354D01*
X026662Y020341D01*
X026644Y020326D01*
X026629Y020308D01*
X026616Y020288D01*
X026607Y020266D01*
X026602Y020243D01*
X026600Y020220D01*
X028600Y019800D02*
X028573Y019798D01*
X028546Y019793D01*
X028520Y019783D01*
X028496Y019771D01*
X028474Y019755D01*
X028454Y019737D01*
X028437Y019715D01*
X028422Y019692D01*
X028412Y019667D01*
X028404Y019641D01*
X028400Y019614D01*
X028400Y019586D01*
X028404Y019559D01*
X028412Y019533D01*
X028422Y019508D01*
X028437Y019485D01*
X028454Y019463D01*
X028474Y019445D01*
X028496Y019429D01*
X028520Y019417D01*
X028546Y019407D01*
X028573Y019402D01*
X028600Y019400D01*
X030100Y019450D02*
X030100Y019100D01*
X030100Y019450D02*
X030100Y019500D01*
X030100Y019700D02*
X030100Y019750D01*
X030100Y020100D01*
X033100Y020100D02*
X033100Y019750D01*
X033100Y019700D01*
X033100Y019500D02*
X033100Y019450D01*
X033100Y019100D01*
X036600Y018850D02*
X036600Y019350D01*
X036850Y019600D01*
X036600Y019850D01*
X036600Y020350D01*
X036850Y020600D01*
X036600Y020850D01*
X036600Y021350D01*
X036850Y021600D01*
X036600Y021850D01*
X036600Y022350D01*
X036850Y022600D01*
X036600Y022850D01*
X036600Y023350D01*
X036850Y023600D01*
X037350Y023600D01*
X037600Y023350D01*
X037600Y022850D01*
X037350Y022600D01*
X037600Y022350D01*
X037600Y021850D01*
X037350Y021600D01*
X037600Y021350D01*
X037600Y020850D01*
X037350Y020600D01*
X037600Y020350D01*
X037600Y019850D01*
X037350Y019600D01*
X037600Y019350D01*
X037600Y018850D01*
X037350Y018600D01*
X037600Y018350D01*
X037600Y017850D01*
X037350Y017600D01*
X037600Y017350D01*
X037600Y016850D01*
X037350Y016600D01*
X036850Y016600D01*
X036600Y016850D01*
X036600Y017350D01*
X036850Y017600D01*
X036600Y017850D01*
X036600Y018350D01*
X036850Y018600D01*
X036600Y018850D01*
X032850Y016450D02*
X032850Y015750D01*
X032848Y015733D01*
X032844Y015716D01*
X032837Y015700D01*
X032827Y015686D01*
X032814Y015673D01*
X032800Y015663D01*
X032784Y015656D01*
X032767Y015652D01*
X032750Y015650D01*
X032600Y015650D01*
X032550Y015700D01*
X030650Y015700D01*
X030600Y015650D01*
X030450Y015650D01*
X030433Y015652D01*
X030416Y015656D01*
X030400Y015663D01*
X030386Y015673D01*
X030373Y015686D01*
X030363Y015700D01*
X030356Y015716D01*
X030352Y015733D01*
X030350Y015750D01*
X030350Y016450D01*
X030352Y016467D01*
X030356Y016484D01*
X030363Y016500D01*
X030373Y016514D01*
X030386Y016527D01*
X030400Y016537D01*
X030416Y016544D01*
X030433Y016548D01*
X030450Y016550D01*
X030600Y016550D01*
X030650Y016500D01*
X032550Y016500D01*
X032600Y016550D01*
X032750Y016550D01*
X032767Y016548D01*
X032784Y016544D01*
X032800Y016537D01*
X032814Y016527D01*
X032827Y016514D01*
X032837Y016500D01*
X032844Y016484D01*
X032848Y016467D01*
X032850Y016450D01*
X033100Y014600D02*
X033450Y014600D01*
X033500Y014600D01*
X033700Y014600D02*
X033750Y014600D01*
X034100Y014600D01*
X033208Y011380D02*
X031992Y011380D01*
X031992Y010819D01*
X033208Y010819D01*
X033208Y011380D01*
X028050Y010750D02*
X028050Y010600D01*
X028000Y010550D01*
X028000Y008650D01*
X028050Y008600D01*
X028050Y008450D01*
X028048Y008433D01*
X028044Y008416D01*
X028037Y008400D01*
X028027Y008386D01*
X028014Y008373D01*
X028000Y008363D01*
X027984Y008356D01*
X027967Y008352D01*
X027950Y008350D01*
X027250Y008350D01*
X027233Y008352D01*
X027216Y008356D01*
X027200Y008363D01*
X027186Y008373D01*
X027173Y008386D01*
X027163Y008400D01*
X027156Y008416D01*
X027152Y008433D01*
X027150Y008450D01*
X027150Y008600D01*
X027200Y008650D01*
X027200Y010550D01*
X027150Y010600D01*
X027150Y010750D01*
X027152Y010767D01*
X027156Y010784D01*
X027163Y010800D01*
X027173Y010814D01*
X027186Y010827D01*
X027200Y010837D01*
X027216Y010844D01*
X027233Y010848D01*
X027250Y010850D01*
X027950Y010850D01*
X027967Y010848D01*
X027984Y010844D01*
X028000Y010837D01*
X028014Y010827D01*
X028027Y010814D01*
X028037Y010800D01*
X028044Y010784D01*
X028048Y010767D01*
X028050Y010750D01*
X024750Y008600D02*
X022450Y008600D01*
X022450Y004600D01*
X023200Y004600D01*
X023202Y004639D01*
X023208Y004678D01*
X023217Y004716D01*
X023230Y004753D01*
X023247Y004789D01*
X023267Y004822D01*
X023291Y004854D01*
X023317Y004883D01*
X023346Y004909D01*
X023378Y004933D01*
X023411Y004953D01*
X023447Y004970D01*
X023484Y004983D01*
X023522Y004992D01*
X023561Y004998D01*
X023600Y005000D01*
X023639Y004998D01*
X023678Y004992D01*
X023716Y004983D01*
X023753Y004970D01*
X023789Y004953D01*
X023822Y004933D01*
X023854Y004909D01*
X023883Y004883D01*
X023909Y004854D01*
X023933Y004822D01*
X023953Y004789D01*
X023970Y004753D01*
X023983Y004716D01*
X023992Y004678D01*
X023998Y004639D01*
X024000Y004600D01*
X024750Y004600D01*
X024750Y008600D01*
X020100Y006720D02*
X020100Y005480D01*
X020098Y005457D01*
X020093Y005434D01*
X020084Y005412D01*
X020071Y005392D01*
X020056Y005374D01*
X020038Y005359D01*
X020018Y005346D01*
X019996Y005337D01*
X019973Y005332D01*
X019950Y005330D01*
X018250Y005330D01*
X018227Y005332D01*
X018204Y005337D01*
X018182Y005346D01*
X018162Y005359D01*
X018144Y005374D01*
X018129Y005392D01*
X018116Y005412D01*
X018107Y005434D01*
X018102Y005457D01*
X018100Y005480D01*
X018100Y005900D01*
X018100Y006300D01*
X018100Y006720D01*
X018102Y006743D01*
X018107Y006766D01*
X018116Y006788D01*
X018129Y006808D01*
X018144Y006826D01*
X018162Y006841D01*
X018182Y006854D01*
X018204Y006863D01*
X018227Y006868D01*
X018250Y006870D01*
X019950Y006870D01*
X019973Y006868D01*
X019996Y006863D01*
X020018Y006854D01*
X020038Y006841D01*
X020056Y006826D01*
X020071Y006808D01*
X020084Y006788D01*
X020093Y006766D01*
X020098Y006743D01*
X020100Y006720D01*
X018100Y006300D02*
X018127Y006298D01*
X018154Y006293D01*
X018180Y006283D01*
X018204Y006271D01*
X018226Y006255D01*
X018246Y006237D01*
X018263Y006215D01*
X018278Y006192D01*
X018288Y006167D01*
X018296Y006141D01*
X018300Y006114D01*
X018300Y006086D01*
X018296Y006059D01*
X018288Y006033D01*
X018278Y006008D01*
X018263Y005985D01*
X018246Y005963D01*
X018226Y005945D01*
X018204Y005929D01*
X018180Y005917D01*
X018154Y005907D01*
X018127Y005902D01*
X018100Y005900D01*
X015850Y006750D02*
X015850Y007450D01*
X015848Y007467D01*
X015844Y007484D01*
X015837Y007500D01*
X015827Y007514D01*
X015814Y007527D01*
X015800Y007537D01*
X015784Y007544D01*
X015767Y007548D01*
X015750Y007550D01*
X015600Y007550D01*
X015550Y007500D01*
X013650Y007500D01*
X013600Y007550D01*
X013450Y007550D01*
X013433Y007548D01*
X013416Y007544D01*
X013400Y007537D01*
X013386Y007527D01*
X013373Y007514D01*
X013363Y007500D01*
X013356Y007484D01*
X013352Y007467D01*
X013350Y007450D01*
X013350Y006750D01*
X013352Y006733D01*
X013356Y006716D01*
X013363Y006700D01*
X013373Y006686D01*
X013386Y006673D01*
X013400Y006663D01*
X013416Y006656D01*
X013433Y006652D01*
X013450Y006650D01*
X013600Y006650D01*
X013650Y006700D01*
X015550Y006700D01*
X015600Y006650D01*
X015750Y006650D01*
X015767Y006652D01*
X015784Y006656D01*
X015800Y006663D01*
X015814Y006673D01*
X015827Y006686D01*
X015837Y006700D01*
X015844Y006716D01*
X015848Y006733D01*
X015850Y006750D01*
X017100Y009100D02*
X017450Y009100D01*
X017500Y009100D01*
X017700Y009100D02*
X017750Y009100D01*
X018100Y009100D01*
X019225Y010280D02*
X019980Y010280D01*
X019980Y010920D02*
X019225Y010920D01*
X019475Y011780D02*
X018720Y011780D01*
X018720Y012420D02*
X019475Y012420D01*
X020780Y015220D02*
X020780Y015975D01*
X021420Y015975D02*
X021420Y015220D01*
X026100Y015400D02*
X026100Y013800D01*
X027100Y013800D01*
X027100Y015400D01*
X026100Y015400D01*
X026600Y014850D02*
X026600Y014600D01*
X026350Y014600D01*
X026600Y014600D02*
X026350Y014200D01*
X026850Y014200D01*
X026600Y014600D01*
X026850Y014600D01*
X026600Y014600D02*
X026600Y014000D01*
X028600Y015100D02*
X028600Y015450D01*
X028600Y015500D01*
X028600Y015700D02*
X028600Y015750D01*
X028600Y016100D01*
X029600Y022100D02*
X029950Y022100D01*
X030000Y022100D01*
X030200Y022100D02*
X030250Y022100D01*
X030600Y022100D01*
X030600Y023150D02*
X030450Y023150D01*
X030433Y023152D01*
X030416Y023156D01*
X030400Y023163D01*
X030386Y023173D01*
X030373Y023186D01*
X030363Y023200D01*
X030356Y023216D01*
X030352Y023233D01*
X030350Y023250D01*
X030350Y023950D01*
X030352Y023967D01*
X030356Y023984D01*
X030363Y024000D01*
X030373Y024014D01*
X030386Y024027D01*
X030400Y024037D01*
X030416Y024044D01*
X030433Y024048D01*
X030450Y024050D01*
X030600Y024050D01*
X030650Y024000D01*
X032550Y024000D01*
X032600Y024050D01*
X032750Y024050D01*
X032767Y024048D01*
X032784Y024044D01*
X032800Y024037D01*
X032814Y024027D01*
X032827Y024014D01*
X032837Y024000D01*
X032844Y023984D01*
X032848Y023967D01*
X032850Y023950D01*
X032850Y023250D01*
X032848Y023233D01*
X032844Y023216D01*
X032837Y023200D01*
X032827Y023186D01*
X032814Y023173D01*
X032800Y023163D01*
X032784Y023156D01*
X032767Y023152D01*
X032750Y023150D01*
X032600Y023150D01*
X032550Y023200D01*
X030650Y023200D01*
X030600Y023150D01*
X008600Y010720D02*
X008600Y010300D01*
X008600Y009900D01*
X008600Y009480D01*
X008598Y009457D01*
X008593Y009434D01*
X008584Y009412D01*
X008571Y009392D01*
X008556Y009374D01*
X008538Y009359D01*
X008518Y009346D01*
X008496Y009337D01*
X008473Y009332D01*
X008450Y009330D01*
X006750Y009330D01*
X006727Y009332D01*
X006704Y009337D01*
X006682Y009346D01*
X006662Y009359D01*
X006644Y009374D01*
X006629Y009392D01*
X006616Y009412D01*
X006607Y009434D01*
X006602Y009457D01*
X006600Y009480D01*
X006600Y010720D01*
X006602Y010743D01*
X006607Y010766D01*
X006616Y010788D01*
X006629Y010808D01*
X006644Y010826D01*
X006662Y010841D01*
X006682Y010854D01*
X006704Y010863D01*
X006727Y010868D01*
X006750Y010870D01*
X008450Y010870D01*
X008473Y010868D01*
X008496Y010863D01*
X008518Y010854D01*
X008538Y010841D01*
X008556Y010826D01*
X008571Y010808D01*
X008584Y010788D01*
X008593Y010766D01*
X008598Y010743D01*
X008600Y010720D01*
X008600Y010300D02*
X008573Y010298D01*
X008546Y010293D01*
X008520Y010283D01*
X008496Y010271D01*
X008474Y010255D01*
X008454Y010237D01*
X008437Y010215D01*
X008422Y010192D01*
X008412Y010167D01*
X008404Y010141D01*
X008400Y010114D01*
X008400Y010086D01*
X008404Y010059D01*
X008412Y010033D01*
X008422Y010008D01*
X008437Y009985D01*
X008454Y009963D01*
X008474Y009945D01*
X008496Y009929D01*
X008520Y009917D01*
X008546Y009907D01*
X008573Y009902D01*
X008600Y009900D01*
X009100Y008100D02*
X009100Y007750D01*
X009100Y007700D01*
X009100Y007500D02*
X009100Y007450D01*
X009100Y007100D01*
X007475Y006920D02*
X006720Y006920D01*
X006720Y006280D02*
X007475Y006280D01*
X007480Y004420D02*
X006725Y004420D01*
X006725Y003780D02*
X007480Y003780D01*
X020600Y003600D02*
X020950Y003600D01*
X021000Y003600D01*
X021200Y003600D02*
X021250Y003600D01*
X021600Y003600D01*
X027150Y002600D02*
X027150Y002450D01*
X027152Y002433D01*
X027156Y002416D01*
X027163Y002400D01*
X027173Y002386D01*
X027186Y002373D01*
X027200Y002363D01*
X027216Y002356D01*
X027233Y002352D01*
X027250Y002350D01*
X027950Y002350D01*
X027967Y002352D01*
X027984Y002356D01*
X028000Y002363D01*
X028014Y002373D01*
X028027Y002386D01*
X028037Y002400D01*
X028044Y002416D01*
X028048Y002433D01*
X028050Y002450D01*
X028050Y002600D01*
X028000Y002650D01*
X028000Y004550D01*
X028050Y004600D01*
X028050Y004750D01*
X028048Y004767D01*
X028044Y004784D01*
X028037Y004800D01*
X028027Y004814D01*
X028014Y004827D01*
X028000Y004837D01*
X027984Y004844D01*
X027967Y004848D01*
X027950Y004850D01*
X027250Y004850D01*
X027233Y004848D01*
X027216Y004844D01*
X027200Y004837D01*
X027186Y004827D01*
X027173Y004814D01*
X027163Y004800D01*
X027156Y004784D01*
X027152Y004767D01*
X027150Y004750D01*
X027150Y004600D01*
X027200Y004550D01*
X027200Y002650D01*
X027150Y002600D01*
X033600Y004100D02*
X033600Y004450D01*
X033600Y004500D01*
X033600Y004700D02*
X033600Y004750D01*
X033600Y005100D01*
X008100Y013600D02*
X007750Y013600D01*
X007700Y013600D01*
X007500Y013600D02*
X007450Y013600D01*
X007100Y013600D01*
D14*
X002100Y017100D03*
X002100Y018100D03*
X002100Y019100D03*
X002100Y020100D03*
X002100Y021100D03*
X002100Y022100D03*
X002100Y023100D03*
X011100Y018100D03*
X012100Y018100D03*
X037100Y018100D03*
X037100Y017100D03*
X037100Y019100D03*
X037100Y020100D03*
X037100Y021100D03*
X037100Y022100D03*
X037100Y023100D03*
D15*
X028600Y020230D02*
X026600Y020230D01*
X016470Y018600D02*
X016470Y016600D01*
X008600Y010730D02*
X006600Y010730D01*
X018100Y005470D02*
X020100Y005470D01*
D16*
X019850Y005105D03*
X019350Y005115D03*
X018850Y005105D03*
X018350Y005105D03*
X018350Y007095D03*
X018850Y007095D03*
X019350Y007095D03*
X019850Y007095D03*
X008350Y009105D03*
X007850Y009105D03*
X007350Y009105D03*
X006850Y009105D03*
X007350Y011085D03*
X006850Y011095D03*
X007850Y011095D03*
X008350Y011095D03*
X026850Y018605D03*
X027350Y018605D03*
X027850Y018605D03*
X028350Y018605D03*
X028350Y020595D03*
X027850Y020595D03*
X027350Y020585D03*
X026850Y020595D03*
D17*
X029800Y019700D02*
X030100Y019700D01*
X030400Y019700D01*
X030400Y019500D02*
X030100Y019500D01*
X029800Y019500D01*
X032800Y019500D02*
X033100Y019500D01*
X033400Y019500D01*
X033400Y019700D02*
X033100Y019700D01*
X032800Y019700D01*
X030200Y021800D02*
X030200Y022100D01*
X030200Y022400D01*
X030000Y022400D02*
X030000Y022100D01*
X030000Y021800D01*
X028900Y015700D02*
X028600Y015700D01*
X028300Y015700D01*
X028300Y015500D02*
X028600Y015500D01*
X028900Y015500D01*
X033500Y014900D02*
X033500Y014600D01*
X033500Y014300D01*
X033700Y014300D02*
X033700Y014600D01*
X033700Y014900D01*
X018400Y020000D02*
X018100Y020000D01*
X017800Y020000D01*
X017800Y020200D02*
X018100Y020200D01*
X018400Y020200D01*
X014400Y017700D02*
X014100Y017700D01*
X013800Y017700D01*
X013800Y017500D02*
X014100Y017500D01*
X014400Y017500D01*
X007700Y013900D02*
X007700Y013600D01*
X007700Y013300D01*
X007500Y013300D02*
X007500Y013600D01*
X007500Y013900D01*
X006850Y018350D02*
X006850Y018600D01*
X006600Y018600D01*
X006400Y018500D02*
X006100Y018500D01*
X005800Y018500D01*
X005800Y018700D02*
X006100Y018700D01*
X006400Y018700D01*
X006850Y018600D02*
X007100Y018600D01*
X006850Y018600D02*
X006850Y018850D01*
X017500Y009400D02*
X017500Y009100D01*
X017500Y008800D01*
X017700Y008800D02*
X017700Y009100D01*
X017700Y009400D01*
X009400Y007700D02*
X009100Y007700D01*
X008800Y007700D01*
X008800Y007500D02*
X009100Y007500D01*
X009400Y007500D01*
X021000Y003900D02*
X021000Y003600D01*
X021000Y003300D01*
X021200Y003300D02*
X021200Y003600D01*
X021200Y003900D01*
X033300Y004500D02*
X033600Y004500D01*
X033900Y004500D01*
X033900Y004700D02*
X033600Y004700D01*
X033300Y004700D01*
D18*
X027600Y005200D02*
X027600Y005600D01*
X027600Y007600D02*
X027600Y008000D01*
X027600Y011200D02*
X027600Y011600D01*
X029600Y016100D02*
X030000Y016100D01*
X033200Y016100D02*
X033600Y016100D01*
X033600Y023600D02*
X033200Y023600D01*
X030000Y023600D02*
X029600Y023600D01*
X019600Y023600D02*
X019600Y022700D01*
X019600Y019500D02*
X019600Y018600D01*
X010100Y021100D02*
X009200Y021100D01*
X006000Y021100D02*
X005100Y021100D01*
X005100Y023600D02*
X005500Y023600D01*
X008700Y023600D02*
X009100Y023600D01*
X009100Y016600D02*
X008700Y016600D01*
X005500Y016600D02*
X005100Y016600D01*
X012600Y007100D02*
X013000Y007100D01*
X016200Y007100D02*
X016600Y007100D01*
X027600Y002000D02*
X027600Y001600D01*
D19*
X016020Y007100D03*
X013180Y007100D03*
X008520Y016600D03*
X005680Y016600D03*
X006180Y021100D03*
X009020Y021100D03*
X008520Y023600D03*
X005680Y023600D03*
X030180Y023600D03*
X033020Y023600D03*
X033020Y016100D03*
X030180Y016100D03*
D20*
X026600Y016200D02*
X026600Y016600D01*
X024100Y018100D02*
X024100Y018500D01*
X024100Y021700D02*
X024100Y022100D01*
X026600Y013000D02*
X026600Y012600D01*
D21*
X026600Y015150D03*
X024100Y020650D03*
D22*
X024100Y021275D03*
X024100Y018925D03*
X026600Y015775D03*
X026600Y013425D03*
D23*
X020120Y010600D03*
X019080Y010600D03*
X018580Y012100D03*
X019620Y012100D03*
X007620Y006600D03*
X006580Y006600D03*
X006580Y004100D03*
X007620Y004100D03*
D24*
X032226Y010656D03*
X032974Y010656D03*
X032974Y011544D03*
X032600Y011544D03*
X032226Y011544D03*
D25*
X027600Y011020D03*
X027600Y008180D03*
X027600Y005020D03*
X027600Y002180D03*
X019600Y019680D03*
X019600Y022520D03*
D26*
X018095Y018350D03*
X018095Y017850D03*
X018095Y017350D03*
X018095Y016850D03*
X016105Y016850D03*
X016115Y017350D03*
X016105Y017850D03*
X016105Y018350D03*
D27*
X021100Y018620D03*
X021100Y017580D03*
X021100Y016120D03*
X021100Y015080D03*
D28*
X008725Y019336D03*
D29*
X008646Y019390D03*
D30*
X008627Y019253D03*
D31*
X008607Y019272D03*
D32*
X008681Y018864D03*
D33*
X008607Y018883D03*
D34*
X008533Y019100D03*
D35*
X007588Y019100D03*
D36*
X008321Y018829D03*
X008321Y019371D03*
D37*
X008169Y019100D03*
M02*
